<svg width="88" height="72" viewBox="0 0 88 72" fill="none" xmlns="http://www.w3.org/2000/svg">
<path d="M3.02 20V6.23H6.811C7.74033 6.23 8.545 6.332 9.225 6.536C9.905 6.74 10.432 7.10833 10.806 7.641C11.1913 8.16233 11.384 8.90467 11.384 9.868C11.384 10.4347 11.3387 10.939 11.248 11.381C11.1573 11.823 10.9873 12.2083 10.738 12.537C10.5 12.8543 10.1543 13.1207 9.701 13.336L11.588 20H8.443L6.93 13.829H6.063V20H3.02ZM6.063 12.078H6.913C7.34367 12.078 7.678 12.0043 7.916 11.857C8.154 11.6983 8.31833 11.4773 8.409 11.194C8.511 10.8993 8.562 10.548 8.562 10.14C8.562 9.55067 8.45433 9.09167 8.239 8.763C8.02367 8.43433 7.627 8.27 7.049 8.27H6.063V12.078ZM15.8634 20.17C15.1494 20.17 14.5374 20.0453 14.0274 19.796C13.5174 19.5353 13.1264 19.1613 12.8544 18.674C12.5824 18.1753 12.4464 17.5803 12.4464 16.889V13.285C12.4464 12.5823 12.5824 11.9873 12.8544 11.5C13.1264 11.0127 13.5174 10.6443 14.0274 10.395C14.5487 10.1343 15.1607 10.004 15.8634 10.004C16.5887 10.004 17.1894 10.1287 17.6654 10.378C18.1527 10.6273 18.5154 10.9957 18.7534 11.483C19.0027 11.9703 19.1274 12.571 19.1274 13.285V15.257H15.1834V17.144C15.1834 17.3933 15.2117 17.5973 15.2684 17.756C15.325 17.9147 15.4044 18.028 15.5064 18.096C15.6084 18.164 15.7274 18.198 15.8634 18.198C15.9994 18.198 16.1184 18.1697 16.2204 18.113C16.3337 18.045 16.4187 17.943 16.4754 17.807C16.5434 17.671 16.5774 17.484 16.5774 17.246V16.209H19.1274V17.161C19.1274 18.1583 18.8384 18.912 18.2604 19.422C17.6824 19.9207 16.8834 20.17 15.8634 20.17ZM15.1834 13.965H16.5774V12.979C16.5774 12.7183 16.5434 12.5143 16.4754 12.367C16.4187 12.2197 16.3337 12.1177 16.2204 12.061C16.1184 12.0043 15.9937 11.976 15.8464 11.976C15.7104 11.976 15.5914 12.01 15.4894 12.078C15.3987 12.146 15.325 12.265 15.2684 12.435C15.2117 12.5937 15.1834 12.826 15.1834 13.132V13.965ZM23.2687 20.102C22.532 20.102 21.9597 19.9943 21.5517 19.779C21.155 19.5637 20.883 19.252 20.7357 18.844C20.5884 18.4247 20.5147 17.9203 20.5147 17.331V11.993H19.5627V10.174H20.5147V7.182H23.3197V10.174H24.7137V11.993H23.3197V17.059C23.3197 17.3423 23.399 17.5463 23.5577 17.671C23.7277 17.7957 23.9374 17.858 24.1867 17.858C24.334 17.858 24.47 17.8523 24.5947 17.841C24.7194 17.8183 24.8327 17.8013 24.9347 17.79V19.966C24.7874 19.9887 24.555 20.017 24.2377 20.051C23.9204 20.085 23.5974 20.102 23.2687 20.102ZM25.8595 20V10.174H28.6305V11.806C28.9478 11.2393 29.2651 10.8087 29.5825 10.514C29.8998 10.208 30.2851 10.055 30.7385 10.055C30.8291 10.055 30.9085 10.0607 30.9765 10.072C31.0445 10.072 31.1068 10.0833 31.1635 10.106V12.86C31.0388 12.8033 30.8971 12.758 30.7385 12.724C30.5911 12.6787 30.4325 12.656 30.2625 12.656C29.9451 12.656 29.6505 12.741 29.3785 12.911C29.1065 13.081 28.8571 13.3133 28.6305 13.608V20H25.8595ZM35.1363 20.17C34.4223 20.17 33.8103 20.0453 33.3003 19.796C32.7903 19.5353 32.3993 19.1613 32.1273 18.674C31.8553 18.1753 31.7193 17.5803 31.7193 16.889V13.285C31.7193 12.5823 31.8553 11.9873 32.1273 11.5C32.3993 11.0127 32.7903 10.6443 33.3003 10.395C33.8216 10.1343 34.4336 10.004 35.1363 10.004C35.8616 10.004 36.4623 10.1287 36.9383 10.378C37.4256 10.6273 37.7883 10.9957 38.0263 11.483C38.2756 11.9703 38.4003 12.571 38.4003 13.285V15.257H34.4563V17.144C34.4563 17.3933 34.4846 17.5973 34.5413 17.756C34.598 17.9147 34.6773 18.028 34.7793 18.096C34.8813 18.164 35.0003 18.198 35.1363 18.198C35.2723 18.198 35.3913 18.1697 35.4933 18.113C35.6066 18.045 35.6916 17.943 35.7483 17.807C35.8163 17.671 35.8503 17.484 35.8503 17.246V16.209H38.4003V17.161C38.4003 18.1583 38.1113 18.912 37.5333 19.422C36.9553 19.9207 36.1563 20.17 35.1363 20.17ZM34.4563 13.965H35.8503V12.979C35.8503 12.7183 35.8163 12.5143 35.7483 12.367C35.6916 12.2197 35.6066 12.1177 35.4933 12.061C35.3913 12.0043 35.2666 11.976 35.1193 11.976C34.9833 11.976 34.8643 12.01 34.7623 12.078C34.6716 12.146 34.598 12.265 34.5413 12.435C34.4846 12.5937 34.4563 12.826 34.4563 13.132V13.965ZM41.5216 20.17C41.023 20.17 40.6036 20.051 40.2636 19.813C39.9236 19.575 39.6686 19.2747 39.4986 18.912C39.3286 18.538 39.2436 18.1583 39.2436 17.773C39.2436 17.161 39.3626 16.6453 39.6006 16.226C39.85 15.8067 40.173 15.4553 40.5696 15.172C40.9663 14.8887 41.4026 14.6507 41.8786 14.458C42.3546 14.254 42.825 14.0727 43.2896 13.914V12.928C43.2896 12.758 43.2726 12.6107 43.2386 12.486C43.2046 12.35 43.148 12.248 43.0686 12.18C42.9893 12.1007 42.8703 12.061 42.7116 12.061C42.553 12.061 42.4283 12.095 42.3376 12.163C42.2583 12.231 42.2016 12.3273 42.1676 12.452C42.1336 12.5653 42.111 12.6957 42.0996 12.843L42.0316 13.557L39.4476 13.455C39.5043 12.2763 39.816 11.4093 40.3826 10.854C40.9606 10.2873 41.822 10.004 42.9666 10.004C43.964 10.004 44.7063 10.2817 45.1936 10.837C45.6923 11.381 45.9416 12.0893 45.9416 12.962V17.552C45.9416 17.96 45.9473 18.317 45.9586 18.623C45.9813 18.929 46.004 19.1953 46.0266 19.422C46.0606 19.6487 46.089 19.8413 46.1116 20H43.6296C43.5956 19.7393 43.556 19.456 43.5106 19.15C43.4653 18.844 43.4313 18.6627 43.4086 18.606C43.2953 19.014 43.08 19.3767 42.7626 19.694C42.4566 20.0113 42.043 20.17 41.5216 20.17ZM42.5076 18.3C42.621 18.3 42.723 18.2773 42.8136 18.232C42.9156 18.1867 43.0063 18.1243 43.0856 18.045C43.165 17.9657 43.233 17.8863 43.2896 17.807V15.121C43.063 15.257 42.8533 15.3987 42.6606 15.546C42.468 15.682 42.3036 15.835 42.1676 16.005C42.0316 16.175 41.924 16.362 41.8446 16.566C41.7766 16.7587 41.7426 16.9797 41.7426 17.229C41.7426 17.5577 41.8106 17.8183 41.9466 18.011C42.0826 18.2037 42.2696 18.3 42.5076 18.3ZM50.1834 20.102C49.4467 20.102 48.8744 19.9943 48.4664 19.779C48.0697 19.5637 47.7977 19.252 47.6504 18.844C47.5031 18.4247 47.4294 17.9203 47.4294 17.331V11.993H46.4774V10.174H47.4294V7.182H50.2344V10.174H51.6284V11.993H50.2344V17.059C50.2344 17.3423 50.3137 17.5463 50.4724 17.671C50.6424 17.7957 50.8521 17.858 51.1014 17.858C51.2487 17.858 51.3847 17.8523 51.5094 17.841C51.6341 17.8183 51.7474 17.8013 51.8494 17.79V19.966C51.7021 19.9887 51.4697 20.017 51.1524 20.051C50.8351 20.085 50.5121 20.102 50.1834 20.102ZM60.7768 20.204C59.7341 20.204 58.9068 20.017 58.2948 19.643C57.6941 19.2577 57.2691 18.725 57.0198 18.045C56.7704 17.3537 56.6458 16.5433 56.6458 15.614V10.65C56.6458 9.698 56.7704 8.882 57.0198 8.202C57.2691 7.51067 57.6941 6.978 58.2948 6.604C58.9068 6.23 59.7341 6.043 60.7768 6.043C61.7968 6.043 62.5901 6.213 63.1568 6.553C63.7348 6.88167 64.1428 7.34633 64.3808 7.947C64.6188 8.54767 64.7378 9.239 64.7378 10.021V11.211H61.7628V9.834C61.7628 9.562 61.7458 9.30133 61.7118 9.052C61.6891 8.80267 61.6098 8.59867 61.4738 8.44C61.3378 8.27 61.1054 8.185 60.7768 8.185C60.4594 8.185 60.2214 8.27 60.0628 8.44C59.9154 8.61 59.8191 8.82533 59.7738 9.086C59.7398 9.33533 59.7228 9.60167 59.7228 9.885V16.362C59.7228 16.668 59.7454 16.9513 59.7908 17.212C59.8474 17.4613 59.9494 17.6653 60.0968 17.824C60.2554 17.9713 60.4821 18.045 60.7768 18.045C61.0941 18.045 61.3208 17.9657 61.4568 17.807C61.5928 17.637 61.6778 17.4217 61.7118 17.161C61.7458 16.9003 61.7628 16.634 61.7628 16.362V14.917H64.7378V16.107C64.7378 16.889 64.6188 17.5917 64.3808 18.215C64.1541 18.827 63.7518 19.3143 63.1738 19.677C62.6071 20.0283 61.8081 20.204 60.7768 20.204ZM69.0789 20.17C68.3762 20.17 67.7642 20.051 67.2429 19.813C66.7329 19.575 66.3362 19.218 66.0529 18.742C65.7809 18.266 65.6449 17.671 65.6449 16.957V13.217C65.6449 12.503 65.7809 11.908 66.0529 11.432C66.3362 10.956 66.7329 10.599 67.2429 10.361C67.7642 10.123 68.3762 10.004 69.0789 10.004C69.7815 10.004 70.3879 10.123 70.8979 10.361C71.4192 10.599 71.8215 10.956 72.1049 11.432C72.3882 11.908 72.5299 12.503 72.5299 13.217V16.957C72.5299 17.671 72.3882 18.266 72.1049 18.742C71.8215 19.218 71.4192 19.575 70.8979 19.813C70.3879 20.051 69.7815 20.17 69.0789 20.17ZM69.0959 18.334C69.2772 18.334 69.4189 18.2887 69.5209 18.198C69.6229 18.096 69.6909 17.96 69.7249 17.79C69.7702 17.6087 69.7929 17.3933 69.7929 17.144V13.03C69.7929 12.7807 69.7702 12.571 69.7249 12.401C69.6909 12.2197 69.6229 12.0837 69.5209 11.993C69.4189 11.891 69.2772 11.84 69.0959 11.84C68.9145 11.84 68.7729 11.891 68.6709 11.993C68.5689 12.0837 68.4952 12.2197 68.4499 12.401C68.4045 12.571 68.3819 12.7807 68.3819 13.03V17.144C68.3819 17.3933 68.4045 17.6087 68.4499 17.79C68.4952 17.96 68.5689 18.096 68.6709 18.198C68.7729 18.2887 68.9145 18.334 69.0959 18.334ZM76.6827 20.17C75.8213 20.17 75.1017 19.9773 74.5237 19.592C73.957 19.2067 73.4923 18.5777 73.1296 17.705L75.0167 16.872C75.198 17.314 75.4077 17.6653 75.6457 17.926C75.895 18.1753 76.167 18.3 76.4617 18.3C76.677 18.3 76.8357 18.2547 76.9377 18.164C77.051 18.0733 77.1077 17.9487 77.1077 17.79C77.1077 17.5293 77.0057 17.2913 76.8017 17.076C76.609 16.8607 76.2577 16.5433 75.7477 16.124L75.0336 15.529C74.5123 15.087 74.0987 14.662 73.7927 14.254C73.498 13.8347 73.3506 13.319 73.3506 12.707C73.3506 12.1743 73.4866 11.704 73.7587 11.296C74.042 10.888 74.416 10.5707 74.8807 10.344C75.3453 10.1173 75.844 10.004 76.3767 10.004C77.1813 10.004 77.8557 10.225 78.3997 10.667C78.9437 11.109 79.3233 11.7323 79.5387 12.537L77.7537 13.353C77.6857 13.1377 77.5893 12.9223 77.4647 12.707C77.34 12.4917 77.187 12.3103 77.0057 12.163C76.8357 12.0157 76.6487 11.942 76.4447 11.942C76.2633 11.942 76.116 11.993 76.0027 12.095C75.9007 12.197 75.8497 12.333 75.8497 12.503C75.8497 12.7183 75.9687 12.9507 76.2067 13.2C76.456 13.4493 76.796 13.7497 77.2267 14.101L77.9237 14.713C78.207 14.951 78.4847 15.206 78.7567 15.478C79.0287 15.75 79.2497 16.0503 79.4197 16.379C79.601 16.7077 79.6917 17.0817 79.6917 17.501C79.6917 18.0677 79.55 18.555 79.2667 18.963C78.9833 19.3597 78.6093 19.66 78.1447 19.864C77.6913 20.068 77.204 20.17 76.6827 20.17ZM83.4947 20.102C82.7581 20.102 82.1857 19.9943 81.7777 19.779C81.3811 19.5637 81.1091 19.252 80.9617 18.844C80.8144 18.4247 80.7407 17.9203 80.7407 17.331V11.993H79.7887V10.174H80.7407V7.182H83.5457V10.174H84.9397V11.993H83.5457V17.059C83.5457 17.3423 83.6251 17.5463 83.7837 17.671C83.9537 17.7957 84.1634 17.858 84.4127 17.858C84.5601 17.858 84.6961 17.8523 84.8207 17.841C84.9454 17.8183 85.0587 17.8013 85.1607 17.79V19.966C85.0134 19.9887 84.7811 20.017 84.4637 20.051C84.1464 20.085 83.8234 20.102 83.4947 20.102Z" fill="black"/>
<rect y="32" width="40" height="40" rx="20" fill="white"/>
<path fill-rule="evenodd" clip-rule="evenodd" d="M19.9931 41.002C20.3738 41.002 20.7214 41.2181 20.8898 41.5594L23.7431 47.3408L30.1225 48.2653C30.4994 48.32 30.8126 48.5839 30.9302 48.9461C31.0478 49.3084 30.9495 49.7059 30.6766 49.9716L26.0537 54.4715L27.1437 60.8259C27.2081 61.2013 27.0537 61.5806 26.7455 61.8043C26.4373 62.028 26.0288 62.0572 25.6919 61.8797L19.9996 58.8801L14.2935 61.8801C13.9565 62.0573 13.5483 62.0278 13.2403 61.804C12.9324 61.5803 12.7781 61.2011 12.8425 60.8259L13.9325 54.4715L9.3096 49.9716C9.0367 49.7059 8.93838 49.3084 9.056 48.9461C9.17363 48.5839 9.48678 48.32 9.86368 48.2653L16.2431 47.3408L19.0964 41.5594C19.2648 41.2181 19.6125 41.002 19.9931 41.002Z" fill="black"/>
<rect x="48" y="32" width="40" height="40" rx="20" fill="white"/>
<path fill-rule="evenodd" clip-rule="evenodd" d="M67.9931 41.002C68.3738 41.002 68.7214 41.2181 68.8898 41.5594L71.7431 47.3408L78.1225 48.2653C78.4994 48.32 78.8126 48.5839 78.9302 48.9461C79.0478 49.3084 78.9495 49.7059 78.6766 49.9716L74.0537 54.4715L75.1437 60.8259C75.2081 61.2013 75.0537 61.5806 74.7455 61.8043C74.4373 62.028 74.0288 62.0572 73.6919 61.8797L67.9996 58.8801L62.2935 61.8801C61.9565 62.0573 61.5483 62.0278 61.2403 61.804C60.9324 61.5803 60.7781 61.2011 60.8425 60.8259L61.9325 54.4715L57.3096 49.9716C57.0367 49.7059 56.9384 49.3084 57.056 48.9461C57.1736 48.5839 57.4868 48.32 57.8637 48.2653L64.2431 47.3408L67.0964 41.5594C67.2648 41.2181 67.6125 41.002 67.9931 41.002Z" fill="black"/>
</svg>
