<svg width="135" height="40" viewBox="0 0 135 40" fill="none" xmlns="http://www.w3.org/2000/svg">
<path d="M8.95058 35.442C7.09192 35.442 5.60725 35.0793 4.49658 34.354C3.38592 33.606 2.59258 32.586 2.11658 31.294C1.64058 29.9793 1.40258 28.4833 1.40258 26.806C1.42525 26.126 1.49325 25.4687 1.60658 24.834C1.74258 24.1767 1.93525 23.576 2.18458 23.032C2.45658 22.4653 2.78525 21.978 3.17058 21.57C3.57858 21.1393 4.05458 20.788 4.59858 20.516C3.89592 19.9947 3.27258 19.2467 2.72858 18.272C2.18458 17.2747 1.88992 16.0167 1.84458 14.498C1.82192 12.9567 2.07125 11.6307 2.59258 10.52C3.13658 9.40933 3.94125 8.55933 5.00658 7.97C6.07192 7.38067 7.38658 7.086 8.95058 7.086C10.5373 7.086 11.8519 7.392 12.8946 8.004C13.9599 8.59333 14.7533 9.44333 15.2746 10.554C15.7959 11.642 16.0339 12.9567 15.9886 14.498C15.9659 16.0393 15.6939 17.3087 15.1726 18.306C14.6513 19.2807 14.0279 20.0173 13.3026 20.516C13.8466 20.788 14.3113 21.1393 14.6966 21.57C15.1046 21.978 15.4333 22.4653 15.6826 23.032C15.9546 23.576 16.1586 24.1767 16.2946 24.834C16.4306 25.4687 16.4986 26.126 16.4986 26.806C16.5439 28.4833 16.3173 29.9793 15.8186 31.294C15.3426 32.586 14.5493 33.606 13.4386 34.354C12.3279 35.0793 10.8319 35.442 8.95058 35.442ZM8.95058 31.26C9.56258 31.26 10.0046 31.0333 10.2766 30.58C10.5486 30.1267 10.7186 29.594 10.7866 28.982C10.8546 28.3473 10.8886 27.7693 10.8886 27.248C10.9113 26.5453 10.8773 25.8653 10.7866 25.208C10.7186 24.5507 10.5486 24.018 10.2766 23.61C10.0046 23.1793 9.56258 22.964 8.95058 22.964C8.36125 22.964 7.93058 23.1793 7.65858 23.61C7.38658 24.018 7.20525 24.5507 7.11458 25.208C7.04658 25.8427 7.01258 26.5227 7.01258 27.248C7.01258 27.7693 7.04658 28.3473 7.11458 28.982C7.18258 29.6167 7.35258 30.1607 7.62458 30.614C7.91925 31.0447 8.36125 31.26 8.95058 31.26ZM8.95058 18.476C9.33592 18.476 9.65325 18.3287 9.90258 18.034C10.1519 17.7167 10.3333 17.252 10.4466 16.64C10.5826 16.028 10.6506 15.2687 10.6506 14.362C10.6506 13.4327 10.5033 12.696 10.2086 12.152C9.93659 11.608 9.51725 11.336 8.95058 11.336C8.38392 11.336 7.94192 11.608 7.62458 12.152C7.32992 12.696 7.18258 13.4213 7.18258 14.328C7.18258 15.2347 7.23925 16.0053 7.35258 16.64C7.48858 17.252 7.69258 17.7167 7.96458 18.034C8.23658 18.3287 8.56525 18.476 8.95058 18.476ZM27.5611 35.51C25.9064 35.51 24.5237 35.1813 23.4131 34.524C22.3024 33.844 21.4637 32.9147 20.8971 31.736C20.3304 30.5573 20.0471 29.186 20.0471 27.622V15.144C20.0471 13.5347 20.3077 12.1293 20.8291 10.928C21.3731 9.704 22.2004 8.752 23.3111 8.072C24.4217 7.392 25.8384 7.052 27.5611 7.052C29.2837 7.052 30.6891 7.392 31.7771 8.072C32.8877 8.752 33.7037 9.704 34.2251 10.928C34.7691 12.1293 35.0411 13.5347 35.0411 15.144V27.622C35.0411 29.1633 34.7577 30.5347 34.1911 31.736C33.6244 32.9147 32.7857 33.844 31.6751 34.524C30.5644 35.1813 29.1931 35.51 27.5611 35.51ZM27.5611 30.444C28.1051 30.444 28.4904 30.274 28.7171 29.934C28.9664 29.5713 29.1137 29.1633 29.1591 28.71C29.2271 28.234 29.2611 27.826 29.2611 27.486V15.28C29.2611 14.8947 29.2384 14.464 29.1931 13.988C29.1477 13.4893 29.0004 13.0587 28.7511 12.696C28.5244 12.3107 28.1277 12.118 27.5611 12.118C26.9944 12.118 26.5864 12.3107 26.3371 12.696C26.1104 13.0587 25.9744 13.4893 25.9291 13.988C25.8837 14.464 25.8611 14.8947 25.8611 15.28V27.486C25.8611 27.826 25.8951 28.234 25.9631 28.71C26.0311 29.1633 26.1784 29.5713 26.4051 29.934C26.6544 30.274 27.0397 30.444 27.5611 30.444ZM48.4856 35V7.46H54.5716V18.612H58.8216V7.46H64.9416V35H58.8216V22.964H54.5716V35H48.4856ZM69.5056 35V7.46H78.7536C80.4083 7.46 81.7683 7.77733 82.8336 8.412C83.8989 9.024 84.6923 9.93067 85.2136 11.132C85.7349 12.3107 85.9956 13.75 85.9956 15.45C85.9956 17.5807 85.6443 19.2127 84.9416 20.346C84.2389 21.4567 83.2869 22.2273 82.0856 22.658C80.8843 23.0887 79.5356 23.304 78.0396 23.304H75.5916V35H69.5056ZM75.5916 19.054H77.6316C78.3796 19.054 78.9463 18.918 79.3316 18.646C79.7169 18.374 79.9663 17.966 80.0796 17.422C80.2156 16.878 80.2836 16.1867 80.2836 15.348C80.2836 14.6453 80.2269 14.0333 80.1136 13.512C80.0229 12.968 79.7849 12.5373 79.3996 12.22C79.0143 11.9027 78.4136 11.744 77.5976 11.744H75.5916V19.054Z" fill="#333333"/>
<rect x="95" width="40" height="40" rx="20" fill="#F2F2F2"/>
<path fill-rule="evenodd" clip-rule="evenodd" d="M114.993 9.00201C115.374 9.00201 115.721 9.21811 115.89 9.55945L118.743 15.3408L125.123 16.2654C125.499 16.32 125.813 16.5839 125.93 16.9462C126.048 17.3084 125.95 17.706 125.677 17.9716L121.054 22.4716L122.144 28.8259C122.208 29.2013 122.054 29.5806 121.746 29.8043C121.437 30.028 121.029 30.0572 120.692 29.8797L115 26.8801L109.293 29.8801C108.957 30.0573 108.548 30.0278 108.24 29.804C107.932 29.5803 107.778 29.2011 107.843 28.8259L108.933 22.4716L104.31 17.9716C104.037 17.706 103.938 17.3084 104.056 16.9462C104.174 16.5839 104.487 16.32 104.864 16.2654L111.243 15.3408L114.096 9.55945C114.265 9.21811 114.612 9.00201 114.993 9.00201Z" fill="black"/>
</svg>
