<svg width="381" height="272" viewBox="0 0 381 272" fill="none" xmlns="http://www.w3.org/2000/svg">
<g clip-path="url(#clip0_3_4948)">
<rect width="381" height="272" rx="3.17728" fill="white"/>
<path d="M0 0H381V64.4182H0V0Z" fill="white"/>
<path d="M168.681 35.7818C168.681 36.9071 168.42 37.8545 167.899 38.624C167.378 39.3935 166.666 39.9768 165.764 40.374C164.87 40.7629 163.861 40.9573 162.736 40.9573C161.61 40.9573 160.597 40.7629 159.695 40.374C158.793 39.9768 158.082 39.3935 157.56 38.624C157.039 37.8545 156.778 36.9071 156.778 35.7818C156.778 35.0372 156.923 34.3628 157.213 33.7588C157.502 33.1465 157.912 32.6211 158.441 32.1826C158.979 31.7358 159.608 31.3924 160.328 31.1524C161.056 30.9125 161.85 30.7925 162.711 30.7925C163.853 30.7925 164.875 31.0035 165.777 31.4255C166.678 31.8475 167.386 32.4308 167.899 33.1755C168.42 33.9202 168.681 34.7889 168.681 35.7818ZM165.677 35.6329C165.677 35.0289 165.553 34.4993 165.305 34.0443C165.057 33.5892 164.709 33.2375 164.262 32.9893C163.816 32.7411 163.298 32.617 162.711 32.617C162.115 32.617 161.598 32.7411 161.16 32.9893C160.721 33.2375 160.378 33.5892 160.129 34.0443C159.889 34.4993 159.769 35.0289 159.769 35.6329C159.769 36.2452 159.889 36.7747 160.129 37.2215C160.369 37.6601 160.713 37.9952 161.16 38.2269C161.606 38.4585 162.132 38.5744 162.736 38.5744C163.34 38.5744 163.861 38.4585 164.3 38.2269C164.738 37.9952 165.077 37.6601 165.317 37.2215C165.557 36.7747 165.677 36.2452 165.677 35.6329ZM168.271 27.3918C168.271 28.2937 168.031 29.0963 167.551 29.7996C167.08 30.5029 166.426 31.0573 165.59 31.4627C164.755 31.8599 163.803 32.0585 162.736 32.0585C161.66 32.0585 160.7 31.8599 159.856 31.4627C159.021 31.0573 158.363 30.5029 157.883 29.7996C157.411 29.0963 157.176 28.2937 157.176 27.3918C157.176 26.3162 157.411 25.4102 157.883 24.6738C158.363 23.9291 159.021 23.3623 159.856 22.9734C160.692 22.5845 161.648 22.3901 162.723 22.3901C163.799 22.3901 164.755 22.5845 165.59 22.9734C166.426 23.3623 167.08 23.9291 167.551 24.6738C168.031 25.4102 168.271 26.3162 168.271 27.3918ZM165.28 27.4911C165.28 26.9533 165.172 26.4817 164.957 26.0762C164.751 25.6625 164.457 25.3398 164.076 25.1082C163.696 24.8765 163.245 24.7607 162.723 24.7607C162.202 24.7607 161.751 24.8724 161.371 25.0958C160.99 25.3192 160.696 25.6336 160.489 26.039C160.282 26.4444 160.179 26.9285 160.179 27.4911C160.179 28.0455 160.282 28.5295 160.489 28.9432C160.696 29.3487 160.99 29.6672 161.371 29.8989C161.759 30.1306 162.214 30.2464 162.736 30.2464C163.257 30.2464 163.708 30.1306 164.089 29.8989C164.469 29.6672 164.763 29.3487 164.97 28.9432C165.177 28.5295 165.28 28.0455 165.28 27.4911ZM183.09 30.1595V33.1134C183.09 34.5283 182.95 35.7363 182.668 36.7375C182.395 37.7304 181.998 38.5371 181.477 39.1577C180.955 39.7783 180.331 40.2333 179.603 40.5229C178.883 40.8125 178.076 40.9573 177.182 40.9573C176.471 40.9573 175.809 40.8663 175.197 40.6843C174.593 40.5023 174.047 40.2168 173.558 39.8279C173.07 39.439 172.652 38.9384 172.305 38.3261C171.966 37.7056 171.701 36.965 171.511 36.1045C171.328 35.244 171.237 34.247 171.237 33.1134V30.1595C171.237 28.7364 171.378 27.5366 171.659 26.5603C171.941 25.5757 172.342 24.7772 172.863 24.1649C173.385 23.5444 174.005 23.0934 174.725 22.8121C175.453 22.5308 176.264 22.3901 177.158 22.3901C177.877 22.3901 178.539 22.4811 179.143 22.6632C179.756 22.8369 180.302 23.1141 180.782 23.4947C181.27 23.8753 181.684 24.3718 182.023 24.9841C182.37 25.5881 182.635 26.3203 182.817 27.1808C182.999 28.0331 183.09 29.026 183.09 30.1595ZM180.099 33.5354V29.7127C180.099 28.9929 180.058 28.3599 179.975 27.8138C179.892 27.2595 179.768 26.792 179.603 26.4113C179.445 26.0225 179.247 25.708 179.007 25.4681C178.767 25.2199 178.494 25.042 178.188 24.9344C177.882 24.8186 177.538 24.7607 177.158 24.7607C176.694 24.7607 176.281 24.8517 175.917 25.0337C175.552 25.2075 175.246 25.4888 174.998 25.8777C174.75 26.2666 174.56 26.7795 174.427 27.4167C174.303 28.0455 174.241 28.8109 174.241 29.7127V33.5354C174.241 34.2635 174.282 34.9048 174.365 35.4591C174.448 36.0135 174.572 36.4893 174.737 36.8864C174.903 37.2753 175.101 37.598 175.333 37.8545C175.573 38.1027 175.846 38.2848 176.152 38.4006C176.467 38.5165 176.81 38.5744 177.182 38.5744C177.654 38.5744 178.072 38.4834 178.436 38.3013C178.8 38.1193 179.106 37.8297 179.354 37.4325C179.603 37.0271 179.789 36.5017 179.913 35.8563C180.037 35.2109 180.099 34.4373 180.099 33.5354ZM204.5 30.1844V32.6542H194.906V30.1844H204.5ZM195.675 22.6383V40.7091H192.56V22.6383H195.675ZM206.895 22.6383V40.7091H203.792V22.6383H206.895ZM217.469 33.9698H212.765V31.5H217.469C218.289 31.5 218.95 31.3676 219.455 31.1028C219.96 30.838 220.328 30.474 220.56 30.0106C220.8 29.539 220.92 29.0012 220.92 28.3971C220.92 27.8262 220.8 27.2925 220.56 26.7961C220.328 26.2914 219.96 25.8859 219.455 25.5798C218.95 25.2737 218.289 25.1206 217.469 25.1206H213.721V40.7091H210.606V22.6383H217.469C218.868 22.6383 220.055 22.8866 221.031 23.383C222.016 23.8712 222.765 24.5497 223.278 25.4184C223.791 26.279 224.047 27.2636 224.047 28.3723C224.047 29.539 223.791 30.5402 223.278 31.3758C222.765 32.2115 222.016 32.8528 221.031 33.2996C220.055 33.7464 218.868 33.9698 217.469 33.9698Z" fill="black" fill-opacity="0.85"/>
<path d="M0 0V-1C-0.552285 -1 -1 -0.552285 -1 0L0 0ZM381 0H382C382 -0.552285 381.552 -1 381 -1V0ZM381 64.4182V65.4182C381.552 65.4182 382 64.9705 382 64.4182H381ZM0 64.4182H-1C-1 64.9705 -0.552285 65.4182 0 65.4182L0 64.4182ZM0 1H381V-1H0V1ZM380 0V64.4182H382V0H380ZM381 63.4182H0V65.4182H381V63.4182ZM1 64.4182V0H-1V64.4182H1Z" fill="black"/>
<path d="M39.3188 107.535V109.484H29.5387V107.535H39.3188ZM29.9111 99.7657V117.836H27.5157V99.7657H29.9111ZM41.4039 99.7657V117.836H39.0209V99.7657H41.4039ZM50.8861 118.085C49.9511 118.085 49.103 117.928 48.3418 117.613C47.5888 117.29 46.9393 116.839 46.3932 116.26C45.8554 115.681 45.4417 114.994 45.1521 114.2C44.8625 113.406 44.7177 112.537 44.7177 111.594V111.072C44.7177 109.98 44.879 109.008 45.2017 108.156C45.5244 107.295 45.963 106.567 46.5173 105.971C47.0717 105.376 47.7005 104.925 48.4038 104.619C49.1071 104.312 49.8353 104.159 50.5882 104.159C51.548 104.159 52.3754 104.325 53.0705 104.656C53.7738 104.987 54.3488 105.45 54.7956 106.046C55.2424 106.633 55.5734 107.328 55.7885 108.131C56.0037 108.925 56.1112 109.794 56.1112 110.737V111.767H46.0829V109.893H53.8151V109.72C53.7821 109.124 53.6579 108.545 53.4428 107.982C53.236 107.419 52.905 106.956 52.4499 106.592C51.9948 106.228 51.3743 106.046 50.5882 106.046C50.067 106.046 49.587 106.158 49.1485 106.381C48.71 106.596 48.3335 106.919 48.0191 107.349C47.7047 107.779 47.4606 108.305 47.2868 108.925C47.1131 109.546 47.0262 110.261 47.0262 111.072V111.594C47.0262 112.231 47.1131 112.831 47.2868 113.393C47.4689 113.948 47.7295 114.436 48.0687 114.858C48.4163 115.28 48.8341 115.611 49.3223 115.851C49.8187 116.091 50.3814 116.211 51.0102 116.211C51.8211 116.211 52.5078 116.045 53.0705 115.714C53.6331 115.383 54.1254 114.941 54.5474 114.386L55.9375 115.491C55.6479 115.929 55.2797 116.347 54.8329 116.744C54.3861 117.141 53.8358 117.464 53.1822 117.712C52.5368 117.961 51.7714 118.085 50.8861 118.085ZM66.7104 115.54V108.627C66.7104 108.098 66.6029 107.639 66.3877 107.25C66.1809 106.853 65.8665 106.546 65.4445 106.331C65.0225 106.116 64.5012 106.009 63.8807 106.009C63.3015 106.009 62.7926 106.108 62.3541 106.306C61.9238 106.505 61.5846 106.766 61.3364 107.088C61.0964 107.411 60.9764 107.759 60.9764 108.131H58.6804C58.6804 107.651 58.8045 107.175 59.0527 106.704C59.3009 106.232 59.6567 105.806 60.1201 105.425C60.5917 105.036 61.1543 104.73 61.808 104.507C62.4699 104.275 63.2063 104.159 64.0172 104.159C64.9935 104.159 65.8541 104.325 66.5987 104.656C67.3517 104.987 67.9391 105.487 68.3611 106.158C68.7914 106.819 69.0065 107.651 69.0065 108.652V114.907C69.0065 115.354 69.0437 115.83 69.1182 116.335C69.201 116.839 69.3209 117.274 69.4781 117.638V117.836H67.0828C66.9669 117.572 66.8759 117.22 66.8097 116.782C66.7435 116.335 66.7104 115.921 66.7104 115.54ZM67.1076 109.695L67.1324 111.308H64.8115C64.1579 111.308 63.5745 111.362 63.0615 111.47C62.5485 111.569 62.1183 111.722 61.7708 111.929C61.4232 112.136 61.1585 112.396 60.9764 112.711C60.7944 113.017 60.7034 113.377 60.7034 113.79C60.7034 114.212 60.7985 114.597 60.9888 114.945C61.1792 115.292 61.4646 115.569 61.8452 115.776C62.2341 115.975 62.7099 116.074 63.2725 116.074C63.9758 116.074 64.5964 115.925 65.1342 115.627C65.672 115.329 66.0981 114.965 66.4126 114.535C66.7353 114.105 66.909 113.687 66.9338 113.282L67.9143 114.386C67.8564 114.734 67.6992 115.118 67.4427 115.54C67.1862 115.962 66.8428 116.368 66.4126 116.757C65.9906 117.137 65.4859 117.456 64.8984 117.712C64.3192 117.961 63.6655 118.085 62.9374 118.085C62.0273 118.085 61.2288 117.907 60.542 117.551C59.8636 117.195 59.334 116.719 58.9534 116.124C58.5811 115.52 58.3949 114.845 58.3949 114.101C58.3949 113.381 58.5356 112.748 58.8169 112.202C59.0982 111.647 59.5036 111.188 60.0332 110.824C60.5627 110.452 61.1998 110.17 61.9445 109.98C62.6892 109.79 63.5207 109.695 64.4392 109.695H67.1076ZM75.1128 98.7728V117.836H72.8044V98.7728H75.1128ZM84.4213 104.408V106.17H77.1607V104.408H84.4213ZM79.6181 101.143H81.9142V114.51C81.9142 114.965 81.9845 115.309 82.1252 115.54C82.2659 115.772 82.4479 115.925 82.6713 116C82.8947 116.074 83.1347 116.111 83.3912 116.111C83.5815 116.111 83.78 116.095 83.9869 116.062C84.202 116.02 84.3634 115.987 84.4709 115.962L84.4833 117.836C84.3013 117.894 84.0614 117.948 83.7635 117.998C83.4739 118.056 83.1222 118.085 82.7085 118.085C82.1459 118.085 81.6288 117.973 81.1571 117.75C80.6855 117.526 80.309 117.154 80.0277 116.633C79.7547 116.103 79.6181 115.391 79.6181 114.498V101.143ZM89.4106 98.7728V117.836H87.1145V98.7728H89.4106ZM88.8645 110.613L87.9088 110.576C87.9171 109.657 88.0536 108.809 88.3184 108.032C88.5832 107.246 88.9555 106.563 89.4354 105.984C89.9153 105.405 90.4862 104.958 91.1482 104.643C91.8184 104.321 92.5589 104.159 93.3698 104.159C94.0317 104.159 94.6275 104.25 95.157 104.432C95.6866 104.606 96.1375 104.887 96.5098 105.276C96.8905 105.665 97.18 106.17 97.3786 106.79C97.5772 107.403 97.6765 108.152 97.6765 109.037V117.836H95.368V109.012C95.368 108.309 95.2646 107.746 95.0577 107.324C94.8509 106.894 94.5489 106.584 94.1517 106.393C93.7545 106.195 93.2664 106.095 92.6872 106.095C92.1163 106.095 91.595 106.215 91.1234 106.455C90.66 106.695 90.2587 107.026 89.9195 107.448C89.5885 107.87 89.3279 108.354 89.1376 108.9C88.9555 109.438 88.8645 110.009 88.8645 110.613ZM114.432 110.75H109.604V108.801H114.432C115.367 108.801 116.124 108.652 116.703 108.354C117.282 108.056 117.704 107.643 117.969 107.113C118.242 106.584 118.378 105.98 118.378 105.301C118.378 104.681 118.242 104.097 117.969 103.551C117.704 103.005 117.282 102.567 116.703 102.236C116.124 101.896 115.367 101.727 114.432 101.727H110.162V117.836H107.767V99.7657H114.432C115.797 99.7657 116.951 100.002 117.894 100.473C118.838 100.945 119.553 101.598 120.042 102.434C120.53 103.262 120.774 104.209 120.774 105.276C120.774 106.435 120.53 107.423 120.042 108.243C119.553 109.062 118.838 109.686 117.894 110.117C116.951 110.539 115.797 110.75 114.432 110.75ZM122.673 111.271V110.985C122.673 110.017 122.813 109.12 123.095 108.292C123.376 107.457 123.781 106.733 124.311 106.12C124.841 105.5 125.482 105.02 126.235 104.681C126.988 104.333 127.832 104.159 128.767 104.159C129.71 104.159 130.558 104.333 131.311 104.681C132.072 105.02 132.718 105.5 133.247 106.12C133.785 106.733 134.195 107.457 134.476 108.292C134.757 109.12 134.898 110.017 134.898 110.985V111.271C134.898 112.239 134.757 113.137 134.476 113.964C134.195 114.792 133.785 115.516 133.247 116.136C132.718 116.748 132.076 117.228 131.323 117.576C130.579 117.915 129.735 118.085 128.791 118.085C127.848 118.085 127 117.915 126.247 117.576C125.494 117.228 124.849 116.748 124.311 116.136C123.781 115.516 123.376 114.792 123.095 113.964C122.813 113.137 122.673 112.239 122.673 111.271ZM124.969 110.985V111.271C124.969 111.941 125.047 112.574 125.205 113.17C125.362 113.757 125.598 114.279 125.912 114.734C126.235 115.189 126.636 115.549 127.116 115.813C127.596 116.07 128.154 116.198 128.791 116.198C129.42 116.198 129.971 116.07 130.442 115.813C130.922 115.549 131.319 115.189 131.634 114.734C131.948 114.279 132.184 113.757 132.341 113.17C132.507 112.574 132.589 111.941 132.589 111.271V110.985C132.589 110.324 132.507 109.699 132.341 109.111C132.184 108.516 131.944 107.99 131.621 107.535C131.307 107.072 130.91 106.708 130.43 106.443C129.958 106.178 129.404 106.046 128.767 106.046C128.138 106.046 127.583 106.178 127.104 106.443C126.632 106.708 126.235 107.072 125.912 107.535C125.598 107.99 125.362 108.516 125.205 109.111C125.047 109.699 124.969 110.324 124.969 110.985ZM140.272 104.408V117.836H137.963V104.408H140.272ZM137.79 100.845C137.79 100.473 137.901 100.159 138.125 99.9022C138.356 99.6457 138.696 99.5175 139.142 99.5175C139.581 99.5175 139.916 99.6457 140.148 99.9022C140.388 100.159 140.508 100.473 140.508 100.845C140.508 101.201 140.388 101.507 140.148 101.764C139.916 102.012 139.581 102.136 139.142 102.136C138.696 102.136 138.356 102.012 138.125 101.764C137.901 101.507 137.79 101.201 137.79 100.845ZM146.254 107.275V117.836H143.958V104.408H146.13L146.254 107.275ZM145.708 110.613L144.752 110.576C144.761 109.657 144.897 108.809 145.162 108.032C145.427 107.246 145.799 106.563 146.279 105.984C146.759 105.405 147.33 104.958 147.992 104.643C148.662 104.321 149.402 104.159 150.213 104.159C150.875 104.159 151.471 104.25 152.001 104.432C152.53 104.606 152.981 104.887 153.353 105.276C153.734 105.665 154.024 106.17 154.222 106.79C154.421 107.403 154.52 108.152 154.52 109.037V117.836H152.212V109.012C152.212 108.309 152.108 107.746 151.901 107.324C151.694 106.894 151.392 106.584 150.995 106.393C150.598 106.195 150.11 106.095 149.531 106.095C148.96 106.095 148.439 106.215 147.967 106.455C147.504 106.695 147.102 107.026 146.763 107.448C146.432 107.87 146.171 108.354 145.981 108.9C145.799 109.438 145.708 110.009 145.708 110.613ZM163.63 104.408V106.17H156.369V104.408H163.63ZM158.827 101.143H161.123V114.51C161.123 114.965 161.193 115.309 161.334 115.54C161.474 115.772 161.656 115.925 161.88 116C162.103 116.074 162.343 116.111 162.6 116.111C162.79 116.111 162.989 116.095 163.195 116.062C163.411 116.02 163.572 115.987 163.68 115.962L163.692 117.836C163.51 117.894 163.27 117.948 162.972 117.998C162.682 118.056 162.331 118.085 161.917 118.085C161.354 118.085 160.837 117.973 160.366 117.75C159.894 117.526 159.518 117.154 159.236 116.633C158.963 116.103 158.827 115.391 158.827 114.498V101.143ZM174.142 114.274C174.142 113.943 174.068 113.637 173.919 113.356C173.778 113.066 173.484 112.806 173.038 112.574C172.599 112.334 171.937 112.127 171.052 111.954C170.307 111.796 169.633 111.61 169.029 111.395C168.433 111.18 167.924 110.919 167.502 110.613C167.088 110.307 166.77 109.947 166.547 109.533C166.323 109.12 166.211 108.636 166.211 108.081C166.211 107.552 166.327 107.051 166.559 106.579C166.799 106.108 167.134 105.69 167.564 105.326C168.003 104.962 168.528 104.676 169.14 104.47C169.753 104.263 170.435 104.159 171.188 104.159C172.264 104.159 173.182 104.35 173.944 104.73C174.705 105.111 175.288 105.62 175.694 106.257C176.099 106.886 176.302 107.585 176.302 108.354H174.006C174.006 107.982 173.894 107.622 173.671 107.275C173.455 106.919 173.137 106.625 172.715 106.393C172.301 106.162 171.792 106.046 171.188 106.046C170.551 106.046 170.034 106.145 169.637 106.344C169.248 106.534 168.963 106.778 168.781 107.076C168.607 107.374 168.52 107.688 168.52 108.019C168.52 108.267 168.561 108.491 168.644 108.689C168.735 108.88 168.892 109.058 169.116 109.223C169.339 109.38 169.653 109.529 170.059 109.67C170.464 109.811 170.981 109.951 171.61 110.092C172.711 110.34 173.617 110.638 174.328 110.985C175.04 111.333 175.569 111.759 175.917 112.264C176.265 112.769 176.438 113.381 176.438 114.101C176.438 114.688 176.314 115.226 176.066 115.714C175.826 116.202 175.474 116.624 175.011 116.98C174.556 117.328 174.01 117.601 173.373 117.799C172.744 117.99 172.036 118.085 171.25 118.085C170.067 118.085 169.066 117.874 168.247 117.452C167.428 117.03 166.807 116.484 166.385 115.813C165.963 115.143 165.752 114.436 165.752 113.691H168.061C168.094 114.32 168.276 114.821 168.607 115.193C168.938 115.557 169.343 115.818 169.823 115.975C170.303 116.124 170.779 116.198 171.25 116.198C171.879 116.198 172.405 116.115 172.827 115.95C173.257 115.784 173.584 115.557 173.807 115.267C174.03 114.978 174.142 114.647 174.142 114.274Z" fill="#3470F2"/>
<g clip-path="url(#clip1_3_4948)">
<path d="M31.4129 161.767L34.5514 150.734H36.0718L35.1921 155.023L31.8147 166.546H30.3052L31.4129 161.767ZM28.1658 150.734L30.6636 161.55L31.4129 166.546H29.9142L26.0807 150.734H28.1658ZM40.1334 161.539L42.5768 150.734H44.6728L40.8501 166.546H39.3515L40.1334 161.539ZM36.2998 150.734L39.3515 161.767L40.4592 166.546H38.9496L35.6917 155.023L34.8012 150.734H36.2998ZM48.7018 149.865V166.546H46.6927V149.865H48.7018ZM48.2239 160.225L47.3877 160.193C47.395 159.389 47.5144 158.647 47.7461 157.966C47.9778 157.279 48.3036 156.681 48.7235 156.174C49.1434 155.668 49.643 155.277 50.2222 155.002C50.8086 154.719 51.4566 154.578 52.1661 154.578C52.7453 154.578 53.2665 154.658 53.7299 154.817C54.1932 154.969 54.5878 155.215 54.9136 155.555C55.2466 155.896 55.5 156.337 55.6738 156.88C55.8476 157.416 55.9344 158.071 55.9344 158.846V166.546H53.9145V158.824C53.9145 158.209 53.824 157.717 53.643 157.347C53.462 156.971 53.1977 156.699 52.8502 156.533C52.5027 156.359 52.0756 156.272 51.5688 156.272C51.0692 156.272 50.6131 156.377 50.2004 156.587C49.795 156.797 49.4439 157.087 49.147 157.456C48.8574 157.825 48.6294 158.249 48.4629 158.727C48.3036 159.197 48.2239 159.697 48.2239 160.225ZM63.8187 166.763C63.0006 166.763 62.2585 166.625 61.5924 166.35C60.9336 166.068 60.3652 165.673 59.8874 165.166C59.4168 164.66 59.0548 164.059 58.8014 163.364C58.548 162.669 58.4213 161.908 58.4213 161.083V160.627C58.4213 159.671 58.5625 158.821 58.8449 158.075C59.1272 157.322 59.5109 156.685 59.996 156.164C60.4811 155.642 61.0313 155.248 61.6467 154.98C62.2621 154.712 62.8992 154.578 63.558 154.578C64.3979 154.578 65.1219 154.723 65.73 155.012C66.3454 155.302 66.8486 155.707 67.2395 156.229C67.6305 156.743 67.9201 157.351 68.1083 158.053C68.2965 158.748 68.3907 159.508 68.3907 160.334V161.235H59.6159V159.595H66.3816V159.443C66.3526 158.922 66.244 158.415 66.0558 157.923C65.8748 157.431 65.5852 157.025 65.187 156.707C64.7888 156.388 64.2458 156.229 63.558 156.229C63.1019 156.229 62.682 156.326 62.2983 156.522C61.9146 156.71 61.5852 156.993 61.3101 157.369C61.0349 157.746 60.8214 158.205 60.6693 158.748C60.5173 159.291 60.4413 159.917 60.4413 160.627V161.083C60.4413 161.641 60.5173 162.165 60.6693 162.658C60.8286 163.143 61.0567 163.57 61.3535 163.939C61.6576 164.308 62.0232 164.598 62.4503 164.808C62.8847 165.018 63.377 165.123 63.9273 165.123C64.6368 165.123 65.2377 164.978 65.73 164.689C66.2223 164.399 66.6531 164.012 67.0223 163.527L68.2386 164.493C67.9852 164.877 67.6631 165.242 67.2721 165.59C66.8811 165.937 66.3997 166.22 65.8277 166.437C65.263 166.654 64.5933 166.763 63.8187 166.763ZM72.7455 157.304V166.546H70.7364V154.795H72.6369L72.7455 157.304ZM72.2676 160.225L71.4314 160.193C71.4387 159.389 71.5581 158.647 71.7898 157.966C72.0215 157.279 72.3473 156.681 72.7672 156.174C73.1871 155.668 73.6866 155.277 74.2658 155.002C74.8523 154.719 75.5002 154.578 76.2098 154.578C76.7889 154.578 77.3102 154.658 77.7736 154.817C78.2369 154.969 78.6315 155.215 78.9573 155.555C79.2903 155.896 79.5437 156.337 79.7175 156.88C79.8912 157.416 79.9781 158.071 79.9781 158.846V166.546H77.9582V158.824C77.9582 158.209 77.8677 157.717 77.6867 157.347C77.5057 156.971 77.2414 156.699 76.8939 156.533C76.5464 156.359 76.1193 156.272 75.6125 156.272C75.1129 156.272 74.6568 156.377 74.2441 156.587C73.8387 156.797 73.4876 157.087 73.1907 157.456C72.9011 157.825 72.6731 158.249 72.5065 158.727C72.3473 159.197 72.2676 159.697 72.2676 160.225ZM93.466 154.795V156.337H87.113V154.795H93.466ZM89.2633 151.939H91.2724V163.635C91.2724 164.033 91.3339 164.334 91.457 164.537C91.5801 164.739 91.7393 164.873 91.9348 164.938C92.1303 165.003 92.3402 165.036 92.5647 165.036C92.7312 165.036 92.905 165.022 93.0859 164.993C93.2742 164.956 93.4154 164.927 93.5095 164.906L93.5203 166.546C93.3611 166.596 93.1511 166.643 92.8905 166.687C92.6371 166.737 92.3294 166.763 91.9674 166.763C91.4751 166.763 91.0226 166.665 90.6099 166.47C90.1972 166.274 89.8678 165.948 89.6217 165.492C89.3827 165.029 89.2633 164.406 89.2633 163.624V151.939ZM97.8317 149.865V166.546H95.8226V149.865H97.8317ZM97.3539 160.225L96.5177 160.193C96.5249 159.389 96.6444 158.647 96.876 157.966C97.1077 157.279 97.4335 156.681 97.8534 156.174C98.2733 155.668 98.7729 155.277 99.3521 155.002C99.9385 154.719 100.586 154.578 101.296 154.578C101.875 154.578 102.396 154.658 102.86 154.817C103.323 154.969 103.718 155.215 104.044 155.555C104.377 155.896 104.63 156.337 104.804 156.88C104.977 157.416 105.064 158.071 105.064 158.846V166.546H103.044V158.824C103.044 158.209 102.954 157.717 102.773 157.347C102.592 156.971 102.328 156.699 101.98 156.533C101.633 156.359 101.205 156.272 100.699 156.272C100.199 156.272 99.743 156.377 99.3304 156.587C98.9249 156.797 98.5738 157.087 98.277 157.456C97.9874 157.825 97.7593 158.249 97.5928 158.727C97.4335 159.197 97.3539 159.697 97.3539 160.225ZM110.255 154.795V166.546H108.235V154.795H110.255ZM108.083 151.678C108.083 151.353 108.181 151.078 108.377 150.853C108.579 150.629 108.876 150.516 109.267 150.516C109.651 150.516 109.944 150.629 110.147 150.853C110.357 151.078 110.462 151.353 110.462 151.678C110.462 151.99 110.357 152.258 110.147 152.482C109.944 152.699 109.651 152.808 109.267 152.808C108.876 152.808 108.579 152.699 108.377 152.482C108.181 152.258 108.083 151.99 108.083 151.678ZM120.322 163.429C120.322 163.139 120.257 162.871 120.127 162.625C120.004 162.372 119.747 162.144 119.356 161.941C118.972 161.731 118.393 161.55 117.618 161.398C116.967 161.26 116.377 161.098 115.848 160.909C115.327 160.721 114.882 160.493 114.512 160.225C114.15 159.957 113.872 159.642 113.676 159.28C113.481 158.918 113.383 158.495 113.383 158.01C113.383 157.546 113.484 157.108 113.687 156.696C113.897 156.283 114.19 155.917 114.567 155.599C114.95 155.28 115.41 155.031 115.946 154.85C116.482 154.669 117.079 154.578 117.738 154.578C118.679 154.578 119.483 154.745 120.149 155.078C120.815 155.411 121.325 155.856 121.68 156.413C122.035 156.964 122.212 157.575 122.212 158.249H120.203C120.203 157.923 120.105 157.608 119.91 157.304C119.722 156.993 119.443 156.736 119.074 156.533C118.712 156.33 118.266 156.229 117.738 156.229C117.18 156.229 116.728 156.316 116.38 156.489C116.04 156.656 115.79 156.869 115.631 157.13C115.479 157.391 115.403 157.666 115.403 157.955C115.403 158.173 115.439 158.368 115.512 158.542C115.591 158.708 115.729 158.864 115.924 159.009C116.12 159.146 116.395 159.277 116.75 159.4C117.104 159.523 117.557 159.646 118.107 159.769C119.07 159.986 119.863 160.247 120.485 160.551C121.108 160.855 121.571 161.228 121.875 161.67C122.179 162.111 122.332 162.647 122.332 163.277C122.332 163.791 122.223 164.261 122.006 164.689C121.796 165.116 121.488 165.485 121.083 165.796C120.684 166.1 120.207 166.339 119.649 166.513C119.099 166.68 118.48 166.763 117.792 166.763C116.757 166.763 115.881 166.578 115.164 166.209C114.447 165.84 113.904 165.362 113.535 164.775C113.166 164.189 112.981 163.57 112.981 162.918H115.001C115.03 163.469 115.189 163.907 115.479 164.232C115.769 164.551 116.123 164.779 116.543 164.917C116.963 165.047 117.379 165.112 117.792 165.112C118.342 165.112 118.802 165.04 119.171 164.895C119.548 164.75 119.834 164.551 120.029 164.298C120.225 164.044 120.322 163.755 120.322 163.429ZM134.06 164.732L137.275 154.795H139.327L135.103 166.546H133.756L134.06 164.732ZM131.378 154.795L134.69 164.786L134.918 166.546H133.571L129.314 154.795H131.378ZM148.015 164.537V158.488C148.015 158.024 147.921 157.622 147.733 157.282C147.552 156.935 147.277 156.667 146.907 156.479C146.538 156.29 146.082 156.196 145.539 156.196C145.032 156.196 144.587 156.283 144.203 156.457C143.827 156.631 143.53 156.859 143.313 157.141C143.103 157.423 142.998 157.727 142.998 158.053H140.989C140.989 157.633 141.097 157.217 141.315 156.804C141.532 156.392 141.843 156.019 142.248 155.686C142.661 155.345 143.153 155.078 143.725 154.882C144.305 154.679 144.949 154.578 145.658 154.578C146.513 154.578 147.266 154.723 147.917 155.012C148.576 155.302 149.09 155.74 149.459 156.326C149.836 156.906 150.024 157.633 150.024 158.509V163.983C150.024 164.374 150.057 164.79 150.122 165.232C150.194 165.673 150.299 166.053 150.437 166.372V166.546H148.341C148.239 166.314 148.16 166.006 148.102 165.623C148.044 165.232 148.015 164.87 148.015 164.537ZM148.363 159.422L148.384 160.833H146.353C145.782 160.833 145.271 160.88 144.822 160.974C144.373 161.061 143.997 161.195 143.693 161.376C143.389 161.557 143.157 161.785 142.998 162.06C142.838 162.328 142.759 162.643 142.759 163.005C142.759 163.375 142.842 163.711 143.009 164.015C143.175 164.319 143.425 164.562 143.758 164.743C144.098 164.917 144.515 165.003 145.007 165.003C145.622 165.003 146.165 164.873 146.636 164.613C147.106 164.352 147.479 164.033 147.754 163.657C148.037 163.28 148.189 162.915 148.21 162.56L149.068 163.527C149.018 163.831 148.88 164.167 148.656 164.537C148.431 164.906 148.131 165.261 147.754 165.601C147.385 165.934 146.944 166.213 146.429 166.437C145.923 166.654 145.351 166.763 144.714 166.763C143.917 166.763 143.219 166.607 142.618 166.296C142.024 165.985 141.561 165.568 141.228 165.047C140.902 164.518 140.739 163.928 140.739 163.277C140.739 162.647 140.862 162.093 141.108 161.615C141.354 161.13 141.709 160.728 142.172 160.41C142.636 160.084 143.193 159.838 143.845 159.671C144.496 159.505 145.224 159.422 146.028 159.422H148.363ZM155.367 149.865V166.546H153.347V149.865H155.367ZM165.782 163.831V154.795H167.802V166.546H165.879L165.782 163.831ZM166.162 161.355L166.998 161.333C166.998 162.115 166.915 162.839 166.748 163.505C166.589 164.164 166.328 164.736 165.966 165.221C165.604 165.706 165.13 166.086 164.544 166.361C163.957 166.629 163.244 166.763 162.404 166.763C161.832 166.763 161.307 166.68 160.83 166.513C160.359 166.346 159.954 166.089 159.613 165.742C159.273 165.394 159.009 164.942 158.821 164.384C158.64 163.827 158.549 163.157 158.549 162.375V154.795H160.558V162.397C160.558 162.926 160.616 163.364 160.732 163.711C160.855 164.051 161.018 164.323 161.221 164.526C161.431 164.721 161.662 164.859 161.916 164.938C162.176 165.018 162.444 165.058 162.719 165.058C163.574 165.058 164.25 164.895 164.75 164.569C165.25 164.236 165.608 163.791 165.825 163.233C166.05 162.669 166.162 162.042 166.162 161.355ZM175.74 166.763C174.922 166.763 174.18 166.625 173.514 166.35C172.855 166.068 172.287 165.673 171.809 165.166C171.338 164.66 170.976 164.059 170.723 163.364C170.47 162.669 170.343 161.908 170.343 161.083V160.627C170.343 159.671 170.484 158.821 170.766 158.075C171.049 157.322 171.432 156.685 171.918 156.164C172.403 155.642 172.953 155.248 173.568 154.98C174.184 154.712 174.821 154.578 175.48 154.578C176.319 154.578 177.043 154.723 177.652 155.012C178.267 155.302 178.77 155.707 179.161 156.229C179.552 156.743 179.842 157.351 180.03 158.053C180.218 158.748 180.312 159.508 180.312 160.334V161.235H171.537V159.595H178.303V159.443C178.274 158.922 178.166 158.415 177.977 157.923C177.796 157.431 177.507 157.025 177.109 156.707C176.71 156.388 176.167 156.229 175.48 156.229C175.023 156.229 174.604 156.326 174.22 156.522C173.836 156.71 173.507 156.993 173.232 157.369C172.956 157.746 172.743 158.205 172.591 158.748C172.439 159.291 172.363 159.917 172.363 160.627V161.083C172.363 161.641 172.439 162.165 172.591 162.658C172.75 163.143 172.978 163.57 173.275 163.939C173.579 164.308 173.945 164.598 174.372 164.808C174.806 165.018 175.299 165.123 175.849 165.123C176.558 165.123 177.159 164.978 177.652 164.689C178.144 164.399 178.575 164.012 178.944 163.527L180.16 164.493C179.907 164.877 179.585 165.242 179.194 165.59C178.803 165.937 178.321 166.22 177.749 166.437C177.185 166.654 176.515 166.763 175.74 166.763ZM190.184 156.641V166.546H188.175V154.795H190.129L190.184 156.641ZM193.854 154.73L193.844 156.598C193.677 156.562 193.518 156.54 193.366 156.533C193.221 156.518 193.054 156.511 192.866 156.511C192.403 156.511 191.994 156.583 191.639 156.728C191.284 156.873 190.984 157.076 190.738 157.336C190.491 157.597 190.296 157.908 190.151 158.27C190.014 158.625 189.923 159.016 189.88 159.443L189.315 159.769C189.315 159.06 189.384 158.393 189.521 157.771C189.666 157.148 189.887 156.598 190.184 156.12C190.481 155.635 190.857 155.259 191.313 154.991C191.777 154.716 192.327 154.578 192.964 154.578C193.109 154.578 193.275 154.596 193.463 154.632C193.652 154.661 193.782 154.694 193.854 154.73ZM200.37 166.763C199.552 166.763 198.81 166.625 198.144 166.35C197.485 166.068 196.917 165.673 196.439 165.166C195.968 164.66 195.606 164.059 195.353 163.364C195.1 162.669 194.973 161.908 194.973 161.083V160.627C194.973 159.671 195.114 158.821 195.397 158.075C195.679 157.322 196.063 156.685 196.548 156.164C197.033 155.642 197.583 155.248 198.198 154.98C198.814 154.712 199.451 154.578 200.11 154.578C200.95 154.578 201.674 154.723 202.282 155.012C202.897 155.302 203.4 155.707 203.791 156.229C204.182 156.743 204.472 157.351 204.66 158.053C204.848 158.748 204.942 159.508 204.942 160.334V161.235H196.168V159.595H202.933V159.443C202.904 158.922 202.796 158.415 202.607 157.923C202.426 157.431 202.137 157.025 201.739 156.707C201.34 156.388 200.797 156.229 200.11 156.229C199.654 156.229 199.234 156.326 198.85 156.522C198.466 156.71 198.137 156.993 197.862 157.369C197.587 157.746 197.373 158.205 197.221 158.748C197.069 159.291 196.993 159.917 196.993 160.627V161.083C196.993 161.641 197.069 162.165 197.221 162.658C197.38 163.143 197.608 163.57 197.905 163.939C198.209 164.308 198.575 164.598 199.002 164.808C199.436 165.018 199.929 165.123 200.479 165.123C201.188 165.123 201.789 164.978 202.282 164.689C202.774 164.399 203.205 164.012 203.574 163.527L204.79 164.493C204.537 164.877 204.215 165.242 203.824 165.59C203.433 165.937 202.951 166.22 202.379 166.437C201.815 166.654 201.145 166.763 200.37 166.763ZM214.217 164.537V158.488C214.217 158.024 214.123 157.622 213.934 157.282C213.753 156.935 213.478 156.667 213.109 156.479C212.74 156.29 212.284 156.196 211.741 156.196C211.234 156.196 210.789 156.283 210.405 156.457C210.028 156.631 209.732 156.859 209.514 157.141C209.304 157.423 209.199 157.727 209.199 158.053H207.19C207.19 157.633 207.299 157.217 207.516 156.804C207.733 156.392 208.045 156.019 208.45 155.686C208.863 155.345 209.355 155.078 209.927 154.882C210.506 154.679 211.151 154.578 211.86 154.578C212.714 154.578 213.467 154.723 214.119 155.012C214.778 155.302 215.292 155.74 215.661 156.326C216.037 156.906 216.226 157.633 216.226 158.509V163.983C216.226 164.374 216.258 164.79 216.323 165.232C216.396 165.673 216.501 166.053 216.638 166.372V166.546H214.542C214.441 166.314 214.361 166.006 214.304 165.623C214.246 165.232 214.217 164.87 214.217 164.537ZM214.564 159.422L214.586 160.833H212.555C211.983 160.833 211.473 160.88 211.024 160.974C210.575 161.061 210.198 161.195 209.894 161.376C209.59 161.557 209.359 161.785 209.199 162.06C209.04 162.328 208.96 162.643 208.96 163.005C208.96 163.375 209.044 163.711 209.21 164.015C209.377 164.319 209.627 164.562 209.96 164.743C210.3 164.917 210.716 165.003 211.208 165.003C211.824 165.003 212.367 164.873 212.837 164.613C213.308 164.352 213.681 164.033 213.956 163.657C214.238 163.28 214.39 162.915 214.412 162.56L215.27 163.527C215.219 163.831 215.082 164.167 214.857 164.537C214.633 164.906 214.332 165.261 213.956 165.601C213.587 165.934 213.145 166.213 212.631 166.437C212.124 166.654 211.552 166.763 210.915 166.763C210.119 166.763 209.42 166.607 208.819 166.296C208.226 165.985 207.762 165.568 207.429 165.047C207.103 164.518 206.941 163.928 206.941 163.277C206.941 162.647 207.064 162.093 207.31 161.615C207.556 161.13 207.911 160.728 208.374 160.41C208.837 160.084 209.395 159.838 210.046 159.671C210.698 159.505 211.426 159.422 212.229 159.422H214.564ZM224.088 165.112C224.566 165.112 225.008 165.014 225.413 164.819C225.819 164.623 226.152 164.356 226.412 164.015C226.673 163.668 226.821 163.273 226.857 162.832H228.769C228.733 163.527 228.497 164.175 228.063 164.775C227.636 165.369 227.075 165.851 226.38 166.22C225.685 166.582 224.921 166.763 224.088 166.763C223.205 166.763 222.434 166.607 221.775 166.296C221.123 165.985 220.58 165.557 220.146 165.014C219.719 164.471 219.397 163.849 219.18 163.146C218.97 162.437 218.865 161.688 218.865 160.898V160.442C218.865 159.653 218.97 158.908 219.18 158.205C219.397 157.496 219.719 156.869 220.146 156.326C220.58 155.783 221.123 155.356 221.775 155.045C222.434 154.734 223.205 154.578 224.088 154.578C225.008 154.578 225.811 154.766 226.499 155.143C227.187 155.512 227.726 156.019 228.117 156.663C228.515 157.3 228.733 158.024 228.769 158.835H226.857C226.821 158.35 226.684 157.912 226.445 157.521C226.213 157.13 225.895 156.819 225.489 156.587C225.091 156.348 224.624 156.229 224.088 156.229C223.473 156.229 222.955 156.352 222.535 156.598C222.123 156.837 221.793 157.163 221.547 157.575C221.308 157.981 221.134 158.433 221.026 158.933C220.924 159.425 220.874 159.928 220.874 160.442V160.898C220.874 161.413 220.924 161.919 221.026 162.419C221.127 162.918 221.297 163.371 221.536 163.776C221.782 164.182 222.112 164.508 222.524 164.754C222.944 164.993 223.466 165.112 224.088 165.112ZM233.037 149.865V166.546H231.028V149.865H233.037ZM232.559 160.225L231.723 160.193C231.73 159.389 231.849 158.647 232.081 157.966C232.313 157.279 232.639 156.681 233.058 156.174C233.478 155.668 233.978 155.277 234.557 155.002C235.144 154.719 235.792 154.578 236.501 154.578C237.08 154.578 237.601 154.658 238.065 154.817C238.528 154.969 238.923 155.215 239.249 155.555C239.582 155.896 239.835 156.337 240.009 156.88C240.182 157.416 240.269 158.071 240.269 158.846V166.546H238.249V158.824C238.249 158.209 238.159 157.717 237.978 157.347C237.797 156.971 237.533 156.699 237.185 156.533C236.838 156.359 236.411 156.272 235.904 156.272C235.404 156.272 234.948 156.377 234.535 156.587C234.13 156.797 233.779 157.087 233.482 157.456C233.192 157.825 232.964 158.249 232.798 158.727C232.639 159.197 232.559 159.697 232.559 160.225ZM248.154 166.763C247.336 166.763 246.593 166.625 245.927 166.35C245.269 166.068 244.7 165.673 244.222 165.166C243.752 164.66 243.39 164.059 243.136 163.364C242.883 162.669 242.756 161.908 242.756 161.083V160.627C242.756 159.671 242.897 158.821 243.18 158.075C243.462 157.322 243.846 156.685 244.331 156.164C244.816 155.642 245.366 155.248 245.982 154.98C246.597 154.712 247.234 154.578 247.893 154.578C248.733 154.578 249.457 154.723 250.065 155.012C250.68 155.302 251.184 155.707 251.574 156.229C251.965 156.743 252.255 157.351 252.443 158.053C252.632 158.748 252.726 159.508 252.726 160.334V161.235H243.951V159.595H250.717V159.443C250.688 158.922 250.579 158.415 250.391 157.923C250.21 157.431 249.92 157.025 249.522 156.707C249.124 156.388 248.581 156.229 247.893 156.229C247.437 156.229 247.017 156.326 246.633 156.522C246.25 156.71 245.92 156.993 245.645 157.369C245.37 157.746 245.156 158.205 245.004 158.748C244.852 159.291 244.776 159.917 244.776 160.627V161.083C244.776 161.641 244.852 162.165 245.004 162.658C245.164 163.143 245.392 163.57 245.688 163.939C245.993 164.308 246.358 164.598 246.785 164.808C247.22 165.018 247.712 165.123 248.262 165.123C248.972 165.123 249.573 164.978 250.065 164.689C250.557 164.399 250.988 164.012 251.357 163.527L252.574 164.493C252.32 164.877 251.998 165.242 251.607 165.59C251.216 165.937 250.735 166.22 250.163 166.437C249.598 166.654 248.928 166.763 248.154 166.763ZM261.913 163.429C261.913 163.139 261.848 162.871 261.718 162.625C261.594 162.372 261.337 162.144 260.947 161.941C260.563 161.731 259.984 161.55 259.209 161.398C258.557 161.26 257.967 161.098 257.439 160.909C256.918 160.721 256.472 160.493 256.103 160.225C255.741 159.957 255.462 159.642 255.267 159.28C255.071 158.918 254.974 158.495 254.974 158.01C254.974 157.546 255.075 157.108 255.278 156.696C255.488 156.283 255.781 155.917 256.157 155.599C256.541 155.28 257.001 155.031 257.537 154.85C258.072 154.669 258.67 154.578 259.328 154.578C260.27 154.578 261.073 154.745 261.739 155.078C262.405 155.411 262.916 155.856 263.271 156.413C263.625 156.964 263.803 157.575 263.803 158.249H261.794C261.794 157.923 261.696 157.608 261.5 157.304C261.312 156.993 261.033 156.736 260.664 156.533C260.302 156.33 259.857 156.229 259.328 156.229C258.771 156.229 258.318 156.316 257.971 156.489C257.631 156.656 257.381 156.869 257.222 157.13C257.07 157.391 256.994 157.666 256.994 157.955C256.994 158.173 257.03 158.368 257.102 158.542C257.182 158.708 257.319 158.864 257.515 159.009C257.71 159.146 257.985 159.277 258.34 159.4C258.695 159.523 259.147 159.646 259.698 159.769C260.661 159.986 261.453 160.247 262.076 160.551C262.699 160.855 263.162 161.228 263.466 161.67C263.77 162.111 263.922 162.647 263.922 163.277C263.922 163.791 263.814 164.261 263.596 164.689C263.386 165.116 263.079 165.485 262.673 165.796C262.275 166.1 261.797 166.339 261.24 166.513C260.689 166.68 260.07 166.763 259.383 166.763C258.347 166.763 257.471 166.578 256.755 166.209C256.038 165.84 255.495 165.362 255.126 164.775C254.756 164.189 254.572 163.57 254.572 162.918H256.592C256.621 163.469 256.78 163.907 257.07 164.232C257.359 164.551 257.714 164.779 258.134 164.917C258.554 165.047 258.97 165.112 259.383 165.112C259.933 165.112 260.393 165.04 260.762 164.895C261.138 164.75 261.424 164.551 261.62 164.298C261.815 164.044 261.913 163.755 261.913 163.429ZM276.997 154.795V156.337H270.644V154.795H276.997ZM272.795 151.939H274.804V163.635C274.804 164.033 274.865 164.334 274.988 164.537C275.111 164.739 275.271 164.873 275.466 164.938C275.662 165.003 275.872 165.036 276.096 165.036C276.263 165.036 276.436 165.022 276.617 164.993C276.806 164.956 276.947 164.927 277.041 164.906L277.052 166.546C276.892 166.596 276.682 166.643 276.422 166.687C276.168 166.737 275.861 166.763 275.499 166.763C275.006 166.763 274.554 166.665 274.141 166.47C273.729 166.274 273.399 165.948 273.153 165.492C272.914 165.029 272.795 164.406 272.795 163.624V151.939ZM281.363 149.865V166.546H279.354V149.865H281.363ZM280.885 160.225L280.049 160.193C280.056 159.389 280.176 158.647 280.407 157.966C280.639 157.279 280.965 156.681 281.385 156.174C281.805 155.668 282.304 155.277 282.883 155.002C283.47 154.719 284.118 154.578 284.827 154.578C285.406 154.578 285.928 154.658 286.391 154.817C286.854 154.969 287.249 155.215 287.575 155.555C287.908 155.896 288.161 156.337 288.335 156.88C288.509 157.416 288.596 158.071 288.596 158.846V166.546H286.576V158.824C286.576 158.209 286.485 157.717 286.304 157.347C286.123 156.971 285.859 156.699 285.511 156.533C285.164 156.359 284.737 156.272 284.23 156.272C283.73 156.272 283.274 156.377 282.862 156.587C282.456 156.797 282.105 157.087 281.808 157.456C281.519 157.825 281.291 158.249 281.124 158.727C280.965 159.197 280.885 159.697 280.885 160.225ZM296.48 166.763C295.662 166.763 294.92 166.625 294.254 166.35C293.595 166.068 293.026 165.673 292.549 165.166C292.078 164.66 291.716 164.059 291.463 163.364C291.209 162.669 291.083 161.908 291.083 161.083V160.627C291.083 159.671 291.224 158.821 291.506 158.075C291.788 157.322 292.172 156.685 292.657 156.164C293.142 155.642 293.693 155.248 294.308 154.98C294.923 154.712 295.56 154.578 296.219 154.578C297.059 154.578 297.783 154.723 298.391 155.012C299.007 155.302 299.51 155.707 299.901 156.229C300.292 156.743 300.581 157.351 300.77 158.053C300.958 158.748 301.052 159.508 301.052 160.334V161.235H292.277V159.595H299.043V159.443C299.014 158.922 298.905 158.415 298.717 157.923C298.536 157.431 298.246 157.025 297.848 156.707C297.45 156.388 296.907 156.229 296.219 156.229C295.763 156.229 295.343 156.326 294.96 156.522C294.576 156.71 294.246 156.993 293.971 157.369C293.696 157.746 293.483 158.205 293.331 158.748C293.179 159.291 293.102 159.917 293.102 160.627V161.083C293.102 161.641 293.179 162.165 293.331 162.658C293.49 163.143 293.718 163.57 294.015 163.939C294.319 164.308 294.684 164.598 295.112 164.808C295.546 165.018 296.038 165.123 296.589 165.123C297.298 165.123 297.899 164.978 298.391 164.689C298.884 164.399 299.314 164.012 299.684 163.527L300.9 164.493C300.646 164.877 300.324 165.242 299.933 165.59C299.542 165.937 299.061 166.22 298.489 166.437C297.924 166.654 297.255 166.763 296.48 166.763ZM317.667 164.895V166.546H309.121V164.895H317.667ZM317.353 156.218L309.577 166.546H308.35V165.069L316.071 154.795H317.353V156.218ZM316.462 154.795V156.457H308.437V154.795H316.462ZM324.65 166.763C323.832 166.763 323.09 166.625 322.424 166.35C321.765 166.068 321.197 165.673 320.719 165.166C320.248 164.66 319.886 164.059 319.633 163.364C319.38 162.669 319.253 161.908 319.253 161.083V160.627C319.253 159.671 319.394 158.821 319.677 158.075C319.959 157.322 320.343 156.685 320.828 156.164C321.313 155.642 321.863 155.248 322.478 154.98C323.094 154.712 323.731 154.578 324.39 154.578C325.23 154.578 325.954 154.723 326.562 155.012C327.177 155.302 327.68 155.707 328.071 156.229C328.462 156.743 328.752 157.351 328.94 158.053C329.128 158.748 329.222 159.508 329.222 160.334V161.235H320.448V159.595H327.213V159.443C327.184 158.922 327.076 158.415 326.887 157.923C326.706 157.431 326.417 157.025 326.019 156.707C325.62 156.388 325.078 156.229 324.39 156.229C323.934 156.229 323.514 156.326 323.13 156.522C322.746 156.71 322.417 156.993 322.142 157.369C321.867 157.746 321.653 158.205 321.501 158.748C321.349 159.291 321.273 159.917 321.273 160.627V161.083C321.273 161.641 321.349 162.165 321.501 162.658C321.66 163.143 321.888 163.57 322.185 163.939C322.489 164.308 322.855 164.598 323.282 164.808C323.716 165.018 324.209 165.123 324.759 165.123C325.468 165.123 326.069 164.978 326.562 164.689C327.054 164.399 327.485 164.012 327.854 163.527L329.07 164.493C328.817 164.877 328.495 165.242 328.104 165.59C327.713 165.937 327.231 166.22 326.659 166.437C326.095 166.654 325.425 166.763 324.65 166.763ZM333.577 156.641V166.546H331.568V154.795H333.523L333.577 156.641ZM337.248 154.73L337.237 156.598C337.07 156.562 336.911 156.54 336.759 156.533C336.614 156.518 336.448 156.511 336.26 156.511C335.796 156.511 335.387 156.583 335.032 156.728C334.678 156.873 334.377 157.076 334.131 157.336C333.885 157.597 333.689 157.908 333.545 158.27C333.407 158.625 333.317 159.016 333.273 159.443L332.708 159.769C332.708 159.06 332.777 158.393 332.915 157.771C333.059 157.148 333.28 156.598 333.577 156.12C333.874 155.635 334.25 155.259 334.707 154.991C335.17 154.716 335.72 154.578 336.357 154.578C336.502 154.578 336.669 154.596 336.857 154.632C337.045 154.661 337.175 154.694 337.248 154.73ZM338.355 160.801V160.551C338.355 159.704 338.479 158.918 338.725 158.194C338.971 157.463 339.326 156.83 339.789 156.294C340.252 155.751 340.813 155.331 341.472 155.034C342.131 154.73 342.87 154.578 343.688 154.578C344.513 154.578 345.255 154.73 345.914 155.034C346.58 155.331 347.145 155.751 347.608 156.294C348.079 156.83 348.437 157.463 348.683 158.194C348.929 158.918 349.052 159.704 349.052 160.551V160.801C349.052 161.648 348.929 162.433 348.683 163.157C348.437 163.881 348.079 164.515 347.608 165.058C347.145 165.594 346.584 166.013 345.925 166.318C345.273 166.614 344.535 166.763 343.709 166.763C342.884 166.763 342.142 166.614 341.483 166.318C340.824 166.013 340.26 165.594 339.789 165.058C339.326 164.515 338.971 163.881 338.725 163.157C338.479 162.433 338.355 161.648 338.355 160.801ZM340.365 160.551V160.801C340.365 161.387 340.433 161.941 340.571 162.462C340.708 162.976 340.915 163.432 341.19 163.831C341.472 164.229 341.823 164.544 342.243 164.775C342.663 165 343.152 165.112 343.709 165.112C344.26 165.112 344.741 165 345.154 164.775C345.574 164.544 345.921 164.229 346.196 163.831C346.471 163.432 346.678 162.976 346.815 162.462C346.96 161.941 347.032 161.387 347.032 160.801V160.551C347.032 159.972 346.96 159.425 346.815 158.911C346.678 158.39 346.468 157.93 346.185 157.532C345.91 157.126 345.563 156.808 345.143 156.576C344.73 156.345 344.245 156.229 343.688 156.229C343.137 156.229 342.652 156.345 342.232 156.576C341.82 156.808 341.472 157.126 341.19 157.532C340.915 157.93 340.708 158.39 340.571 158.911C340.433 159.425 340.365 159.972 340.365 160.551ZM31.869 189.795V191.337H25.516V189.795H31.869ZM27.6663 186.939H29.6753V198.635C29.6753 199.033 29.7369 199.334 29.8599 199.537C29.983 199.739 30.1423 199.873 30.3378 199.938C30.5333 200.003 30.7432 200.036 30.9677 200.036C31.1342 200.036 31.3079 200.022 31.4889 199.993C31.6772 199.956 31.8183 199.927 31.9125 199.906L31.9233 201.546C31.764 201.596 31.5541 201.643 31.2934 201.687C31.0401 201.737 30.7324 201.763 30.3704 201.763C29.878 201.763 29.4256 201.665 29.0129 201.47C28.6002 201.274 28.2708 200.948 28.0246 200.492C27.7857 200.029 27.6663 199.406 27.6663 198.624V186.939ZM36.2347 184.865V201.546H34.2256V184.865H36.2347ZM35.7568 195.225L34.9206 195.193C34.9279 194.389 35.0473 193.647 35.279 192.966C35.5107 192.279 35.8365 191.681 36.2564 191.174C36.6763 190.668 37.1759 190.277 37.7551 190.002C38.3415 189.719 38.9895 189.578 39.699 189.578C40.2782 189.578 40.7994 189.658 41.2628 189.817C41.7261 189.969 42.1207 190.215 42.4465 190.555C42.7795 190.896 43.0329 191.337 43.2067 191.88C43.3805 192.416 43.4673 193.071 43.4673 193.846V201.546H41.4474V193.824C41.4474 193.209 41.3569 192.717 41.1759 192.347C40.9949 191.971 40.7307 191.699 40.3831 191.533C40.0356 191.359 39.6085 191.272 39.1017 191.272C38.6021 191.272 38.146 191.377 37.7333 191.587C37.3279 191.797 36.9768 192.087 36.6799 192.456C36.3903 192.825 36.1623 193.249 35.9958 193.727C35.8365 194.197 35.7568 194.697 35.7568 195.225ZM51.3516 201.763C50.5335 201.763 49.7914 201.625 49.1253 201.35C48.4665 201.068 47.8981 200.673 47.4203 200.166C46.9497 199.66 46.5877 199.059 46.3343 198.364C46.0809 197.669 45.9542 196.908 45.9542 196.083V195.627C45.9542 194.671 46.0954 193.821 46.3778 193.075C46.6601 192.322 47.0438 191.685 47.5289 191.164C48.014 190.642 48.5642 190.248 49.1796 189.98C49.795 189.712 50.4321 189.578 51.0909 189.578C51.9308 189.578 52.6548 189.723 53.2629 190.012C53.8783 190.302 54.3815 190.707 54.7724 191.229C55.1634 191.743 55.453 192.351 55.6412 193.053C55.8295 193.748 55.9236 194.508 55.9236 195.334V196.235H47.1488V194.595H53.9145V194.443C53.8855 193.922 53.7769 193.415 53.5887 192.923C53.4077 192.431 53.1181 192.025 52.7199 191.707C52.3217 191.388 51.7787 191.229 51.0909 191.229C50.6348 191.229 50.2149 191.326 49.8312 191.522C49.4475 191.71 49.1181 191.993 48.843 192.369C48.5678 192.746 48.3543 193.205 48.2022 193.748C48.0502 194.291 47.9742 194.917 47.9742 195.627V196.083C47.9742 196.641 48.0502 197.165 48.2022 197.658C48.3615 198.143 48.5896 198.57 48.8864 198.939C49.1905 199.308 49.5561 199.598 49.9832 199.808C50.4176 200.018 50.9099 200.123 51.4602 200.123C52.1697 200.123 52.7706 199.978 53.2629 199.689C53.7552 199.399 54.186 199.012 54.5552 198.527L55.7715 199.493C55.5181 199.877 55.196 200.242 54.805 200.59C54.4141 200.937 53.9326 201.22 53.3606 201.437C52.7959 201.654 52.1262 201.763 51.3516 201.763ZM68.4884 200.112C68.9662 200.112 69.4079 200.014 69.8133 199.819C70.2187 199.623 70.5518 199.356 70.8124 199.015C71.073 198.668 71.2215 198.273 71.2577 197.832H73.169C73.1328 198.527 72.8975 199.175 72.4631 199.775C72.036 200.369 71.4749 200.851 70.7798 201.22C70.0848 201.582 69.321 201.763 68.4884 201.763C67.6051 201.763 66.8341 201.607 66.1753 201.296C65.5237 200.985 64.9807 200.557 64.5463 200.014C64.1191 199.471 63.797 198.849 63.5798 198.146C63.3698 197.437 63.2648 196.688 63.2648 195.898V195.442C63.2648 194.653 63.3698 193.908 63.5798 193.205C63.797 192.496 64.1191 191.869 64.5463 191.326C64.9807 190.783 65.5237 190.356 66.1753 190.045C66.8341 189.734 67.6051 189.578 68.4884 189.578C69.4079 189.578 70.2115 189.766 70.8993 190.143C71.5871 190.512 72.1265 191.019 72.5174 191.663C72.9156 192.3 73.1328 193.024 73.169 193.835H71.2577C71.2215 193.35 71.0839 192.912 70.845 192.521C70.6133 192.13 70.2948 191.819 69.8893 191.587C69.4911 191.348 69.0242 191.229 68.4884 191.229C67.873 191.229 67.3554 191.352 66.9354 191.598C66.5228 191.837 66.1934 192.163 65.9472 192.575C65.7083 192.981 65.5345 193.433 65.4259 193.933C65.3246 194.425 65.2739 194.928 65.2739 195.442V195.898C65.2739 196.413 65.3246 196.919 65.4259 197.419C65.5273 197.918 65.6974 198.371 65.9363 198.776C66.1825 199.182 66.5119 199.508 66.9246 199.754C67.3445 199.993 67.8658 200.112 68.4884 200.112ZM82.3564 199.537V193.488C82.3564 193.024 82.2623 192.622 82.0741 192.282C81.8931 191.935 81.618 191.667 81.2487 191.479C80.8795 191.29 80.4234 191.196 79.8804 191.196C79.3736 191.196 78.9283 191.283 78.5446 191.457C78.1681 191.631 77.8713 191.859 77.6541 192.141C77.4442 192.423 77.3392 192.727 77.3392 193.053H75.3301C75.3301 192.633 75.4387 192.217 75.6559 191.804C75.8731 191.392 76.1844 191.019 76.5898 190.686C77.0025 190.345 77.4948 190.078 78.0668 189.882C78.646 189.679 79.2903 189.578 79.9998 189.578C80.8541 189.578 81.6071 189.723 82.2587 190.012C82.9175 190.302 83.4315 190.74 83.8008 191.326C84.1773 191.906 84.3655 192.633 84.3655 193.509V198.983C84.3655 199.374 84.3981 199.79 84.4632 200.232C84.5356 200.673 84.6406 201.053 84.7782 201.372V201.546H82.6822C82.5809 201.314 82.5012 201.006 82.4433 200.623C82.3854 200.232 82.3564 199.87 82.3564 199.537ZM82.7039 194.422L82.7257 195.833H80.6949C80.1229 195.833 79.6125 195.88 79.1636 195.974C78.7148 196.061 78.3383 196.195 78.0342 196.376C77.7301 196.557 77.4985 196.785 77.3392 197.06C77.1799 197.328 77.1003 197.643 77.1003 198.005C77.1003 198.375 77.1835 198.711 77.35 199.015C77.5166 199.319 77.7663 199.562 78.0994 199.743C78.4396 199.917 78.8559 200.003 79.3482 200.003C79.9636 200.003 80.5066 199.873 80.9772 199.613C81.4478 199.352 81.8207 199.033 82.0958 198.657C82.3781 198.28 82.5302 197.915 82.5519 197.56L83.4098 198.527C83.3591 198.831 83.2216 199.167 82.9972 199.537C82.7727 199.906 82.4723 200.261 82.0958 200.601C81.7266 200.934 81.2849 201.213 80.7709 201.437C80.2641 201.654 79.6921 201.763 79.055 201.763C78.2586 201.763 77.56 201.607 76.9591 201.296C76.3654 200.985 75.9021 200.568 75.569 200.047C75.2432 199.518 75.0803 198.928 75.0803 198.277C75.0803 197.647 75.2034 197.093 75.4496 196.615C75.6957 196.13 76.0505 195.728 76.5138 195.41C76.9772 195.084 77.5347 194.838 78.1862 194.671C78.8378 194.505 79.5654 194.422 80.3691 194.422H82.7039ZM89.5348 191.641V201.546H87.5257V189.795H89.4805L89.5348 191.641ZM93.2054 189.73L93.1945 191.598C93.028 191.562 92.8687 191.54 92.7167 191.533C92.5719 191.518 92.4054 191.511 92.2172 191.511C91.7538 191.511 91.3448 191.583 90.99 191.728C90.6352 191.873 90.3348 192.076 90.0886 192.336C89.8425 192.597 89.647 192.908 89.5022 193.27C89.3646 193.625 89.2741 194.016 89.2307 194.443L88.666 194.769C88.666 194.06 88.7348 193.393 88.8723 192.771C89.0171 192.148 89.2379 191.598 89.5348 191.12C89.8316 190.635 90.2081 190.259 90.6642 189.991C91.1276 189.716 91.6778 189.578 92.3149 189.578C92.4597 189.578 92.6262 189.596 92.8144 189.632C93.0027 189.661 93.133 189.694 93.2054 189.73ZM102.252 199.265V184.865H104.272V201.546H102.425L102.252 199.265ZM94.3457 195.801V195.573C94.3457 194.675 94.4543 193.86 94.6715 193.129C94.8959 192.391 95.2109 191.757 95.6163 191.229C96.029 190.7 96.5177 190.295 97.0824 190.012C97.6543 189.723 98.2914 189.578 98.9937 189.578C99.7322 189.578 100.377 189.708 100.927 189.969C101.484 190.222 101.955 190.595 102.339 191.088C102.729 191.573 103.037 192.159 103.262 192.847C103.486 193.535 103.642 194.313 103.729 195.182V196.181C103.649 197.042 103.493 197.817 103.262 198.505C103.037 199.193 102.729 199.779 102.339 200.264C101.955 200.749 101.484 201.122 100.927 201.383C100.369 201.636 99.7177 201.763 98.972 201.763C98.2842 201.763 97.6543 201.614 97.0824 201.318C96.5177 201.021 96.029 200.604 95.6163 200.069C95.2109 199.533 94.8959 198.903 94.6715 198.179C94.4543 197.448 94.3457 196.655 94.3457 195.801ZM96.3656 195.573V195.801C96.3656 196.387 96.4235 196.937 96.5394 197.451C96.6625 197.965 96.8507 198.418 97.1041 198.809C97.3575 199.2 97.6797 199.508 98.0706 199.732C98.4616 199.949 98.9285 200.058 99.4715 200.058C100.138 200.058 100.684 199.917 101.111 199.634C101.546 199.352 101.893 198.979 102.154 198.516C102.415 198.052 102.617 197.549 102.762 197.006V194.389C102.675 193.991 102.548 193.607 102.382 193.238C102.223 192.861 102.013 192.528 101.752 192.239C101.499 191.942 101.184 191.707 100.807 191.533C100.438 191.359 100 191.272 99.4933 191.272C98.943 191.272 98.4688 191.388 98.0706 191.62C97.6797 191.844 97.3575 192.155 97.1041 192.554C96.8507 192.945 96.6625 193.401 96.5394 193.922C96.4235 194.436 96.3656 194.986 96.3656 195.573ZM115.099 189.795V201.546H113.079V189.795H115.099ZM112.927 186.678C112.927 186.353 113.025 186.078 113.22 185.853C113.423 185.629 113.72 185.516 114.111 185.516C114.494 185.516 114.788 185.629 114.99 185.853C115.2 186.078 115.305 186.353 115.305 186.678C115.305 186.99 115.2 187.258 114.99 187.482C114.788 187.699 114.494 187.808 114.111 187.808C113.72 187.808 113.423 187.699 113.22 187.482C113.025 187.258 112.927 186.99 112.927 186.678ZM125.166 198.429C125.166 198.139 125.101 197.871 124.97 197.625C124.847 197.372 124.59 197.144 124.199 196.941C123.816 196.731 123.236 196.55 122.462 196.398C121.81 196.26 121.22 196.098 120.692 195.909C120.17 195.721 119.725 195.493 119.356 195.225C118.994 194.957 118.715 194.642 118.52 194.28C118.324 193.918 118.226 193.495 118.226 193.01C118.226 192.546 118.328 192.108 118.531 191.696C118.741 191.283 119.034 190.917 119.41 190.599C119.794 190.28 120.254 190.031 120.789 189.85C121.325 189.669 121.922 189.578 122.581 189.578C123.522 189.578 124.326 189.745 124.992 190.078C125.658 190.411 126.169 190.856 126.523 191.413C126.878 191.964 127.056 192.575 127.056 193.249H125.046C125.046 192.923 124.949 192.608 124.753 192.304C124.565 191.993 124.286 191.736 123.917 191.533C123.555 191.33 123.11 191.229 122.581 191.229C122.024 191.229 121.571 191.316 121.224 191.489C120.884 191.656 120.634 191.869 120.474 192.13C120.322 192.391 120.246 192.666 120.246 192.955C120.246 193.173 120.283 193.368 120.355 193.542C120.435 193.708 120.572 193.864 120.768 194.009C120.963 194.146 121.238 194.277 121.593 194.4C121.948 194.523 122.4 194.646 122.951 194.769C123.913 194.986 124.706 195.247 125.329 195.551C125.951 195.855 126.415 196.228 126.719 196.67C127.023 197.111 127.175 197.647 127.175 198.277C127.175 198.791 127.066 199.261 126.849 199.689C126.639 200.116 126.332 200.485 125.926 200.796C125.528 201.1 125.05 201.339 124.493 201.513C123.942 201.68 123.323 201.763 122.636 201.763C121.6 201.763 120.724 201.578 120.007 201.209C119.291 200.84 118.748 200.362 118.379 199.775C118.009 199.189 117.825 198.57 117.825 197.918H119.845C119.874 198.469 120.033 198.907 120.322 199.232C120.612 199.551 120.967 199.779 121.387 199.917C121.807 200.047 122.223 200.112 122.636 200.112C123.186 200.112 123.646 200.04 124.015 199.895C124.391 199.75 124.677 199.551 124.873 199.298C125.068 199.044 125.166 198.755 125.166 198.429ZM137.34 191.641V201.546H135.331V189.795H137.286L137.34 191.641ZM141.01 189.73L141 191.598C140.833 191.562 140.674 191.54 140.522 191.533C140.377 191.518 140.21 191.511 140.022 191.511C139.559 191.511 139.15 191.583 138.795 191.728C138.44 191.873 138.14 192.076 137.894 192.336C137.647 192.597 137.452 192.908 137.307 193.27C137.17 193.625 137.079 194.016 137.036 194.443L136.471 194.769C136.471 194.06 136.54 193.393 136.677 192.771C136.822 192.148 137.043 191.598 137.34 191.12C137.637 190.635 138.013 190.259 138.469 189.991C138.933 189.716 139.483 189.578 140.12 189.578C140.265 189.578 140.431 189.596 140.619 189.632C140.808 189.661 140.938 189.694 141.01 189.73ZM147.526 201.763C146.708 201.763 145.966 201.625 145.3 201.35C144.641 201.068 144.073 200.673 143.595 200.166C143.124 199.66 142.762 199.059 142.509 198.364C142.256 197.669 142.129 196.908 142.129 196.083V195.627C142.129 194.671 142.27 193.821 142.553 193.075C142.835 192.322 143.219 191.685 143.704 191.164C144.189 190.642 144.739 190.248 145.354 189.98C145.97 189.712 146.607 189.578 147.266 189.578C148.106 189.578 148.83 189.723 149.438 190.012C150.053 190.302 150.556 190.707 150.947 191.229C151.338 191.743 151.628 192.351 151.816 193.053C152.004 193.748 152.098 194.508 152.098 195.334V196.235H143.324V194.595H150.089V194.443C150.06 193.922 149.952 193.415 149.763 192.923C149.582 192.431 149.293 192.025 148.895 191.707C148.496 191.388 147.953 191.229 147.266 191.229C146.81 191.229 146.39 191.326 146.006 191.522C145.622 191.71 145.293 191.993 145.018 192.369C144.743 192.746 144.529 193.205 144.377 193.748C144.225 194.291 144.149 194.917 144.149 195.627V196.083C144.149 196.641 144.225 197.165 144.377 197.658C144.536 198.143 144.764 198.57 145.061 198.939C145.365 199.308 145.731 199.598 146.158 199.808C146.592 200.018 147.085 200.123 147.635 200.123C148.344 200.123 148.945 199.978 149.438 199.689C149.93 199.399 150.361 199.012 150.73 198.527L151.946 199.493C151.693 199.877 151.371 200.242 150.98 200.59C150.589 200.937 150.107 201.22 149.535 201.437C148.971 201.654 148.301 201.763 147.526 201.763ZM156.442 192.13V201.546H154.422V189.795H156.334L156.442 192.13ZM156.03 195.225L155.096 195.193C155.103 194.389 155.208 193.647 155.411 192.966C155.613 192.279 155.914 191.681 156.312 191.174C156.71 190.668 157.206 190.277 157.8 190.002C158.393 189.719 159.081 189.578 159.863 189.578C160.413 189.578 160.92 189.658 161.383 189.817C161.847 189.969 162.249 190.212 162.589 190.545C162.929 190.878 163.193 191.305 163.382 191.826C163.57 192.347 163.664 192.977 163.664 193.716V201.546H161.655V193.813C161.655 193.198 161.55 192.706 161.34 192.336C161.137 191.967 160.848 191.699 160.471 191.533C160.095 191.359 159.653 191.272 159.146 191.272C158.553 191.272 158.057 191.377 157.659 191.587C157.26 191.797 156.942 192.087 156.703 192.456C156.464 192.825 156.29 193.249 156.182 193.727C156.08 194.197 156.03 194.697 156.03 195.225ZM163.642 194.117L162.296 194.53C162.303 193.886 162.408 193.267 162.611 192.673C162.821 192.079 163.121 191.551 163.512 191.088C163.91 190.624 164.399 190.259 164.978 189.991C165.557 189.716 166.22 189.578 166.965 189.578C167.595 189.578 168.153 189.661 168.638 189.828C169.13 189.994 169.543 190.251 169.876 190.599C170.216 190.939 170.473 191.377 170.647 191.913C170.821 192.449 170.908 193.086 170.908 193.824V201.546H168.888V193.803C168.888 193.144 168.783 192.633 168.573 192.271C168.37 191.902 168.08 191.645 167.704 191.5C167.335 191.348 166.893 191.272 166.379 191.272C165.937 191.272 165.546 191.348 165.206 191.5C164.866 191.652 164.58 191.862 164.348 192.13C164.117 192.391 163.939 192.691 163.816 193.031C163.7 193.372 163.642 193.734 163.642 194.117ZM173.416 195.801V195.551C173.416 194.704 173.539 193.918 173.785 193.194C174.032 192.463 174.386 191.83 174.85 191.294C175.313 190.751 175.874 190.331 176.533 190.034C177.192 189.73 177.93 189.578 178.748 189.578C179.574 189.578 180.316 189.73 180.975 190.034C181.641 190.331 182.205 190.751 182.669 191.294C183.139 191.83 183.498 192.463 183.744 193.194C183.99 193.918 184.113 194.704 184.113 195.551V195.801C184.113 196.648 183.99 197.433 183.744 198.157C183.498 198.881 183.139 199.515 182.669 200.058C182.205 200.594 181.644 201.013 180.985 201.318C180.334 201.614 179.595 201.763 178.77 201.763C177.945 201.763 177.203 201.614 176.544 201.318C175.885 201.013 175.32 200.594 174.85 200.058C174.386 199.515 174.032 198.881 173.785 198.157C173.539 197.433 173.416 196.648 173.416 195.801ZM175.425 195.551V195.801C175.425 196.387 175.494 196.941 175.632 197.462C175.769 197.976 175.975 198.432 176.251 198.831C176.533 199.229 176.884 199.544 177.304 199.775C177.724 200 178.213 200.112 178.77 200.112C179.32 200.112 179.802 200 180.214 199.775C180.634 199.544 180.982 199.229 181.257 198.831C181.532 198.432 181.738 197.976 181.876 197.462C182.021 196.941 182.093 196.387 182.093 195.801V195.551C182.093 194.972 182.021 194.425 181.876 193.911C181.738 193.39 181.528 192.93 181.246 192.532C180.971 192.126 180.624 191.808 180.204 191.576C179.791 191.345 179.306 191.229 178.748 191.229C178.198 191.229 177.713 191.345 177.293 191.576C176.88 191.808 176.533 192.126 176.251 192.532C175.975 192.93 175.769 193.39 175.632 193.911C175.494 194.425 175.425 194.972 175.425 195.551ZM190.032 199.732L193.246 189.795H195.299L191.074 201.546H189.728L190.032 199.732ZM187.349 189.795L190.662 199.786L190.89 201.546H189.543L185.286 189.795H187.349ZM201.956 201.763C201.138 201.763 200.396 201.625 199.73 201.35C199.071 201.068 198.502 200.673 198.025 200.166C197.554 199.66 197.192 199.059 196.939 198.364C196.685 197.669 196.559 196.908 196.559 196.083V195.627C196.559 194.671 196.7 193.821 196.982 193.075C197.264 192.322 197.648 191.685 198.133 191.164C198.618 190.642 199.169 190.248 199.784 189.98C200.399 189.712 201.036 189.578 201.695 189.578C202.535 189.578 203.259 189.723 203.867 190.012C204.483 190.302 204.986 190.707 205.377 191.229C205.768 191.743 206.057 192.351 206.245 193.053C206.434 193.748 206.528 194.508 206.528 195.334V196.235H197.753V194.595H204.519V194.443C204.49 193.922 204.381 193.415 204.193 192.923C204.012 192.431 203.722 192.025 203.324 191.707C202.926 191.388 202.383 191.229 201.695 191.229C201.239 191.229 200.819 191.326 200.435 191.522C200.052 191.71 199.722 191.993 199.447 192.369C199.172 192.746 198.959 193.205 198.807 193.748C198.654 194.291 198.578 194.917 198.578 195.627V196.083C198.578 196.641 198.654 197.165 198.807 197.658C198.966 198.143 199.194 198.57 199.491 198.939C199.795 199.308 200.16 199.598 200.588 199.808C201.022 200.018 201.514 200.123 202.064 200.123C202.774 200.123 203.375 199.978 203.867 199.689C204.36 199.399 204.79 199.012 205.16 198.527L206.376 199.493C206.122 199.877 205.8 200.242 205.409 200.59C205.018 200.937 204.537 201.22 203.965 201.437C203.4 201.654 202.731 201.763 201.956 201.763ZM216.28 199.265V184.865H218.3V201.546H216.454L216.28 199.265ZM208.374 195.801V195.573C208.374 194.675 208.483 193.86 208.7 193.129C208.924 192.391 209.239 191.757 209.645 191.229C210.057 190.7 210.546 190.295 211.111 190.012C211.683 189.723 212.32 189.578 213.022 189.578C213.761 189.578 214.405 189.708 214.955 189.969C215.513 190.222 215.983 190.595 216.367 191.088C216.758 191.573 217.066 192.159 217.29 192.847C217.514 193.535 217.67 194.313 217.757 195.182V196.181C217.677 197.042 217.522 197.817 217.29 198.505C217.066 199.193 216.758 199.779 216.367 200.264C215.983 200.749 215.513 201.122 214.955 201.383C214.398 201.636 213.746 201.763 213 201.763C212.313 201.763 211.683 201.614 211.111 201.318C210.546 201.021 210.057 200.604 209.645 200.069C209.239 199.533 208.924 198.903 208.7 198.179C208.483 197.448 208.374 196.655 208.374 195.801ZM210.394 195.573V195.801C210.394 196.387 210.452 196.937 210.568 197.451C210.691 197.965 210.879 198.418 211.132 198.809C211.386 199.2 211.708 199.508 212.099 199.732C212.49 199.949 212.957 200.058 213.5 200.058C214.166 200.058 214.713 199.917 215.14 199.634C215.574 199.352 215.922 198.979 216.182 198.516C216.443 198.052 216.646 197.549 216.79 197.006V194.389C216.704 193.991 216.577 193.607 216.41 193.238C216.251 192.861 216.041 192.528 215.78 192.239C215.527 191.942 215.212 191.707 214.836 191.533C214.466 191.359 214.028 191.272 213.522 191.272C212.971 191.272 212.497 191.388 212.099 191.62C211.708 191.844 211.386 192.155 211.132 192.554C210.879 192.945 210.691 193.401 210.568 193.922C210.452 194.436 210.394 194.986 210.394 195.573ZM229.942 201.546H227.933V188.557C227.933 187.71 228.085 186.997 228.389 186.418C228.7 185.831 229.145 185.39 229.724 185.093C230.304 184.789 230.991 184.637 231.788 184.637C232.02 184.637 232.251 184.651 232.483 184.68C232.722 184.709 232.953 184.753 233.178 184.811L233.069 186.45C232.917 186.414 232.744 186.389 232.548 186.374C232.36 186.36 232.172 186.353 231.983 186.353C231.556 186.353 231.187 186.44 230.876 186.613C230.572 186.78 230.34 187.026 230.181 187.352C230.021 187.678 229.942 188.079 229.942 188.557V201.546ZM232.439 189.795V191.337H226.076V189.795H232.439ZM236.686 191.641V201.546H234.677V189.795H236.631L236.686 191.641ZM240.356 189.73L240.345 191.598C240.179 191.562 240.02 191.54 239.868 191.533C239.723 191.518 239.556 191.511 239.368 191.511C238.905 191.511 238.496 191.583 238.141 191.728C237.786 191.873 237.486 192.076 237.239 192.336C236.993 192.597 236.798 192.908 236.653 193.27C236.515 193.625 236.425 194.016 236.382 194.443L235.817 194.769C235.817 194.06 235.886 193.393 236.023 192.771C236.168 192.148 236.389 191.598 236.686 191.12C236.982 190.635 237.359 190.259 237.815 189.991C238.278 189.716 238.829 189.578 239.466 189.578C239.611 189.578 239.777 189.596 239.965 189.632C240.154 189.661 240.284 189.694 240.356 189.73ZM241.464 195.801V195.551C241.464 194.704 241.587 193.918 241.833 193.194C242.079 192.463 242.434 191.83 242.897 191.294C243.361 190.751 243.922 190.331 244.581 190.034C245.24 189.73 245.978 189.578 246.796 189.578C247.621 189.578 248.364 189.73 249.022 190.034C249.688 190.331 250.253 190.751 250.717 191.294C251.187 191.83 251.546 192.463 251.792 193.194C252.038 193.918 252.161 194.704 252.161 195.551V195.801C252.161 196.648 252.038 197.433 251.792 198.157C251.546 198.881 251.187 199.515 250.717 200.058C250.253 200.594 249.692 201.013 249.033 201.318C248.382 201.614 247.643 201.763 246.818 201.763C245.993 201.763 245.25 201.614 244.592 201.318C243.933 201.013 243.368 200.594 242.897 200.058C242.434 199.515 242.079 198.881 241.833 198.157C241.587 197.433 241.464 196.648 241.464 195.801ZM243.473 195.551V195.801C243.473 196.387 243.542 196.941 243.679 197.462C243.817 197.976 244.023 198.432 244.298 198.831C244.581 199.229 244.932 199.544 245.352 199.775C245.772 200 246.26 200.112 246.818 200.112C247.368 200.112 247.85 200 248.262 199.775C248.682 199.544 249.03 199.229 249.305 198.831C249.58 198.432 249.786 197.976 249.924 197.462C250.069 196.941 250.141 196.387 250.141 195.801V195.551C250.141 194.972 250.069 194.425 249.924 193.911C249.786 193.39 249.576 192.93 249.294 192.532C249.019 192.126 248.671 191.808 248.251 191.576C247.839 191.345 247.354 191.229 246.796 191.229C246.246 191.229 245.761 191.345 245.341 191.576C244.928 191.808 244.581 192.126 244.298 192.532C244.023 192.93 243.817 193.39 243.679 193.911C243.542 194.425 243.473 194.972 243.473 195.551ZM256.679 192.13V201.546H254.659V189.795H256.57L256.679 192.13ZM256.266 195.225L255.332 195.193C255.339 194.389 255.444 193.647 255.647 192.966C255.85 192.279 256.15 191.681 256.548 191.174C256.946 190.668 257.442 190.277 258.036 190.002C258.63 189.719 259.318 189.578 260.099 189.578C260.65 189.578 261.156 189.658 261.62 189.817C262.083 189.969 262.485 190.212 262.825 190.545C263.166 190.878 263.43 191.305 263.618 191.826C263.806 192.347 263.9 192.977 263.9 193.716V201.546H261.891V193.813C261.891 193.198 261.786 192.706 261.576 192.336C261.374 191.967 261.084 191.699 260.708 191.533C260.331 191.359 259.889 191.272 259.383 191.272C258.789 191.272 258.293 191.377 257.895 191.587C257.497 191.797 257.178 192.087 256.939 192.456C256.7 192.825 256.527 193.249 256.418 193.727C256.317 194.197 256.266 194.697 256.266 195.225ZM263.879 194.117L262.532 194.53C262.539 193.886 262.644 193.267 262.847 192.673C263.057 192.079 263.357 191.551 263.748 191.088C264.147 190.624 264.635 190.259 265.214 189.991C265.794 189.716 266.456 189.578 267.202 189.578C267.832 189.578 268.389 189.661 268.874 189.828C269.367 189.994 269.779 190.251 270.112 190.599C270.453 190.939 270.71 191.377 270.883 191.913C271.057 192.449 271.144 193.086 271.144 193.824V201.546H269.124V193.803C269.124 193.144 269.019 192.633 268.809 192.271C268.606 191.902 268.317 191.645 267.94 191.5C267.571 191.348 267.129 191.272 266.615 191.272C266.174 191.272 265.783 191.348 265.442 191.5C265.102 191.652 264.816 191.862 264.585 192.13C264.353 192.391 264.176 192.691 264.052 193.031C263.937 193.372 263.879 193.734 263.879 194.117ZM281.711 192.054V206.063H279.691V189.795H281.537L281.711 192.054ZM289.627 195.573V195.801C289.627 196.655 289.526 197.448 289.323 198.179C289.121 198.903 288.824 199.533 288.433 200.069C288.049 200.604 287.575 201.021 287.01 201.318C286.445 201.614 285.797 201.763 285.066 201.763C284.321 201.763 283.662 201.64 283.09 201.394C282.518 201.147 282.033 200.789 281.635 200.318C281.236 199.848 280.918 199.283 280.679 198.624C280.447 197.965 280.288 197.223 280.201 196.398V195.182C280.288 194.313 280.451 193.535 280.69 192.847C280.929 192.159 281.244 191.573 281.635 191.088C282.033 190.595 282.514 190.222 283.079 189.969C283.644 189.708 284.295 189.578 285.034 189.578C285.772 189.578 286.427 189.723 286.999 190.012C287.571 190.295 288.053 190.7 288.444 191.229C288.835 191.757 289.128 192.391 289.323 193.129C289.526 193.86 289.627 194.675 289.627 195.573ZM287.607 195.801V195.573C287.607 194.986 287.546 194.436 287.423 193.922C287.3 193.401 287.108 192.945 286.847 192.554C286.594 192.155 286.268 191.844 285.87 191.62C285.472 191.388 284.997 191.272 284.447 191.272C283.94 191.272 283.499 191.359 283.122 191.533C282.753 191.707 282.438 191.942 282.178 192.239C281.917 192.528 281.703 192.861 281.537 193.238C281.378 193.607 281.258 193.991 281.178 194.389V197.202C281.323 197.708 281.526 198.186 281.787 198.635C282.047 199.077 282.395 199.435 282.829 199.71C283.263 199.978 283.81 200.112 284.469 200.112C285.012 200.112 285.479 200 285.87 199.775C286.268 199.544 286.594 199.229 286.847 198.831C287.108 198.432 287.3 197.976 287.423 197.462C287.546 196.941 287.607 196.387 287.607 195.801ZM294.373 184.865V201.546H292.353V184.865H294.373ZM304.527 199.537V193.488C304.527 193.024 304.433 192.622 304.245 192.282C304.064 191.935 303.789 191.667 303.419 191.479C303.05 191.29 302.594 191.196 302.051 191.196C301.544 191.196 301.099 191.283 300.715 191.457C300.339 191.631 300.042 191.859 299.825 192.141C299.615 192.423 299.51 192.727 299.51 193.053H297.501C297.501 192.633 297.609 192.217 297.827 191.804C298.044 191.392 298.355 191.019 298.76 190.686C299.173 190.345 299.665 190.078 300.237 189.882C300.817 189.679 301.461 189.578 302.17 189.578C303.025 189.578 303.778 189.723 304.429 190.012C305.088 190.302 305.602 190.74 305.971 191.326C306.348 191.906 306.536 192.633 306.536 193.509V198.983C306.536 199.374 306.569 199.79 306.634 200.232C306.706 200.673 306.811 201.053 306.949 201.372V201.546H304.853C304.751 201.314 304.672 201.006 304.614 200.623C304.556 200.232 304.527 199.87 304.527 199.537ZM304.875 194.422L304.896 195.833H302.865C302.294 195.833 301.783 195.88 301.334 195.974C300.885 196.061 300.509 196.195 300.205 196.376C299.901 196.557 299.669 196.785 299.51 197.06C299.351 197.328 299.271 197.643 299.271 198.005C299.271 198.375 299.354 198.711 299.521 199.015C299.687 199.319 299.937 199.562 300.27 199.743C300.61 199.917 301.027 200.003 301.519 200.003C302.134 200.003 302.677 199.873 303.148 199.613C303.618 199.352 303.991 199.033 304.266 198.657C304.549 198.28 304.701 197.915 304.723 197.56L305.58 198.527C305.53 198.831 305.392 199.167 305.168 199.537C304.943 199.906 304.643 200.261 304.266 200.601C303.897 200.934 303.456 201.213 302.942 201.437C302.435 201.654 301.863 201.763 301.226 201.763C300.429 201.763 299.731 201.607 299.13 201.296C298.536 200.985 298.073 200.568 297.74 200.047C297.414 199.518 297.251 198.928 297.251 198.277C297.251 197.647 297.374 197.093 297.62 196.615C297.866 196.13 298.221 195.728 298.684 195.41C299.148 195.084 299.705 194.838 300.357 194.671C301.008 194.505 301.736 194.422 302.54 194.422H304.875ZM312.824 200.329L316.093 189.795H318.243L313.53 203.359C313.421 203.649 313.276 203.96 313.095 204.293C312.922 204.633 312.697 204.956 312.422 205.26C312.147 205.564 311.814 205.81 311.423 205.998C311.039 206.194 310.58 206.291 310.044 206.291C309.885 206.291 309.682 206.27 309.436 206.226C309.19 206.183 309.016 206.147 308.914 206.118L308.904 204.489C308.962 204.496 309.052 204.503 309.175 204.51C309.305 204.525 309.396 204.532 309.447 204.532C309.903 204.532 310.29 204.471 310.609 204.347C310.927 204.232 311.195 204.032 311.412 203.75C311.637 203.475 311.829 203.095 311.988 202.61L312.824 200.329ZM310.424 189.795L313.476 198.918L313.997 201.035L312.552 201.774L308.23 189.795H310.424ZM318.916 200.481C318.916 200.141 319.021 199.855 319.231 199.623C319.448 199.384 319.76 199.265 320.165 199.265C320.571 199.265 320.878 199.384 321.088 199.623C321.306 199.855 321.414 200.141 321.414 200.481C321.414 200.814 321.306 201.097 321.088 201.328C320.878 201.56 320.571 201.676 320.165 201.676C319.76 201.676 319.448 201.56 319.231 201.328C319.021 201.097 318.916 200.814 318.916 200.481Z" fill="black" fill-opacity="0.45"/>
</g>
</g>
<rect x="0.79432" y="0.79432" width="379.411" height="270.411" rx="2.38296" stroke="#F0F0F0" stroke-width="1.58864"/>
<defs>
<clipPath id="clip0_3_4948">
<rect width="381" height="272" rx="3.17728" fill="white"/>
</clipPath>
<clipPath id="clip1_3_4948">
<rect width="330.164" height="70" fill="white" transform="translate(25.4183 141.546)"/>
</clipPath>
</defs>
</svg>
