<svg width="632" height="97" viewBox="0 0 632 97" fill="none" xmlns="http://www.w3.org/2000/svg">
<rect width="632" height="97" fill="#FCC3D7"/>
<rect y="25.5" width="46" height="46" rx="23" fill="#13D390"/>
<path d="M11.75 43.5H20.5C21.2417 43.5 21.9667 43.2801 22.5834 42.868C23.2001 42.456 23.6807 41.8703 23.9645 41.1851C24.2484 40.4998 24.3226 39.7458 24.1779 39.0184C24.0333 38.291 23.6761 37.6228 23.1517 37.0984C22.6272 36.5739 21.959 36.2168 21.2316 36.0721C20.5042 35.9274 19.7502 36.0016 19.0649 36.2855C18.3797 36.5693 17.794 37.0499 17.382 37.6666C16.9699 38.2833 16.75 39.0083 16.75 39.75" stroke="white" stroke-width="2.5" stroke-linecap="round" stroke-linejoin="round"/>
<path d="M13 53.5H26.75C27.4917 53.5 28.2167 53.7199 28.8334 54.132C29.4501 54.544 29.9307 55.1297 30.2145 55.8149C30.4984 56.5002 30.5726 57.2542 30.4279 57.9816C30.2833 58.709 29.9261 59.3772 29.4017 59.9017C28.8772 60.4261 28.209 60.7833 27.4816 60.9279C26.7542 61.0726 26.0002 60.9984 25.3149 60.7145C24.6297 60.4307 24.044 59.9501 23.632 59.3334C23.2199 58.7167 23 57.9917 23 57.25" stroke="white" stroke-width="2.5" stroke-linecap="round" stroke-linejoin="round"/>
<path d="M10.5 48.5H31.75C32.4917 48.5 33.2167 48.2801 33.8334 47.868C34.4501 47.456 34.9307 46.8703 35.2145 46.1851C35.4984 45.4998 35.5726 44.7458 35.4279 44.0184C35.2833 43.291 34.9261 42.6228 34.4017 42.0984C33.8772 41.5739 33.209 41.2168 32.4816 41.0721C31.7542 40.9274 31.0002 41.0016 30.3149 41.2855C29.6297 41.5693 29.044 42.0499 28.632 42.6666C28.2199 43.2833 28 44.0083 28 44.75" stroke="white" stroke-width="2.5" stroke-linecap="round" stroke-linejoin="round"/>
<rect x="54" y="25.5" width="46" height="46" rx="23" fill="#13D390"/>
<path d="M65.75 43.5H74.5C75.2417 43.5 75.9667 43.2801 76.5834 42.868C77.2001 42.456 77.6807 41.8703 77.9645 41.1851C78.2484 40.4998 78.3226 39.7458 78.1779 39.0184C78.0333 38.291 77.6761 37.6228 77.1517 37.0984C76.6272 36.5739 75.959 36.2168 75.2316 36.0721C74.5042 35.9274 73.7502 36.0016 73.0649 36.2855C72.3797 36.5693 71.794 37.0499 71.382 37.6666C70.9699 38.2833 70.75 39.0083 70.75 39.75" stroke="white" stroke-width="2.5" stroke-linecap="round" stroke-linejoin="round"/>
<path d="M67 53.5H80.75C81.4917 53.5 82.2167 53.7199 82.8334 54.132C83.4501 54.544 83.9307 55.1297 84.2145 55.8149C84.4984 56.5002 84.5726 57.2542 84.4279 57.9816C84.2833 58.709 83.9261 59.3772 83.4017 59.9017C82.8772 60.4261 82.209 60.7833 81.4816 60.9279C80.7542 61.0726 80.0002 60.9984 79.3149 60.7145C78.6297 60.4307 78.044 59.9501 77.632 59.3334C77.2199 58.7167 77 57.9917 77 57.25" stroke="white" stroke-width="2.5" stroke-linecap="round" stroke-linejoin="round"/>
<path d="M64.5 48.5H85.75C86.4917 48.5 87.2167 48.2801 87.8334 47.868C88.4501 47.456 88.9307 46.8703 89.2145 46.1851C89.4984 45.4998 89.5726 44.7458 89.4279 44.0184C89.2833 43.291 88.9261 42.6228 88.4017 42.0984C87.8772 41.5739 87.209 41.2168 86.4816 41.0721C85.7542 40.9274 85.0002 41.0016 84.3149 41.2855C83.6297 41.5693 83.044 42.0499 82.632 42.6666C82.2199 43.2833 82 44.0083 82 44.75" stroke="white" stroke-width="2.5" stroke-linecap="round" stroke-linejoin="round"/>
<path d="M319.07 26V8.18H323.008V26H319.07ZM325.817 26V13.284H329.403V14.56C329.872 14.0907 330.356 13.724 330.855 13.46C331.368 13.196 331.903 13.064 332.461 13.064C332.989 13.064 333.421 13.196 333.759 13.46C334.111 13.7093 334.375 14.0613 334.551 14.516C334.727 14.956 334.815 15.462 334.815 16.034V26H331.251V16.54C331.251 16.232 331.199 15.9973 331.097 15.836C330.994 15.6747 330.803 15.594 330.525 15.594C330.378 15.594 330.202 15.638 329.997 15.726C329.806 15.7993 329.608 15.9093 329.403 16.056V26H325.817ZM337.339 26V8.18H340.903V14.406C341.372 13.9367 341.864 13.5993 342.377 13.394C342.89 13.174 343.44 13.064 344.027 13.064C344.54 13.064 344.966 13.196 345.303 13.46C345.655 13.7093 345.919 14.0613 346.095 14.516C346.271 14.956 346.359 15.462 346.359 16.034V26H342.795V16.54C342.795 16.232 342.744 15.9973 342.641 15.836C342.538 15.6747 342.348 15.594 342.069 15.594C341.922 15.594 341.746 15.638 341.541 15.726C341.336 15.7993 341.123 15.9093 340.903 16.056V26H337.339ZM351.478 26.22C350.833 26.22 350.29 26.066 349.85 25.758C349.41 25.45 349.08 25.0613 348.86 24.592C348.64 24.108 348.53 23.6167 348.53 23.118C348.53 22.326 348.684 21.6587 348.992 21.116C349.315 20.5733 349.733 20.1187 350.246 19.752C350.76 19.3853 351.324 19.0773 351.94 18.828C352.556 18.564 353.165 18.3293 353.766 18.124V16.848C353.766 16.628 353.744 16.4373 353.7 16.276C353.656 16.1 353.583 15.968 353.48 15.88C353.378 15.7773 353.224 15.726 353.018 15.726C352.813 15.726 352.652 15.77 352.534 15.858C352.432 15.946 352.358 16.0707 352.314 16.232C352.27 16.3787 352.241 16.5473 352.226 16.738L352.138 17.662L348.794 17.53C348.868 16.0047 349.271 14.8827 350.004 14.164C350.752 13.4307 351.867 13.064 353.348 13.064C354.639 13.064 355.6 13.4233 356.23 14.142C356.876 14.846 357.198 15.7627 357.198 16.892V22.832C357.198 23.36 357.206 23.822 357.22 24.218C357.25 24.614 357.279 24.9587 357.308 25.252C357.352 25.5453 357.389 25.7947 357.418 26H354.206C354.162 25.6627 354.111 25.296 354.052 24.9C353.994 24.504 353.95 24.2693 353.92 24.196C353.774 24.724 353.495 25.1933 353.084 25.604C352.688 26.0147 352.153 26.22 351.478 26.22ZM352.754 23.8C352.901 23.8 353.033 23.7707 353.15 23.712C353.282 23.6533 353.4 23.5727 353.502 23.47C353.605 23.3673 353.693 23.2647 353.766 23.162V19.686C353.473 19.862 353.202 20.0453 352.952 20.236C352.703 20.412 352.49 20.61 352.314 20.83C352.138 21.05 351.999 21.292 351.896 21.556C351.808 21.8053 351.764 22.0913 351.764 22.414C351.764 22.8393 351.852 23.1767 352.028 23.426C352.204 23.6753 352.446 23.8 352.754 23.8ZM359.827 26V8.18H363.391V26H359.827ZM370.218 26.22C369.294 26.22 368.502 26.0587 367.842 25.736C367.182 25.3987 366.676 24.9147 366.324 24.284C365.972 23.6387 365.796 22.8687 365.796 21.974V17.31C365.796 16.4007 365.972 15.6307 366.324 15C366.676 14.3693 367.182 13.8927 367.842 13.57C368.517 13.2327 369.309 13.064 370.218 13.064C371.157 13.064 371.934 13.2253 372.55 13.548C373.181 13.8707 373.65 14.3473 373.958 14.978C374.281 15.6087 374.442 16.386 374.442 17.31V19.862H369.338V22.304C369.338 22.6267 369.375 22.8907 369.448 23.096C369.522 23.3013 369.624 23.448 369.756 23.536C369.888 23.624 370.042 23.668 370.218 23.668C370.394 23.668 370.548 23.6313 370.68 23.558C370.827 23.47 370.937 23.338 371.01 23.162C371.098 22.986 371.142 22.744 371.142 22.436V21.094H374.442V22.326C374.442 23.6167 374.068 24.592 373.32 25.252C372.572 25.8973 371.538 26.22 370.218 26.22ZM369.338 18.19H371.142V16.914C371.142 16.5767 371.098 16.3127 371.01 16.122C370.937 15.9313 370.827 15.7993 370.68 15.726C370.548 15.6527 370.387 15.616 370.196 15.616C370.02 15.616 369.866 15.66 369.734 15.748C369.617 15.836 369.522 15.99 369.448 16.21C369.375 16.4153 369.338 16.716 369.338 17.112V18.19ZM149.14 51.75H151.64L150.39 44.25L149.14 51.75ZM145.39 58L149.14 40.5H151.64L155.39 58H152.89L151.952 53.625H148.827L147.89 58H145.39ZM160.505 58.1758C159.522 58.1758 158.806 57.9251 158.357 57.4238C157.914 56.9225 157.686 56.1641 157.673 55.1484V47.375H156.423V45.5H157.673V41.125H160.173V45.5H162.048V47.375H160.173V54.6699C160.173 55.1712 160.242 55.5391 160.379 55.7734C160.515 56.0078 160.792 56.125 161.209 56.125C161.391 56.125 161.671 56.0924 162.048 56.0273V58.0586C161.423 58.1367 160.909 58.1758 160.505 58.1758ZM172.104 58.1758C171.121 58.1758 170.405 57.9251 169.955 57.4238C169.513 56.9225 169.285 56.1641 169.272 55.1484V47.375H168.022V45.5H169.272V41.125H171.772V45.5H173.647V47.375H171.772V54.6699C171.772 55.1712 171.84 55.5391 171.977 55.7734C172.114 56.0078 172.39 56.125 172.807 56.125C172.989 56.125 173.269 56.0924 173.647 56.0273V58.0586C173.022 58.1367 172.508 58.1758 172.104 58.1758ZM175.823 58V40.5H178.323V46.8477C178.694 46.5091 178.997 46.252 179.231 46.0762C179.466 45.8939 179.788 45.7246 180.198 45.5684C180.615 45.4056 181.057 45.3242 181.526 45.3242C182.06 45.3242 182.493 45.5195 182.825 45.9102C183.157 46.3008 183.323 46.7793 183.323 47.3457V58H180.823V48.625C180.823 48.1953 180.768 47.8796 180.657 47.6777C180.553 47.4759 180.322 47.375 179.964 47.375C179.456 47.375 178.909 47.6191 178.323 48.1074V58H175.823ZM189.396 58.1758C188.79 58.1758 188.263 58.0716 187.814 57.8633C187.371 57.6549 187.016 57.3848 186.749 57.0527C186.489 56.7142 186.277 56.2845 186.114 55.7637C185.952 55.2363 185.838 54.7122 185.773 54.1914C185.714 53.6641 185.678 53.0521 185.665 52.3555C185.646 51.8086 185.646 51.2617 185.665 50.7148C185.685 50.0638 185.727 49.4876 185.792 48.9863C185.864 48.4785 185.984 47.987 186.154 47.5117C186.323 47.0365 186.541 46.6458 186.808 46.3398C187.081 46.0339 187.436 45.7897 187.872 45.6074C188.315 45.4186 188.829 45.3242 189.415 45.3242C189.949 45.3242 190.418 45.3958 190.821 45.5391C191.232 45.6758 191.57 45.8874 191.837 46.1738C192.111 46.4538 192.335 46.7663 192.511 47.1113C192.693 47.4564 192.83 47.8763 192.921 48.3711C193.012 48.8594 193.074 49.3411 193.107 49.8164C193.146 50.2917 193.165 50.8385 193.165 51.457V51.75H188.165V52.375C188.165 52.4596 188.165 52.5931 188.165 52.7754C188.152 53.0163 188.149 53.2669 188.155 53.5273C188.168 53.7812 188.182 54.0319 188.195 54.2793C188.208 54.5267 188.243 54.7643 188.302 54.9922C188.361 55.2135 188.432 55.4089 188.517 55.5781C188.601 55.7474 188.719 55.8809 188.868 55.9785C189.025 56.0762 189.207 56.125 189.415 56.125C189.676 56.125 189.89 56.0762 190.06 55.9785C190.229 55.8743 190.353 55.7214 190.431 55.5195C190.515 55.3177 190.574 55.1159 190.607 54.9141C190.639 54.7122 190.659 54.4583 190.665 54.1523V53.625H193.146V54.123C193.087 55.4577 192.758 56.4668 192.159 57.1504C191.56 57.834 190.639 58.1758 189.396 58.1758ZM188.165 50.5H190.646V49.748C190.639 49.416 190.62 49.1263 190.587 48.8789C190.555 48.6315 190.496 48.3841 190.411 48.1367C190.333 47.8893 190.21 47.7005 190.04 47.5703C189.871 47.4401 189.663 47.375 189.415 47.375C189.161 47.375 188.946 47.4434 188.771 47.5801C188.601 47.7168 188.474 47.9154 188.39 48.1758C188.312 48.4297 188.256 48.6803 188.224 48.9277C188.191 49.1751 188.172 49.4714 188.165 49.8164V50.5ZM203.025 58.1758C201.997 58.1758 201.17 57.8698 200.545 57.2578C199.926 56.6458 199.503 55.8516 199.275 54.875L201.15 54.25C201.6 55.5 202.225 56.125 203.025 56.125C203.423 56.125 203.729 56.0176 203.943 55.8027C204.165 55.5814 204.275 55.2721 204.275 54.875C204.275 54.2956 204.067 53.8138 203.65 53.4297L201.15 51.5547C200.87 51.3659 200.636 51.1901 200.447 51.0273C200.258 50.8581 200.066 50.653 199.871 50.4121C199.676 50.1712 199.526 49.901 199.422 49.6016C199.324 49.3021 199.275 48.9766 199.275 48.625C199.275 47.5573 199.614 46.7402 200.291 46.1738C200.975 45.6074 201.886 45.3242 203.025 45.3242C203.566 45.3242 204.054 45.4121 204.49 45.5879C204.926 45.7572 205.291 45.998 205.584 46.3105C205.883 46.623 206.128 46.9714 206.316 47.3555C206.512 47.7331 206.665 48.1562 206.775 48.625L204.9 49.25C204.809 49.0026 204.718 48.791 204.627 48.6152C204.536 48.4329 204.412 48.2376 204.256 48.0293C204.106 47.821 203.927 47.6615 203.719 47.5508C203.51 47.4336 203.279 47.375 203.025 47.375C202.628 47.375 202.319 47.4857 202.098 47.707C201.883 47.9219 201.775 48.2279 201.775 48.625C201.775 49.0156 201.984 49.3672 202.4 49.6797L204.9 51.5547C205.18 51.776 205.418 51.9909 205.613 52.1992C205.815 52.401 206.01 52.6387 206.199 52.9121C206.388 53.179 206.531 53.4785 206.629 53.8105C206.727 54.1426 206.775 54.4974 206.775 54.875C206.775 55.9427 206.434 56.7598 205.75 57.3262C205.073 57.8926 204.165 58.1758 203.025 58.1758ZM212.116 58.1758C211.133 58.1758 210.416 57.9251 209.967 57.4238C209.524 56.9225 209.297 56.1641 209.284 55.1484V47.375H208.034V45.5H209.284V41.125H211.784V45.5H213.659V47.375H211.784V54.6699C211.784 55.1712 211.852 55.5391 211.989 55.7734C212.125 56.0078 212.402 56.125 212.819 56.125C213.001 56.125 213.281 56.0924 213.659 56.0273V58.0586C213.034 58.1367 212.519 58.1758 212.116 58.1758ZM219.263 56.125C219.438 56.125 219.608 56.0729 219.77 55.9688C219.94 55.8646 220.067 55.7637 220.151 55.666C220.236 55.5684 220.34 55.4382 220.464 55.2754C220.483 55.2428 220.499 55.2201 220.513 55.207V51.75C220.408 51.8216 220.236 51.9323 219.995 52.082C219.754 52.2318 219.562 52.3555 219.419 52.4531C219.276 52.5443 219.103 52.6745 218.901 52.8438C218.699 53.0065 218.543 53.166 218.432 53.3223C218.322 53.472 218.224 53.6576 218.139 53.8789C218.055 54.1003 218.013 54.3314 218.013 54.5723C218.013 55.6074 218.429 56.125 219.263 56.125ZM218.013 58.1758C217.316 58.1758 216.723 57.8763 216.235 57.2773C215.753 56.6719 215.513 55.9915 215.513 55.2363C215.513 54.6309 215.613 54.0807 215.815 53.5859C216.024 53.0911 216.242 52.6973 216.47 52.4043C216.697 52.1048 217.078 51.7988 217.612 51.4863C218.146 51.1673 218.55 50.9492 218.823 50.832C219.096 50.7148 219.572 50.5228 220.249 50.2559C220.366 50.2103 220.454 50.1745 220.513 50.1484V49.25C220.513 48.6185 220.425 48.1302 220.249 47.7852C220.073 47.4336 219.744 47.2578 219.263 47.2578C218.833 47.2578 218.524 47.4076 218.335 47.707C218.152 48 218.048 48.4069 218.022 48.9277C218.016 48.9993 218.013 49.1068 218.013 49.25H215.513C215.526 48.0521 215.861 47.0983 216.518 46.3887C217.176 45.679 218.091 45.3242 219.263 45.3242C220.428 45.3242 221.343 45.6855 222.007 46.4082C222.677 47.1243 223.013 48.0716 223.013 49.25V54.875C223.013 56.1771 223.12 57.2188 223.335 58H220.845L220.513 56.125C220.382 56.3854 220.275 56.5872 220.19 56.7305C220.112 56.8737 219.995 57.0527 219.839 57.2676C219.682 57.4759 219.526 57.6387 219.37 57.7559C219.214 57.8665 219.018 57.9642 218.784 58.0488C218.55 58.1335 218.292 58.1758 218.013 58.1758ZM225.521 58V45.5H228.021V47.1699C228.275 46.6751 228.642 46.2454 229.124 45.8809C229.613 45.5098 230.153 45.3242 230.745 45.3242C230.765 45.3242 230.898 45.3372 231.146 45.3633V48.127C230.683 47.9447 230.221 47.8535 229.759 47.8535C229.238 47.8535 228.818 48.0098 228.499 48.3223C228.18 48.6348 228.021 49.0482 228.021 49.5625V58H225.521ZM236.115 58.1758C235.132 58.1758 234.416 57.9251 233.966 57.4238C233.524 56.9225 233.296 56.1641 233.283 55.1484V47.375H232.033V45.5H233.283V41.125H235.783V45.5H237.658V47.375H235.783V54.6699C235.783 55.1712 235.851 55.5391 235.988 55.7734C236.125 56.0078 236.401 56.125 236.818 56.125C237 56.125 237.28 56.0924 237.658 56.0273V58.0586C237.033 58.1367 236.518 58.1758 236.115 58.1758ZM250.643 57.0039C250.064 57.7852 249.103 58.1758 247.762 58.1758C246.421 58.1758 245.461 57.7852 244.881 57.0039C244.302 56.2227 244.012 55.0964 244.012 53.625V49.875C244.012 48.4036 244.302 47.2773 244.881 46.4961C245.461 45.7148 246.421 45.3242 247.762 45.3242C249.103 45.3242 250.064 45.7148 250.643 46.4961C251.222 47.2773 251.512 48.4036 251.512 49.875V53.625C251.512 55.0964 251.222 56.2227 250.643 57.0039ZM247.293 56.0469C247.43 56.099 247.586 56.125 247.762 56.125C247.938 56.125 248.091 56.099 248.221 56.0469C248.358 55.9948 248.468 55.9329 248.553 55.8613C248.644 55.7832 248.719 55.6725 248.778 55.5293C248.836 55.3796 248.882 55.2493 248.914 55.1387C248.947 55.028 248.97 54.8685 248.983 54.6602C248.996 54.4518 249.002 54.2891 249.002 54.1719C249.009 54.0482 249.012 53.8659 249.012 53.625V49.875C249.012 49.6341 249.009 49.4551 249.002 49.3379C249.002 49.2142 248.996 49.0482 248.983 48.8398C248.97 48.6315 248.947 48.472 248.914 48.3613C248.882 48.2507 248.836 48.1237 248.778 47.9805C248.719 47.8307 248.644 47.7201 248.553 47.6484C248.468 47.5703 248.358 47.5052 248.221 47.4531C248.091 47.401 247.938 47.375 247.762 47.375C247.586 47.375 247.43 47.401 247.293 47.4531C247.163 47.5052 247.052 47.5703 246.961 47.6484C246.877 47.7201 246.805 47.8307 246.746 47.9805C246.688 48.1237 246.642 48.2507 246.61 48.3613C246.577 48.472 246.554 48.6315 246.541 48.8398C246.528 49.0482 246.519 49.2142 246.512 49.3379C246.512 49.4551 246.512 49.6341 246.512 49.875V53.625C246.512 53.8659 246.512 54.0482 246.512 54.1719C246.519 54.2891 246.528 54.4518 246.541 54.6602C246.554 54.8685 246.577 55.028 246.61 55.1387C246.642 55.2493 246.688 55.3796 246.746 55.5293C246.805 55.6725 246.877 55.7832 246.961 55.8613C247.052 55.9329 247.163 55.9948 247.293 56.0469ZM254.567 58V47.375H253.317V45.5H254.567V45.0215C254.567 44.4941 254.587 44.0482 254.626 43.6836C254.665 43.3125 254.743 42.9577 254.86 42.6191C254.984 42.2741 255.147 42.0007 255.348 41.7988C255.557 41.5905 255.83 41.4277 256.169 41.3105C256.514 41.1868 256.924 41.125 257.399 41.125C257.803 41.125 258.317 41.1641 258.942 41.2422V43.0977C258.877 43.0911 258.744 43.0749 258.542 43.0488C258.34 43.0163 258.194 43 258.102 43C257.686 43 257.409 43.1335 257.272 43.4004C257.136 43.6608 257.067 44.0482 257.067 44.5625V45.5H258.942V47.375H257.067V58H254.567ZM264.545 61.125V59.25C265.039 59.25 265.433 59.2174 265.726 59.1523C266.026 59.0872 266.25 58.9701 266.4 58.8008C266.55 58.638 266.644 58.4557 266.683 58.2539C266.729 58.0586 266.752 57.7852 266.752 57.4336L263.92 45.5H266.42C267.39 50.8581 267.914 53.7747 267.992 54.25C268.129 53.3711 268.282 52.4466 268.451 51.4766C268.627 50.5 268.822 49.4258 269.037 48.2539C269.258 47.0755 269.427 46.1576 269.545 45.5H272.045L268.92 58.625C268.711 59.5299 268.272 60.1712 267.601 60.5488C266.931 60.9329 265.996 61.125 264.798 61.125H264.545ZM279.973 57.0039C279.393 57.7852 278.433 58.1758 277.092 58.1758C275.751 58.1758 274.79 57.7852 274.211 57.0039C273.632 56.2227 273.342 55.0964 273.342 53.625V49.875C273.342 48.4036 273.632 47.2773 274.211 46.4961C274.79 45.7148 275.751 45.3242 277.092 45.3242C278.433 45.3242 279.393 45.7148 279.973 46.4961C280.552 47.2773 280.842 48.4036 280.842 49.875V53.625C280.842 55.0964 280.552 56.2227 279.973 57.0039ZM276.623 56.0469C276.76 56.099 276.916 56.125 277.092 56.125C277.268 56.125 277.421 56.099 277.551 56.0469C277.688 55.9948 277.798 55.9329 277.883 55.8613C277.974 55.7832 278.049 55.6725 278.107 55.5293C278.166 55.3796 278.212 55.2493 278.244 55.1387C278.277 55.028 278.299 54.8685 278.312 54.6602C278.326 54.4518 278.332 54.2891 278.332 54.1719C278.339 54.0482 278.342 53.8659 278.342 53.625V49.875C278.342 49.6341 278.339 49.4551 278.332 49.3379C278.332 49.2142 278.326 49.0482 278.312 48.8398C278.299 48.6315 278.277 48.472 278.244 48.3613C278.212 48.2507 278.166 48.1237 278.107 47.9805C278.049 47.8307 277.974 47.7201 277.883 47.6484C277.798 47.5703 277.688 47.5052 277.551 47.4531C277.421 47.401 277.268 47.375 277.092 47.375C276.916 47.375 276.76 47.401 276.623 47.4531C276.493 47.5052 276.382 47.5703 276.291 47.6484C276.206 47.7201 276.135 47.8307 276.076 47.9805C276.018 48.1237 275.972 48.2507 275.939 48.3613C275.907 48.472 275.884 48.6315 275.871 48.8398C275.858 49.0482 275.848 49.2142 275.842 49.3379C275.842 49.4551 275.842 49.6341 275.842 49.875V53.625C275.842 53.8659 275.842 54.0482 275.842 54.1719C275.848 54.2891 275.858 54.4518 275.871 54.6602C275.884 54.8685 275.907 55.028 275.939 55.1387C275.972 55.2493 276.018 55.3796 276.076 55.5293C276.135 55.6725 276.206 55.7832 276.291 55.8613C276.382 55.9329 276.493 55.9948 276.623 56.0469ZM285.03 58.1758C284.483 58.1758 284.043 57.9837 283.711 57.5996C283.379 57.209 283.213 56.7272 283.213 56.1543V45.5H285.713V55.3926C285.713 55.653 285.791 55.8646 285.948 56.0273C286.11 56.1901 286.319 56.2715 286.573 56.2715C286.709 56.2715 286.843 56.2552 286.973 56.2227C287.103 56.1901 287.23 56.1348 287.354 56.0566C287.484 55.972 287.585 55.9069 287.657 55.8613C287.728 55.8092 287.829 55.7246 287.959 55.6074C288.096 55.4902 288.181 55.4186 288.213 55.3926V45.5H290.713V58H288.213V56.6523C287.966 56.8672 287.784 57.0234 287.666 57.1211C287.556 57.2188 287.383 57.3522 287.149 57.5215C286.914 57.6842 286.706 57.8047 286.524 57.8828C286.348 57.9544 286.127 58.0195 285.86 58.0781C285.593 58.1432 285.316 58.1758 285.03 58.1758ZM293.241 58V45.5H295.741V47.1699C295.995 46.6751 296.363 46.2454 296.845 45.8809C297.333 45.5098 297.873 45.3242 298.466 45.3242C298.485 45.3242 298.619 45.3372 298.866 45.3633V48.127C298.404 47.9447 297.942 47.8535 297.479 47.8535C296.958 47.8535 296.539 48.0098 296.22 48.3223C295.901 48.6348 295.741 49.0482 295.741 49.5625V58H293.241ZM304.781 58V45.5H307.281V46.8477C307.652 46.5091 307.955 46.252 308.189 46.0762C308.423 45.8939 308.746 45.7246 309.156 45.5684C309.573 45.4056 310.015 45.3242 310.484 45.3242C311.018 45.3242 311.451 45.5195 311.783 45.9102C312.115 46.3008 312.281 46.7793 312.281 47.3457V58H309.781V48.625C309.781 48.1888 309.719 47.873 309.595 47.6777C309.472 47.4759 309.221 47.375 308.843 47.375C308.629 47.375 308.414 47.4206 308.199 47.5117C307.991 47.5964 307.834 47.6777 307.73 47.7559C307.626 47.8275 307.476 47.9447 307.281 48.1074V58H304.781ZM318.354 58.1758C317.748 58.1758 317.221 58.0716 316.771 57.8633C316.329 57.6549 315.974 57.3848 315.707 57.0527C315.447 56.7142 315.235 56.2845 315.072 55.7637C314.91 55.2363 314.796 54.7122 314.73 54.1914C314.672 53.6641 314.636 53.0521 314.623 52.3555C314.604 51.8086 314.604 51.2617 314.623 50.7148C314.643 50.0638 314.685 49.4876 314.75 48.9863C314.822 48.4785 314.942 47.987 315.111 47.5117C315.281 47.0365 315.499 46.6458 315.766 46.3398C316.039 46.0339 316.394 45.7897 316.83 45.6074C317.273 45.4186 317.787 45.3242 318.373 45.3242C318.907 45.3242 319.376 45.3958 319.779 45.5391C320.189 45.6758 320.528 45.8874 320.795 46.1738C321.068 46.4538 321.293 46.7663 321.469 47.1113C321.651 47.4564 321.788 47.8763 321.879 48.3711C321.97 48.8594 322.032 49.3411 322.064 49.8164C322.104 50.2917 322.123 50.8385 322.123 51.457V51.75H317.123V52.375C317.123 52.4596 317.123 52.5931 317.123 52.7754C317.11 53.0163 317.107 53.2669 317.113 53.5273C317.126 53.7812 317.139 54.0319 317.152 54.2793C317.165 54.5267 317.201 54.7643 317.26 54.9922C317.318 55.2135 317.39 55.4089 317.475 55.5781C317.559 55.7474 317.676 55.8809 317.826 55.9785C317.982 56.0762 318.165 56.125 318.373 56.125C318.633 56.125 318.848 56.0762 319.018 55.9785C319.187 55.8743 319.311 55.7214 319.389 55.5195C319.473 55.3177 319.532 55.1159 319.564 54.9141C319.597 54.7122 319.617 54.4583 319.623 54.1523V53.625H322.104V54.123C322.045 55.4577 321.716 56.4668 321.117 57.1504C320.518 57.834 319.597 58.1758 318.354 58.1758ZM317.123 50.5H319.604V49.748C319.597 49.416 319.577 49.1263 319.545 48.8789C319.512 48.6315 319.454 48.3841 319.369 48.1367C319.291 47.8893 319.167 47.7005 318.998 47.5703C318.829 47.4401 318.62 47.375 318.373 47.375C318.119 47.375 317.904 47.4434 317.729 47.5801C317.559 47.7168 317.432 47.9154 317.348 48.1758C317.27 48.4297 317.214 48.6803 317.182 48.9277C317.149 49.1751 317.13 49.4714 317.123 49.8164V50.5ZM323.313 58L325.813 51.75V51.4961L323.313 45.5H325.725L327.395 50.2754L329.065 45.5H331.438L328.938 51.4961V51.75L331.438 58H328.938L327.454 53.1855L325.813 58H323.313ZM336.563 58.1758C335.58 58.1758 334.864 57.9251 334.415 57.4238C333.972 56.9225 333.744 56.1641 333.731 55.1484V47.375H332.481V45.5H333.731V41.125H336.231V45.5H338.106V47.375H336.231V54.6699C336.231 55.1712 336.3 55.5391 336.436 55.7734C336.573 56.0078 336.85 56.125 337.266 56.125C337.449 56.125 337.729 56.0924 338.106 56.0273V58.0586C337.481 58.1367 336.967 58.1758 336.563 58.1758ZM348.162 58.1758C347.179 58.1758 346.463 57.9251 346.013 57.4238C345.571 56.9225 345.343 56.1641 345.33 55.1484V47.375H344.08V45.5H345.33V41.125H347.83V45.5H349.705V47.375H347.83V54.6699C347.83 55.1712 347.898 55.5391 348.035 55.7734C348.171 56.0078 348.448 56.125 348.865 56.125C349.047 56.125 349.327 56.0924 349.705 56.0273V58.0586C349.08 58.1367 348.565 58.1758 348.162 58.1758ZM353.668 58.1758C353.121 58.1758 352.682 57.9837 352.35 57.5996C352.018 57.209 351.852 56.7272 351.852 56.1543V45.5H354.352V55.3926C354.352 55.653 354.43 55.8646 354.586 56.0273C354.749 56.1901 354.957 56.2715 355.211 56.2715C355.348 56.2715 355.481 56.2552 355.611 56.2227C355.742 56.1901 355.868 56.1348 355.992 56.0566C356.122 55.972 356.223 55.9069 356.295 55.8613C356.367 55.8092 356.467 55.7246 356.598 55.6074C356.734 55.4902 356.819 55.4186 356.852 55.3926V45.5H359.352V58H356.852V56.6523C356.604 56.8672 356.422 57.0234 356.305 57.1211C356.194 57.2188 356.021 57.3522 355.787 57.5215C355.553 57.6842 355.344 57.8047 355.162 57.8828C354.986 57.9544 354.765 58.0195 354.498 58.0781C354.231 58.1432 353.954 58.1758 353.668 58.1758ZM361.879 58V45.5H364.379V47.1699C364.633 46.6751 365.001 46.2454 365.483 45.8809C365.971 45.5098 366.511 45.3242 367.104 45.3242C367.123 45.3242 367.257 45.3372 367.504 45.3633V48.127C367.042 47.9447 366.58 47.8535 366.118 47.8535C365.597 47.8535 365.177 48.0098 364.858 48.3223C364.539 48.6348 364.379 49.0482 364.379 49.5625V58H361.879ZM369.007 58V45.5H371.507V46.8477C371.878 46.5091 372.18 46.252 372.415 46.0762C372.649 45.8939 372.971 45.7246 373.382 45.5684C373.798 45.4056 374.241 45.3242 374.71 45.3242C375.244 45.3242 375.677 45.5195 376.009 45.9102C376.341 46.3008 376.507 46.7793 376.507 47.3457V58H374.007V48.625C374.007 48.1888 373.945 47.873 373.821 47.6777C373.697 47.4759 373.447 47.375 373.069 47.375C372.854 47.375 372.639 47.4206 372.425 47.5117C372.216 47.5964 372.06 47.6777 371.956 47.7559C371.852 47.8275 371.702 47.9447 371.507 48.1074V58H369.007ZM386.923 58.1758C385.94 58.1758 385.224 57.9251 384.775 57.4238C384.332 56.9225 384.104 56.1641 384.091 55.1484V47.375H382.841V45.5H384.091V41.125H386.591V45.5H388.466V47.375H386.591V54.6699C386.591 55.1712 386.66 55.5391 386.797 55.7734C386.933 56.0078 387.21 56.125 387.627 56.125C387.809 56.125 388.089 56.0924 388.466 56.0273V58.0586C387.841 58.1367 387.327 58.1758 386.923 58.1758ZM390.643 58V45.5H393.143V47.1699C393.396 46.6751 393.764 46.2454 394.246 45.8809C394.734 45.5098 395.275 45.3242 395.867 45.3242C395.887 45.3242 396.02 45.3372 396.268 45.3633V48.127C395.805 47.9447 395.343 47.8535 394.881 47.8535C394.36 47.8535 393.94 48.0098 393.621 48.3223C393.302 48.6348 393.143 49.0482 393.143 49.5625V58H390.643ZM401.198 56.125C401.373 56.125 401.543 56.0729 401.705 55.9688C401.875 55.8646 402.002 55.7637 402.086 55.666C402.171 55.5684 402.275 55.4382 402.399 55.2754C402.418 55.2428 402.435 55.2201 402.448 55.207V51.75C402.343 51.8216 402.171 51.9323 401.93 52.082C401.689 52.2318 401.497 52.3555 401.354 52.4531C401.211 52.5443 401.038 52.6745 400.836 52.8438C400.635 53.0065 400.478 53.166 400.368 53.3223C400.257 53.472 400.159 53.6576 400.075 53.8789C399.99 54.1003 399.948 54.3314 399.948 54.5723C399.948 55.6074 400.364 56.125 401.198 56.125ZM399.948 58.1758C399.251 58.1758 398.659 57.8763 398.17 57.2773C397.689 56.6719 397.448 55.9915 397.448 55.2363C397.448 54.6309 397.549 54.0807 397.75 53.5859C397.959 53.0911 398.177 52.6973 398.405 52.4043C398.633 52.1048 399.013 51.7988 399.547 51.4863C400.081 51.1673 400.485 50.9492 400.758 50.832C401.032 50.7148 401.507 50.5228 402.184 50.2559C402.301 50.2103 402.389 50.1745 402.448 50.1484V49.25C402.448 48.6185 402.36 48.1302 402.184 47.7852C402.008 47.4336 401.679 47.2578 401.198 47.2578C400.768 47.2578 400.459 47.4076 400.27 47.707C400.088 48 399.983 48.4069 399.957 48.9277C399.951 48.9993 399.948 49.1068 399.948 49.25H397.448C397.461 48.0521 397.796 47.0983 398.454 46.3887C399.111 45.679 400.026 45.3242 401.198 45.3242C402.363 45.3242 403.278 45.6855 403.942 46.4082C404.612 47.1243 404.948 48.0716 404.948 49.25V54.875C404.948 56.1771 405.055 57.2188 405.27 58H402.78L402.448 56.125C402.317 56.3854 402.21 56.5872 402.125 56.7305C402.047 56.8737 401.93 57.0527 401.774 57.2676C401.618 57.4759 401.461 57.6387 401.305 57.7559C401.149 57.8665 400.954 57.9642 400.719 58.0488C400.485 58.1335 400.228 58.1758 399.948 58.1758ZM407.456 58V45.5H409.956V46.8477C410.327 46.5091 410.63 46.252 410.864 46.0762C411.098 45.8939 411.421 45.7246 411.831 45.5684C412.248 45.4056 412.69 45.3242 413.159 45.3242C413.693 45.3242 414.126 45.5195 414.458 45.9102C414.79 46.3008 414.956 46.7793 414.956 47.3457V58H412.456V48.625C412.456 48.1888 412.394 47.873 412.27 47.6777C412.147 47.4759 411.896 47.375 411.518 47.375C411.304 47.375 411.089 47.4206 410.874 47.5117C410.666 47.5964 410.509 47.6777 410.405 47.7559C410.301 47.8275 410.151 47.9447 409.956 48.1074V58H407.456ZM420.775 58.1758C419.746 58.1758 418.919 57.8698 418.294 57.2578C417.676 56.6458 417.252 55.8516 417.025 54.875L418.9 54.25C419.349 55.5 419.974 56.125 420.775 56.125C421.172 56.125 421.478 56.0176 421.693 55.8027C421.914 55.5814 422.025 55.2721 422.025 54.875C422.025 54.2956 421.816 53.8138 421.4 53.4297L418.9 51.5547C418.62 51.3659 418.385 51.1901 418.197 51.0273C418.008 50.8581 417.816 50.653 417.62 50.4121C417.425 50.1712 417.275 49.901 417.171 49.6016C417.073 49.3021 417.025 48.9766 417.025 48.625C417.025 47.5573 417.363 46.7402 418.04 46.1738C418.724 45.6074 419.635 45.3242 420.775 45.3242C421.315 45.3242 421.803 45.4121 422.239 45.5879C422.676 45.7572 423.04 45.998 423.333 46.3105C423.633 46.623 423.877 46.9714 424.066 47.3555C424.261 47.7331 424.414 48.1562 424.525 48.625L422.65 49.25C422.558 49.0026 422.467 48.791 422.376 48.6152C422.285 48.4329 422.161 48.2376 422.005 48.0293C421.855 47.821 421.676 47.6615 421.468 47.5508C421.26 47.4336 421.029 47.375 420.775 47.375C420.377 47.375 420.068 47.4857 419.847 47.707C419.632 47.9219 419.525 48.2279 419.525 48.625C419.525 49.0156 419.733 49.3672 420.15 49.6797L422.65 51.5547C422.93 51.776 423.167 51.9909 423.363 52.1992C423.564 52.401 423.76 52.6387 423.948 52.9121C424.137 53.179 424.28 53.4785 424.378 53.8105C424.476 54.1426 424.525 54.4974 424.525 54.875C424.525 55.9427 424.183 56.7598 423.499 57.3262C422.822 57.8926 421.914 58.1758 420.775 58.1758ZM427.052 58V47.375H425.802V45.5H427.052V45.0215C427.052 44.4941 427.072 44.0482 427.111 43.6836C427.15 43.3125 427.228 42.9577 427.345 42.6191C427.469 42.2741 427.632 42.0007 427.834 41.7988C428.042 41.5905 428.315 41.4277 428.654 41.3105C428.999 41.1868 429.409 41.125 429.884 41.125C430.288 41.125 430.802 41.1641 431.427 41.2422V43.0977C431.362 43.0911 431.229 43.0749 431.027 43.0488C430.825 43.0163 430.679 43 430.587 43C430.171 43 429.894 43.1335 429.757 43.4004C429.621 43.6608 429.552 44.0482 429.552 44.5625V45.5H431.427V47.375H429.552V58H427.052ZM439.277 57.0039C438.698 57.7852 437.738 58.1758 436.396 58.1758C435.055 58.1758 434.095 57.7852 433.516 57.0039C432.936 56.2227 432.646 55.0964 432.646 53.625V49.875C432.646 48.4036 432.936 47.2773 433.516 46.4961C434.095 45.7148 435.055 45.3242 436.396 45.3242C437.738 45.3242 438.698 45.7148 439.277 46.4961C439.857 47.2773 440.146 48.4036 440.146 49.875V53.625C440.146 55.0964 439.857 56.2227 439.277 57.0039ZM435.928 56.0469C436.064 56.099 436.221 56.125 436.396 56.125C436.572 56.125 436.725 56.099 436.855 56.0469C436.992 55.9948 437.103 55.9329 437.188 55.8613C437.279 55.7832 437.354 55.6725 437.412 55.5293C437.471 55.3796 437.516 55.2493 437.549 55.1387C437.581 55.028 437.604 54.8685 437.617 54.6602C437.63 54.4518 437.637 54.2891 437.637 54.1719C437.643 54.0482 437.646 53.8659 437.646 53.625V49.875C437.646 49.6341 437.643 49.4551 437.637 49.3379C437.637 49.2142 437.63 49.0482 437.617 48.8398C437.604 48.6315 437.581 48.472 437.549 48.3613C437.516 48.2507 437.471 48.1237 437.412 47.9805C437.354 47.8307 437.279 47.7201 437.188 47.6484C437.103 47.5703 436.992 47.5052 436.855 47.4531C436.725 47.401 436.572 47.375 436.396 47.375C436.221 47.375 436.064 47.401 435.928 47.4531C435.798 47.5052 435.687 47.5703 435.596 47.6484C435.511 47.7201 435.439 47.8307 435.381 47.9805C435.322 48.1237 435.277 48.2507 435.244 48.3613C435.212 48.472 435.189 48.6315 435.176 48.8398C435.163 49.0482 435.153 49.2142 435.146 49.3379C435.146 49.4551 435.146 49.6341 435.146 49.875V53.625C435.146 53.8659 435.146 54.0482 435.146 54.1719C435.153 54.2891 435.163 54.4518 435.176 54.6602C435.189 54.8685 435.212 55.028 435.244 55.1387C435.277 55.2493 435.322 55.3796 435.381 55.5293C435.439 55.6725 435.511 55.7832 435.596 55.8613C435.687 55.9329 435.798 55.9948 435.928 56.0469ZM442.547 58V45.5H445.047V47.1699C445.301 46.6751 445.669 46.2454 446.151 45.8809C446.639 45.5098 447.179 45.3242 447.772 45.3242C447.791 45.3242 447.925 45.3372 448.172 45.3633V48.127C447.71 47.9447 447.248 47.8535 446.786 47.8535C446.265 47.8535 445.845 48.0098 445.526 48.3223C445.207 48.6348 445.047 49.0482 445.047 49.5625V58H442.547ZM449.675 58V45.5H452.175V46.916C453.067 45.8548 454.105 45.3242 455.29 45.3242C455.889 45.3242 456.328 45.4577 456.608 45.7246C456.888 45.985 457.077 46.4017 457.175 46.9746C457.585 46.4342 458.027 46.0241 458.503 45.7441C458.978 45.4642 459.577 45.3242 460.3 45.3242C460.508 45.3242 460.694 45.347 460.856 45.3926C461.026 45.4316 461.172 45.4805 461.296 45.5391C461.419 45.5977 461.527 45.6888 461.618 45.8125C461.716 45.9297 461.794 46.0404 461.852 46.1445C461.917 46.2422 461.97 46.3854 462.009 46.5742C462.054 46.763 462.087 46.9193 462.106 47.043C462.126 47.1667 462.142 47.349 462.155 47.5898C462.168 47.8307 462.175 48.0195 462.175 48.1562C462.175 48.293 462.175 48.498 462.175 48.7715C462.175 48.8301 462.175 48.8757 462.175 48.9082V58H459.675V48.8789C459.675 48.8464 459.675 48.7943 459.675 48.7227C459.675 48.5078 459.671 48.3418 459.665 48.2246C459.658 48.1074 459.636 47.974 459.596 47.8242C459.564 47.668 459.502 47.554 459.411 47.4824C459.32 47.4108 459.199 47.375 459.05 47.375C458.796 47.375 458.542 47.4271 458.288 47.5312C458.034 47.6289 457.835 47.7266 457.692 47.8242C457.555 47.9154 457.383 48.0456 457.175 48.2148V58H454.675V48.9277C454.675 48.8887 454.675 48.8301 454.675 48.752C454.675 48.5697 454.675 48.4329 454.675 48.3418C454.675 48.2507 454.662 48.1335 454.636 47.9902C454.616 47.8405 454.587 47.7298 454.548 47.6582C454.509 47.5866 454.447 47.5215 454.362 47.4629C454.277 47.4043 454.173 47.375 454.05 47.375C453.438 47.375 452.813 47.6387 452.175 48.166V58H449.675ZM469.232 43.625V41.125H471.732V43.625H469.232ZM469.232 58V45.5H471.732V58H469.232ZM474.475 58V45.5H476.975V46.8477C477.346 46.5091 477.648 46.252 477.883 46.0762C478.117 45.8939 478.439 45.7246 478.85 45.5684C479.266 45.4056 479.709 45.3242 480.178 45.3242C480.712 45.3242 481.145 45.5195 481.477 45.9102C481.809 46.3008 481.975 46.7793 481.975 47.3457V58H479.475V48.625C479.475 48.1888 479.413 47.873 479.289 47.6777C479.165 47.4759 478.915 47.375 478.537 47.375C478.322 47.375 478.107 47.4206 477.893 47.5117C477.684 47.5964 477.528 47.6777 477.424 47.7559C477.32 47.8275 477.17 47.9447 476.975 48.1074V58H474.475ZM487.979 58.1758C486.996 58.1758 486.28 57.9251 485.83 57.4238C485.388 56.9225 485.16 56.1641 485.147 55.1484V47.375H483.897V45.5H485.147V41.125H487.647V45.5H489.522V47.375H487.647V54.6699C487.647 55.1712 487.715 55.5391 487.852 55.7734C487.989 56.0078 488.265 56.125 488.682 56.125C488.864 56.125 489.144 56.0924 489.522 56.0273V58.0586C488.897 58.1367 488.383 58.1758 487.979 58.1758ZM498.016 57.0039C497.437 57.7852 496.477 58.1758 495.136 58.1758C493.794 58.1758 492.834 57.7852 492.255 57.0039C491.675 56.2227 491.386 55.0964 491.386 53.625V49.875C491.386 48.4036 491.675 47.2773 492.255 46.4961C492.834 45.7148 493.794 45.3242 495.136 45.3242C496.477 45.3242 497.437 45.7148 498.016 46.4961C498.596 47.2773 498.886 48.4036 498.886 49.875V53.625C498.886 55.0964 498.596 56.2227 498.016 57.0039ZM494.667 56.0469C494.804 56.099 494.96 56.125 495.136 56.125C495.311 56.125 495.464 56.099 495.595 56.0469C495.731 55.9948 495.842 55.9329 495.927 55.8613C496.018 55.7832 496.093 55.6725 496.151 55.5293C496.21 55.3796 496.255 55.2493 496.288 55.1387C496.32 55.028 496.343 54.8685 496.356 54.6602C496.369 54.4518 496.376 54.2891 496.376 54.1719C496.382 54.0482 496.386 53.8659 496.386 53.625V49.875C496.386 49.6341 496.382 49.4551 496.376 49.3379C496.376 49.2142 496.369 49.0482 496.356 48.8398C496.343 48.6315 496.32 48.472 496.288 48.3613C496.255 48.2507 496.21 48.1237 496.151 47.9805C496.093 47.8307 496.018 47.7201 495.927 47.6484C495.842 47.5703 495.731 47.5052 495.595 47.4531C495.464 47.401 495.311 47.375 495.136 47.375C494.96 47.375 494.804 47.401 494.667 47.4531C494.537 47.5052 494.426 47.5703 494.335 47.6484C494.25 47.7201 494.179 47.8307 494.12 47.9805C494.061 48.1237 494.016 48.2507 493.983 48.3613C493.951 48.472 493.928 48.6315 493.915 48.8398C493.902 49.0482 493.892 49.2142 493.886 49.3379C493.886 49.4551 493.886 49.6341 493.886 49.875V53.625C493.886 53.8659 493.886 54.0482 493.886 54.1719C493.892 54.2891 493.902 54.4518 493.915 54.6602C493.928 54.8685 493.951 55.028 493.983 55.1387C494.016 55.2493 494.061 55.3796 494.12 55.5293C494.179 55.6725 494.25 55.7832 494.335 55.8613C494.426 55.9329 494.537 55.9948 494.667 56.0469ZM510.367 58.1758C508.791 58.1758 507.587 57.7135 506.754 56.7891C505.927 55.8646 505.464 54.6016 505.367 53L507.867 52.375C507.99 54.875 508.824 56.125 510.367 56.125C511.617 56.125 512.242 55.5 512.242 54.25C512.242 53.8789 512.19 53.5371 512.086 53.2246C511.988 52.9056 511.835 52.6159 511.627 52.3555C511.418 52.0885 511.229 51.877 511.06 51.7207C510.891 51.5579 510.66 51.3594 510.367 51.125L507.242 48.625C506.669 48.1758 506.21 47.6061 505.865 46.916C505.526 46.2194 505.357 45.4284 505.357 44.543C505.357 43.2539 505.757 42.2285 506.558 41.4668C507.359 40.7051 508.42 40.3242 509.742 40.3242C511.161 40.3242 512.287 40.6725 513.121 41.3691C513.961 42.0592 514.478 43.0391 514.673 44.3086C514.693 44.4453 514.716 44.6341 514.742 44.875L512.242 45.5C512.235 45.3893 512.219 45.2233 512.193 45.002C512.082 44.2077 511.832 43.5729 511.441 43.0977C511.057 42.6159 510.49 42.375 509.742 42.375C509.143 42.375 508.681 42.5443 508.355 42.8828C508.03 43.2148 507.867 43.6803 507.867 44.2793C507.867 45.2624 508.283 46.0859 509.117 46.75L512.242 49.25C513.908 50.5977 514.742 52.209 514.742 54.084C514.742 55.3665 514.345 56.3691 513.55 57.0918C512.763 57.8145 511.701 58.1758 510.367 58.1758ZM518.178 58L515.863 45.5H518.08L519.467 54.9922L520.775 45.5H523.061L524.389 54.8945L525.756 45.5H527.982L525.561 58H523.256L521.928 49.3867L520.58 58H518.178ZM535.901 57.0039C535.321 57.7852 534.361 58.1758 533.02 58.1758C531.679 58.1758 530.718 57.7852 530.139 57.0039C529.56 56.2227 529.27 55.0964 529.27 53.625V49.875C529.27 48.4036 529.56 47.2773 530.139 46.4961C530.718 45.7148 531.679 45.3242 533.02 45.3242C534.361 45.3242 535.321 45.7148 535.901 46.4961C536.48 47.2773 536.77 48.4036 536.77 49.875V53.625C536.77 55.0964 536.48 56.2227 535.901 57.0039ZM532.551 56.0469C532.688 56.099 532.844 56.125 533.02 56.125C533.196 56.125 533.349 56.099 533.479 56.0469C533.616 55.9948 533.726 55.9329 533.811 55.8613C533.902 55.7832 533.977 55.6725 534.036 55.5293C534.094 55.3796 534.14 55.2493 534.172 55.1387C534.205 55.028 534.228 54.8685 534.241 54.6602C534.254 54.4518 534.26 54.2891 534.26 54.1719C534.267 54.0482 534.27 53.8659 534.27 53.625V49.875C534.27 49.6341 534.267 49.4551 534.26 49.3379C534.26 49.2142 534.254 49.0482 534.241 48.8398C534.228 48.6315 534.205 48.472 534.172 48.3613C534.14 48.2507 534.094 48.1237 534.036 47.9805C533.977 47.8307 533.902 47.7201 533.811 47.6484C533.726 47.5703 533.616 47.5052 533.479 47.4531C533.349 47.401 533.196 47.375 533.02 47.375C532.844 47.375 532.688 47.401 532.551 47.4531C532.421 47.5052 532.31 47.5703 532.219 47.6484C532.135 47.7201 532.063 47.8307 532.004 47.9805C531.946 48.1237 531.9 48.2507 531.868 48.3613C531.835 48.472 531.812 48.6315 531.799 48.8398C531.786 49.0482 531.776 49.2142 531.77 49.3379C531.77 49.4551 531.77 49.6341 531.77 49.875V53.625C531.77 53.8659 531.77 54.0482 531.77 54.1719C531.776 54.2891 531.786 54.4518 531.799 54.6602C531.812 54.8685 531.835 55.028 531.868 55.1387C531.9 55.2493 531.946 55.3796 532.004 55.5293C532.063 55.6725 532.135 55.7832 532.219 55.8613C532.31 55.9329 532.421 55.9948 532.551 56.0469ZM539.171 58V45.5H541.671V47.1699C541.925 46.6751 542.292 46.2454 542.774 45.8809C543.263 45.5098 543.803 45.3242 544.395 45.3242C544.415 45.3242 544.548 45.3372 544.796 45.3633V48.127C544.333 47.9447 543.871 47.8535 543.409 47.8535C542.888 47.8535 542.468 48.0098 542.149 48.3223C541.83 48.6348 541.671 49.0482 541.671 49.5625V58H539.171ZM549.745 56.125C550.351 56.125 550.976 55.9948 551.62 55.7344V47.873C551.06 47.541 550.435 47.375 549.745 47.375C549.498 47.375 549.29 47.4368 549.12 47.5605C548.951 47.6777 548.824 47.8535 548.739 48.0879C548.655 48.3158 548.593 48.5534 548.554 48.8008C548.515 49.0417 548.492 49.3281 548.486 49.6602C548.46 51.1185 548.46 52.2741 548.486 53.127C548.492 53.5436 548.515 53.9147 548.554 54.2402C548.593 54.5658 548.655 54.8815 548.739 55.1875C548.831 55.487 548.961 55.7181 549.13 55.8809C549.299 56.0436 549.504 56.125 549.745 56.125ZM549.12 58.1758C548.567 58.1758 548.082 58.0195 547.665 57.707C547.255 57.3945 546.936 56.9714 546.708 56.4375C546.487 55.9036 546.321 55.3503 546.21 54.7773C546.099 54.1979 546.031 53.5762 546.005 52.9121C545.992 52.6061 545.992 51.8574 546.005 50.666C546.018 50.2363 546.038 49.849 546.064 49.5039C546.09 49.1523 546.132 48.7878 546.191 48.4102C546.256 48.0326 546.334 47.7005 546.425 47.4141C546.523 47.1211 546.65 46.8411 546.806 46.5742C546.962 46.3008 547.144 46.0762 547.353 45.9004C547.561 45.7246 547.812 45.5846 548.105 45.4805C548.398 45.3763 548.723 45.3242 549.081 45.3242C549.361 45.3242 549.622 45.3633 549.863 45.4414C550.11 45.513 550.344 45.6302 550.566 45.793C550.787 45.9492 550.963 46.0892 551.093 46.2129C551.23 46.3366 551.405 46.5124 551.62 46.7402V40.5098H554.12V58H551.62V56.8672C551.243 57.2578 550.859 57.5736 550.468 57.8145C550.077 58.0553 549.628 58.1758 549.12 58.1758ZM255.871 90V72.5H258.371V80L262.121 72.5H265.246L261.486 79.375L265.871 90H262.746L259.621 81.875L258.371 84.375V90H255.871ZM267.139 75.625V73.125H269.639V75.625H267.139ZM267.139 90V77.5H269.639V90H267.139ZM272.382 90V77.5H274.882V79.1699C275.136 78.6751 275.503 78.2454 275.985 77.8809C276.473 77.5098 277.014 77.3242 277.606 77.3242C277.626 77.3242 277.759 77.3372 278.007 77.3633V80.127C277.544 79.9447 277.082 79.8535 276.62 79.8535C276.099 79.8535 275.679 80.0098 275.36 80.3223C275.041 80.6348 274.882 81.0482 274.882 81.5625V90H272.382ZM283.884 88.125C284.151 88.125 284.372 88.0273 284.548 87.832C284.73 87.6367 284.861 87.36 284.939 87.002C285.023 86.6374 285.079 86.276 285.105 85.918C285.137 85.5599 285.154 85.1432 285.154 84.668C285.154 84.3164 285.15 83.8509 285.144 83.2715C285.144 82.6921 285.144 82.2559 285.144 81.9629C285.144 81.6699 285.137 81.416 285.124 81.2012C285.111 80.9798 285.079 80.7487 285.027 80.5078C284.974 80.2669 284.903 80.0684 284.812 79.9121C284.727 79.7559 284.607 79.6289 284.45 79.5312C284.294 79.4271 284.105 79.375 283.884 79.375C283.194 79.375 282.569 79.541 282.009 79.873V87.7344C282.654 87.9948 283.279 88.125 283.884 88.125ZM284.509 90.1758C284.001 90.1758 283.552 90.0553 283.161 89.8145C282.771 89.5736 282.387 89.2578 282.009 88.8672V90H279.509V72.5098H282.009V78.7402C282.243 78.4928 282.419 78.3138 282.536 78.2031C282.654 78.0924 282.823 77.9525 283.044 77.7832C283.272 77.6139 283.506 77.4967 283.747 77.4316C283.988 77.36 284.255 77.3242 284.548 77.3242C284.971 77.3242 285.349 77.4023 285.681 77.5586C286.013 77.7083 286.286 77.8906 286.501 78.1055C286.716 78.3203 286.898 78.6296 287.048 79.0332C287.198 79.4368 287.308 79.8014 287.38 80.127C287.458 80.4525 287.517 80.8919 287.556 81.4453C287.595 81.9987 287.618 82.4479 287.624 82.793C287.631 83.1315 287.634 83.6003 287.634 84.1992V84.3652C287.634 84.9121 287.605 85.4395 287.546 85.9473C287.494 86.4551 287.393 86.9727 287.243 87.5C287.1 88.0273 286.915 88.4831 286.687 88.8672C286.465 89.2513 286.166 89.5671 285.788 89.8145C285.417 90.0553 284.991 90.1758 284.509 90.1758ZM289.322 93.125V91.25C289.817 91.25 290.211 91.2174 290.504 91.1523C290.803 91.0872 291.028 90.9701 291.177 90.8008C291.327 90.638 291.421 90.4557 291.461 90.2539C291.506 90.0586 291.529 89.7852 291.529 89.4336L288.697 77.5H291.197C292.167 82.8581 292.691 85.7747 292.769 86.25C292.906 85.3711 293.059 84.4466 293.228 83.4766C293.404 82.5 293.599 81.4258 293.814 80.2539C294.035 79.0755 294.205 78.1576 294.322 77.5H296.822L293.697 90.625C293.489 91.5299 293.049 92.1712 292.379 92.5488C291.708 92.9329 290.774 93.125 289.576 93.125H289.322ZM309.319 89.0039C308.739 89.7852 307.779 90.1758 306.438 90.1758C305.097 90.1758 304.136 89.7852 303.557 89.0039C302.978 88.2227 302.688 87.0964 302.688 85.625V81.875C302.688 80.4036 302.978 79.2773 303.557 78.4961C304.136 77.7148 305.097 77.3242 306.438 77.3242C307.779 77.3242 308.739 77.7148 309.319 78.4961C309.898 79.2773 310.188 80.4036 310.188 81.875V85.625C310.188 87.0964 309.898 88.2227 309.319 89.0039ZM305.969 88.0469C306.106 88.099 306.262 88.125 306.438 88.125C306.614 88.125 306.767 88.099 306.897 88.0469C307.034 87.9948 307.144 87.9329 307.229 87.8613C307.32 87.7832 307.395 87.6725 307.454 87.5293C307.512 87.3796 307.558 87.2493 307.59 87.1387C307.623 87.028 307.646 86.8685 307.659 86.6602C307.672 86.4518 307.678 86.2891 307.678 86.1719C307.685 86.0482 307.688 85.8659 307.688 85.625V81.875C307.688 81.6341 307.685 81.4551 307.678 81.3379C307.678 81.2142 307.672 81.0482 307.659 80.8398C307.646 80.6315 307.623 80.472 307.59 80.3613C307.558 80.2507 307.512 80.1237 307.454 79.9805C307.395 79.8307 307.32 79.7201 307.229 79.6484C307.144 79.5703 307.034 79.5052 306.897 79.4531C306.767 79.401 306.614 79.375 306.438 79.375C306.262 79.375 306.106 79.401 305.969 79.4531C305.839 79.5052 305.728 79.5703 305.637 79.6484C305.552 79.7201 305.481 79.8307 305.422 79.9805C305.364 80.1237 305.318 80.2507 305.286 80.3613C305.253 80.472 305.23 80.6315 305.217 80.8398C305.204 81.0482 305.194 81.2142 305.188 81.3379C305.188 81.4551 305.188 81.6341 305.188 81.875V85.625C305.188 85.8659 305.188 86.0482 305.188 86.1719C305.194 86.2891 305.204 86.4518 305.217 86.6602C305.23 86.8685 305.253 87.028 305.286 87.1387C305.318 87.2493 305.364 87.3796 305.422 87.5293C305.481 87.6725 305.552 87.7832 305.637 87.8613C305.728 87.9329 305.839 87.9948 305.969 88.0469ZM312.589 90V77.5H315.089V79.1699C315.343 78.6751 315.71 78.2454 316.192 77.8809C316.68 77.5098 317.221 77.3242 317.813 77.3242C317.833 77.3242 317.966 77.3372 318.214 77.3633V80.127C317.751 79.9447 317.289 79.8535 316.827 79.8535C316.306 79.8535 315.886 80.0098 315.567 80.3223C315.248 80.6348 315.089 81.0482 315.089 81.5625V90H312.589ZM324.236 90V72.5H326.736V80H331.111V72.5H333.611V90H331.111V81.875H326.736V90H324.236ZM339.781 88.125C339.957 88.125 340.126 88.0729 340.289 87.9688C340.458 87.8646 340.585 87.7637 340.67 87.666C340.755 87.5684 340.859 87.4382 340.982 87.2754C341.002 87.2428 341.018 87.2201 341.031 87.207V83.75C340.927 83.8216 340.755 83.9323 340.514 84.082C340.273 84.2318 340.081 84.3555 339.938 84.4531C339.794 84.5443 339.622 84.6745 339.42 84.8438C339.218 85.0065 339.062 85.166 338.951 85.3223C338.84 85.472 338.743 85.6576 338.658 85.8789C338.574 86.1003 338.531 86.3314 338.531 86.5723C338.531 87.6074 338.948 88.125 339.781 88.125ZM338.531 90.1758C337.835 90.1758 337.242 89.8763 336.754 89.2773C336.272 88.6719 336.031 87.9915 336.031 87.2363C336.031 86.6309 336.132 86.0807 336.334 85.5859C336.542 85.0911 336.76 84.6973 336.988 84.4043C337.216 84.1048 337.597 83.7988 338.131 83.4863C338.665 83.1673 339.068 82.9492 339.342 82.832C339.615 82.7148 340.09 82.5228 340.768 82.2559C340.885 82.2103 340.973 82.1745 341.031 82.1484V81.25C341.031 80.6185 340.943 80.1302 340.768 79.7852C340.592 79.4336 340.263 79.2578 339.781 79.2578C339.352 79.2578 339.042 79.4076 338.854 79.707C338.671 80 338.567 80.4069 338.541 80.9277C338.535 80.9993 338.531 81.1068 338.531 81.25H336.031C336.044 80.0521 336.38 79.0983 337.037 78.3887C337.695 77.679 338.609 77.3242 339.781 77.3242C340.947 77.3242 341.861 77.6855 342.525 78.4082C343.196 79.1243 343.531 80.0716 343.531 81.25V86.875C343.531 88.1771 343.639 89.2188 343.854 90H341.363L341.031 88.125C340.901 88.3854 340.794 88.5872 340.709 88.7305C340.631 88.8737 340.514 89.0527 340.357 89.2676C340.201 89.4759 340.045 89.6387 339.889 89.7559C339.732 89.8665 339.537 89.9642 339.303 90.0488C339.068 90.1335 338.811 90.1758 338.531 90.1758ZM346.039 90V77.5H348.539V78.916C349.431 77.8548 350.47 77.3242 351.655 77.3242C352.254 77.3242 352.693 77.4577 352.973 77.7246C353.253 77.985 353.442 78.4017 353.539 78.9746C353.95 78.4342 354.392 78.0241 354.868 77.7441C355.343 77.4642 355.942 77.3242 356.664 77.3242C356.873 77.3242 357.058 77.347 357.221 77.3926C357.39 77.4316 357.537 77.4805 357.661 77.5391C357.784 77.5977 357.892 77.6888 357.983 77.8125C358.08 77.9297 358.159 78.0404 358.217 78.1445C358.282 78.2422 358.334 78.3854 358.373 78.5742C358.419 78.763 358.452 78.9193 358.471 79.043C358.491 79.1667 358.507 79.349 358.52 79.5898C358.533 79.8307 358.539 80.0195 358.539 80.1562C358.539 80.293 358.539 80.498 358.539 80.7715C358.539 80.8301 358.539 80.8757 358.539 80.9082V90H356.039V80.8789C356.039 80.8464 356.039 80.7943 356.039 80.7227C356.039 80.5078 356.036 80.3418 356.03 80.2246C356.023 80.1074 356 79.974 355.961 79.8242C355.929 79.668 355.867 79.554 355.776 79.4824C355.685 79.4108 355.564 79.375 355.414 79.375C355.161 79.375 354.907 79.4271 354.653 79.5312C354.399 79.6289 354.2 79.7266 354.057 79.8242C353.92 79.9154 353.748 80.0456 353.539 80.2148V90H351.039V80.9277C351.039 80.8887 351.039 80.8301 351.039 80.752C351.039 80.5697 351.039 80.4329 351.039 80.3418C351.039 80.2507 351.026 80.1335 351 79.9902C350.981 79.8405 350.952 79.7298 350.913 79.6582C350.873 79.5866 350.812 79.5215 350.727 79.4629C350.642 79.4043 350.538 79.375 350.414 79.375C349.802 79.375 349.177 79.6387 348.539 80.166V90H346.039ZM361.077 90V77.5H363.577V78.916C364.469 77.8548 365.507 77.3242 366.692 77.3242C367.291 77.3242 367.731 77.4577 368.011 77.7246C368.29 77.985 368.479 78.4017 368.577 78.9746C368.987 78.4342 369.43 78.0241 369.905 77.7441C370.38 77.4642 370.979 77.3242 371.702 77.3242C371.91 77.3242 372.096 77.347 372.259 77.3926C372.428 77.4316 372.574 77.4805 372.698 77.5391C372.822 77.5977 372.929 77.6888 373.02 77.8125C373.118 77.9297 373.196 78.0404 373.255 78.1445C373.32 78.2422 373.372 78.3854 373.411 78.5742C373.457 78.763 373.489 78.9193 373.509 79.043C373.528 79.1667 373.544 79.349 373.557 79.5898C373.57 79.8307 373.577 80.0195 373.577 80.1562C373.577 80.293 373.577 80.498 373.577 80.7715C373.577 80.8301 373.577 80.8757 373.577 80.9082V90H371.077V80.8789C371.077 80.8464 371.077 80.7943 371.077 80.7227C371.077 80.5078 371.074 80.3418 371.067 80.2246C371.061 80.1074 371.038 79.974 370.999 79.8242C370.966 79.668 370.904 79.554 370.813 79.4824C370.722 79.4108 370.602 79.375 370.452 79.375C370.198 79.375 369.944 79.4271 369.69 79.5312C369.436 79.6289 369.238 79.7266 369.095 79.8242C368.958 79.9154 368.785 80.0456 368.577 80.2148V90H366.077V80.9277C366.077 80.8887 366.077 80.8301 366.077 80.752C366.077 80.5697 366.077 80.4329 366.077 80.3418C366.077 80.2507 366.064 80.1335 366.038 79.9902C366.018 79.8405 365.989 79.7298 365.95 79.6582C365.911 79.5866 365.849 79.5215 365.764 79.4629C365.68 79.4043 365.576 79.375 365.452 79.375C364.84 79.375 364.215 79.6387 363.577 80.166V90H361.077ZM379.65 90.1758C379.044 90.1758 378.517 90.0716 378.068 89.8633C377.625 89.6549 377.27 89.3848 377.003 89.0527C376.743 88.7142 376.531 88.2845 376.368 87.7637C376.206 87.2363 376.092 86.7122 376.027 86.1914C375.968 85.6641 375.932 85.0521 375.919 84.3555C375.9 83.8086 375.9 83.2617 375.919 82.7148C375.939 82.0638 375.981 81.4876 376.046 80.9863C376.118 80.4785 376.238 79.987 376.407 79.5117C376.577 79.0365 376.795 78.6458 377.062 78.3398C377.335 78.0339 377.69 77.7897 378.126 77.6074C378.569 77.4186 379.083 77.3242 379.669 77.3242C380.203 77.3242 380.672 77.3958 381.075 77.5391C381.486 77.6758 381.824 77.8874 382.091 78.1738C382.364 78.4538 382.589 78.7663 382.765 79.1113C382.947 79.4564 383.084 79.8763 383.175 80.3711C383.266 80.8594 383.328 81.3411 383.361 81.8164C383.4 82.2917 383.419 82.8385 383.419 83.457V83.75H378.419V84.375C378.419 84.4596 378.419 84.5931 378.419 84.7754C378.406 85.0163 378.403 85.2669 378.409 85.5273C378.422 85.7812 378.435 86.0319 378.448 86.2793C378.461 86.5267 378.497 86.7643 378.556 86.9922C378.614 87.2135 378.686 87.4089 378.771 87.5781C378.855 87.7474 378.973 87.8809 379.122 87.9785C379.279 88.0762 379.461 88.125 379.669 88.125C379.93 88.125 380.144 88.0762 380.314 87.9785C380.483 87.8743 380.607 87.7214 380.685 87.5195C380.769 87.3177 380.828 87.1159 380.861 86.9141C380.893 86.7122 380.913 86.4583 380.919 86.1523V85.625H383.4V86.123C383.341 87.4577 383.012 88.4668 382.413 89.1504C381.814 89.834 380.893 90.1758 379.65 90.1758ZM378.419 82.5H380.9V81.748C380.893 81.416 380.874 81.1263 380.841 80.8789C380.808 80.6315 380.75 80.3841 380.665 80.1367C380.587 79.8893 380.463 79.7005 380.294 79.5703C380.125 79.4401 379.917 79.375 379.669 79.375C379.415 79.375 379.2 79.4434 379.025 79.5801C378.855 79.7168 378.728 79.9154 378.644 80.1758C378.566 80.4297 378.51 80.6803 378.478 80.9277C378.445 81.1751 378.426 81.4714 378.419 81.8164V82.5ZM385.586 90V77.5H388.086V79.1699C388.339 78.6751 388.707 78.2454 389.189 77.8809C389.677 77.5098 390.218 77.3242 390.81 77.3242C390.83 77.3242 390.963 77.3372 391.211 77.3633V80.127C390.748 79.9447 390.286 79.8535 389.824 79.8535C389.303 79.8535 388.883 80.0098 388.564 80.3223C388.245 80.6348 388.086 81.0482 388.086 81.5625V90H385.586ZM397.233 90V72.5H399.733V80L403.483 72.5H406.608L402.848 79.375L407.233 90H404.108L400.983 81.875L399.733 84.375V90H397.233ZM408.501 75.625V73.125H411.001V75.625H408.501ZM408.501 90V77.5H411.001V90H408.501ZM413.743 90V77.5H416.243V79.1699C416.497 78.6751 416.865 78.2454 417.347 77.8809C417.835 77.5098 418.376 77.3242 418.968 77.3242C418.987 77.3242 419.121 77.3372 419.368 77.3633V80.127C418.906 79.9447 418.444 79.8535 417.982 79.8535C417.461 79.8535 417.041 80.0098 416.722 80.3223C416.403 80.6348 416.243 81.0482 416.243 81.5625V90H413.743ZM425.246 88.125C425.513 88.125 425.734 88.0273 425.91 87.832C426.092 87.6367 426.222 87.36 426.3 87.002C426.385 86.6374 426.44 86.276 426.466 85.918C426.499 85.5599 426.515 85.1432 426.515 84.668C426.515 84.3164 426.512 83.8509 426.505 83.2715C426.505 82.6921 426.505 82.2559 426.505 81.9629C426.505 81.6699 426.499 81.416 426.486 81.2012C426.473 80.9798 426.44 80.7487 426.388 80.5078C426.336 80.2669 426.265 80.0684 426.173 79.9121C426.089 79.7559 425.968 79.6289 425.812 79.5312C425.656 79.4271 425.467 79.375 425.246 79.375C424.556 79.375 423.931 79.541 423.371 79.873V87.7344C424.015 87.9948 424.64 88.125 425.246 88.125ZM425.871 90.1758C425.363 90.1758 424.914 90.0553 424.523 89.8145C424.132 89.5736 423.748 89.2578 423.371 88.8672V90H420.871V72.5098H423.371V78.7402C423.605 78.4928 423.781 78.3138 423.898 78.2031C424.015 78.0924 424.184 77.9525 424.406 77.7832C424.634 77.6139 424.868 77.4967 425.109 77.4316C425.35 77.36 425.617 77.3242 425.91 77.3242C426.333 77.3242 426.711 77.4023 427.043 77.5586C427.375 77.7083 427.648 77.8906 427.863 78.1055C428.078 78.3203 428.26 78.6296 428.41 79.0332C428.559 79.4368 428.67 79.8014 428.742 80.127C428.82 80.4525 428.879 80.8919 428.918 81.4453C428.957 81.9987 428.979 82.4479 428.986 82.793C428.992 83.1315 428.996 83.6003 428.996 84.1992V84.3652C428.996 84.9121 428.966 85.4395 428.908 85.9473C428.856 86.4551 428.755 86.9727 428.605 87.5C428.462 88.0273 428.276 88.4831 428.048 88.8672C427.827 89.2513 427.528 89.5671 427.15 89.8145C426.779 90.0553 426.352 90.1758 425.871 90.1758ZM430.684 93.125V91.25C431.178 91.25 431.572 91.2174 431.865 91.1523C432.165 91.0872 432.389 90.9701 432.539 90.8008C432.689 90.638 432.783 90.4557 432.822 90.2539C432.868 90.0586 432.891 89.7852 432.891 89.4336L430.059 77.5H432.559C433.529 82.8581 434.053 85.7747 434.131 86.25C434.268 85.3711 434.421 84.4466 434.59 83.4766C434.766 82.5 434.961 81.4258 435.176 80.2539C435.397 79.0755 435.566 78.1576 435.684 77.5H438.184L435.059 90.625C434.85 91.5299 434.411 92.1712 433.74 92.5488C433.07 92.9329 432.135 93.125 430.938 93.125H430.684Z" fill="black"/>
<path d="M610.588 56.167V60.5H594.236C594.413 58.862 594.944 57.3125 595.83 55.8516C596.715 54.3796 598.464 52.4316 601.076 50.0078C603.179 48.0488 604.468 46.7207 604.944 46.0234C605.586 45.0605 605.907 44.1087 605.907 43.168C605.907 42.1276 605.625 41.3307 605.06 40.7773C604.507 40.2129 603.738 39.9307 602.753 39.9307C601.779 39.9307 601.004 40.224 600.428 40.8105C599.853 41.3971 599.521 42.3711 599.432 43.7324L594.784 43.2676C595.06 40.6999 595.929 38.8571 597.39 37.7393C598.851 36.6214 600.677 36.0625 602.869 36.0625C605.27 36.0625 607.157 36.71 608.53 38.0049C609.902 39.2998 610.588 40.9102 610.588 42.8359C610.588 43.9316 610.389 44.9775 609.991 45.9736C609.603 46.9587 608.984 47.9935 608.131 49.0781C607.567 49.7975 606.549 50.8324 605.077 52.1826C603.605 53.5329 602.669 54.4294 602.271 54.8721C601.884 55.3148 601.568 55.7464 601.325 56.167H610.588ZM622.015 36.0625C624.373 36.0625 626.215 36.9036 627.543 38.5859C629.126 40.5781 629.917 43.8818 629.917 48.4971C629.917 53.1012 629.121 56.4105 627.527 58.4248C626.21 60.085 624.373 60.915 622.015 60.915C619.647 60.915 617.737 60.0075 616.288 58.1924C614.838 56.3662 614.113 53.1178 614.113 48.4473C614.113 43.8652 614.91 40.5671 616.503 38.5527C617.82 36.8926 619.658 36.0625 622.015 36.0625ZM622.015 39.9307C621.451 39.9307 620.947 40.1133 620.504 40.4785C620.062 40.8327 619.719 41.4746 619.475 42.4043C619.154 43.6107 618.994 45.6416 618.994 48.4971C618.994 51.3525 619.137 53.3171 619.425 54.3906C619.713 55.4531 620.073 56.1615 620.504 56.5156C620.947 56.8698 621.451 57.0469 622.015 57.0469C622.58 57.0469 623.083 56.8698 623.526 56.5156C623.969 56.1504 624.312 55.5029 624.555 54.5732C624.876 53.3779 625.037 51.3525 625.037 48.4971C625.037 45.6416 624.893 43.6826 624.605 42.6201C624.317 41.5465 623.952 40.8327 623.509 40.4785C623.078 40.1133 622.58 39.9307 622.015 39.9307Z" fill="black"/>
</svg>
