<svg width="632" height="97" viewBox="0 0 632 97" fill="none" xmlns="http://www.w3.org/2000/svg">
<rect width="632" height="97" fill="#FCC3D7"/>
<rect y="25.5" width="46" height="46" rx="23" fill="#F2994A"/>
<g clip-path="url(#clip0_3_4911)">
<path d="M11.1706 63.095L25.8031 47.0225L26.5531 47.7706C27.1455 48.3606 27.9329 48.714 28.7675 48.7644C28.78 48.794 28.7944 48.8228 28.8106 48.8506L30.6969 51.8675C30.937 52.0645 31.2412 52.1665 31.5516 52.1541C31.862 52.1416 32.157 52.0156 32.3806 51.8L37.6419 46.5519C37.8576 46.3291 37.9837 46.0346 37.9962 45.7248C38.0086 45.4149 37.9065 45.1113 37.7094 44.8719L34.6831 42.9894L34.5969 42.9481C34.5462 42.1419 34.2144 41.3506 33.6012 40.7394L30.7381 37.8856C30.125 37.2725 29.3319 36.9425 28.5237 36.8919C28.5113 36.8622 28.4968 36.8334 28.4806 36.8056L26.5944 33.7887C26.3542 33.5917 26.05 33.4897 25.7396 33.5022C25.4293 33.5146 25.1342 33.6406 24.9106 33.8562L19.6494 39.1044C19.4336 39.3272 19.3075 39.6216 19.2951 39.9315C19.2826 40.2414 19.3847 40.545 19.5819 40.7844L22.6081 42.6669L22.6944 42.71C22.745 43.5162 23.0769 44.3075 23.69 44.9187L24.5206 45.7475L8.40312 60.3406C7.93624 60.7644 7.86124 61.415 8.23624 61.79L9.71562 63.2656C10.0906 63.6387 10.745 63.5637 11.1687 63.0987L11.1706 63.095Z" fill="#F8F8F8"/>
</g>
<path d="M54 48.5C54 35.7975 64.2975 25.5 77 25.5C89.7025 25.5 100 35.7975 100 48.5C100 61.2025 89.7025 71.5 77 71.5C64.2975 71.5 54 61.2025 54 48.5Z" fill="#F2994A"/>
<g clip-path="url(#clip1_3_4911)">
<path d="M65.1706 63.095L79.8031 47.0225L80.5531 47.7706C81.1455 48.3606 81.9329 48.714 82.7675 48.7644C82.78 48.794 82.7944 48.8228 82.8106 48.8506L84.6969 51.8675C84.937 52.0645 85.2412 52.1665 85.5516 52.1541C85.862 52.1416 86.157 52.0156 86.3806 51.8L91.6419 46.5519C91.8576 46.3291 91.9837 46.0346 91.9962 45.7248C92.0086 45.4149 91.9065 45.1113 91.7094 44.8719L88.6831 42.9894L88.5969 42.9481C88.5462 42.1419 88.2144 41.3506 87.6012 40.7394L84.7381 37.8856C84.125 37.2725 83.3319 36.9425 82.5237 36.8919C82.5113 36.8622 82.4968 36.8334 82.4806 36.8056L80.5944 33.7887C80.3542 33.5917 80.05 33.4897 79.7396 33.5022C79.4293 33.5146 79.1342 33.6406 78.9106 33.8562L73.6494 39.1044C73.4336 39.3272 73.3075 39.6216 73.2951 39.9315C73.2826 40.2414 73.3847 40.545 73.5819 40.7844L76.6081 42.6669L76.6944 42.71C76.745 43.5162 77.0769 44.3075 77.69 44.9187L78.5206 45.7475L62.4031 60.3406C61.9362 60.7644 61.8612 61.415 62.2362 61.79L63.7156 63.2656C64.0906 63.6387 64.745 63.5637 65.1687 63.0987L65.1706 63.095Z" fill="#F8F8F8"/>
</g>
<path d="M289.181 42.5V24.68H293.119V31.896H295.869V24.68H299.829V42.5H295.869V34.712H293.119V42.5H289.181ZM305.313 42.72C304.667 42.72 304.125 42.566 303.685 42.258C303.245 41.95 302.915 41.5613 302.695 41.092C302.475 40.608 302.365 40.1167 302.365 39.618C302.365 38.826 302.519 38.1587 302.827 37.616C303.149 37.0733 303.567 36.6187 304.081 36.252C304.594 35.8853 305.159 35.5773 305.775 35.328C306.391 35.064 306.999 34.8293 307.601 34.624V33.348C307.601 33.128 307.579 32.9373 307.535 32.776C307.491 32.6 307.417 32.468 307.315 32.38C307.212 32.2773 307.058 32.226 306.853 32.226C306.647 32.226 306.486 32.27 306.369 32.358C306.266 32.446 306.193 32.5707 306.149 32.732C306.105 32.8787 306.075 33.0473 306.061 33.238L305.973 34.162L302.629 34.03C302.702 32.5047 303.105 31.3827 303.839 30.664C304.587 29.9307 305.701 29.564 307.183 29.564C308.473 29.564 309.434 29.9233 310.065 30.642C310.71 31.346 311.033 32.2627 311.033 33.392V39.332C311.033 39.86 311.04 40.322 311.055 40.718C311.084 41.114 311.113 41.4587 311.143 41.752C311.187 42.0453 311.223 42.2947 311.253 42.5H308.041C307.997 42.1627 307.945 41.796 307.887 41.4C307.828 41.004 307.784 40.7693 307.755 40.696C307.608 41.224 307.329 41.6933 306.919 42.104C306.523 42.5147 305.987 42.72 305.313 42.72ZM306.589 40.3C306.735 40.3 306.867 40.2707 306.985 40.212C307.117 40.1533 307.234 40.0727 307.337 39.97C307.439 39.8673 307.527 39.7647 307.601 39.662V36.186C307.307 36.362 307.036 36.5453 306.787 36.736C306.537 36.912 306.325 37.11 306.149 37.33C305.973 37.55 305.833 37.792 305.731 38.056C305.643 38.3053 305.599 38.5913 305.599 38.914C305.599 39.3393 305.687 39.6767 305.863 39.926C306.039 40.1753 306.281 40.3 306.589 40.3ZM313.508 42.5V29.784H317.028V30.796C317.497 30.3413 317.981 30.0187 318.48 29.828C318.993 29.6373 319.514 29.542 320.042 29.542C320.555 29.542 320.995 29.674 321.362 29.938C321.743 30.1873 322.029 30.5613 322.22 31.06C322.718 30.5027 323.239 30.114 323.782 29.894C324.339 29.6593 324.896 29.542 325.454 29.542C325.952 29.542 326.385 29.6667 326.752 29.916C327.118 30.1507 327.404 30.5027 327.61 30.972C327.815 31.4267 327.918 31.9767 327.918 32.622V42.5H324.398V32.996C324.398 32.644 324.332 32.3947 324.2 32.248C324.082 32.0867 323.899 32.006 323.65 32.006C323.503 32.006 323.32 32.05 323.1 32.138C322.88 32.2113 322.667 32.3213 322.462 32.468C322.462 32.4973 322.462 32.5267 322.462 32.556C322.462 32.5707 322.462 32.5927 322.462 32.622V42.5H318.986V32.996C318.986 32.644 318.92 32.3947 318.788 32.248C318.656 32.0867 318.465 32.006 318.216 32.006C318.054 32.006 317.864 32.05 317.644 32.138C317.438 32.2113 317.233 32.3213 317.028 32.468V42.5H313.508ZM330.422 42.5V29.784H333.942V30.796C334.411 30.3413 334.895 30.0187 335.394 29.828C335.907 29.6373 336.428 29.542 336.956 29.542C337.469 29.542 337.909 29.674 338.276 29.938C338.657 30.1873 338.943 30.5613 339.134 31.06C339.633 30.5027 340.153 30.114 340.696 29.894C341.253 29.6593 341.811 29.542 342.368 29.542C342.867 29.542 343.299 29.6667 343.666 29.916C344.033 30.1507 344.319 30.5027 344.524 30.972C344.729 31.4267 344.832 31.9767 344.832 32.622V42.5H341.312V32.996C341.312 32.644 341.246 32.3947 341.114 32.248C340.997 32.0867 340.813 32.006 340.564 32.006C340.417 32.006 340.234 32.05 340.014 32.138C339.794 32.2113 339.581 32.3213 339.376 32.468C339.376 32.4973 339.376 32.5267 339.376 32.556C339.376 32.5707 339.376 32.5927 339.376 32.622V42.5H335.9V32.996C335.9 32.644 335.834 32.3947 335.702 32.248C335.57 32.0867 335.379 32.006 335.13 32.006C334.969 32.006 334.778 32.05 334.558 32.138C334.353 32.2113 334.147 32.3213 333.942 32.468V42.5H330.422ZM351.494 42.72C350.57 42.72 349.778 42.5587 349.118 42.236C348.458 41.8987 347.952 41.4147 347.6 40.784C347.248 40.1387 347.072 39.3687 347.072 38.474V33.81C347.072 32.9007 347.248 32.1307 347.6 31.5C347.952 30.8693 348.458 30.3927 349.118 30.07C349.793 29.7327 350.585 29.564 351.494 29.564C352.433 29.564 353.21 29.7253 353.826 30.048C354.457 30.3707 354.926 30.8473 355.234 31.478C355.557 32.1087 355.718 32.886 355.718 33.81V36.362H350.614V38.804C350.614 39.1267 350.651 39.3907 350.724 39.596C350.798 39.8013 350.9 39.948 351.032 40.036C351.164 40.124 351.318 40.168 351.494 40.168C351.67 40.168 351.824 40.1313 351.956 40.058C352.103 39.97 352.213 39.838 352.286 39.662C352.374 39.486 352.418 39.244 352.418 38.936V37.594H355.718V38.826C355.718 40.1167 355.344 41.092 354.596 41.752C353.848 42.3973 352.814 42.72 351.494 42.72ZM350.614 34.69H352.418V33.414C352.418 33.0767 352.374 32.8127 352.286 32.622C352.213 32.4313 352.103 32.2993 351.956 32.226C351.824 32.1527 351.663 32.116 351.472 32.116C351.296 32.116 351.142 32.16 351.01 32.248C350.893 32.336 350.798 32.49 350.724 32.71C350.651 32.9153 350.614 33.216 350.614 33.612V34.69ZM358.064 42.5V29.784H361.65V31.896C362.061 31.1627 362.472 30.6053 362.882 30.224C363.293 29.828 363.792 29.63 364.378 29.63C364.496 29.63 364.598 29.6373 364.686 29.652C364.774 29.652 364.855 29.6667 364.928 29.696V33.26C364.767 33.1867 364.584 33.128 364.378 33.084C364.188 33.0253 363.982 32.996 363.762 32.996C363.352 32.996 362.97 33.106 362.618 33.326C362.266 33.546 361.944 33.8467 361.65 34.228V42.5H358.064ZM372.969 42.5V24.68H380.669V27.342H376.907V31.83H380.185V34.58H376.907V42.5H372.969ZM382.814 42.5V24.68H386.378V42.5H382.814ZM389.069 42.5V29.784H392.655V42.5H389.069ZM389.047 27.628V25.142H392.655V27.628H389.047ZM395.22 46.68V29.784H398.806V30.708C399.231 30.3267 399.686 30.0407 400.17 29.85C400.654 29.6593 401.116 29.564 401.556 29.564C402.04 29.564 402.45 29.6593 402.788 29.85C403.14 30.0407 403.426 30.312 403.646 30.664C403.866 31.0013 404.027 31.3973 404.13 31.852C404.232 32.3067 404.284 32.7907 404.284 33.304V38.782C404.284 39.574 404.174 40.2633 403.954 40.85C403.748 41.4367 403.44 41.8987 403.03 42.236C402.619 42.5587 402.113 42.72 401.512 42.72C401.057 42.72 400.595 42.6173 400.126 42.412C399.671 42.192 399.231 41.8987 398.806 41.532V46.68H395.22ZM399.752 40.41C399.986 40.41 400.17 40.344 400.302 40.212C400.434 40.08 400.529 39.9113 400.588 39.706C400.661 39.486 400.698 39.244 400.698 38.98V33.04C400.698 32.7907 400.668 32.5707 400.61 32.38C400.551 32.1747 400.456 32.0133 400.324 31.896C400.192 31.7787 400.023 31.72 399.818 31.72C399.627 31.72 399.444 31.764 399.268 31.852C399.106 31.9253 398.952 32.028 398.806 32.16V40.08C398.967 40.1827 399.121 40.2633 399.268 40.322C399.429 40.3807 399.59 40.41 399.752 40.41ZM191.834 74.5V57.6992H188.396V55.25H198.021V57.6992H194.584V74.5H191.834ZM199.617 74.5V55.25H202.367V62.2324C202.776 61.86 203.109 61.5771 203.366 61.3838C203.624 61.1833 203.979 60.9971 204.43 60.8252C204.888 60.6462 205.375 60.5566 205.891 60.5566C206.478 60.5566 206.954 60.7715 207.32 61.2012C207.685 61.6309 207.867 62.1572 207.867 62.7803V74.5H205.117V64.1875C205.117 63.7148 205.057 63.3675 204.935 63.1455C204.82 62.9235 204.566 62.8125 204.172 62.8125C203.613 62.8125 203.012 63.0811 202.367 63.6182V74.5H199.617ZM214.512 74.6934C213.846 74.6934 213.266 74.5788 212.772 74.3496C212.285 74.1204 211.895 73.8232 211.601 73.458C211.315 73.0856 211.082 72.613 210.903 72.04C210.724 71.46 210.599 70.8835 210.527 70.3105C210.463 69.7305 210.423 69.0573 210.409 68.291C210.387 67.6895 210.387 67.0879 210.409 66.4863C210.43 65.7702 210.477 65.1364 210.548 64.585C210.627 64.0264 210.76 63.4857 210.946 62.9629C211.132 62.4401 211.372 62.0104 211.666 61.6738C211.966 61.3372 212.357 61.0687 212.837 60.8682C213.324 60.6605 213.889 60.5566 214.534 60.5566C215.121 60.5566 215.637 60.6354 216.081 60.793C216.532 60.9434 216.904 61.1761 217.198 61.4912C217.499 61.7992 217.746 62.1429 217.939 62.5225C218.14 62.902 218.29 63.3639 218.39 63.9082C218.49 64.4453 218.559 64.9753 218.594 65.498C218.637 66.0208 218.659 66.6224 218.659 67.3027V67.625H213.159V68.3125C213.159 68.4056 213.159 68.5524 213.159 68.7529C213.144 69.0179 213.141 69.2936 213.148 69.5801C213.162 69.8594 213.177 70.1351 213.191 70.4072C213.205 70.6794 213.245 70.9408 213.309 71.1914C213.374 71.4349 213.452 71.6497 213.546 71.8359C213.639 72.0221 213.768 72.1689 213.932 72.2764C214.104 72.3838 214.305 72.4375 214.534 72.4375C214.82 72.4375 215.057 72.3838 215.243 72.2764C215.429 72.1618 215.565 71.9935 215.651 71.7715C215.744 71.5495 215.809 71.3275 215.844 71.1055C215.88 70.8835 215.902 70.6042 215.909 70.2676V69.6875H218.637V70.2354C218.573 71.7035 218.211 72.8135 217.552 73.5654C216.893 74.3174 215.88 74.6934 214.512 74.6934ZM213.159 66.25H215.887V65.4229C215.88 65.0576 215.859 64.7389 215.823 64.4668C215.787 64.1947 215.723 63.9225 215.629 63.6504C215.544 63.3783 215.407 63.1706 215.221 63.0273C215.035 62.8841 214.806 62.8125 214.534 62.8125C214.254 62.8125 214.018 62.8877 213.825 63.0381C213.639 63.1885 213.499 63.4069 213.406 63.6934C213.32 63.9727 213.259 64.2484 213.223 64.5205C213.187 64.7926 213.166 65.1185 213.159 65.498V66.25ZM229.714 74.6934C229.048 74.6934 228.468 74.5788 227.974 74.3496C227.487 74.1204 227.097 73.8232 226.803 73.458C226.517 73.0856 226.284 72.613 226.105 72.04C225.926 71.46 225.801 70.8835 225.729 70.3105C225.664 69.7305 225.625 69.0573 225.611 68.291C225.589 67.6895 225.589 67.0879 225.611 66.4863C225.632 65.7702 225.679 65.1364 225.75 64.585C225.829 64.0264 225.962 63.4857 226.148 62.9629C226.334 62.4401 226.574 62.0104 226.868 61.6738C227.168 61.3372 227.559 61.0687 228.038 60.8682C228.525 60.6605 229.091 60.5566 229.736 60.5566C230.323 60.5566 230.839 60.6354 231.283 60.793C231.734 60.9434 232.106 61.1761 232.4 61.4912C232.701 61.7992 232.948 62.1429 233.141 62.5225C233.342 62.902 233.492 63.3639 233.592 63.9082C233.692 64.4453 233.76 64.9753 233.796 65.498C233.839 66.0208 233.861 66.6224 233.861 67.3027V67.625H228.361V68.3125C228.361 68.4056 228.361 68.5524 228.361 68.7529C228.346 69.0179 228.343 69.2936 228.35 69.5801C228.364 69.8594 228.379 70.1351 228.393 70.4072C228.407 70.6794 228.447 70.9408 228.511 71.1914C228.576 71.4349 228.654 71.6497 228.747 71.8359C228.841 72.0221 228.969 72.1689 229.134 72.2764C229.306 72.3838 229.507 72.4375 229.736 72.4375C230.022 72.4375 230.259 72.3838 230.445 72.2764C230.631 72.1618 230.767 71.9935 230.853 71.7715C230.946 71.5495 231.01 71.3275 231.046 71.1055C231.082 70.8835 231.104 70.6042 231.111 70.2676V69.6875H233.839V70.2354C233.775 71.7035 233.413 72.8135 232.754 73.5654C232.095 74.3174 231.082 74.6934 229.714 74.6934ZM228.361 66.25H231.089V65.4229C231.082 65.0576 231.061 64.7389 231.025 64.4668C230.989 64.1947 230.925 63.9225 230.831 63.6504C230.746 63.3783 230.609 63.1706 230.423 63.0273C230.237 62.8841 230.008 62.8125 229.736 62.8125C229.456 62.8125 229.22 62.8877 229.027 63.0381C228.841 63.1885 228.701 63.4069 228.608 63.6934C228.522 63.9727 228.461 64.2484 228.425 64.5205C228.389 64.7926 228.368 65.1185 228.361 65.498V66.25ZM236.209 74.5V60.75H238.959V62.2324C239.367 61.86 239.7 61.5771 239.958 61.3838C240.216 61.1833 240.57 60.9971 241.021 60.8252C241.48 60.6462 241.967 60.5566 242.482 60.5566C243.069 60.5566 243.546 60.7715 243.911 61.2012C244.276 61.6309 244.459 62.1572 244.459 62.7803V74.5H241.709V64.1875C241.709 63.7077 241.641 63.3604 241.505 63.1455C241.369 62.9235 241.093 62.8125 240.678 62.8125C240.441 62.8125 240.205 62.8626 239.969 62.9629C239.739 63.056 239.568 63.1455 239.453 63.2314C239.338 63.3102 239.174 63.4391 238.959 63.6182V74.5H236.209ZM251.104 74.6934C250.438 74.6934 249.858 74.5788 249.363 74.3496C248.877 74.1204 248.486 73.8232 248.193 73.458C247.906 73.0856 247.673 72.613 247.494 72.04C247.315 71.46 247.19 70.8835 247.118 70.3105C247.054 69.7305 247.015 69.0573 247 68.291C246.979 67.6895 246.979 67.0879 247 66.4863C247.022 65.7702 247.068 65.1364 247.14 64.585C247.219 64.0264 247.351 63.4857 247.537 62.9629C247.724 62.4401 247.963 62.0104 248.257 61.6738C248.558 61.3372 248.948 61.0687 249.428 60.8682C249.915 60.6605 250.481 60.5566 251.125 60.5566C251.712 60.5566 252.228 60.6354 252.672 60.793C253.123 60.9434 253.496 61.1761 253.789 61.4912C254.09 61.7992 254.337 62.1429 254.53 62.5225C254.731 62.902 254.881 63.3639 254.982 63.9082C255.082 64.4453 255.15 64.9753 255.186 65.498C255.229 66.0208 255.25 66.6224 255.25 67.3027V67.625H249.75V68.3125C249.75 68.4056 249.75 68.5524 249.75 68.7529C249.736 69.0179 249.732 69.2936 249.739 69.5801C249.754 69.8594 249.768 70.1351 249.782 70.4072C249.797 70.6794 249.836 70.9408 249.901 71.1914C249.965 71.4349 250.044 71.6497 250.137 71.8359C250.23 72.0221 250.359 72.1689 250.524 72.2764C250.696 72.3838 250.896 72.4375 251.125 72.4375C251.412 72.4375 251.648 72.3838 251.834 72.2764C252.02 72.1618 252.156 71.9935 252.242 71.7715C252.335 71.5495 252.4 71.3275 252.436 71.1055C252.472 70.8835 252.493 70.6042 252.5 70.2676V69.6875H255.229V70.2354C255.164 71.7035 254.803 72.8135 254.144 73.5654C253.485 74.3174 252.472 74.6934 251.104 74.6934ZM249.75 66.25H252.479V65.4229C252.472 65.0576 252.45 64.7389 252.414 64.4668C252.378 64.1947 252.314 63.9225 252.221 63.6504C252.135 63.3783 251.999 63.1706 251.813 63.0273C251.627 62.8841 251.397 62.8125 251.125 62.8125C250.846 62.8125 250.61 62.8877 250.416 63.0381C250.23 63.1885 250.09 63.4069 249.997 63.6934C249.911 63.9727 249.85 64.2484 249.815 64.5205C249.779 64.7926 249.757 65.1185 249.75 65.498V66.25ZM257.598 74.5V60.75H260.348V62.3076C261.329 61.1403 262.472 60.5566 263.775 60.5566C264.434 60.5566 264.917 60.7035 265.225 60.9971C265.533 61.2835 265.741 61.7419 265.848 62.3721C266.299 61.7777 266.786 61.3265 267.309 61.0186C267.832 60.7106 268.491 60.5566 269.286 60.5566C269.515 60.5566 269.719 60.5817 269.898 60.6318C270.084 60.6748 270.245 60.7285 270.381 60.793C270.518 60.8574 270.636 60.9577 270.736 61.0938C270.843 61.2227 270.929 61.3444 270.994 61.459C271.065 61.5664 271.123 61.724 271.166 61.9316C271.216 62.1393 271.252 62.3112 271.273 62.4473C271.295 62.5833 271.312 62.7839 271.327 63.0488C271.341 63.3138 271.348 63.5215 271.348 63.6719C271.348 63.8223 271.348 64.0479 271.348 64.3486C271.348 64.4131 271.348 64.4632 271.348 64.499V74.5H268.598V64.4668C268.598 64.431 268.598 64.3737 268.598 64.2949C268.598 64.0586 268.595 63.876 268.587 63.7471C268.58 63.6182 268.555 63.4714 268.512 63.3066C268.476 63.1348 268.408 63.0094 268.308 62.9307C268.208 62.8519 268.075 62.8125 267.911 62.8125C267.631 62.8125 267.352 62.8698 267.073 62.9844C266.794 63.0918 266.575 63.1992 266.418 63.3066C266.267 63.4069 266.077 63.5501 265.848 63.7363V74.5H263.098V64.5205C263.098 64.4775 263.098 64.4131 263.098 64.3271C263.098 64.1266 263.098 63.9762 263.098 63.876C263.098 63.7757 263.084 63.6468 263.055 63.4893C263.034 63.3245 263.002 63.2028 262.959 63.124C262.916 63.0452 262.848 62.9736 262.754 62.9092C262.661 62.8447 262.547 62.8125 262.411 62.8125C261.738 62.8125 261.05 63.1025 260.348 63.6826V74.5H257.598ZM273.75 77.9375V75.875C274.294 75.875 274.728 75.8392 275.05 75.7676C275.379 75.696 275.626 75.5671 275.791 75.3809C275.956 75.2018 276.06 75.0013 276.103 74.7793C276.153 74.5645 276.178 74.2637 276.178 73.877L273.062 60.75H275.812C276.88 66.6439 277.456 69.8522 277.542 70.375C277.692 69.4082 277.861 68.3913 278.047 67.3242C278.24 66.25 278.455 65.0684 278.691 63.7793C278.935 62.4831 279.121 61.4733 279.25 60.75H282L278.562 75.1875C278.333 76.1829 277.85 76.8883 277.112 77.3037C276.375 77.7262 275.347 77.9375 274.029 77.9375H273.75ZM292.454 74.6934C291.373 74.6934 290.585 74.4176 290.091 73.8662C289.604 73.3148 289.353 72.4805 289.339 71.3633V62.8125H287.964V60.75H289.339V55.9375H292.089V60.75H294.151V62.8125H292.089V70.8369C292.089 71.3883 292.164 71.793 292.314 72.0508C292.465 72.3086 292.769 72.4375 293.227 72.4375C293.428 72.4375 293.736 72.4017 294.151 72.3301V74.5645C293.464 74.6504 292.898 74.6934 292.454 74.6934ZM300.28 72.4375C300.474 72.4375 300.66 72.3802 300.839 72.2656C301.025 72.151 301.165 72.04 301.258 71.9326C301.351 71.8252 301.466 71.682 301.602 71.5029C301.623 71.4671 301.641 71.4421 301.655 71.4277V67.625C301.541 67.7038 301.351 67.8255 301.086 67.9902C300.821 68.1549 300.61 68.291 300.452 68.3984C300.295 68.4987 300.105 68.6419 299.883 68.8281C299.661 69.0072 299.489 69.1826 299.367 69.3545C299.246 69.5192 299.138 69.7233 299.045 69.9668C298.952 70.2103 298.905 70.4645 298.905 70.7295C298.905 71.8682 299.364 72.4375 300.28 72.4375ZM298.905 74.6934C298.139 74.6934 297.488 74.3639 296.95 73.7051C296.42 73.0391 296.155 72.2907 296.155 71.46C296.155 70.7939 296.266 70.1888 296.488 69.6445C296.718 69.1003 296.958 68.667 297.208 68.3447C297.459 68.0153 297.878 67.6787 298.465 67.335C299.052 66.984 299.496 66.7441 299.797 66.6152C300.098 66.4863 300.621 66.2751 301.365 65.9814C301.494 65.9313 301.591 65.8919 301.655 65.8633V64.875C301.655 64.1803 301.559 63.6432 301.365 63.2637C301.172 62.877 300.81 62.6836 300.28 62.6836C299.808 62.6836 299.468 62.8483 299.26 63.1777C299.059 63.5 298.945 63.9476 298.916 64.5205C298.909 64.5993 298.905 64.7174 298.905 64.875H296.155C296.17 63.5573 296.539 62.5081 297.262 61.7275C297.985 60.9469 298.991 60.5566 300.28 60.5566C301.562 60.5566 302.569 60.9541 303.299 61.749C304.037 62.5368 304.405 63.5788 304.405 64.875V71.0625C304.405 72.4948 304.524 73.6406 304.76 74.5H302.021L301.655 72.4375C301.512 72.724 301.394 72.946 301.301 73.1035C301.215 73.2611 301.086 73.458 300.914 73.6943C300.742 73.9235 300.571 74.1025 300.399 74.2314C300.227 74.3532 300.012 74.4606 299.754 74.5537C299.496 74.6468 299.213 74.6934 298.905 74.6934ZM307.13 74.5V55.25H309.88V65.8311L313.317 60.75H316.067L312.984 65.5518L316.067 74.5H313.317L311.255 67.8506L309.88 69.6875V74.5H307.13ZM321.509 74.6934C320.843 74.6934 320.263 74.5788 319.769 74.3496C319.282 74.1204 318.891 73.8232 318.598 73.458C318.311 73.0856 318.078 72.613 317.899 72.04C317.72 71.46 317.595 70.8835 317.523 70.3105C317.459 69.7305 317.42 69.0573 317.405 68.291C317.384 67.6895 317.384 67.0879 317.405 66.4863C317.427 65.7702 317.473 65.1364 317.545 64.585C317.624 64.0264 317.756 63.4857 317.942 62.9629C318.129 62.4401 318.368 62.0104 318.662 61.6738C318.963 61.3372 319.353 61.0687 319.833 60.8682C320.32 60.6605 320.886 60.5566 321.53 60.5566C322.118 60.5566 322.633 60.6354 323.077 60.793C323.528 60.9434 323.901 61.1761 324.194 61.4912C324.495 61.7992 324.742 62.1429 324.936 62.5225C325.136 62.902 325.286 63.3639 325.387 63.9082C325.487 64.4453 325.555 64.9753 325.591 65.498C325.634 66.0208 325.655 66.6224 325.655 67.3027V67.625H320.155V68.3125C320.155 68.4056 320.155 68.5524 320.155 68.7529C320.141 69.0179 320.137 69.2936 320.145 69.5801C320.159 69.8594 320.173 70.1351 320.188 70.4072C320.202 70.6794 320.241 70.9408 320.306 71.1914C320.37 71.4349 320.449 71.6497 320.542 71.8359C320.635 72.0221 320.764 72.1689 320.929 72.2764C321.101 72.3838 321.301 72.4375 321.53 72.4375C321.817 72.4375 322.053 72.3838 322.239 72.2764C322.425 72.1618 322.562 71.9935 322.647 71.7715C322.741 71.5495 322.805 71.3275 322.841 71.1055C322.877 70.8835 322.898 70.6042 322.905 70.2676V69.6875H325.634V70.2354C325.569 71.7035 325.208 72.8135 324.549 73.5654C323.89 74.3174 322.877 74.6934 321.509 74.6934ZM320.155 66.25H322.884V65.4229C322.877 65.0576 322.855 64.7389 322.819 64.4668C322.784 64.1947 322.719 63.9225 322.626 63.6504C322.54 63.3783 322.404 63.1706 322.218 63.0273C322.032 62.8841 321.802 62.8125 321.53 62.8125C321.251 62.8125 321.015 62.8877 320.821 63.0381C320.635 63.1885 320.495 63.4069 320.402 63.6934C320.316 63.9727 320.256 64.2484 320.22 64.5205C320.184 64.7926 320.162 65.1185 320.155 65.498V66.25ZM331.613 74.6934C330.481 74.6934 329.572 74.3568 328.884 73.6836C328.204 73.0104 327.738 72.1367 327.488 71.0625L329.55 70.375C330.044 71.75 330.732 72.4375 331.613 72.4375C332.05 72.4375 332.386 72.3193 332.622 72.083C332.866 71.8395 332.988 71.4993 332.988 71.0625C332.988 70.4251 332.759 69.8952 332.3 69.4727L329.55 67.4102C329.242 67.2025 328.984 67.0091 328.777 66.8301C328.569 66.6439 328.358 66.4183 328.143 66.1533C327.928 65.8883 327.763 65.5911 327.649 65.2617C327.541 64.9323 327.488 64.5742 327.488 64.1875C327.488 63.013 327.86 62.1143 328.605 61.4912C329.357 60.8682 330.359 60.5566 331.613 60.5566C332.207 60.5566 332.744 60.6533 333.224 60.8467C333.704 61.0329 334.105 61.2979 334.427 61.6416C334.757 61.9854 335.025 62.3685 335.233 62.791C335.448 63.2064 335.616 63.6719 335.738 64.1875L333.675 64.875C333.575 64.6029 333.475 64.3701 333.374 64.1768C333.274 63.9762 333.138 63.7614 332.966 63.5322C332.802 63.3031 332.605 63.1276 332.375 63.0059C332.146 62.877 331.892 62.8125 331.613 62.8125C331.176 62.8125 330.836 62.9342 330.592 63.1777C330.356 63.4141 330.238 63.7507 330.238 64.1875C330.238 64.6172 330.467 65.0039 330.925 65.3477L333.675 67.4102C333.983 67.6536 334.245 67.89 334.459 68.1191C334.681 68.3411 334.896 68.6025 335.104 68.9033C335.312 69.1969 335.469 69.5264 335.577 69.8916C335.684 70.2568 335.738 70.6471 335.738 71.0625C335.738 72.237 335.362 73.1357 334.61 73.7588C333.865 74.3818 332.866 74.6934 331.613 74.6934ZM344.075 74.5V59.375H342.013V57.3125C343.395 56.8184 344.312 56.1309 344.763 55.25H346.825V74.5H344.075ZM354.394 74.6934C353.349 74.6934 352.457 74.4463 351.719 73.9521C350.989 73.458 350.448 72.792 350.097 71.9541C349.754 71.109 349.582 70.1243 349.582 69V60.75C349.582 58.9811 349.983 57.5918 350.785 56.582C351.587 55.5651 352.79 55.0566 354.394 55.0566C355.991 55.0566 357.191 55.5651 357.993 56.582C358.802 57.599 359.207 58.9883 359.207 60.75V69C359.207 70.7259 358.795 72.1081 357.971 73.1465C357.155 74.1777 355.963 74.6934 354.394 74.6934ZM354.394 72.4375C355.769 72.4375 356.457 71.2917 356.457 69V60.75C356.457 60.3633 356.442 60.0195 356.414 59.7188C356.385 59.4108 356.324 59.1029 356.231 58.7949C356.145 58.4798 356.027 58.2184 355.877 58.0107C355.733 57.8031 355.536 57.6348 355.286 57.5059C355.035 57.377 354.738 57.3125 354.394 57.3125C354.05 57.3125 353.753 57.377 353.503 57.5059C353.252 57.6348 353.051 57.8031 352.901 58.0107C352.758 58.2184 352.64 58.4798 352.546 58.7949C352.461 59.1029 352.403 59.4108 352.375 59.7188C352.346 60.0195 352.332 60.3633 352.332 60.75V69C352.332 69.4512 352.36 69.8665 352.418 70.2461C352.482 70.6257 352.586 70.9873 352.729 71.3311C352.88 71.6748 353.094 71.9469 353.374 72.1475C353.653 72.3408 353.993 72.4375 354.394 72.4375ZM370.563 72.4375C371.229 72.4375 371.916 72.2943 372.625 72.0078V63.3604C372.01 62.9951 371.322 62.8125 370.563 62.8125C370.291 62.8125 370.062 62.8805 369.875 63.0166C369.689 63.1455 369.55 63.3389 369.456 63.5967C369.363 63.8473 369.295 64.1087 369.252 64.3809C369.209 64.6458 369.184 64.9609 369.177 65.3262C369.149 66.9303 369.149 68.2015 369.177 69.1396C369.184 69.598 369.209 70.0062 369.252 70.3643C369.295 70.7223 369.363 71.0697 369.456 71.4062C369.557 71.7357 369.7 71.9899 369.886 72.1689C370.072 72.348 370.298 72.4375 370.563 72.4375ZM369.875 74.6934C369.267 74.6934 368.733 74.5215 368.275 74.1777C367.824 73.834 367.473 73.3685 367.222 72.7812C366.979 72.194 366.796 71.5853 366.674 70.9551C366.552 70.3177 366.477 69.6338 366.449 68.9033C366.434 68.5667 366.434 67.7432 366.449 66.4326C366.463 65.96 366.484 65.5339 366.513 65.1543C366.542 64.7676 366.588 64.3665 366.653 63.9512C366.724 63.5358 366.81 63.1706 366.911 62.8555C367.018 62.5332 367.158 62.2253 367.329 61.9316C367.501 61.6309 367.702 61.3838 367.931 61.1904C368.16 60.9971 368.436 60.8431 368.758 60.7285C369.08 60.6139 369.439 60.5566 369.832 60.5566C370.14 60.5566 370.427 60.5996 370.692 60.6855C370.964 60.7643 371.222 60.8932 371.465 61.0723C371.709 61.2441 371.902 61.3981 372.045 61.5342C372.196 61.6702 372.389 61.8636 372.625 62.1143V55.2607H375.375V74.5H372.625V73.2539C372.21 73.6836 371.788 74.0309 371.358 74.2959C370.928 74.5609 370.434 74.6934 369.875 74.6934ZM382.063 72.4375C382.257 72.4375 382.443 72.3802 382.622 72.2656C382.808 72.151 382.948 72.04 383.041 71.9326C383.134 71.8252 383.249 71.682 383.385 71.5029C383.406 71.4671 383.424 71.4421 383.438 71.4277V67.625C383.324 67.7038 383.134 67.8255 382.869 67.9902C382.604 68.1549 382.393 68.291 382.235 68.3984C382.078 68.4987 381.888 68.6419 381.666 68.8281C381.444 69.0072 381.272 69.1826 381.15 69.3545C381.028 69.5192 380.921 69.7233 380.828 69.9668C380.735 70.2103 380.688 70.4645 380.688 70.7295C380.688 71.8682 381.147 72.4375 382.063 72.4375ZM380.688 74.6934C379.922 74.6934 379.27 74.3639 378.733 73.7051C378.203 73.0391 377.938 72.2907 377.938 71.46C377.938 70.7939 378.049 70.1888 378.271 69.6445C378.5 69.1003 378.74 68.667 378.991 68.3447C379.242 68.0153 379.661 67.6787 380.248 67.335C380.835 66.984 381.279 66.7441 381.58 66.6152C381.881 66.4863 382.403 66.2751 383.148 65.9814C383.277 65.9313 383.374 65.8919 383.438 65.8633V64.875C383.438 64.1803 383.342 63.6432 383.148 63.2637C382.955 62.877 382.593 62.6836 382.063 62.6836C381.591 62.6836 381.25 62.8483 381.043 63.1777C380.842 63.5 380.728 63.9476 380.699 64.5205C380.692 64.5993 380.688 64.7174 380.688 64.875H377.938C377.953 63.5573 378.321 62.5081 379.045 61.7275C379.768 60.9469 380.774 60.5566 382.063 60.5566C383.345 60.5566 384.351 60.9541 385.082 61.749C385.819 62.5368 386.188 63.5788 386.188 64.875V71.0625C386.188 72.4948 386.306 73.6406 386.543 74.5H383.804L383.438 72.4375C383.295 72.724 383.177 72.946 383.084 73.1035C382.998 73.2611 382.869 73.458 382.697 73.6943C382.525 73.9235 382.353 74.1025 382.181 74.2314C382.01 74.3532 381.795 74.4606 381.537 74.5537C381.279 74.6468 380.996 74.6934 380.688 74.6934ZM388.912 74.5V60.75H391.662V62.3076C392.643 61.1403 393.786 60.5566 395.089 60.5566C395.748 60.5566 396.231 60.7035 396.539 60.9971C396.847 61.2835 397.055 61.7419 397.162 62.3721C397.613 61.7777 398.1 61.3265 398.623 61.0186C399.146 60.7106 399.805 60.5566 400.6 60.5566C400.829 60.5566 401.033 60.5817 401.212 60.6318C401.398 60.6748 401.559 60.7285 401.695 60.793C401.832 60.8574 401.95 60.9577 402.05 61.0938C402.157 61.2227 402.243 61.3444 402.308 61.459C402.379 61.5664 402.437 61.724 402.48 61.9316C402.53 62.1393 402.566 62.3112 402.587 62.4473C402.609 62.5833 402.626 62.7839 402.641 63.0488C402.655 63.3138 402.662 63.5215 402.662 63.6719C402.662 63.8223 402.662 64.0479 402.662 64.3486C402.662 64.4131 402.662 64.4632 402.662 64.499V74.5H399.912V64.4668C399.912 64.431 399.912 64.3737 399.912 64.2949C399.912 64.0586 399.909 63.876 399.902 63.7471C399.894 63.6182 399.869 63.4714 399.826 63.3066C399.791 63.1348 399.723 63.0094 399.622 62.9307C399.522 62.8519 399.39 62.8125 399.225 62.8125C398.945 62.8125 398.666 62.8698 398.387 62.9844C398.108 63.0918 397.889 63.1992 397.732 63.3066C397.581 63.4069 397.391 63.5501 397.162 63.7363V74.5H394.412V64.5205C394.412 64.4775 394.412 64.4131 394.412 64.3271C394.412 64.1266 394.412 63.9762 394.412 63.876C394.412 63.7757 394.398 63.6468 394.369 63.4893C394.348 63.3245 394.316 63.2028 394.273 63.124C394.23 63.0452 394.162 62.9736 394.069 62.9092C393.975 62.8447 393.861 62.8125 393.725 62.8125C393.052 62.8125 392.364 63.1025 391.662 63.6826V74.5H388.912ZM409.189 72.4375C409.382 72.4375 409.569 72.3802 409.748 72.2656C409.934 72.151 410.074 72.04 410.167 71.9326C410.26 71.8252 410.374 71.682 410.51 71.5029C410.532 71.4671 410.55 71.4421 410.564 71.4277V67.625C410.45 67.7038 410.26 67.8255 409.995 67.9902C409.73 68.1549 409.519 68.291 409.361 68.3984C409.203 68.4987 409.014 68.6419 408.792 68.8281C408.57 69.0072 408.398 69.1826 408.276 69.3545C408.154 69.5192 408.047 69.7233 407.954 69.9668C407.861 70.2103 407.814 70.4645 407.814 70.7295C407.814 71.8682 408.272 72.4375 409.189 72.4375ZM407.814 74.6934C407.048 74.6934 406.396 74.3639 405.859 73.7051C405.329 73.0391 405.064 72.2907 405.064 71.46C405.064 70.7939 405.175 70.1888 405.397 69.6445C405.626 69.1003 405.866 68.667 406.117 68.3447C406.367 68.0153 406.786 67.6787 407.374 67.335C407.961 66.984 408.405 66.7441 408.706 66.6152C409.006 66.4863 409.529 66.2751 410.274 65.9814C410.403 65.9313 410.5 65.8919 410.564 65.8633V64.875C410.564 64.1803 410.467 63.6432 410.274 63.2637C410.081 62.877 409.719 62.6836 409.189 62.6836C408.716 62.6836 408.376 62.8483 408.169 63.1777C407.968 63.5 407.853 63.9476 407.825 64.5205C407.818 64.5993 407.814 64.7174 407.814 64.875H405.064C405.078 63.5573 405.447 62.5081 406.171 61.7275C406.894 60.9469 407.9 60.5566 409.189 60.5566C410.471 60.5566 411.477 60.9541 412.208 61.749C412.945 62.5368 413.314 63.5788 413.314 64.875V71.0625C413.314 72.4948 413.432 73.6406 413.669 74.5H410.929L410.564 72.4375C410.421 72.724 410.303 72.946 410.21 73.1035C410.124 73.2611 409.995 73.458 409.823 73.6943C409.651 73.9235 409.479 74.1025 409.307 74.2314C409.135 74.3532 408.921 74.4606 408.663 74.5537C408.405 74.6468 408.122 74.6934 407.814 74.6934ZM417.982 65.5625C417.982 67.5104 418.555 68.4844 419.701 68.4844C420.847 68.4844 421.42 67.5104 421.42 65.5625C421.42 65.1686 421.395 64.807 421.345 64.4775C421.295 64.141 421.209 63.8151 421.087 63.5C420.965 63.1777 420.786 62.9271 420.55 62.748C420.313 62.5618 420.031 62.4688 419.701 62.4688C419.365 62.4688 419.078 62.5618 418.842 62.748C418.605 62.9271 418.426 63.1777 418.305 63.5C418.19 63.8151 418.108 64.141 418.058 64.4775C418.007 64.807 417.982 65.1686 417.982 65.5625ZM420.389 76.584C420.582 76.584 420.754 76.5804 420.904 76.5732C421.062 76.5661 421.241 76.5518 421.441 76.5303C421.642 76.5088 421.814 76.473 421.957 76.4229C422.107 76.3799 422.247 76.3226 422.376 76.251C422.512 76.1794 422.616 76.0827 422.688 75.9609C422.759 75.8464 422.795 75.7139 422.795 75.5635C422.795 74.7972 422.061 74.3281 420.593 74.1562L418.326 73.8877C418.047 74.0882 417.807 74.3783 417.606 74.7578C417.413 75.1374 417.316 75.5348 417.316 75.9502C417.316 76.0648 417.356 76.1615 417.435 76.2402C417.513 76.3262 417.628 76.3906 417.778 76.4336C417.936 76.4766 418.093 76.5124 418.251 76.541C418.416 76.5697 418.609 76.5876 418.831 76.5947C419.053 76.6019 419.243 76.6055 419.4 76.6055C419.558 76.6055 419.741 76.6019 419.948 76.5947C420.163 76.5876 420.31 76.584 420.389 76.584ZM420.389 78.6143C420.045 78.6143 419.766 78.6107 419.551 78.6035C419.336 78.6035 419.042 78.5964 418.67 78.582C418.298 78.5677 417.986 78.5391 417.735 78.4961C417.485 78.4603 417.198 78.4102 416.876 78.3457C416.554 78.2884 416.285 78.2096 416.07 78.1094C415.863 78.0091 415.662 77.891 415.469 77.7549C415.275 77.6188 415.129 77.4505 415.028 77.25C414.935 77.0566 414.889 76.8382 414.889 76.5947C414.889 75.8786 415.078 75.2663 415.458 74.7578C415.845 74.2493 416.342 73.8447 416.951 73.5439C416.579 73.4437 416.257 73.2933 415.984 73.0928C415.712 72.8851 415.576 72.6344 415.576 72.3408C415.576 72.2191 415.59 72.0902 415.619 71.9541C415.648 71.818 415.68 71.6963 415.716 71.5889C415.752 71.4743 415.809 71.3454 415.888 71.2021C415.966 71.0589 416.027 70.9479 416.07 70.8691C416.12 70.7832 416.199 70.6686 416.307 70.5254C416.414 70.375 416.486 70.2747 416.521 70.2246C416.564 70.1673 416.643 70.0706 416.758 69.9346C416.872 69.7913 416.937 69.709 416.951 69.6875C416.035 68.599 415.576 67.224 415.576 65.5625C415.576 64.61 415.727 63.7614 416.027 63.0166C416.328 62.2718 416.794 61.6774 417.424 61.2334C418.061 60.7822 418.82 60.5566 419.701 60.5566C420.21 60.5566 420.654 60.6283 421.033 60.7715C421.413 60.9147 421.721 61.0973 421.957 61.3193C422.201 61.5342 422.437 61.8206 422.666 62.1787C423.21 61.1689 423.984 60.6318 424.986 60.5674C425.008 60.5674 425.029 60.5674 425.051 60.5674C425.072 60.5674 425.097 60.5674 425.126 60.5674C425.162 60.5674 425.187 60.5674 425.201 60.5674V62.8125C425.165 62.8125 425.108 62.8125 425.029 62.8125C424.721 62.8125 424.489 62.8161 424.331 62.8232C424.174 62.8304 423.998 62.8626 423.805 62.9199C423.611 62.9701 423.457 63.0524 423.343 63.167C423.472 63.4463 423.583 63.8187 423.676 64.2842C423.776 64.7425 423.826 65.1686 423.826 65.5625C423.826 66.5221 423.679 67.3708 423.386 68.1084C423.099 68.846 422.637 69.4368 422 69.8809C421.37 70.3249 420.604 70.5469 419.701 70.5469L418.315 70.3857C418.301 70.4215 418.265 70.486 418.208 70.5791C418.151 70.665 418.104 70.7367 418.068 70.7939C418.04 70.8512 418.011 70.9264 417.982 71.0195C417.954 71.1055 417.939 71.1878 417.939 71.2666C417.939 71.4528 418.029 71.6104 418.208 71.7393C418.387 71.8682 418.634 71.9648 418.949 72.0293C419.264 72.0866 419.565 72.1296 419.852 72.1582C420.145 72.1868 420.471 72.2119 420.829 72.2334C421.187 72.2477 421.434 72.2656 421.57 72.2871C421.979 72.3444 422.34 72.4124 422.655 72.4912C422.978 72.5628 423.303 72.6702 423.633 72.8135C423.969 72.9567 424.245 73.1286 424.46 73.3291C424.675 73.5296 424.85 73.7874 424.986 74.1025C425.13 74.4176 425.201 74.7793 425.201 75.1875C425.201 75.6888 425.112 76.1364 424.933 76.5303C424.761 76.9242 424.528 77.25 424.234 77.5078C423.941 77.7656 423.586 77.9769 423.171 78.1416C422.756 78.3135 422.319 78.4352 421.86 78.5068C421.402 78.5785 420.911 78.6143 420.389 78.6143ZM430.224 74.6934C429.558 74.6934 428.978 74.5788 428.484 74.3496C427.997 74.1204 427.606 73.8232 427.313 73.458C427.026 73.0856 426.794 72.613 426.615 72.04C426.436 71.46 426.31 70.8835 426.239 70.3105C426.174 69.7305 426.135 69.0573 426.12 68.291C426.099 67.6895 426.099 67.0879 426.12 66.4863C426.142 65.7702 426.189 65.1364 426.26 64.585C426.339 64.0264 426.471 63.4857 426.658 62.9629C426.844 62.4401 427.084 62.0104 427.377 61.6738C427.678 61.3372 428.068 61.0687 428.548 60.8682C429.035 60.6605 429.601 60.5566 430.245 60.5566C430.833 60.5566 431.348 60.6354 431.792 60.793C432.244 60.9434 432.616 61.1761 432.91 61.4912C433.21 61.7992 433.457 62.1429 433.651 62.5225C433.851 62.902 434.002 63.3639 434.102 63.9082C434.202 64.4453 434.27 64.9753 434.306 65.498C434.349 66.0208 434.37 66.6224 434.37 67.3027V67.625H428.87V68.3125C428.87 68.4056 428.87 68.5524 428.87 68.7529C428.856 69.0179 428.853 69.2936 428.86 69.5801C428.874 69.8594 428.888 70.1351 428.903 70.4072C428.917 70.6794 428.956 70.9408 429.021 71.1914C429.085 71.4349 429.164 71.6497 429.257 71.8359C429.35 72.0221 429.479 72.1689 429.644 72.2764C429.816 72.3838 430.016 72.4375 430.245 72.4375C430.532 72.4375 430.768 72.3838 430.954 72.2764C431.141 72.1618 431.277 71.9935 431.363 71.7715C431.456 71.5495 431.52 71.3275 431.556 71.1055C431.592 70.8835 431.613 70.6042 431.62 70.2676V69.6875H434.349V70.2354C434.285 71.7035 433.923 72.8135 433.264 73.5654C432.605 74.3174 431.592 74.6934 430.224 74.6934ZM428.87 66.25H431.599V65.4229C431.592 65.0576 431.57 64.7389 431.535 64.4668C431.499 64.1947 431.434 63.9225 431.341 63.6504C431.255 63.3783 431.119 63.1706 430.933 63.0273C430.747 62.8841 430.518 62.8125 430.245 62.8125C429.966 62.8125 429.73 62.8877 429.536 63.0381C429.35 63.1885 429.211 63.4069 429.118 63.6934C429.032 63.9727 428.971 64.2484 428.935 64.5205C428.899 64.7926 428.878 65.1185 428.87 65.498V66.25ZM445.426 74.6934C444.76 74.6934 444.18 74.5788 443.686 74.3496C443.199 74.1204 442.808 73.8232 442.515 73.458C442.228 73.0856 441.996 72.613 441.817 72.04C441.638 71.46 441.512 70.8835 441.441 70.3105C441.376 69.7305 441.337 69.0573 441.322 68.291C441.301 67.6895 441.301 67.0879 441.322 66.4863C441.344 65.7702 441.39 65.1364 441.462 64.585C441.541 64.0264 441.673 63.4857 441.86 62.9629C442.046 62.4401 442.286 62.0104 442.579 61.6738C442.88 61.3372 443.27 61.0687 443.75 60.8682C444.237 60.6605 444.803 60.5566 445.447 60.5566C446.035 60.5566 446.55 60.6354 446.994 60.793C447.445 60.9434 447.818 61.1761 448.112 61.4912C448.412 61.7992 448.659 62.1429 448.853 62.5225C449.053 62.902 449.204 63.3639 449.304 63.9082C449.404 64.4453 449.472 64.9753 449.508 65.498C449.551 66.0208 449.572 66.6224 449.572 67.3027V67.625H444.072V68.3125C444.072 68.4056 444.072 68.5524 444.072 68.7529C444.058 69.0179 444.055 69.2936 444.062 69.5801C444.076 69.8594 444.09 70.1351 444.105 70.4072C444.119 70.6794 444.158 70.9408 444.223 71.1914C444.287 71.4349 444.366 71.6497 444.459 71.8359C444.552 72.0221 444.681 72.1689 444.846 72.2764C445.018 72.3838 445.218 72.4375 445.447 72.4375C445.734 72.4375 445.97 72.3838 446.156 72.2764C446.343 72.1618 446.479 71.9935 446.565 71.7715C446.658 71.5495 446.722 71.3275 446.758 71.1055C446.794 70.8835 446.815 70.6042 446.822 70.2676V69.6875H449.551V70.2354C449.487 71.7035 449.125 72.8135 448.466 73.5654C447.807 74.3174 446.794 74.6934 445.426 74.6934ZM444.072 66.25H446.801V65.4229C446.794 65.0576 446.772 64.7389 446.737 64.4668C446.701 64.1947 446.636 63.9225 446.543 63.6504C446.457 63.3783 446.321 63.1706 446.135 63.0273C445.949 62.8841 445.72 62.8125 445.447 62.8125C445.168 62.8125 444.932 62.8877 444.738 63.0381C444.552 63.1885 444.413 63.4069 444.32 63.6934C444.234 63.9727 444.173 64.2484 444.137 64.5205C444.101 64.7926 444.08 65.1185 444.072 65.498V66.25ZM455.691 72.4375C455.884 72.4375 456.071 72.3802 456.25 72.2656C456.436 72.151 456.575 72.04 456.669 71.9326C456.762 71.8252 456.876 71.682 457.012 71.5029C457.034 71.4671 457.052 71.4421 457.066 71.4277V67.625C456.951 67.7038 456.762 67.8255 456.497 67.9902C456.232 68.1549 456.02 68.291 455.863 68.3984C455.705 68.4987 455.516 68.6419 455.294 68.8281C455.072 69.0072 454.9 69.1826 454.778 69.3545C454.656 69.5192 454.549 69.7233 454.456 69.9668C454.363 70.2103 454.316 70.4645 454.316 70.7295C454.316 71.8682 454.774 72.4375 455.691 72.4375ZM454.316 74.6934C453.55 74.6934 452.898 74.3639 452.361 73.7051C451.831 73.0391 451.566 72.2907 451.566 71.46C451.566 70.7939 451.677 70.1888 451.899 69.6445C452.128 69.1003 452.368 68.667 452.619 68.3447C452.869 68.0153 453.288 67.6787 453.876 67.335C454.463 66.984 454.907 66.7441 455.208 66.6152C455.508 66.4863 456.031 66.2751 456.776 65.9814C456.905 65.9313 457.002 65.8919 457.066 65.8633V64.875C457.066 64.1803 456.969 63.6432 456.776 63.2637C456.583 62.877 456.221 62.6836 455.691 62.6836C455.218 62.6836 454.878 62.8483 454.671 63.1777C454.47 63.5 454.355 63.9476 454.327 64.5205C454.32 64.5993 454.316 64.7174 454.316 64.875H451.566C451.58 63.5573 451.949 62.5081 452.672 61.7275C453.396 60.9469 454.402 60.5566 455.691 60.5566C456.973 60.5566 457.979 60.9541 458.71 61.749C459.447 62.5368 459.816 63.5788 459.816 64.875V71.0625C459.816 72.4948 459.934 73.6406 460.171 74.5H457.431L457.066 72.4375C456.923 72.724 456.805 72.946 456.712 73.1035C456.626 73.2611 456.497 73.458 456.325 73.6943C456.153 73.9235 455.981 74.1025 455.809 74.2314C455.637 74.3532 455.422 74.4606 455.165 74.5537C454.907 74.6468 454.624 74.6934 454.316 74.6934ZM465.978 74.6934C465.312 74.6934 464.731 74.5824 464.237 74.3604C463.75 74.1383 463.36 73.8483 463.066 73.4902C462.773 73.1322 462.536 72.6774 462.357 72.126C462.178 71.5674 462.053 71.0124 461.981 70.4609C461.917 69.9023 461.878 69.2542 461.863 68.5166C461.842 67.9222 461.842 67.3242 461.863 66.7227C461.878 65.9922 461.917 65.3477 461.981 64.7891C462.053 64.2305 462.178 63.6755 462.357 63.124C462.544 62.5654 462.78 62.1107 463.066 61.7598C463.36 61.4017 463.75 61.1117 464.237 60.8896C464.731 60.6676 465.312 60.5566 465.978 60.5566C467.424 60.5566 468.463 60.9469 469.093 61.7275C469.723 62.5081 470.06 63.6647 470.103 65.1973V65.5625H467.353V65.1758C467.345 64.832 467.32 64.5312 467.277 64.2734C467.242 64.0156 467.177 63.7578 467.084 63.5C466.998 63.2422 466.858 63.0452 466.665 62.9092C466.479 62.766 466.25 62.6943 465.978 62.6943C465.705 62.6943 465.476 62.7767 465.29 62.9414C465.104 63.099 464.961 63.3281 464.86 63.6289C464.767 63.9297 464.699 64.2412 464.656 64.5635C464.613 64.8786 464.588 65.2438 464.581 65.6592C464.552 66.5472 464.552 67.8864 464.581 69.6768C464.595 70.0706 464.624 70.418 464.667 70.7188C464.71 71.0124 464.778 71.2988 464.871 71.5781C464.971 71.8503 465.115 72.0615 465.301 72.2119C465.487 72.3623 465.713 72.4375 465.978 72.4375C466.221 72.4375 466.429 72.391 466.601 72.2979C466.78 72.2048 466.916 72.0902 467.009 71.9541C467.102 71.818 467.174 71.6354 467.224 71.4062C467.281 71.1771 467.317 70.9658 467.331 70.7725C467.345 70.5719 467.353 70.3213 467.353 70.0205V69.6875H470.103V70.042C470.081 70.7653 469.992 71.4062 469.834 71.9648C469.676 72.5163 469.437 72.9997 469.114 73.415C468.799 73.8304 468.377 74.1491 467.847 74.3711C467.324 74.5859 466.701 74.6934 465.978 74.6934ZM472.171 74.5V55.25H474.921V62.2324C475.329 61.86 475.662 61.5771 475.92 61.3838C476.178 61.1833 476.533 60.9971 476.984 60.8252C477.442 60.6462 477.929 60.5566 478.445 60.5566C479.032 60.5566 479.508 60.7715 479.873 61.2012C480.239 61.6309 480.421 62.1572 480.421 62.7803V74.5H477.671V64.1875C477.671 63.7148 477.61 63.3675 477.489 63.1455C477.374 62.9235 477.12 62.8125 476.726 62.8125C476.167 62.8125 475.566 63.0811 474.921 63.6182V74.5H472.171ZM491.81 74.6934C490.728 74.6934 489.941 74.4176 489.446 73.8662C488.959 73.3148 488.709 72.4805 488.695 71.3633V62.8125H487.32V60.75H488.695V55.9375H491.445V60.75H493.507V62.8125H491.445V70.8369C491.445 71.3883 491.52 71.793 491.67 72.0508C491.82 72.3086 492.125 72.4375 492.583 72.4375C492.784 72.4375 493.092 72.4017 493.507 72.3301V74.5645C492.82 74.6504 492.254 74.6934 491.81 74.6934ZM497.832 74.6934C497.23 74.6934 496.747 74.4821 496.381 74.0596C496.016 73.6299 495.834 73.0999 495.834 72.4697V60.75H498.584V71.6318C498.584 71.9183 498.67 72.151 498.841 72.3301C499.02 72.5091 499.25 72.5986 499.529 72.5986C499.679 72.5986 499.826 72.5807 499.969 72.5449C500.113 72.5091 500.252 72.4482 500.388 72.3623C500.532 72.2692 500.643 72.1976 500.721 72.1475C500.8 72.0902 500.911 71.9971 501.054 71.8682C501.205 71.7393 501.298 71.6605 501.334 71.6318V60.75H504.084V74.5H501.334V73.0176C501.061 73.2539 500.861 73.4258 500.732 73.5332C500.61 73.6406 500.421 73.7874 500.163 73.9736C499.905 74.1527 499.676 74.2852 499.475 74.3711C499.282 74.4499 499.038 74.5215 498.745 74.5859C498.451 74.6576 498.147 74.6934 497.832 74.6934ZM506.829 74.5V60.75H509.579V62.5869C509.858 62.0426 510.263 61.57 510.793 61.1689C511.33 60.7607 511.924 60.5566 512.576 60.5566C512.598 60.5566 512.744 60.571 513.017 60.5996V63.6396C512.508 63.4391 512 63.3389 511.491 63.3389C510.918 63.3389 510.456 63.5107 510.105 63.8545C509.755 64.1982 509.579 64.653 509.579 65.2188V74.5H506.829ZM514.634 74.5V60.75H517.384V62.2324C517.792 61.86 518.125 61.5771 518.383 61.3838C518.641 61.1833 518.995 60.9971 519.447 60.8252C519.905 60.6462 520.392 60.5566 520.908 60.5566C521.495 60.5566 521.971 60.7715 522.336 61.2012C522.702 61.6309 522.884 62.1572 522.884 62.7803V74.5H520.134V64.1875C520.134 63.7077 520.066 63.3604 519.93 63.1455C519.794 62.9235 519.518 62.8125 519.103 62.8125C518.867 62.8125 518.63 62.8626 518.394 62.9629C518.165 63.056 517.993 63.1455 517.878 63.2314C517.764 63.3102 517.599 63.4391 517.384 63.6182V74.5H514.634ZM525.071 74.5V71.75H527.821V74.5H525.071Z" fill="black"/>
<path d="M594.9 54.2412L599.548 53.7598C599.681 54.8112 600.074 55.6468 600.727 56.2666C601.38 56.8753 602.133 57.1797 602.985 57.1797C603.959 57.1797 604.783 56.7868 605.459 56.001C606.134 55.2041 606.471 54.0088 606.471 52.415C606.471 50.9209 606.134 49.8031 605.459 49.0615C604.794 48.3089 603.926 47.9326 602.852 47.9326C601.513 47.9326 600.312 48.5247 599.25 49.709L595.464 49.1611L597.855 36.4941H610.19V40.8604H601.391L600.661 44.9941C601.701 44.474 602.764 44.2139 603.848 44.2139C605.918 44.2139 607.672 44.9665 609.111 46.4717C610.55 47.9769 611.269 49.9303 611.269 52.332C611.269 54.3353 610.688 56.1227 609.526 57.6943C607.943 59.8415 605.746 60.915 602.935 60.915C600.688 60.915 598.857 60.3118 597.44 59.1055C596.023 57.8991 595.177 56.2777 594.9 54.2412ZM622.015 36.0625C624.373 36.0625 626.215 36.9036 627.543 38.5859C629.126 40.5781 629.917 43.8818 629.917 48.4971C629.917 53.1012 629.121 56.4105 627.527 58.4248C626.21 60.085 624.373 60.915 622.015 60.915C619.647 60.915 617.737 60.0075 616.288 58.1924C614.838 56.3662 614.113 53.1178 614.113 48.4473C614.113 43.8652 614.91 40.5671 616.503 38.5527C617.82 36.8926 619.658 36.0625 622.015 36.0625ZM622.015 39.9307C621.451 39.9307 620.947 40.1133 620.504 40.4785C620.062 40.8327 619.719 41.4746 619.475 42.4043C619.154 43.6107 618.994 45.6416 618.994 48.4971C618.994 51.3525 619.137 53.3171 619.425 54.3906C619.713 55.4531 620.073 56.1615 620.504 56.5156C620.947 56.8698 621.451 57.0469 622.015 57.0469C622.58 57.0469 623.083 56.8698 623.526 56.5156C623.969 56.1504 624.312 55.5029 624.555 54.5732C624.876 53.3779 625.037 51.3525 625.037 48.4971C625.037 45.6416 624.893 43.6826 624.605 42.6201C624.317 41.5465 623.952 40.8327 623.509 40.4785C623.078 40.1133 622.58 39.9307 622.015 39.9307Z" fill="black"/>
<defs>
<clipPath id="clip0_3_4911">
<rect width="30" height="30" fill="white" transform="translate(8 33.5)"/>
</clipPath>
<clipPath id="clip1_3_4911">
<rect width="30" height="30" fill="white" transform="translate(62 33.5)"/>
</clipPath>
</defs>
</svg>
