<svg width="632" height="97" viewBox="0 0 632 97" fill="none" xmlns="http://www.w3.org/2000/svg">
<rect width="632" height="97" fill="#FCC3D7"/>
<rect y="25.5" width="46" height="46" rx="23" fill="#FFD95D"/>
<path d="M31.75 42.15V39.75L20.5 51L21.675 52.25L31.75 42.15ZM14.1 58.45L13.05 57.4C12.9341 57.2844 12.8422 57.147 12.7795 56.9958C12.7167 56.8446 12.6844 56.6825 12.6844 56.5188C12.6844 56.355 12.7167 56.1929 12.7795 56.0417C12.8422 55.8905 12.9341 55.7531 13.05 55.6375L16.95 51.7375L13.625 48.3875L15.3875 46.625L17.1625 48.4L28.3125 37.25H34.25V43.1875L23.1 54.3375L24.875 56.1125L23.1125 57.875L19.775 54.5375L15.875 58.4375C15.375 58.9375 14.5875 58.9375 14.1 58.45Z" fill="white"/>
<path d="M54 48.5C54 35.7975 64.2975 25.5 77 25.5C89.7025 25.5 100 35.7975 100 48.5C100 61.2025 89.7025 71.5 77 71.5C64.2975 71.5 54 61.2025 54 48.5Z" fill="#FFD95D"/>
<path d="M85.75 42.15V39.75L74.5 51L75.675 52.25L85.75 42.15ZM68.1 58.45L67.05 57.4C66.9341 57.2844 66.8422 57.147 66.7795 56.9958C66.7167 56.8446 66.6844 56.6825 66.6844 56.5188C66.6844 56.355 66.7167 56.1929 66.7795 56.0417C66.8422 55.8905 66.9341 55.7531 67.05 55.6375L70.95 51.7375L67.625 48.3875L69.3875 46.625L71.1625 48.4L82.3125 37.25H88.25V43.1875L77.1 54.3375L78.875 56.1125L77.1125 57.875L73.775 54.5375L69.875 58.4375C69.375 58.9375 68.5875 58.9375 68.1 58.45Z" fill="white"/>
<path d="M288.678 42.5V24.68H296.378V27.342H292.616V31.83H295.894V34.58H292.616V42.5H288.678ZM298.391 42.5V29.784H301.977V42.5H298.391ZM298.369 27.628V25.142H301.977V27.628H298.369ZM304.542 42.5V29.784H308.128V31.06C308.597 30.5907 309.081 30.224 309.58 29.96C310.093 29.696 310.628 29.564 311.186 29.564C311.714 29.564 312.146 29.696 312.484 29.96C312.836 30.2093 313.1 30.5613 313.276 31.016C313.452 31.456 313.54 31.962 313.54 32.534V42.5H309.976V33.04C309.976 32.732 309.924 32.4973 309.822 32.336C309.719 32.1747 309.528 32.094 309.25 32.094C309.103 32.094 308.927 32.138 308.722 32.226C308.531 32.2993 308.333 32.4093 308.128 32.556V42.5H304.542ZM318.66 42.72C318.015 42.72 317.472 42.566 317.032 42.258C316.592 41.95 316.262 41.5613 316.042 41.092C315.822 40.608 315.712 40.1167 315.712 39.618C315.712 38.826 315.866 38.1587 316.174 37.616C316.497 37.0733 316.915 36.6187 317.428 36.252C317.941 35.8853 318.506 35.5773 319.122 35.328C319.738 35.064 320.347 34.8293 320.948 34.624V33.348C320.948 33.128 320.926 32.9373 320.882 32.776C320.838 32.6 320.765 32.468 320.662 32.38C320.559 32.2773 320.405 32.226 320.2 32.226C319.995 32.226 319.833 32.27 319.716 32.358C319.613 32.446 319.54 32.5707 319.496 32.732C319.452 32.8787 319.423 33.0473 319.408 33.238L319.32 34.162L315.976 34.03C316.049 32.5047 316.453 31.3827 317.186 30.664C317.934 29.9307 319.049 29.564 320.53 29.564C321.821 29.564 322.781 29.9233 323.412 30.642C324.057 31.346 324.38 32.2627 324.38 33.392V39.332C324.38 39.86 324.387 40.322 324.402 40.718C324.431 41.114 324.461 41.4587 324.49 41.752C324.534 42.0453 324.571 42.2947 324.6 42.5H321.388C321.344 42.1627 321.293 41.796 321.234 41.4C321.175 41.004 321.131 40.7693 321.102 40.696C320.955 41.224 320.677 41.6933 320.266 42.104C319.87 42.5147 319.335 42.72 318.66 42.72ZM319.936 40.3C320.083 40.3 320.215 40.2707 320.332 40.212C320.464 40.1533 320.581 40.0727 320.684 39.97C320.787 39.8673 320.875 39.7647 320.948 39.662V36.186C320.655 36.362 320.383 36.5453 320.134 36.736C319.885 36.912 319.672 37.11 319.496 37.33C319.32 37.55 319.181 37.792 319.078 38.056C318.99 38.3053 318.946 38.5913 318.946 38.914C318.946 39.3393 319.034 39.6767 319.21 39.926C319.386 40.1753 319.628 40.3 319.936 40.3ZM327.009 42.5V24.68H330.573V42.5H327.009ZM344.523 42.764C343.173 42.764 342.103 42.522 341.311 42.038C340.533 41.5393 339.983 40.85 339.661 39.97C339.338 39.0753 339.177 38.0267 339.177 36.824V30.4C339.177 29.168 339.338 28.112 339.661 27.232C339.983 26.3373 340.533 25.648 341.311 25.164C342.103 24.68 343.173 24.438 344.523 24.438C345.843 24.438 346.869 24.658 347.603 25.098C348.351 25.5233 348.879 26.1247 349.187 26.902C349.495 27.6793 349.649 28.574 349.649 29.586V31.126H345.799V29.344C345.799 28.992 345.777 28.6547 345.733 28.332C345.703 28.0093 345.601 27.7453 345.425 27.54C345.249 27.32 344.948 27.21 344.523 27.21C344.112 27.21 343.804 27.32 343.599 27.54C343.408 27.76 343.283 28.0387 343.225 28.376C343.181 28.6987 343.159 29.0433 343.159 29.41V37.792C343.159 38.188 343.188 38.5547 343.247 38.892C343.32 39.2147 343.452 39.4787 343.643 39.684C343.848 39.8747 344.141 39.97 344.523 39.97C344.933 39.97 345.227 39.8673 345.403 39.662C345.579 39.442 345.689 39.1633 345.733 38.826C345.777 38.4887 345.799 38.144 345.799 37.792V35.922H349.649V37.462C349.649 38.474 349.495 39.3833 349.187 40.19C348.893 40.982 348.373 41.6127 347.625 42.082C346.891 42.5367 345.857 42.764 344.523 42.764ZM354.211 42.72C353.698 42.72 353.258 42.5953 352.891 42.346C352.539 42.082 352.275 41.7227 352.099 41.268C351.923 40.8133 351.835 40.3073 351.835 39.75V29.784H355.421V39.332C355.421 39.64 355.473 39.882 355.575 40.058C355.693 40.2193 355.891 40.3 356.169 40.3C356.331 40.3 356.499 40.2633 356.675 40.19C356.851 40.102 357.035 40.0067 357.225 39.904V29.784H360.789V42.5H357.225V41.334C356.771 41.7593 356.287 42.0967 355.773 42.346C355.275 42.5953 354.754 42.72 354.211 42.72ZM367.341 42.632C366.388 42.632 365.647 42.4927 365.119 42.214C364.606 41.9353 364.254 41.532 364.063 41.004C363.873 40.4613 363.777 39.8087 363.777 39.046V32.138H362.545V29.784H363.777V25.912H367.407V29.784H369.211V32.138H367.407V38.694C367.407 39.0607 367.51 39.3247 367.715 39.486C367.935 39.6473 368.207 39.728 368.529 39.728C368.72 39.728 368.896 39.7207 369.057 39.706C369.219 39.6767 369.365 39.6547 369.497 39.64V42.456C369.307 42.4853 369.006 42.522 368.595 42.566C368.185 42.61 367.767 42.632 367.341 42.632ZM375.469 42.632C374.515 42.632 373.775 42.4927 373.247 42.214C372.733 41.9353 372.381 41.532 372.191 41.004C372 40.4613 371.905 39.8087 371.905 39.046V32.138H370.673V29.784H371.905V25.912H375.535V29.784H377.339V32.138H375.535V38.694C375.535 39.0607 375.637 39.3247 375.843 39.486C376.063 39.6473 376.334 39.728 376.657 39.728C376.847 39.728 377.023 39.7207 377.185 39.706C377.346 39.6767 377.493 39.6547 377.625 39.64V42.456C377.434 42.4853 377.133 42.522 376.723 42.566C376.312 42.61 375.894 42.632 375.469 42.632ZM383.816 42.72C382.892 42.72 382.1 42.5587 381.44 42.236C380.78 41.8987 380.274 41.4147 379.922 40.784C379.57 40.1387 379.394 39.3687 379.394 38.474V33.81C379.394 32.9007 379.57 32.1307 379.922 31.5C380.274 30.8693 380.78 30.3927 381.44 30.07C382.115 29.7327 382.907 29.564 383.816 29.564C384.755 29.564 385.532 29.7253 386.148 30.048C386.779 30.3707 387.248 30.8473 387.556 31.478C387.879 32.1087 388.04 32.886 388.04 33.81V36.362H382.936V38.804C382.936 39.1267 382.973 39.3907 383.046 39.596C383.119 39.8013 383.222 39.948 383.354 40.036C383.486 40.124 383.64 40.168 383.816 40.168C383.992 40.168 384.146 40.1313 384.278 40.058C384.425 39.97 384.535 39.838 384.608 39.662C384.696 39.486 384.74 39.244 384.74 38.936V37.594H388.04V38.826C388.04 40.1167 387.666 41.092 386.918 41.752C386.17 42.3973 385.136 42.72 383.816 42.72ZM382.936 34.69H384.74V33.414C384.74 33.0767 384.696 32.8127 384.608 32.622C384.535 32.4313 384.425 32.2993 384.278 32.226C384.146 32.1527 383.985 32.116 383.794 32.116C383.618 32.116 383.464 32.16 383.332 32.248C383.215 32.336 383.119 32.49 383.046 32.71C382.973 32.9153 382.936 33.216 382.936 33.612V34.69ZM390.386 42.5V29.784H393.972V31.896C394.383 31.1627 394.793 30.6053 395.204 30.224C395.615 29.828 396.113 29.63 396.7 29.63C396.817 29.63 396.92 29.6373 397.008 29.652C397.096 29.652 397.177 29.6667 397.25 29.696V33.26C397.089 33.1867 396.905 33.128 396.7 33.084C396.509 33.0253 396.304 32.996 396.084 32.996C395.673 32.996 395.292 33.106 394.94 33.326C394.588 33.546 394.265 33.8467 393.972 34.228V42.5H390.386ZM160.771 74.5V57.6992H157.333V55.25H166.958V57.6992H163.521V74.5H160.771ZM168.554 74.5V55.25H171.304V62.2324C171.712 61.86 172.046 61.5771 172.303 61.3838C172.561 61.1833 172.916 60.9971 173.367 60.8252C173.825 60.6462 174.312 60.5566 174.828 60.5566C175.415 60.5566 175.891 60.7715 176.256 61.2012C176.622 61.6309 176.804 62.1572 176.804 62.7803V74.5H174.054V64.1875C174.054 63.7148 173.993 63.3675 173.872 63.1455C173.757 62.9235 173.503 62.8125 173.109 62.8125C172.55 62.8125 171.949 63.0811 171.304 63.6182V74.5H168.554ZM183.449 74.6934C182.783 74.6934 182.203 74.5788 181.709 74.3496C181.222 74.1204 180.832 73.8232 180.538 73.458C180.252 73.0856 180.019 72.613 179.84 72.04C179.661 71.46 179.535 70.8835 179.464 70.3105C179.399 69.7305 179.36 69.0573 179.346 68.291C179.324 67.6895 179.324 67.0879 179.346 66.4863C179.367 65.7702 179.414 65.1364 179.485 64.585C179.564 64.0264 179.697 63.4857 179.883 62.9629C180.069 62.4401 180.309 62.0104 180.603 61.6738C180.903 61.3372 181.294 61.0687 181.773 60.8682C182.26 60.6605 182.826 60.5566 183.471 60.5566C184.058 60.5566 184.574 60.6354 185.018 60.793C185.469 60.9434 185.841 61.1761 186.135 61.4912C186.436 61.7992 186.683 62.1429 186.876 62.5225C187.076 62.902 187.227 63.3639 187.327 63.9082C187.427 64.4453 187.495 64.9753 187.531 65.498C187.574 66.0208 187.596 66.6224 187.596 67.3027V67.625H182.096V68.3125C182.096 68.4056 182.096 68.5524 182.096 68.7529C182.081 69.0179 182.078 69.2936 182.085 69.5801C182.099 69.8594 182.114 70.1351 182.128 70.4072C182.142 70.6794 182.182 70.9408 182.246 71.1914C182.311 71.4349 182.389 71.6497 182.482 71.8359C182.576 72.0221 182.704 72.1689 182.869 72.2764C183.041 72.3838 183.242 72.4375 183.471 72.4375C183.757 72.4375 183.993 72.3838 184.18 72.2764C184.366 72.1618 184.502 71.9935 184.588 71.7715C184.681 71.5495 184.745 71.3275 184.781 71.1055C184.817 70.8835 184.839 70.6042 184.846 70.2676V69.6875H187.574V70.2354C187.51 71.7035 187.148 72.8135 186.489 73.5654C185.83 74.3174 184.817 74.6934 183.449 74.6934ZM182.096 66.25H184.824V65.4229C184.817 65.0576 184.796 64.7389 184.76 64.4668C184.724 64.1947 184.659 63.9225 184.566 63.6504C184.48 63.3783 184.344 63.1706 184.158 63.0273C183.972 62.8841 183.743 62.8125 183.471 62.8125C183.191 62.8125 182.955 62.8877 182.762 63.0381C182.576 63.1885 182.436 63.4069 182.343 63.6934C182.257 63.9727 182.196 64.2484 182.16 64.5205C182.124 64.7926 182.103 65.1185 182.096 65.498V66.25ZM198.651 74.6934C197.985 74.6934 197.405 74.5788 196.911 74.3496C196.424 74.1204 196.034 73.8232 195.74 73.458C195.454 73.0856 195.221 72.613 195.042 72.04C194.863 71.46 194.737 70.8835 194.666 70.3105C194.601 69.7305 194.562 69.0573 194.548 68.291C194.526 67.6895 194.526 67.0879 194.548 66.4863C194.569 65.7702 194.616 65.1364 194.687 64.585C194.766 64.0264 194.899 63.4857 195.085 62.9629C195.271 62.4401 195.511 62.0104 195.804 61.6738C196.105 61.3372 196.496 61.0687 196.975 60.8682C197.462 60.6605 198.028 60.5566 198.673 60.5566C199.26 60.5566 199.776 60.6354 200.22 60.793C200.671 60.9434 201.043 61.1761 201.337 61.4912C201.637 61.7992 201.885 62.1429 202.078 62.5225C202.278 62.902 202.429 63.3639 202.529 63.9082C202.629 64.4453 202.697 64.9753 202.733 65.498C202.776 66.0208 202.798 66.6224 202.798 67.3027V67.625H197.298V68.3125C197.298 68.4056 197.298 68.5524 197.298 68.7529C197.283 69.0179 197.28 69.2936 197.287 69.5801C197.301 69.8594 197.316 70.1351 197.33 70.4072C197.344 70.6794 197.384 70.9408 197.448 71.1914C197.512 71.4349 197.591 71.6497 197.684 71.8359C197.777 72.0221 197.906 72.1689 198.071 72.2764C198.243 72.3838 198.443 72.4375 198.673 72.4375C198.959 72.4375 199.195 72.3838 199.382 72.2764C199.568 72.1618 199.704 71.9935 199.79 71.7715C199.883 71.5495 199.947 71.3275 199.983 71.1055C200.019 70.8835 200.04 70.6042 200.048 70.2676V69.6875H202.776V70.2354C202.712 71.7035 202.35 72.8135 201.691 73.5654C201.032 74.3174 200.019 74.6934 198.651 74.6934ZM197.298 66.25H200.026V65.4229C200.019 65.0576 199.998 64.7389 199.962 64.4668C199.926 64.1947 199.861 63.9225 199.768 63.6504C199.682 63.3783 199.546 63.1706 199.36 63.0273C199.174 62.8841 198.945 62.8125 198.673 62.8125C198.393 62.8125 198.157 62.8877 197.964 63.0381C197.777 63.1885 197.638 63.4069 197.545 63.6934C197.459 63.9727 197.398 64.2484 197.362 64.5205C197.326 64.7926 197.305 65.1185 197.298 65.498V66.25ZM205.146 74.5V60.75H207.896V62.2324C208.304 61.86 208.637 61.5771 208.895 61.3838C209.153 61.1833 209.507 60.9971 209.958 60.8252C210.417 60.6462 210.904 60.5566 211.419 60.5566C212.006 60.5566 212.483 60.7715 212.848 61.2012C213.213 61.6309 213.396 62.1572 213.396 62.7803V74.5H210.646V64.1875C210.646 63.7077 210.578 63.3604 210.442 63.1455C210.306 62.9235 210.03 62.8125 209.614 62.8125C209.378 62.8125 209.142 62.8626 208.905 62.9629C208.676 63.056 208.504 63.1455 208.39 63.2314C208.275 63.3102 208.111 63.4391 207.896 63.6182V74.5H205.146ZM220.041 74.6934C219.375 74.6934 218.795 74.5788 218.3 74.3496C217.813 74.1204 217.423 73.8232 217.129 73.458C216.843 73.0856 216.61 72.613 216.431 72.04C216.252 71.46 216.127 70.8835 216.055 70.3105C215.991 69.7305 215.951 69.0573 215.937 68.291C215.916 67.6895 215.916 67.0879 215.937 66.4863C215.959 65.7702 216.005 65.1364 216.077 64.585C216.156 64.0264 216.288 63.4857 216.474 62.9629C216.66 62.4401 216.9 62.0104 217.194 61.6738C217.495 61.3372 217.885 61.0687 218.365 60.8682C218.852 60.6605 219.418 60.5566 220.062 60.5566C220.649 60.5566 221.165 60.6354 221.609 60.793C222.06 60.9434 222.433 61.1761 222.726 61.4912C223.027 61.7992 223.274 62.1429 223.467 62.5225C223.668 62.902 223.818 63.3639 223.919 63.9082C224.019 64.4453 224.087 64.9753 224.123 65.498C224.166 66.0208 224.187 66.6224 224.187 67.3027V67.625H218.687V68.3125C218.687 68.4056 218.687 68.5524 218.687 68.7529C218.673 69.0179 218.669 69.2936 218.676 69.5801C218.691 69.8594 218.705 70.1351 218.719 70.4072C218.734 70.6794 218.773 70.9408 218.837 71.1914C218.902 71.4349 218.981 71.6497 219.074 71.8359C219.167 72.0221 219.296 72.1689 219.461 72.2764C219.632 72.3838 219.833 72.4375 220.062 72.4375C220.349 72.4375 220.585 72.3838 220.771 72.2764C220.957 72.1618 221.093 71.9935 221.179 71.7715C221.272 71.5495 221.337 71.3275 221.373 71.1055C221.408 70.8835 221.43 70.6042 221.437 70.2676V69.6875H224.166V70.2354C224.101 71.7035 223.74 72.8135 223.081 73.5654C222.422 74.3174 221.408 74.6934 220.041 74.6934ZM218.687 66.25H221.416V65.4229C221.408 65.0576 221.387 64.7389 221.351 64.4668C221.315 64.1947 221.251 63.9225 221.158 63.6504C221.072 63.3783 220.936 63.1706 220.75 63.0273C220.563 62.8841 220.334 62.8125 220.062 62.8125C219.783 62.8125 219.546 62.8877 219.353 63.0381C219.167 63.1885 219.027 63.4069 218.934 63.6934C218.848 63.9727 218.787 64.2484 218.752 64.5205C218.716 64.7926 218.694 65.1185 218.687 65.498V66.25ZM226.535 74.5V60.75H229.285V62.3076C230.266 61.1403 231.409 60.5566 232.712 60.5566C233.371 60.5566 233.854 60.7035 234.162 60.9971C234.47 61.2835 234.678 61.7419 234.785 62.3721C235.236 61.7777 235.723 61.3265 236.246 61.0186C236.769 60.7106 237.428 60.5566 238.223 60.5566C238.452 60.5566 238.656 60.5817 238.835 60.6318C239.021 60.6748 239.182 60.7285 239.318 60.793C239.454 60.8574 239.573 60.9577 239.673 61.0938C239.78 61.2227 239.866 61.3444 239.931 61.459C240.002 61.5664 240.06 61.724 240.103 61.9316C240.153 62.1393 240.188 62.3112 240.21 62.4473C240.231 62.5833 240.249 62.7839 240.264 63.0488C240.278 63.3138 240.285 63.5215 240.285 63.6719C240.285 63.8223 240.285 64.0479 240.285 64.3486C240.285 64.4131 240.285 64.4632 240.285 64.499V74.5H237.535V64.4668C237.535 64.431 237.535 64.3737 237.535 64.2949C237.535 64.0586 237.532 63.876 237.524 63.7471C237.517 63.6182 237.492 63.4714 237.449 63.3066C237.413 63.1348 237.345 63.0094 237.245 62.9307C237.145 62.8519 237.012 62.8125 236.848 62.8125C236.568 62.8125 236.289 62.8698 236.01 62.9844C235.73 63.0918 235.512 63.1992 235.354 63.3066C235.204 63.4069 235.014 63.5501 234.785 63.7363V74.5H232.035V64.5205C232.035 64.4775 232.035 64.4131 232.035 64.3271C232.035 64.1266 232.035 63.9762 232.035 63.876C232.035 63.7757 232.021 63.6468 231.992 63.4893C231.971 63.3245 231.938 63.2028 231.896 63.124C231.853 63.0452 231.784 62.9736 231.691 62.9092C231.598 62.8447 231.484 62.8125 231.348 62.8125C230.674 62.8125 229.987 63.1025 229.285 63.6826V74.5H226.535ZM242.687 77.9375V75.875C243.231 75.875 243.664 75.8392 243.987 75.7676C244.316 75.696 244.563 75.5671 244.728 75.3809C244.893 75.2018 244.996 75.0013 245.039 74.7793C245.09 74.5645 245.115 74.2637 245.115 73.877L241.999 60.75H244.749C245.816 66.6439 246.393 69.8522 246.479 70.375C246.629 69.4082 246.798 68.3913 246.984 67.3242C247.177 66.25 247.392 65.0684 247.628 63.7793C247.872 62.4831 248.058 61.4733 248.187 60.75H250.937L247.499 75.1875C247.27 76.1829 246.787 76.8883 246.049 77.3037C245.312 77.7262 244.284 77.9375 242.966 77.9375H242.687ZM261.015 74.6934C260.349 74.6934 259.769 74.5824 259.275 74.3604C258.788 74.1383 258.397 73.8483 258.104 73.4902C257.81 73.1322 257.574 72.6774 257.395 72.126C257.216 71.5674 257.09 71.0124 257.019 70.4609C256.954 69.9023 256.915 69.2542 256.901 68.5166C256.879 67.9222 256.879 67.3242 256.901 66.7227C256.915 65.9922 256.954 65.3477 257.019 64.7891C257.09 64.2305 257.216 63.6755 257.395 63.124C257.581 62.5654 257.817 62.1107 258.104 61.7598C258.397 61.4017 258.788 61.1117 259.275 60.8896C259.769 60.6676 260.349 60.5566 261.015 60.5566C262.461 60.5566 263.5 60.9469 264.13 61.7275C264.76 62.5081 265.097 63.6647 265.14 65.1973V65.5625H262.39V65.1758C262.383 64.832 262.358 64.5312 262.315 64.2734C262.279 64.0156 262.214 63.7578 262.121 63.5C262.035 63.2422 261.896 63.0452 261.702 62.9092C261.516 62.766 261.287 62.6943 261.015 62.6943C260.743 62.6943 260.514 62.7767 260.327 62.9414C260.141 63.099 259.998 63.3281 259.898 63.6289C259.805 63.9297 259.737 64.2412 259.694 64.5635C259.651 64.8786 259.626 65.2438 259.618 65.6592C259.59 66.5472 259.59 67.8864 259.618 69.6768C259.633 70.0706 259.661 70.418 259.704 70.7188C259.747 71.0124 259.815 71.2988 259.908 71.5781C260.009 71.8503 260.152 72.0615 260.338 72.2119C260.524 72.3623 260.75 72.4375 261.015 72.4375C261.258 72.4375 261.466 72.391 261.638 72.2979C261.817 72.2048 261.953 72.0902 262.046 71.9541C262.139 71.818 262.211 71.6354 262.261 71.4062C262.318 71.1771 262.354 70.9658 262.368 70.7725C262.383 70.5719 262.39 70.3213 262.39 70.0205V69.6875H265.14V70.042C265.118 70.7653 265.029 71.4062 264.871 71.9648C264.714 72.5163 264.474 72.9997 264.152 73.415C263.836 73.8304 263.414 74.1491 262.884 74.3711C262.361 74.5859 261.738 74.6934 261.015 74.6934ZM270.979 72.4375C271.172 72.4375 271.359 72.3802 271.538 72.2656C271.724 72.151 271.864 72.04 271.957 71.9326C272.05 71.8252 272.164 71.682 272.3 71.5029C272.322 71.4671 272.34 71.4421 272.354 71.4277V67.625C272.24 67.7038 272.05 67.8255 271.785 67.9902C271.52 68.1549 271.309 68.291 271.151 68.3984C270.993 68.4987 270.804 68.6419 270.582 68.8281C270.36 69.0072 270.188 69.1826 270.066 69.3545C269.944 69.5192 269.837 69.7233 269.744 69.9668C269.651 70.2103 269.604 70.4645 269.604 70.7295C269.604 71.8682 270.062 72.4375 270.979 72.4375ZM269.604 74.6934C268.838 74.6934 268.186 74.3639 267.649 73.7051C267.119 73.0391 266.854 72.2907 266.854 71.46C266.854 70.7939 266.965 70.1888 267.187 69.6445C267.416 69.1003 267.656 68.667 267.907 68.3447C268.157 68.0153 268.576 67.6787 269.164 67.335C269.751 66.984 270.195 66.7441 270.496 66.6152C270.796 66.4863 271.319 66.2751 272.064 65.9814C272.193 65.9313 272.29 65.8919 272.354 65.8633V64.875C272.354 64.1803 272.257 63.6432 272.064 63.2637C271.871 62.877 271.509 62.6836 270.979 62.6836C270.506 62.6836 270.166 62.8483 269.959 63.1777C269.758 63.5 269.643 63.9476 269.615 64.5205C269.608 64.5993 269.604 64.7174 269.604 64.875H266.854C266.868 63.5573 267.237 62.5081 267.961 61.7275C268.684 60.9469 269.69 60.5566 270.979 60.5566C272.261 60.5566 273.267 60.9541 273.998 61.749C274.735 62.5368 275.104 63.5788 275.104 64.875V71.0625C275.104 72.4948 275.222 73.6406 275.459 74.5H272.719L272.354 72.4375C272.211 72.724 272.093 72.946 272 73.1035C271.914 73.2611 271.785 73.458 271.613 73.6943C271.441 73.9235 271.269 74.1025 271.097 74.2314C270.925 74.3532 270.711 74.4606 270.453 74.5537C270.195 74.6468 269.912 74.6934 269.604 74.6934ZM277.828 74.5V60.75H280.578V62.2324C280.986 61.86 281.319 61.5771 281.577 61.3838C281.835 61.1833 282.189 60.9971 282.641 60.8252C283.099 60.6462 283.586 60.5566 284.102 60.5566C284.689 60.5566 285.165 60.7715 285.53 61.2012C285.896 61.6309 286.078 62.1572 286.078 62.7803V74.5H283.328V64.1875C283.328 63.7077 283.26 63.3604 283.124 63.1455C282.988 62.9235 282.712 62.8125 282.297 62.8125C282.061 62.8125 281.824 62.8626 281.588 62.9629C281.359 63.056 281.187 63.1455 281.072 63.2314C280.958 63.3102 280.793 63.4391 280.578 63.6182V74.5H277.828ZM288.834 74.5V60.75H291.584V62.2324C291.993 61.86 292.326 61.5771 292.583 61.3838C292.841 61.1833 293.196 60.9971 293.647 60.8252C294.105 60.6462 294.592 60.5566 295.108 60.5566C295.695 60.5566 296.171 60.7715 296.537 61.2012C296.902 61.6309 297.084 62.1572 297.084 62.7803V74.5H294.334V64.1875C294.334 63.7077 294.266 63.3604 294.13 63.1455C293.994 62.9235 293.718 62.8125 293.303 62.8125C293.067 62.8125 292.83 62.8626 292.594 62.9629C292.365 63.056 292.193 63.1455 292.079 63.2314C291.964 63.3102 291.799 63.4391 291.584 63.6182V74.5H288.834ZM306.877 73.4043C306.239 74.2637 305.183 74.6934 303.708 74.6934C302.233 74.6934 301.176 74.2637 300.539 73.4043C299.901 72.5449 299.583 71.306 299.583 69.6875V65.5625C299.583 63.944 299.901 62.7051 300.539 61.8457C301.176 60.9863 302.233 60.5566 303.708 60.5566C305.183 60.5566 306.239 60.9863 306.877 61.8457C307.514 62.7051 307.833 63.944 307.833 65.5625V69.6875C307.833 71.306 307.514 72.5449 306.877 73.4043ZM303.192 72.3516C303.343 72.4089 303.514 72.4375 303.708 72.4375C303.901 72.4375 304.069 72.4089 304.213 72.3516C304.363 72.2943 304.485 72.2262 304.578 72.1475C304.678 72.0615 304.761 71.9398 304.825 71.7822C304.889 71.6175 304.94 71.4743 304.975 71.3525C305.011 71.2308 305.036 71.0553 305.051 70.8262C305.065 70.597 305.072 70.418 305.072 70.2891C305.079 70.153 305.083 69.9525 305.083 69.6875V65.5625C305.083 65.2975 305.079 65.1006 305.072 64.9717C305.072 64.8356 305.065 64.653 305.051 64.4238C305.036 64.1947 305.011 64.0192 304.975 63.8975C304.94 63.7757 304.889 63.6361 304.825 63.4785C304.761 63.3138 304.678 63.1921 304.578 63.1133C304.485 63.0273 304.363 62.9557 304.213 62.8984C304.069 62.8411 303.901 62.8125 303.708 62.8125C303.514 62.8125 303.343 62.8411 303.192 62.8984C303.049 62.9557 302.927 63.0273 302.827 63.1133C302.734 63.1921 302.655 63.3138 302.591 63.4785C302.526 63.6361 302.476 63.7757 302.44 63.8975C302.404 64.0192 302.379 64.1947 302.365 64.4238C302.351 64.653 302.34 64.8356 302.333 64.9717C302.333 65.1006 302.333 65.2975 302.333 65.5625V69.6875C302.333 69.9525 302.333 70.153 302.333 70.2891C302.34 70.418 302.351 70.597 302.365 70.8262C302.379 71.0553 302.404 71.2308 302.44 71.3525C302.476 71.4743 302.526 71.6175 302.591 71.7822C302.655 71.9398 302.734 72.0615 302.827 72.1475C302.927 72.2262 303.049 72.2943 303.192 72.3516ZM314.252 74.6934C313.171 74.6934 312.383 74.4176 311.889 73.8662C311.402 73.3148 311.151 72.4805 311.137 71.3633V62.8125H309.762V60.75H311.137V55.9375H313.887V60.75H315.949V62.8125H313.887V70.8369C313.887 71.3883 313.962 71.793 314.112 72.0508C314.263 72.3086 314.567 72.4375 315.026 72.4375C315.226 72.4375 315.534 72.4017 315.949 72.3301V74.5645C315.262 74.6504 314.696 74.6934 314.252 74.6934ZM326.897 72.4375C327.091 72.4375 327.277 72.3802 327.456 72.2656C327.642 72.151 327.782 72.04 327.875 71.9326C327.968 71.8252 328.083 71.682 328.219 71.5029C328.24 71.4671 328.258 71.4421 328.272 71.4277V67.625C328.158 67.7038 327.968 67.8255 327.703 67.9902C327.438 68.1549 327.227 68.291 327.069 68.3984C326.912 68.4987 326.722 68.6419 326.5 68.8281C326.278 69.0072 326.106 69.1826 325.984 69.3545C325.863 69.5192 325.755 69.7233 325.662 69.9668C325.569 70.2103 325.522 70.4645 325.522 70.7295C325.522 71.8682 325.981 72.4375 326.897 72.4375ZM325.522 74.6934C324.756 74.6934 324.104 74.3639 323.567 73.7051C323.037 73.0391 322.772 72.2907 322.772 71.46C322.772 70.7939 322.883 70.1888 323.105 69.6445C323.335 69.1003 323.575 68.667 323.825 68.3447C324.076 68.0153 324.495 67.6787 325.082 67.335C325.669 66.984 326.113 66.7441 326.414 66.6152C326.715 66.4863 327.238 66.2751 327.982 65.9814C328.111 65.9313 328.208 65.8919 328.272 65.8633V64.875C328.272 64.1803 328.176 63.6432 327.982 63.2637C327.789 62.877 327.427 62.6836 326.897 62.6836C326.425 62.6836 326.085 62.8483 325.877 63.1777C325.676 63.5 325.562 63.9476 325.533 64.5205C325.526 64.5993 325.522 64.7174 325.522 64.875H322.772C322.787 63.5573 323.156 62.5081 323.879 61.7275C324.602 60.9469 325.608 60.5566 326.897 60.5566C328.179 60.5566 329.186 60.9541 329.916 61.749C330.654 62.5368 331.022 63.5788 331.022 64.875V71.0625C331.022 72.4948 331.141 73.6406 331.377 74.5H328.638L328.272 72.4375C328.129 72.724 328.011 72.946 327.918 73.1035C327.832 73.2611 327.703 73.458 327.531 73.6943C327.359 73.9235 327.188 74.1025 327.016 74.2314C326.844 74.3532 326.629 74.4606 326.371 74.5537C326.113 74.6468 325.83 74.6934 325.522 74.6934ZM337.184 74.6934C336.518 74.6934 335.938 74.5824 335.444 74.3604C334.957 74.1383 334.566 73.8483 334.273 73.4902C333.979 73.1322 333.743 72.6774 333.564 72.126C333.385 71.5674 333.259 71.0124 333.188 70.4609C333.123 69.9023 333.084 69.2542 333.07 68.5166C333.048 67.9222 333.048 67.3242 333.07 66.7227C333.084 65.9922 333.123 65.3477 333.188 64.7891C333.259 64.2305 333.385 63.6755 333.564 63.124C333.75 62.5654 333.986 62.1107 334.273 61.7598C334.566 61.4017 334.957 61.1117 335.444 60.8896C335.938 60.6676 336.518 60.5566 337.184 60.5566C338.631 60.5566 339.669 60.9469 340.299 61.7275C340.929 62.5081 341.266 63.6647 341.309 65.1973V65.5625H338.559V65.1758C338.552 64.832 338.527 64.5312 338.484 64.2734C338.448 64.0156 338.384 63.7578 338.29 63.5C338.204 63.2422 338.065 63.0452 337.871 62.9092C337.685 62.766 337.456 62.6943 337.184 62.6943C336.912 62.6943 336.683 62.7767 336.496 62.9414C336.31 63.099 336.167 63.3281 336.067 63.6289C335.974 63.9297 335.906 64.2412 335.863 64.5635C335.82 64.8786 335.795 65.2438 335.787 65.6592C335.759 66.5472 335.759 67.8864 335.787 69.6768C335.802 70.0706 335.83 70.418 335.873 70.7188C335.916 71.0124 335.984 71.2988 336.078 71.5781C336.178 71.8503 336.321 72.0615 336.507 72.2119C336.693 72.3623 336.919 72.4375 337.184 72.4375C337.427 72.4375 337.635 72.391 337.807 72.2979C337.986 72.2048 338.122 72.0902 338.215 71.9541C338.308 71.818 338.38 71.6354 338.43 71.4062C338.487 71.1771 338.523 70.9658 338.537 70.7725C338.552 70.5719 338.559 70.3213 338.559 70.0205V69.6875H341.309V70.042C341.287 70.7653 341.198 71.4062 341.04 71.9648C340.883 72.5163 340.643 72.9997 340.321 73.415C340.006 73.8304 339.583 74.1491 339.053 74.3711C338.53 74.5859 337.907 74.6934 337.184 74.6934ZM347.191 74.6934C346.11 74.6934 345.322 74.4176 344.828 73.8662C344.341 73.3148 344.09 72.4805 344.076 71.3633V62.8125H342.701V60.75H344.076V55.9375H346.826V60.75H348.888V62.8125H346.826V70.8369C346.826 71.3883 346.901 71.793 347.052 72.0508C347.202 72.3086 347.506 72.4375 347.965 72.4375C348.165 72.4375 348.473 72.4017 348.888 72.3301V74.5645C348.201 74.6504 347.635 74.6934 347.191 74.6934ZM359.965 72.4375C360.631 72.4375 361.319 72.2943 362.028 72.0078V63.3604C361.412 62.9951 360.725 62.8125 359.965 62.8125C359.693 62.8125 359.464 62.8805 359.278 63.0166C359.092 63.1455 358.952 63.3389 358.859 63.5967C358.766 63.8473 358.698 64.1087 358.655 64.3809C358.612 64.6458 358.587 64.9609 358.58 65.3262C358.551 66.9303 358.551 68.2015 358.58 69.1396C358.587 69.598 358.612 70.0062 358.655 70.3643C358.698 70.7223 358.766 71.0697 358.859 71.4062C358.959 71.7357 359.102 71.9899 359.289 72.1689C359.475 72.348 359.7 72.4375 359.965 72.4375ZM359.278 74.6934C358.669 74.6934 358.136 74.5215 357.677 74.1777C357.226 73.834 356.875 73.3685 356.625 72.7812C356.381 72.194 356.198 71.5853 356.077 70.9551C355.955 70.3177 355.88 69.6338 355.851 68.9033C355.837 68.5667 355.837 67.7432 355.851 66.4326C355.865 65.96 355.887 65.5339 355.916 65.1543C355.944 64.7676 355.991 64.3665 356.055 63.9512C356.127 63.5358 356.213 63.1706 356.313 62.8555C356.421 62.5332 356.56 62.2253 356.732 61.9316C356.904 61.6309 357.104 61.3838 357.334 61.1904C357.563 60.9971 357.838 60.8431 358.161 60.7285C358.483 60.6139 358.841 60.5566 359.235 60.5566C359.543 60.5566 359.829 60.5996 360.094 60.6855C360.366 60.7643 360.624 60.8932 360.868 61.0723C361.111 61.2441 361.305 61.3981 361.448 61.5342C361.598 61.6702 361.792 61.8636 362.028 62.1143V55.2607H364.778V74.5H362.028V73.2539C361.613 73.6836 361.19 74.0309 360.76 74.2959C360.331 74.5609 359.837 74.6934 359.278 74.6934ZM369.661 74.6934C369.06 74.6934 368.576 74.4821 368.211 74.0596C367.846 73.6299 367.663 73.0999 367.663 72.4697V60.75H370.413V71.6318C370.413 71.9183 370.499 72.151 370.671 72.3301C370.85 72.5091 371.079 72.5986 371.358 72.5986C371.509 72.5986 371.656 72.5807 371.799 72.5449C371.942 72.5091 372.082 72.4482 372.218 72.3623C372.361 72.2692 372.472 72.1976 372.551 72.1475C372.63 72.0902 372.741 71.9971 372.884 71.8682C373.034 71.7393 373.127 71.6605 373.163 71.6318V60.75H375.913V74.5H373.163V73.0176C372.891 73.2539 372.69 73.4258 372.562 73.5332C372.44 73.6406 372.25 73.7874 371.992 73.9736C371.734 74.1527 371.505 74.2852 371.305 74.3711C371.111 74.4499 370.868 74.5215 370.574 74.5859C370.281 74.6576 369.976 74.6934 369.661 74.6934ZM378.659 74.5V60.75H381.409V62.5869C381.688 62.0426 382.092 61.57 382.622 61.1689C383.16 60.7607 383.754 60.5566 384.406 60.5566C384.427 60.5566 384.574 60.571 384.846 60.5996V63.6396C384.338 63.4391 383.829 63.3389 383.321 63.3389C382.748 63.3389 382.286 63.5107 381.935 63.8545C381.584 64.1982 381.409 64.653 381.409 65.2188V74.5H378.659ZM386.582 58.6875V55.9375H389.332V58.6875H386.582ZM386.582 74.5V60.75H389.332V74.5H386.582ZM392.314 74.5V60.75H395.064V62.2324C395.472 61.86 395.805 61.5771 396.063 61.3838C396.32 61.1833 396.675 60.9971 397.126 60.8252C397.584 60.6462 398.071 60.5566 398.587 60.5566C399.174 60.5566 399.651 60.7715 400.016 61.2012C400.381 61.6309 400.564 62.1572 400.564 62.7803V74.5H397.814V64.1875C397.814 63.7077 397.746 63.3604 397.61 63.1455C397.473 62.9235 397.198 62.8125 396.782 62.8125C396.546 62.8125 396.31 62.8626 396.073 62.9629C395.844 63.056 395.672 63.1455 395.558 63.2314C395.443 63.3102 395.279 63.4391 395.064 63.6182V74.5H392.314ZM405.264 65.5625C405.264 67.5104 405.837 68.4844 406.983 68.4844C408.129 68.4844 408.702 67.5104 408.702 65.5625C408.702 65.1686 408.677 64.807 408.627 64.4775C408.576 64.141 408.49 63.8151 408.369 63.5C408.247 63.1777 408.068 62.9271 407.832 62.748C407.595 62.5618 407.312 62.4688 406.983 62.4688C406.646 62.4688 406.36 62.5618 406.124 62.748C405.887 62.9271 405.708 63.1777 405.587 63.5C405.472 63.8151 405.39 64.141 405.339 64.4775C405.289 64.807 405.264 65.1686 405.264 65.5625ZM407.671 76.584C407.864 76.584 408.036 76.5804 408.186 76.5732C408.344 76.5661 408.523 76.5518 408.723 76.5303C408.924 76.5088 409.096 76.473 409.239 76.4229C409.389 76.3799 409.529 76.3226 409.658 76.251C409.794 76.1794 409.898 76.0827 409.969 75.9609C410.041 75.8464 410.077 75.7139 410.077 75.5635C410.077 74.7972 409.343 74.3281 407.875 74.1562L405.608 73.8877C405.329 74.0882 405.089 74.3783 404.888 74.7578C404.695 75.1374 404.598 75.5348 404.598 75.9502C404.598 76.0648 404.638 76.1615 404.716 76.2402C404.795 76.3262 404.91 76.3906 405.06 76.4336C405.218 76.4766 405.375 76.5124 405.533 76.541C405.698 76.5697 405.891 76.5876 406.113 76.5947C406.335 76.6019 406.525 76.6055 406.682 76.6055C406.84 76.6055 407.022 76.6019 407.23 76.5947C407.445 76.5876 407.592 76.584 407.671 76.584ZM407.671 78.6143C407.327 78.6143 407.047 78.6107 406.833 78.6035C406.618 78.6035 406.324 78.5964 405.952 78.582C405.579 78.5677 405.268 78.5391 405.017 78.4961C404.767 78.4603 404.48 78.4102 404.158 78.3457C403.836 78.2884 403.567 78.2096 403.352 78.1094C403.144 78.0091 402.944 77.891 402.751 77.7549C402.557 77.6188 402.41 77.4505 402.31 77.25C402.217 77.0566 402.171 76.8382 402.171 76.5947C402.171 75.8786 402.36 75.2663 402.74 74.7578C403.127 74.2493 403.624 73.8447 404.233 73.5439C403.861 73.4437 403.538 73.2933 403.266 73.0928C402.994 72.8851 402.858 72.6344 402.858 72.3408C402.858 72.2191 402.872 72.0902 402.901 71.9541C402.93 71.818 402.962 71.6963 402.998 71.5889C403.033 71.4743 403.091 71.3454 403.17 71.2021C403.248 71.0589 403.309 70.9479 403.352 70.8691C403.402 70.7832 403.481 70.6686 403.588 70.5254C403.696 70.375 403.768 70.2747 403.803 70.2246C403.846 70.1673 403.925 70.0706 404.04 69.9346C404.154 69.7913 404.219 69.709 404.233 69.6875C403.316 68.599 402.858 67.224 402.858 65.5625C402.858 64.61 403.008 63.7614 403.309 63.0166C403.61 62.2718 404.075 61.6774 404.706 61.2334C405.343 60.7822 406.102 60.5566 406.983 60.5566C407.491 60.5566 407.935 60.6283 408.315 60.7715C408.695 60.9147 409.003 61.0973 409.239 61.3193C409.482 61.5342 409.719 61.8206 409.948 62.1787C410.492 61.1689 411.266 60.6318 412.268 60.5674C412.29 60.5674 412.311 60.5674 412.333 60.5674C412.354 60.5674 412.379 60.5674 412.408 60.5674C412.444 60.5674 412.469 60.5674 412.483 60.5674V62.8125C412.447 62.8125 412.39 62.8125 412.311 62.8125C412.003 62.8125 411.77 62.8161 411.613 62.8232C411.455 62.8304 411.28 62.8626 411.087 62.9199C410.893 62.9701 410.739 63.0524 410.625 63.167C410.754 63.4463 410.865 63.8187 410.958 64.2842C411.058 64.7425 411.108 65.1686 411.108 65.5625C411.108 66.5221 410.961 67.3708 410.668 68.1084C410.381 68.846 409.919 69.4368 409.282 69.8809C408.652 70.3249 407.885 70.5469 406.983 70.5469L405.597 70.3857C405.583 70.4215 405.547 70.486 405.49 70.5791C405.433 70.665 405.386 70.7367 405.35 70.7939C405.322 70.8512 405.293 70.9264 405.264 71.0195C405.236 71.1055 405.221 71.1878 405.221 71.2666C405.221 71.4528 405.311 71.6104 405.49 71.7393C405.669 71.8682 405.916 71.9648 406.231 72.0293C406.546 72.0866 406.847 72.1296 407.133 72.1582C407.427 72.1868 407.753 72.2119 408.111 72.2334C408.469 72.2477 408.716 72.2656 408.852 72.2871C409.26 72.3444 409.622 72.4124 409.937 72.4912C410.259 72.5628 410.585 72.6702 410.915 72.8135C411.251 72.9567 411.527 73.1286 411.742 73.3291C411.957 73.5296 412.132 73.7874 412.268 74.1025C412.411 74.4176 412.483 74.7793 412.483 75.1875C412.483 75.6888 412.393 76.1364 412.214 76.5303C412.043 76.9242 411.81 77.25 411.516 77.5078C411.223 77.7656 410.868 77.9769 410.453 78.1416C410.037 78.3135 409.601 78.4352 409.142 78.5068C408.684 78.5785 408.193 78.6143 407.671 78.6143ZM422.249 74.6934C421.168 74.6934 420.38 74.4176 419.886 73.8662C419.399 73.3148 419.149 72.4805 419.134 71.3633V62.8125H417.759V60.75H419.134V55.9375H421.884V60.75H423.947V62.8125H421.884V70.8369C421.884 71.3883 421.959 71.793 422.11 72.0508C422.26 72.3086 422.565 72.4375 423.023 72.4375C423.223 72.4375 423.531 72.4017 423.947 72.3301V74.5645C423.259 74.6504 422.693 74.6934 422.249 74.6934ZM426.305 74.5V55.25H429.055V62.2324C429.464 61.86 429.797 61.5771 430.054 61.3838C430.312 61.1833 430.667 60.9971 431.118 60.8252C431.576 60.6462 432.063 60.5566 432.579 60.5566C433.166 60.5566 433.642 60.7715 434.008 61.2012C434.373 61.6309 434.555 62.1572 434.555 62.7803V74.5H431.805V64.1875C431.805 63.7148 431.745 63.3675 431.623 63.1455C431.508 62.9235 431.254 62.8125 430.86 62.8125C430.302 62.8125 429.7 63.0811 429.055 63.6182V74.5H426.305ZM441.2 74.6934C440.534 74.6934 439.954 74.5788 439.46 74.3496C438.973 74.1204 438.583 73.8232 438.289 73.458C438.003 73.0856 437.77 72.613 437.591 72.04C437.412 71.46 437.287 70.8835 437.215 70.3105C437.151 69.7305 437.111 69.0573 437.097 68.291C437.075 67.6895 437.075 67.0879 437.097 66.4863C437.118 65.7702 437.165 65.1364 437.237 64.585C437.315 64.0264 437.448 63.4857 437.634 62.9629C437.82 62.4401 438.06 62.0104 438.354 61.6738C438.654 61.3372 439.045 61.0687 439.525 60.8682C440.012 60.6605 440.577 60.5566 441.222 60.5566C441.809 60.5566 442.325 60.6354 442.769 60.793C443.22 60.9434 443.592 61.1761 443.886 61.4912C444.187 61.7992 444.434 62.1429 444.627 62.5225C444.828 62.902 444.978 63.3639 445.078 63.9082C445.179 64.4453 445.247 64.9753 445.282 65.498C445.325 66.0208 445.347 66.6224 445.347 67.3027V67.625H439.847V68.3125C439.847 68.4056 439.847 68.5524 439.847 68.7529C439.833 69.0179 439.829 69.2936 439.836 69.5801C439.85 69.8594 439.865 70.1351 439.879 70.4072C439.893 70.6794 439.933 70.9408 439.997 71.1914C440.062 71.4349 440.14 71.6497 440.234 71.8359C440.327 72.0221 440.456 72.1689 440.62 72.2764C440.792 72.3838 440.993 72.4375 441.222 72.4375C441.508 72.4375 441.745 72.3838 441.931 72.2764C442.117 72.1618 442.253 71.9935 442.339 71.7715C442.432 71.5495 442.497 71.3275 442.532 71.1055C442.568 70.8835 442.59 70.6042 442.597 70.2676V69.6875H445.325V70.2354C445.261 71.7035 444.899 72.8135 444.24 73.5654C443.582 74.3174 442.568 74.6934 441.2 74.6934ZM439.847 66.25H442.575V65.4229C442.568 65.0576 442.547 64.7389 442.511 64.4668C442.475 64.1947 442.411 63.9225 442.318 63.6504C442.232 63.3783 442.096 63.1706 441.909 63.0273C441.723 62.8841 441.494 62.8125 441.222 62.8125C440.943 62.8125 440.706 62.8877 440.513 63.0381C440.327 63.1885 440.187 63.4069 440.094 63.6934C440.008 63.9727 439.947 64.2484 439.911 64.5205C439.876 64.7926 439.854 65.1185 439.847 65.498V66.25ZM447.813 58.6875V55.9375H450.563V58.6875H447.813ZM447.813 74.5V60.75H450.563V74.5H447.813ZM453.545 74.5V60.75H456.295V62.5869C456.574 62.0426 456.979 61.57 457.509 61.1689C458.046 60.7607 458.64 60.5566 459.292 60.5566C459.313 60.5566 459.46 60.571 459.732 60.5996V63.6396C459.224 63.4391 458.715 63.3389 458.207 63.3389C457.634 63.3389 457.172 63.5107 456.821 63.8545C456.47 64.1982 456.295 64.653 456.295 65.2188V74.5H453.545ZM466.169 74.5V60.75H468.919V62.2324C469.327 61.86 469.66 61.5771 469.918 61.3838C470.176 61.1833 470.53 60.9971 470.981 60.8252C471.44 60.6462 471.927 60.5566 472.442 60.5566C473.029 60.5566 473.506 60.7715 473.871 61.2012C474.236 61.6309 474.419 62.1572 474.419 62.7803V74.5H471.669V64.1875C471.669 63.7077 471.601 63.3604 471.465 63.1455C471.329 62.9235 471.053 62.8125 470.637 62.8125C470.401 62.8125 470.165 62.8626 469.928 62.9629C469.699 63.056 469.527 63.1455 469.413 63.2314C469.298 63.3102 469.134 63.4391 468.919 63.6182V74.5H466.169ZM481.064 74.6934C480.398 74.6934 479.818 74.5788 479.323 74.3496C478.836 74.1204 478.446 73.8232 478.153 73.458C477.866 73.0856 477.633 72.613 477.454 72.04C477.275 71.46 477.15 70.8835 477.078 70.3105C477.014 69.7305 476.974 69.0573 476.96 68.291C476.939 67.6895 476.939 67.0879 476.96 66.4863C476.982 65.7702 477.028 65.1364 477.1 64.585C477.179 64.0264 477.311 63.4857 477.497 62.9629C477.683 62.4401 477.923 62.0104 478.217 61.6738C478.518 61.3372 478.908 61.0687 479.388 60.8682C479.875 60.6605 480.441 60.5566 481.085 60.5566C481.672 60.5566 482.188 60.6354 482.632 60.793C483.083 60.9434 483.456 61.1761 483.749 61.4912C484.05 61.7992 484.297 62.1429 484.49 62.5225C484.691 62.902 484.841 63.3639 484.942 63.9082C485.042 64.4453 485.11 64.9753 485.146 65.498C485.189 66.0208 485.21 66.6224 485.21 67.3027V67.625H479.71V68.3125C479.71 68.4056 479.71 68.5524 479.71 68.7529C479.696 69.0179 479.692 69.2936 479.699 69.5801C479.714 69.8594 479.728 70.1351 479.742 70.4072C479.757 70.6794 479.796 70.9408 479.861 71.1914C479.925 71.4349 480.004 71.6497 480.097 71.8359C480.19 72.0221 480.319 72.1689 480.484 72.2764C480.655 72.3838 480.856 72.4375 481.085 72.4375C481.372 72.4375 481.608 72.3838 481.794 72.2764C481.98 72.1618 482.116 71.9935 482.202 71.7715C482.295 71.5495 482.36 71.3275 482.396 71.1055C482.431 70.8835 482.453 70.6042 482.46 70.2676V69.6875H485.189V70.2354C485.124 71.7035 484.763 72.8135 484.104 73.5654C483.445 74.3174 482.431 74.6934 481.064 74.6934ZM479.71 66.25H482.439V65.4229C482.431 65.0576 482.41 64.7389 482.374 64.4668C482.338 64.1947 482.274 63.9225 482.181 63.6504C482.095 63.3783 481.959 63.1706 481.773 63.0273C481.586 62.8841 481.357 62.8125 481.085 62.8125C480.806 62.8125 480.57 62.8877 480.376 63.0381C480.19 63.1885 480.05 63.4069 479.957 63.6934C479.871 63.9727 479.81 64.2484 479.775 64.5205C479.739 64.7926 479.717 65.1185 479.71 65.498V66.25ZM486.484 74.5L489.234 67.625V67.3457L486.484 60.75H489.137L490.974 66.0029L492.811 60.75H495.421L492.671 67.3457V67.625L495.421 74.5H492.671L491.039 69.2041L489.234 74.5H486.484ZM501.024 74.6934C499.943 74.6934 499.155 74.4176 498.661 73.8662C498.174 73.3148 497.924 72.4805 497.909 71.3633V62.8125H496.534V60.75H497.909V55.9375H500.659V60.75H502.722V62.8125H500.659V70.8369C500.659 71.3883 500.734 71.793 500.885 72.0508C501.035 72.3086 501.34 72.4375 501.798 72.4375C501.998 72.4375 502.306 72.4017 502.722 72.3301V74.5645C502.034 74.6504 501.468 74.6934 501.024 74.6934ZM513.713 74.6934C512.631 74.6934 511.844 74.4176 511.349 73.8662C510.862 73.3148 510.612 72.4805 510.597 71.3633V62.8125H509.222V60.75H510.597V55.9375H513.347V60.75H515.41V62.8125H513.347V70.8369C513.347 71.3883 513.423 71.793 513.573 72.0508C513.723 72.3086 514.028 72.4375 514.486 72.4375C514.687 72.4375 514.995 72.4017 515.41 72.3301V74.5645C514.722 74.6504 514.157 74.6934 513.713 74.6934ZM519.735 74.6934C519.133 74.6934 518.65 74.4821 518.284 74.0596C517.919 73.6299 517.737 73.0999 517.737 72.4697V60.75H520.487V71.6318C520.487 71.9183 520.572 72.151 520.744 72.3301C520.923 72.5091 521.153 72.5986 521.432 72.5986C521.582 72.5986 521.729 72.5807 521.872 72.5449C522.015 72.5091 522.155 72.4482 522.291 72.3623C522.434 72.2692 522.545 72.1976 522.624 72.1475C522.703 72.0902 522.814 71.9971 522.957 71.8682C523.108 71.7393 523.201 71.6605 523.237 71.6318V60.75H525.987V74.5H523.237V73.0176C522.964 73.2539 522.764 73.4258 522.635 73.5332C522.513 73.6406 522.323 73.7874 522.066 73.9736C521.808 74.1527 521.579 74.2852 521.378 74.3711C521.185 74.4499 520.941 74.5215 520.648 74.5859C520.354 74.6576 520.05 74.6934 519.735 74.6934ZM528.732 74.5V60.75H531.482V62.5869C531.761 62.0426 532.166 61.57 532.696 61.1689C533.233 60.7607 533.827 60.5566 534.479 60.5566C534.501 60.5566 534.647 60.571 534.92 60.5996V63.6396C534.411 63.4391 533.903 63.3389 533.394 63.3389C532.821 63.3389 532.359 63.5107 532.008 63.8545C531.657 64.1982 531.482 64.653 531.482 65.2188V74.5H528.732ZM536.537 74.5V60.75H539.287V62.2324C539.695 61.86 540.028 61.5771 540.286 61.3838C540.544 61.1833 540.898 60.9971 541.35 60.8252C541.808 60.6462 542.295 60.5566 542.811 60.5566C543.398 60.5566 543.874 60.7715 544.239 61.2012C544.604 61.6309 544.787 62.1572 544.787 62.7803V74.5H542.037V64.1875C542.037 63.7077 541.969 63.3604 541.833 63.1455C541.697 62.9235 541.421 62.8125 541.006 62.8125C540.77 62.8125 540.533 62.8626 540.297 62.9629C540.068 63.056 539.896 63.1455 539.781 63.2314C539.667 63.3102 539.502 63.4391 539.287 63.6182V74.5H536.537ZM546.974 74.5V71.75H549.724V74.5H546.974Z" fill="black"/>
<path d="M586.9 54.2412L591.548 53.7598C591.681 54.8112 592.074 55.6468 592.727 56.2666C593.38 56.8753 594.133 57.1797 594.985 57.1797C595.959 57.1797 596.783 56.7868 597.459 56.001C598.134 55.2041 598.471 54.0088 598.471 52.415C598.471 50.9209 598.134 49.8031 597.459 49.0615C596.794 48.3089 595.926 47.9326 594.852 47.9326C593.513 47.9326 592.312 48.5247 591.25 49.709L587.464 49.1611L589.855 36.4941H602.19V40.8604H593.391L592.661 44.9941C593.701 44.474 594.764 44.2139 595.848 44.2139C597.918 44.2139 599.672 44.9665 601.111 46.4717C602.55 47.9769 603.269 49.9303 603.269 52.332C603.269 54.3353 602.688 56.1227 601.526 57.6943C599.943 59.8415 597.746 60.915 594.935 60.915C592.688 60.915 590.857 60.3118 589.44 59.1055C588.023 57.8991 587.177 56.2777 586.9 54.2412ZM614.015 36.0625C616.373 36.0625 618.215 36.9036 619.543 38.5859C621.126 40.5781 621.917 43.8818 621.917 48.4971C621.917 53.1012 621.121 56.4105 619.527 58.4248C618.21 60.085 616.373 60.915 614.015 60.915C611.647 60.915 609.737 60.0075 608.288 58.1924C606.838 56.3662 606.113 53.1178 606.113 48.4473C606.113 43.8652 606.91 40.5671 608.503 38.5527C609.82 36.8926 611.658 36.0625 614.015 36.0625ZM614.015 39.9307C613.451 39.9307 612.947 40.1133 612.504 40.4785C612.062 40.8327 611.719 41.4746 611.475 42.4043C611.154 43.6107 610.994 45.6416 610.994 48.4971C610.994 51.3525 611.137 53.3171 611.425 54.3906C611.713 55.4531 612.073 56.1615 612.504 56.5156C612.947 56.8698 613.451 57.0469 614.015 57.0469C614.58 57.0469 615.083 56.8698 615.526 56.5156C615.969 56.1504 616.312 55.5029 616.555 54.5732C616.876 53.3779 617.037 51.3525 617.037 48.4971C617.037 45.6416 616.893 43.6826 616.605 42.6201C616.317 41.5465 615.952 40.8327 615.509 40.4785C615.078 40.1133 614.58 39.9307 614.015 39.9307Z" fill="black"/>
</svg>
