<svg width="502" height="24" viewBox="0 0 502 24" fill="none" xmlns="http://www.w3.org/2000/svg">
<path d="M6.05 19.264C4.93533 19.264 4.004 19.066 3.256 18.67C2.508 18.274 1.94333 17.6653 1.562 16.844C1.18067 16.008 0.968 14.93 0.924 13.61L4.29 13.104C4.30467 13.8667 4.37067 14.4827 4.488 14.952C4.62 15.4213 4.796 15.7587 5.016 15.964C5.25067 16.1693 5.52933 16.272 5.852 16.272C6.26267 16.272 6.52667 16.1327 6.644 15.854C6.776 15.5753 6.842 15.282 6.842 14.974C6.842 14.2407 6.666 13.6247 6.314 13.126C5.962 12.6127 5.48533 12.0993 4.884 11.586L3.344 10.244C2.66933 9.672 2.09733 9.02667 1.628 8.308C1.17333 7.57467 0.946 6.67267 0.946 5.602C0.946 4.09133 1.39333 2.94 2.288 2.148C3.18267 1.34133 4.4 0.937999 5.94 0.937999C6.89333 0.937999 7.656 1.09933 8.228 1.422C8.81467 1.74467 9.25467 2.17 9.548 2.698C9.856 3.21133 10.0613 3.76133 10.164 4.348C10.2813 4.92 10.3473 5.47 10.362 5.998L6.974 6.416C6.95933 5.888 6.92267 5.43333 6.864 5.052C6.82 4.656 6.71733 4.35533 6.556 4.15C6.39467 3.93 6.14533 3.82 5.808 3.82C5.44133 3.82 5.17 3.974 4.994 4.282C4.83267 4.59 4.752 4.898 4.752 5.206C4.752 5.866 4.906 6.40867 5.214 6.834C5.53667 7.24467 5.95467 7.67733 6.468 8.132L7.942 9.43C8.71933 10.09 9.372 10.838 9.9 11.674C10.4427 12.51 10.714 13.544 10.714 14.776C10.714 15.612 10.5233 16.3747 10.142 17.064C9.76067 17.7387 9.218 18.274 8.514 18.67C7.82467 19.066 7.00333 19.264 6.05 19.264ZM15.0168 19.22C14.5034 19.22 14.0634 19.0953 13.6968 18.846C13.3448 18.582 13.0808 18.2227 12.9048 17.768C12.7288 17.3133 12.6408 16.8073 12.6408 16.25V6.284H16.2268V15.832C16.2268 16.14 16.2781 16.382 16.3808 16.558C16.4981 16.7193 16.6961 16.8 16.9748 16.8C17.1361 16.8 17.3048 16.7633 17.4808 16.69C17.6568 16.602 17.8401 16.5067 18.0308 16.404V6.284H21.5948V19H18.0308V17.834C17.5761 18.2593 17.0921 18.5967 16.5788 18.846C16.0801 19.0953 15.5594 19.22 15.0168 19.22ZM24.2087 23.18V6.284H27.7947V7.208C28.2201 6.82667 28.6747 6.54067 29.1587 6.35C29.6427 6.15933 30.1047 6.064 30.5447 6.064C31.0287 6.064 31.4394 6.15933 31.7767 6.35C32.1287 6.54067 32.4147 6.812 32.6347 7.164C32.8547 7.50133 33.0161 7.89733 33.1187 8.352C33.2214 8.80667 33.2727 9.29067 33.2727 9.804V15.282C33.2727 16.074 33.1627 16.7633 32.9427 17.35C32.7374 17.9367 32.4294 18.3987 32.0187 18.736C31.6081 19.0587 31.1021 19.22 30.5007 19.22C30.0461 19.22 29.5841 19.1173 29.1147 18.912C28.6601 18.692 28.2201 18.3987 27.7947 18.032V23.18H24.2087ZM28.7407 16.91C28.9754 16.91 29.1587 16.844 29.2907 16.712C29.4227 16.58 29.5181 16.4113 29.5767 16.206C29.6501 15.986 29.6867 15.744 29.6867 15.48V9.54C29.6867 9.29067 29.6574 9.07067 29.5987 8.88C29.5401 8.67467 29.4447 8.51333 29.3127 8.396C29.1807 8.27867 29.0121 8.22 28.8067 8.22C28.6161 8.22 28.4327 8.264 28.2567 8.352C28.0954 8.42533 27.9414 8.528 27.7947 8.66V16.58C27.9561 16.6827 28.1101 16.7633 28.2567 16.822C28.4181 16.8807 28.5794 16.91 28.7407 16.91ZM39.8241 19.22C38.9001 19.22 38.1081 19.0587 37.4481 18.736C36.7881 18.3987 36.2821 17.9147 35.9301 17.284C35.5781 16.6387 35.4021 15.8687 35.4021 14.974V10.31C35.4021 9.40067 35.5781 8.63067 35.9301 8C36.2821 7.36933 36.7881 6.89267 37.4481 6.57C38.1228 6.23267 38.9148 6.064 39.8241 6.064C40.7628 6.064 41.5401 6.22533 42.1561 6.548C42.7868 6.87067 43.2561 7.34733 43.5641 7.978C43.8868 8.60867 44.0481 9.386 44.0481 10.31V12.862H38.9441V15.304C38.9441 15.6267 38.9808 15.8907 39.0541 16.096C39.1275 16.3013 39.2301 16.448 39.3621 16.536C39.4941 16.624 39.6481 16.668 39.8241 16.668C40.0001 16.668 40.1541 16.6313 40.2861 16.558C40.4328 16.47 40.5428 16.338 40.6161 16.162C40.7041 15.986 40.7481 15.744 40.7481 15.436V14.094H44.0481V15.326C44.0481 16.6167 43.6741 17.592 42.9261 18.252C42.1781 18.8973 41.1441 19.22 39.8241 19.22ZM38.9441 11.19H40.7481V9.914C40.7481 9.57667 40.7041 9.31267 40.6161 9.122C40.5428 8.93133 40.4328 8.79933 40.2861 8.726C40.1541 8.65267 39.9928 8.616 39.8021 8.616C39.6261 8.616 39.4721 8.66 39.3401 8.748C39.2228 8.836 39.1275 8.99 39.0541 9.21C38.9808 9.41533 38.9441 9.716 38.9441 10.112V11.19ZM46.3941 19V6.284H49.9801V8.396C50.3908 7.66267 50.8015 7.10533 51.2121 6.724C51.6228 6.328 52.1215 6.13 52.7081 6.13C52.8255 6.13 52.9281 6.13733 53.0161 6.152C53.1041 6.152 53.1848 6.16667 53.2581 6.196V9.76C53.0968 9.68667 52.9135 9.628 52.7081 9.584C52.5175 9.52533 52.3121 9.496 52.0921 9.496C51.6815 9.496 51.3001 9.606 50.9481 9.826C50.5961 10.046 50.2735 10.3467 49.9801 10.728V19H46.3941ZM61.2329 19L61.5409 1.18H65.7649L67.7229 11.542L69.8349 1.18H73.9049L74.2129 19H71.4189L71.0889 7.142L69.0209 19H66.5349L64.3349 7.054L64.0709 19H61.2329ZM81.1211 19.22C80.2118 19.22 79.4198 19.066 78.7451 18.758C78.0851 18.45 77.5718 17.988 77.2051 17.372C76.8531 16.756 76.6771 15.986 76.6771 15.062V10.222C76.6771 9.298 76.8531 8.528 77.2051 7.912C77.5718 7.296 78.0851 6.834 78.7451 6.526C79.4198 6.218 80.2118 6.064 81.1211 6.064C82.0305 6.064 82.8151 6.218 83.4751 6.526C84.1498 6.834 84.6705 7.296 85.0371 7.912C85.4038 8.528 85.5871 9.298 85.5871 10.222V15.062C85.5871 15.986 85.4038 16.756 85.0371 17.372C84.6705 17.988 84.1498 18.45 83.4751 18.758C82.8151 19.066 82.0305 19.22 81.1211 19.22ZM81.1431 16.844C81.3778 16.844 81.5611 16.7853 81.6931 16.668C81.8251 16.536 81.9131 16.36 81.9571 16.14C82.0158 15.9053 82.0451 15.6267 82.0451 15.304V9.98C82.0451 9.65733 82.0158 9.386 81.9571 9.166C81.9131 8.93133 81.8251 8.75533 81.6931 8.638C81.5611 8.506 81.3778 8.44 81.1431 8.44C80.9085 8.44 80.7251 8.506 80.5931 8.638C80.4611 8.75533 80.3658 8.93133 80.3071 9.166C80.2485 9.386 80.2191 9.65733 80.2191 9.98V15.304C80.2191 15.6267 80.2485 15.9053 80.3071 16.14C80.3658 16.36 80.4611 16.536 80.5931 16.668C80.7251 16.7853 80.9085 16.844 81.1431 16.844ZM89.5759 19L87.0239 6.284H90.4559L91.5119 14.402L92.4799 6.284H95.9119L93.2939 19H89.5759ZM101.694 19.22C100.77 19.22 99.9777 19.0587 99.3177 18.736C98.6577 18.3987 98.1517 17.9147 97.7997 17.284C97.4477 16.6387 97.2717 15.8687 97.2717 14.974V10.31C97.2717 9.40067 97.4477 8.63067 97.7997 8C98.1517 7.36933 98.6577 6.89267 99.3177 6.57C99.9923 6.23267 100.784 6.064 101.694 6.064C102.632 6.064 103.41 6.22533 104.026 6.548C104.656 6.87067 105.126 7.34733 105.434 7.978C105.756 8.60867 105.918 9.386 105.918 10.31V12.862H100.814V15.304C100.814 15.6267 100.85 15.8907 100.924 16.096C100.997 16.3013 101.1 16.448 101.232 16.536C101.364 16.624 101.518 16.668 101.694 16.668C101.87 16.668 102.024 16.6313 102.156 16.558C102.302 16.47 102.412 16.338 102.486 16.162C102.574 15.986 102.618 15.744 102.618 15.436V14.094H105.918V15.326C105.918 16.6167 105.544 17.592 104.796 18.252C104.048 18.8973 103.014 19.22 101.694 19.22ZM100.814 11.19H102.618V9.914C102.618 9.57667 102.574 9.31267 102.486 9.122C102.412 8.93133 102.302 8.79933 102.156 8.726C102.024 8.65267 101.862 8.616 101.672 8.616C101.496 8.616 101.342 8.66 101.21 8.748C101.092 8.836 100.997 8.99 100.924 9.21C100.85 9.41533 100.814 9.716 100.814 10.112V11.19ZM108.572 9.936V6.592H111.916V9.936H108.572ZM108.572 17.768V14.424H111.916V17.768H108.572ZM126.018 19.264C124.654 19.264 123.583 19.044 122.806 18.604C122.043 18.1493 121.508 17.4967 121.2 16.646C120.892 15.7807 120.738 14.7247 120.738 13.478V1.18H124.632V14.072C124.632 14.4387 124.661 14.8053 124.72 15.172C124.778 15.5387 124.903 15.8393 125.094 16.074C125.299 16.3087 125.607 16.426 126.018 16.426C126.443 16.426 126.751 16.3087 126.942 16.074C127.132 15.8393 127.25 15.5387 127.294 15.172C127.352 14.8053 127.382 14.4387 127.382 14.072V1.18H131.298V13.478C131.298 14.7247 131.136 15.7807 130.814 16.646C130.506 17.4967 129.97 18.1493 129.208 18.604C128.445 19.044 127.382 19.264 126.018 19.264ZM134.109 19V1.18H137.673V19H134.109ZM144.28 19.132C143.327 19.132 142.586 18.9927 142.058 18.714C141.545 18.4353 141.193 18.032 141.002 17.504C140.812 16.9613 140.716 16.3087 140.716 15.546V8.638H139.484V6.284H140.716V2.412H144.346V6.284H146.15V8.638H144.346V15.194C144.346 15.5607 144.449 15.8247 144.654 15.986C144.874 16.1473 145.146 16.228 145.468 16.228C145.659 16.228 145.835 16.2207 145.996 16.206C146.158 16.1767 146.304 16.1547 146.436 16.14V18.956C146.246 18.9853 145.945 19.022 145.534 19.066C145.124 19.11 144.706 19.132 144.28 19.132ZM148.514 19V6.284H152.1V8.396C152.51 7.66267 152.921 7.10533 153.332 6.724C153.742 6.328 154.241 6.13 154.828 6.13C154.945 6.13 155.048 6.13733 155.136 6.152C155.224 6.152 155.304 6.16667 155.378 6.196V9.76C155.216 9.68667 155.033 9.628 154.828 9.584C154.637 9.52533 154.432 9.496 154.212 9.496C153.801 9.496 153.42 9.606 153.068 9.826C152.716 10.046 152.393 10.3467 152.1 10.728V19H148.514ZM159.795 19.22C159.15 19.22 158.607 19.066 158.167 18.758C157.727 18.45 157.397 18.0613 157.177 17.592C156.957 17.108 156.847 16.6167 156.847 16.118C156.847 15.326 157.001 14.6587 157.309 14.116C157.632 13.5733 158.05 13.1187 158.563 12.752C159.076 12.3853 159.641 12.0773 160.257 11.828C160.873 11.564 161.482 11.3293 162.083 11.124V9.848C162.083 9.628 162.061 9.43733 162.017 9.276C161.973 9.1 161.9 8.968 161.797 8.88C161.694 8.77733 161.54 8.726 161.335 8.726C161.13 8.726 160.968 8.77 160.851 8.858C160.748 8.946 160.675 9.07067 160.631 9.232C160.587 9.37867 160.558 9.54733 160.543 9.738L160.455 10.662L157.111 10.53C157.184 9.00467 157.588 7.88267 158.321 7.164C159.069 6.43067 160.184 6.064 161.665 6.064C162.956 6.064 163.916 6.42333 164.547 7.142C165.192 7.846 165.515 8.76267 165.515 9.892V15.832C165.515 16.36 165.522 16.822 165.537 17.218C165.566 17.614 165.596 17.9587 165.625 18.252C165.669 18.5453 165.706 18.7947 165.735 19H162.523C162.479 18.6627 162.428 18.296 162.369 17.9C162.31 17.504 162.266 17.2693 162.237 17.196C162.09 17.724 161.812 18.1933 161.401 18.604C161.005 19.0147 160.47 19.22 159.795 19.22ZM161.071 16.8C161.218 16.8 161.35 16.7707 161.467 16.712C161.599 16.6533 161.716 16.5727 161.819 16.47C161.922 16.3673 162.01 16.2647 162.083 16.162V12.686C161.79 12.862 161.518 13.0453 161.269 13.236C161.02 13.412 160.807 13.61 160.631 13.83C160.455 14.05 160.316 14.292 160.213 14.556C160.125 14.8053 160.081 15.0913 160.081 15.414C160.081 15.8393 160.169 16.1767 160.345 16.426C160.521 16.6753 160.763 16.8 161.071 16.8ZM178.897 19.264C177.782 19.264 176.851 19.066 176.103 18.67C175.355 18.274 174.79 17.6653 174.409 16.844C174.028 16.008 173.815 14.93 173.771 13.61L177.137 13.104C177.152 13.8667 177.218 14.4827 177.335 14.952C177.467 15.4213 177.643 15.7587 177.863 15.964C178.098 16.1693 178.376 16.272 178.699 16.272C179.11 16.272 179.374 16.1327 179.491 15.854C179.623 15.5753 179.689 15.282 179.689 14.974C179.689 14.2407 179.513 13.6247 179.161 13.126C178.809 12.6127 178.332 12.0993 177.731 11.586L176.191 10.244C175.516 9.672 174.944 9.02667 174.475 8.308C174.02 7.57467 173.793 6.67267 173.793 5.602C173.793 4.09133 174.24 2.94 175.135 2.148C176.03 1.34133 177.247 0.937999 178.787 0.937999C179.74 0.937999 180.503 1.09933 181.075 1.422C181.662 1.74467 182.102 2.17 182.395 2.698C182.703 3.21133 182.908 3.76133 183.011 4.348C183.128 4.92 183.194 5.47 183.209 5.998L179.821 6.416C179.806 5.888 179.77 5.43333 179.711 5.052C179.667 4.656 179.564 4.35533 179.403 4.15C179.242 3.93 178.992 3.82 178.655 3.82C178.288 3.82 178.017 3.974 177.841 4.282C177.68 4.59 177.599 4.898 177.599 5.206C177.599 5.866 177.753 6.40867 178.061 6.834C178.384 7.24467 178.802 7.67733 179.315 8.132L180.789 9.43C181.566 10.09 182.219 10.838 182.747 11.674C183.29 12.51 183.561 13.544 183.561 14.776C183.561 15.612 183.37 16.3747 182.989 17.064C182.608 17.7387 182.065 18.274 181.361 18.67C180.672 19.066 179.85 19.264 178.897 19.264ZM186.83 19L184.96 6.284H187.952L188.876 13.5L189.866 6.284H192.462L193.32 13.676L194.398 6.284H197.17L195.278 19H192.198L191.098 11.85L189.866 19H186.83ZM203.277 19.22C202.367 19.22 201.575 19.066 200.901 18.758C200.241 18.45 199.727 17.988 199.361 17.372C199.009 16.756 198.833 15.986 198.833 15.062V10.222C198.833 9.298 199.009 8.528 199.361 7.912C199.727 7.296 200.241 6.834 200.901 6.526C201.575 6.218 202.367 6.064 203.277 6.064C204.186 6.064 204.971 6.218 205.631 6.526C206.305 6.834 206.826 7.296 207.193 7.912C207.559 8.528 207.743 9.298 207.743 10.222V15.062C207.743 15.986 207.559 16.756 207.193 17.372C206.826 17.988 206.305 18.45 205.631 18.758C204.971 19.066 204.186 19.22 203.277 19.22ZM203.299 16.844C203.533 16.844 203.717 16.7853 203.849 16.668C203.981 16.536 204.069 16.36 204.113 16.14C204.171 15.9053 204.201 15.6267 204.201 15.304V9.98C204.201 9.65733 204.171 9.386 204.113 9.166C204.069 8.93133 203.981 8.75533 203.849 8.638C203.717 8.506 203.533 8.44 203.299 8.44C203.064 8.44 202.881 8.506 202.749 8.638C202.617 8.75533 202.521 8.93133 202.463 9.166C202.404 9.386 202.375 9.65733 202.375 9.98V15.304C202.375 15.6267 202.404 15.9053 202.463 16.14C202.521 16.36 202.617 16.536 202.749 16.668C202.881 16.7853 203.064 16.844 203.299 16.844ZM210.125 19V6.284H213.711V8.396C214.122 7.66267 214.533 7.10533 214.943 6.724C215.354 6.328 215.853 6.13 216.439 6.13C216.557 6.13 216.659 6.13733 216.747 6.152C216.835 6.152 216.916 6.16667 216.989 6.196V9.76C216.828 9.68667 216.645 9.628 216.439 9.584C216.249 9.52533 216.043 9.496 215.823 9.496C215.413 9.496 215.031 9.606 214.679 9.826C214.327 10.046 214.005 10.3467 213.711 10.728V19H210.125ZM221.603 19.22C220.665 19.22 219.939 18.89 219.425 18.23C218.912 17.57 218.655 16.5947 218.655 15.304V10.046C218.655 9.254 218.765 8.56467 218.985 7.978C219.205 7.37667 219.535 6.90733 219.975 6.57C220.415 6.23267 220.958 6.064 221.603 6.064C222.073 6.064 222.52 6.15933 222.945 6.35C223.371 6.526 223.759 6.768 224.111 7.076V1.18H227.697V19H224.111V18.01C223.715 18.3913 223.305 18.692 222.879 18.912C222.454 19.1173 222.029 19.22 221.603 19.22ZM223.165 16.932C223.283 16.932 223.422 16.9027 223.583 16.844C223.759 16.7853 223.935 16.7047 224.111 16.602V8.572C223.965 8.49867 223.811 8.43267 223.649 8.374C223.488 8.31533 223.334 8.286 223.187 8.286C222.865 8.286 222.63 8.42533 222.483 8.704C222.337 8.968 222.263 9.29067 222.263 9.672V15.524C222.263 15.788 222.293 16.03 222.351 16.25C222.41 16.4553 222.505 16.624 222.637 16.756C222.769 16.8733 222.945 16.932 223.165 16.932Z" fill="#001BA8"/>
<path d="M236.187 19V4.125H239.483C241.038 4.125 242.133 4.4432 242.77 5.07959C243.412 5.71598 243.733 6.81445 243.733 8.375V14.2188C243.733 15.8512 243.406 17.0576 242.753 17.8379C242.106 18.6126 241.01 19 239.466 19H236.187ZM238.312 17.4062H239.483C239.831 17.4062 240.13 17.3758 240.379 17.3149C240.628 17.2485 240.83 17.1323 240.985 16.9663C241.14 16.7948 241.262 16.6343 241.35 16.4849C241.439 16.3299 241.5 16.092 241.533 15.771C241.572 15.45 241.594 15.1872 241.599 14.9824C241.605 14.7721 241.608 14.4484 241.608 14.0112C241.608 13.8674 241.608 13.7594 241.608 13.6875V8.90625C241.608 8.63509 241.605 8.41927 241.599 8.25879C241.599 8.09831 241.591 7.91016 241.574 7.69434C241.563 7.47298 241.544 7.29867 241.516 7.17139C241.489 7.04411 241.45 6.90299 241.4 6.74805C241.35 6.58757 241.287 6.46305 241.209 6.37451C241.137 6.28597 241.046 6.19466 240.935 6.10059C240.83 6.00098 240.705 5.92904 240.562 5.88477C240.423 5.83496 240.26 5.79622 240.072 5.76855C239.884 5.73535 239.673 5.71875 239.441 5.71875H238.312V17.4062ZM248.104 19.1494C247.589 19.1494 247.141 19.0609 246.759 18.8838C246.383 18.7067 246.081 18.4771 245.854 18.1948C245.633 17.9071 245.453 17.5418 245.315 17.0991C245.176 16.6509 245.08 16.2054 245.024 15.7627C244.974 15.3145 244.944 14.7943 244.933 14.2021C244.916 13.7373 244.916 13.2725 244.933 12.8076C244.949 12.2542 244.985 11.7645 245.041 11.3384C245.102 10.9067 245.204 10.4889 245.348 10.085C245.492 9.68099 245.677 9.34896 245.904 9.08887C246.136 8.82878 246.438 8.62126 246.809 8.46631C247.185 8.30583 247.622 8.22559 248.12 8.22559C248.574 8.22559 248.973 8.28646 249.316 8.4082C249.664 8.52441 249.952 8.70426 250.179 8.94775C250.411 9.18571 250.602 9.45133 250.752 9.74463C250.907 10.0379 251.023 10.3949 251.1 10.8154C251.178 11.2305 251.23 11.64 251.258 12.0439C251.291 12.4479 251.308 12.9128 251.308 13.4385V13.6875H247.058V14.2188C247.058 14.2907 247.058 14.4041 247.058 14.5591C247.047 14.7638 247.044 14.9769 247.05 15.1982C247.061 15.4141 247.072 15.6271 247.083 15.8374C247.094 16.0477 247.124 16.2497 247.174 16.4434C247.224 16.6315 247.285 16.7975 247.357 16.9414C247.429 17.0853 247.528 17.1987 247.656 17.2817C247.788 17.3647 247.943 17.4062 248.12 17.4062C248.342 17.4062 248.524 17.3647 248.668 17.2817C248.812 17.1932 248.917 17.0632 248.984 16.8916C249.056 16.7201 249.105 16.5485 249.133 16.377C249.161 16.2054 249.177 15.9896 249.183 15.7295V15.2812H251.291V15.7046C251.241 16.839 250.962 17.6968 250.453 18.2778C249.944 18.8589 249.161 19.1494 248.104 19.1494ZM247.058 12.625H249.166V11.9858C249.161 11.7036 249.144 11.4574 249.116 11.2471C249.089 11.0368 249.039 10.8265 248.967 10.6162C248.901 10.4059 248.796 10.2454 248.652 10.1348C248.508 10.0241 248.331 9.96875 248.12 9.96875C247.905 9.96875 247.722 10.0269 247.573 10.1431C247.429 10.2593 247.321 10.4281 247.249 10.6494C247.182 10.8652 247.135 11.0783 247.108 11.2886C247.08 11.4989 247.063 11.7507 247.058 12.0439V12.625ZM255.355 17.4062C255.505 17.4062 255.649 17.362 255.787 17.2734C255.931 17.1849 256.039 17.0991 256.111 17.0161C256.183 16.9331 256.271 16.8224 256.376 16.6841C256.393 16.6564 256.407 16.637 256.418 16.626V13.6875C256.329 13.7484 256.183 13.8424 255.978 13.9697C255.773 14.097 255.61 14.2021 255.488 14.2852C255.366 14.3626 255.22 14.4733 255.048 14.6172C254.877 14.7555 254.744 14.8911 254.65 15.0239C254.556 15.1512 254.473 15.3089 254.401 15.4971C254.329 15.6852 254.293 15.8817 254.293 16.0864C254.293 16.9663 254.647 17.4062 255.355 17.4062ZM254.293 19.1494C253.701 19.1494 253.197 18.8949 252.782 18.3857C252.373 17.8711 252.168 17.2928 252.168 16.6509C252.168 16.1362 252.254 15.6686 252.425 15.248C252.602 14.8275 252.788 14.4927 252.981 14.2437C253.175 13.9891 253.499 13.729 253.953 13.4634C254.406 13.1922 254.749 13.0068 254.982 12.9072C255.214 12.8076 255.618 12.6444 256.194 12.4175C256.293 12.3787 256.368 12.3483 256.418 12.3262V11.5625C256.418 11.0257 256.343 10.6107 256.194 10.3174C256.044 10.0186 255.765 9.86914 255.355 9.86914C254.99 9.86914 254.727 9.99642 254.567 10.251C254.412 10.5 254.323 10.8459 254.301 11.2886C254.296 11.3494 254.293 11.4408 254.293 11.5625H252.168C252.179 10.5443 252.464 9.73356 253.023 9.13037C253.582 8.52718 254.359 8.22559 255.355 8.22559C256.346 8.22559 257.123 8.53271 257.688 9.14697C258.258 9.7557 258.543 10.5609 258.543 11.5625V16.3438C258.543 17.4505 258.634 18.3359 258.817 19H256.7L256.418 17.4062C256.307 17.6276 256.216 17.7992 256.144 17.9209C256.078 18.0426 255.978 18.1948 255.845 18.3774C255.712 18.5545 255.58 18.6929 255.447 18.7925C255.314 18.8866 255.148 18.9696 254.949 19.0415C254.749 19.1134 254.531 19.1494 254.293 19.1494ZM259.976 19V4.125H262.101V19H259.976ZM270.03 19.1494C268.823 19.1494 267.902 18.8118 267.266 18.1367C266.629 17.4561 266.311 16.5042 266.311 15.2812V14.75H268.436C268.436 15.082 268.444 15.367 268.461 15.605C268.483 15.8374 268.524 16.0754 268.585 16.3188C268.652 16.5623 268.74 16.7588 268.851 16.9082C268.962 17.0521 269.117 17.1711 269.316 17.2651C269.515 17.3592 269.753 17.4062 270.03 17.4062C270.306 17.4062 270.544 17.3592 270.744 17.2651C270.943 17.1711 271.098 17.0521 271.208 16.9082C271.319 16.7588 271.405 16.5623 271.466 16.3188C271.532 16.0754 271.574 15.8374 271.59 15.605C271.612 15.367 271.623 15.082 271.623 14.75C271.623 13.8978 271.457 13.242 271.125 12.7827C270.799 12.3234 270.257 12.0938 269.498 12.0938V9.96875C270.273 9.96875 270.821 9.81104 271.142 9.49561C271.463 9.17464 271.623 8.62402 271.623 7.84375C271.623 7.14095 271.507 6.61247 271.275 6.2583C271.042 5.8986 270.627 5.71875 270.03 5.71875C269.753 5.71875 269.515 5.76579 269.316 5.85986C269.117 5.95394 268.962 6.07568 268.851 6.2251C268.74 6.36898 268.652 6.56266 268.585 6.80615C268.524 7.04964 268.483 7.29036 268.461 7.52832C268.444 7.76074 268.436 8.04297 268.436 8.375H266.311V7.84375C266.311 6.6263 266.629 5.67725 267.266 4.99658C267.907 4.31592 268.829 3.97559 270.03 3.97559C271.236 3.97559 272.157 4.31592 272.794 4.99658C273.43 5.67171 273.748 6.62077 273.748 7.84375C273.748 8.6849 273.56 9.37663 273.184 9.91895C272.808 10.4557 272.288 10.8265 271.623 11.0312C272.315 11.2637 272.841 11.6981 273.201 12.3345C273.566 12.9709 273.748 13.776 273.748 14.75C273.748 16.1445 273.45 17.2264 272.852 17.9956C272.254 18.7648 271.314 19.1494 270.03 19.1494ZM278.302 19.1494C277.494 19.1494 276.805 18.9585 276.235 18.5767C275.671 18.1948 275.253 17.6802 274.982 17.0327C274.716 16.3797 274.584 15.6188 274.584 14.75V8.375C274.584 7.00814 274.893 5.93457 275.513 5.1543C276.133 4.36849 277.063 3.97559 278.302 3.97559C279.536 3.97559 280.463 4.36849 281.083 5.1543C281.708 5.9401 282.021 7.01367 282.021 8.375V14.75C282.021 16.0837 281.703 17.1517 281.066 17.9541C280.436 18.751 279.514 19.1494 278.302 19.1494ZM278.302 17.4062C279.365 17.4062 279.896 16.5208 279.896 14.75V8.375C279.896 8.07617 279.885 7.81055 279.863 7.57812C279.841 7.34017 279.794 7.10221 279.722 6.86426C279.655 6.62077 279.564 6.41878 279.448 6.2583C279.337 6.09782 279.185 5.96777 278.991 5.86816C278.798 5.76855 278.568 5.71875 278.302 5.71875C278.037 5.71875 277.807 5.76855 277.613 5.86816C277.42 5.96777 277.265 6.09782 277.148 6.2583C277.038 6.41878 276.947 6.62077 276.875 6.86426C276.808 7.10221 276.764 7.34017 276.742 7.57812C276.72 7.81055 276.709 8.07617 276.709 8.375V14.75C276.709 15.0986 276.731 15.4196 276.775 15.7129C276.825 16.0062 276.905 16.2856 277.016 16.5513C277.132 16.8169 277.298 17.0272 277.514 17.1821C277.73 17.3315 277.992 17.4062 278.302 17.4062ZM289.435 17.4062C289.95 17.4062 290.481 17.2956 291.029 17.0742V10.3921C290.553 10.1099 290.022 9.96875 289.435 9.96875C289.225 9.96875 289.048 10.0213 288.904 10.1265C288.76 10.2261 288.652 10.3755 288.58 10.5747C288.509 10.7684 288.456 10.9704 288.423 11.1807C288.39 11.3854 288.37 11.6289 288.365 11.9111C288.342 13.1507 288.342 14.133 288.365 14.8579C288.37 15.2121 288.39 15.5275 288.423 15.8042C288.456 16.0809 288.509 16.3493 288.58 16.6094C288.658 16.8639 288.769 17.0604 288.912 17.1987C289.056 17.3371 289.231 17.4062 289.435 17.4062ZM288.904 19.1494C288.434 19.1494 288.022 19.0166 287.667 18.751C287.319 18.4854 287.048 18.1257 286.854 17.6719C286.666 17.2181 286.525 16.7477 286.431 16.2607C286.336 15.7682 286.278 15.2397 286.256 14.6753C286.245 14.4152 286.245 13.7788 286.256 12.7661C286.267 12.4009 286.284 12.0716 286.306 11.7783C286.328 11.4795 286.364 11.1696 286.414 10.8486C286.469 10.5277 286.536 10.2454 286.613 10.002C286.696 9.75293 286.804 9.51497 286.937 9.28809C287.07 9.05566 287.225 8.86475 287.402 8.71533C287.579 8.56592 287.792 8.44694 288.041 8.3584C288.29 8.26986 288.567 8.22559 288.871 8.22559C289.109 8.22559 289.33 8.25879 289.535 8.3252C289.745 8.38607 289.945 8.48568 290.133 8.62402C290.321 8.75684 290.47 8.87581 290.581 8.98096C290.697 9.0861 290.847 9.23551 291.029 9.4292V4.1333H293.154V19H291.029V18.0371C290.708 18.3691 290.382 18.6375 290.05 18.8423C289.718 19.047 289.336 19.1494 288.904 19.1494ZM297.642 17.4062C297.791 17.4062 297.935 17.362 298.073 17.2734C298.217 17.1849 298.325 17.0991 298.397 17.0161C298.469 16.9331 298.557 16.8224 298.663 16.6841C298.679 16.6564 298.693 16.637 298.704 16.626V13.6875C298.616 13.7484 298.469 13.8424 298.264 13.9697C298.059 14.097 297.896 14.2021 297.774 14.2852C297.653 14.3626 297.506 14.4733 297.335 14.6172C297.163 14.7555 297.03 14.8911 296.936 15.0239C296.842 15.1512 296.759 15.3089 296.687 15.4971C296.615 15.6852 296.579 15.8817 296.579 16.0864C296.579 16.9663 296.933 17.4062 297.642 17.4062ZM296.579 19.1494C295.987 19.1494 295.483 18.8949 295.068 18.3857C294.659 17.8711 294.454 17.2928 294.454 16.6509C294.454 16.1362 294.54 15.6686 294.711 15.248C294.889 14.8275 295.074 14.4927 295.268 14.2437C295.461 13.9891 295.785 13.729 296.239 13.4634C296.693 13.1922 297.036 13.0068 297.268 12.9072C297.501 12.8076 297.904 12.6444 298.48 12.4175C298.58 12.3787 298.654 12.3483 298.704 12.3262V11.5625C298.704 11.0257 298.629 10.6107 298.48 10.3174C298.331 10.0186 298.051 9.86914 297.642 9.86914C297.276 9.86914 297.014 9.99642 296.853 10.251C296.698 10.5 296.61 10.8459 296.587 11.2886C296.582 11.3494 296.579 11.4408 296.579 11.5625H294.454C294.465 10.5443 294.75 9.73356 295.309 9.13037C295.868 8.52718 296.646 8.22559 297.642 8.22559C298.632 8.22559 299.41 8.53271 299.974 9.14697C300.544 9.7557 300.829 10.5609 300.829 11.5625V16.3438C300.829 17.4505 300.92 18.3359 301.103 19H298.986L298.704 17.4062C298.593 17.6276 298.502 17.7992 298.43 17.9209C298.364 18.0426 298.264 18.1948 298.131 18.3774C297.999 18.5545 297.866 18.6929 297.733 18.7925C297.6 18.8866 297.434 18.9696 297.235 19.0415C297.036 19.1134 296.817 19.1494 296.579 19.1494ZM302.254 19V8.375H304.379V9.57861C305.137 8.6766 306.019 8.22559 307.027 8.22559C307.536 8.22559 307.909 8.33903 308.147 8.56592C308.385 8.78727 308.546 9.14144 308.629 9.62842C308.977 9.16911 309.354 8.82048 309.758 8.58252C310.161 8.34456 310.671 8.22559 311.285 8.22559C311.462 8.22559 311.62 8.24495 311.758 8.28369C311.902 8.31689 312.026 8.3584 312.132 8.4082C312.237 8.45801 312.328 8.53548 312.405 8.64062C312.488 8.74023 312.555 8.83431 312.605 8.92285C312.66 9.00586 312.704 9.1276 312.737 9.28809C312.776 9.44857 312.804 9.58138 312.82 9.68652C312.837 9.79167 312.851 9.94661 312.862 10.1514C312.873 10.3561 312.879 10.5166 312.879 10.6328C312.879 10.749 312.879 10.9233 312.879 11.1558C312.879 11.2056 312.879 11.2443 312.879 11.272V19H310.754V11.2471C310.754 11.2194 310.754 11.1751 310.754 11.1143C310.754 10.9316 310.751 10.7905 310.745 10.6909C310.74 10.5913 310.72 10.4779 310.687 10.3506C310.66 10.2178 310.607 10.1209 310.529 10.0601C310.452 9.99919 310.35 9.96875 310.222 9.96875C310.007 9.96875 309.791 10.013 309.575 10.1016C309.359 10.1846 309.19 10.2676 309.069 10.3506C308.952 10.4281 308.806 10.5387 308.629 10.6826V19H306.504V11.2886C306.504 11.2554 306.504 11.2056 306.504 11.1392C306.504 10.9842 306.504 10.868 306.504 10.7905C306.504 10.7131 306.493 10.6134 306.47 10.4917C306.454 10.3644 306.429 10.2703 306.396 10.2095C306.362 10.1486 306.31 10.0933 306.238 10.0435C306.166 9.99365 306.077 9.96875 305.972 9.96875C305.452 9.96875 304.921 10.1929 304.379 10.6411V19H302.254ZM317.242 17.4062C317.391 17.4062 317.535 17.362 317.673 17.2734C317.817 17.1849 317.925 17.0991 317.997 17.0161C318.069 16.9331 318.157 16.8224 318.263 16.6841C318.279 16.6564 318.293 16.637 318.304 16.626V13.6875C318.216 13.7484 318.069 13.8424 317.864 13.9697C317.659 14.097 317.496 14.2021 317.374 14.2852C317.253 14.3626 317.106 14.4733 316.934 14.6172C316.763 14.7555 316.63 14.8911 316.536 15.0239C316.442 15.1512 316.359 15.3089 316.287 15.4971C316.215 15.6852 316.179 15.8817 316.179 16.0864C316.179 16.9663 316.533 17.4062 317.242 17.4062ZM316.179 19.1494C315.587 19.1494 315.083 18.8949 314.668 18.3857C314.259 17.8711 314.054 17.2928 314.054 16.6509C314.054 16.1362 314.14 15.6686 314.311 15.248C314.488 14.8275 314.674 14.4927 314.868 14.2437C315.061 13.9891 315.385 13.729 315.839 13.4634C316.293 13.1922 316.636 13.0068 316.868 12.9072C317.1 12.8076 317.504 12.6444 318.08 12.4175C318.18 12.3787 318.254 12.3483 318.304 12.3262V11.5625C318.304 11.0257 318.229 10.6107 318.08 10.3174C317.931 10.0186 317.651 9.86914 317.242 9.86914C316.876 9.86914 316.613 9.99642 316.453 10.251C316.298 10.5 316.21 10.8459 316.187 11.2886C316.182 11.3494 316.179 11.4408 316.179 11.5625H314.054C314.065 10.5443 314.35 9.73356 314.909 9.13037C315.468 8.52718 316.245 8.22559 317.242 8.22559C318.232 8.22559 319.01 8.53271 319.574 9.14697C320.144 9.7557 320.429 10.5609 320.429 11.5625V16.3438C320.429 17.4505 320.52 18.3359 320.703 19H318.586L318.304 17.4062C318.193 17.6276 318.102 17.7992 318.03 17.9209C317.964 18.0426 317.864 18.1948 317.731 18.3774C317.599 18.5545 317.466 18.6929 317.333 18.7925C317.2 18.8866 317.034 18.9696 316.835 19.0415C316.636 19.1134 316.417 19.1494 316.179 19.1494ZM323.356 12.0938C323.356 13.599 323.799 14.3516 324.684 14.3516C325.57 14.3516 326.012 13.599 326.012 12.0938C326.012 11.7894 325.993 11.5099 325.954 11.2554C325.915 10.9953 325.849 10.7435 325.755 10.5C325.661 10.251 325.522 10.0573 325.34 9.91895C325.157 9.77507 324.939 9.70312 324.684 9.70312C324.424 9.70312 324.203 9.77507 324.02 9.91895C323.837 10.0573 323.699 10.251 323.605 10.5C323.516 10.7435 323.453 10.9953 323.414 11.2554C323.375 11.5099 323.356 11.7894 323.356 12.0938ZM325.215 20.6104C325.365 20.6104 325.498 20.6076 325.614 20.6021C325.736 20.5965 325.874 20.5854 326.029 20.5688C326.184 20.5522 326.317 20.5246 326.427 20.4858C326.543 20.4526 326.651 20.4084 326.751 20.353C326.856 20.2977 326.936 20.223 326.992 20.1289C327.047 20.0404 327.075 19.938 327.075 19.8218C327.075 19.2297 326.508 18.8672 325.373 18.7344L323.622 18.5269C323.406 18.6818 323.22 18.9059 323.065 19.1992C322.916 19.4925 322.841 19.7996 322.841 20.1206C322.841 20.2091 322.872 20.2839 322.933 20.3447C322.994 20.4111 323.082 20.4609 323.198 20.4941C323.32 20.5273 323.442 20.555 323.564 20.5771C323.691 20.5993 323.84 20.6131 324.012 20.6187C324.183 20.6242 324.33 20.627 324.452 20.627C324.573 20.627 324.715 20.6242 324.875 20.6187C325.041 20.6131 325.154 20.6104 325.215 20.6104ZM325.215 22.1792C324.95 22.1792 324.734 22.1764 324.568 22.1709C324.402 22.1709 324.175 22.1654 323.887 22.1543C323.599 22.1432 323.359 22.1211 323.165 22.0879C322.971 22.0602 322.75 22.0215 322.501 21.9717C322.252 21.9274 322.044 21.8665 321.878 21.7891C321.718 21.7116 321.563 21.6203 321.414 21.5151C321.264 21.41 321.151 21.2799 321.073 21.125C321.001 20.9756 320.965 20.8068 320.965 20.6187C320.965 20.0653 321.112 19.5921 321.405 19.1992C321.704 18.8063 322.089 18.4937 322.559 18.2612C322.271 18.1838 322.022 18.0675 321.812 17.9126C321.602 17.7521 321.497 17.5584 321.497 17.3315C321.497 17.2375 321.508 17.1379 321.53 17.0327C321.552 16.9276 321.577 16.8335 321.605 16.7505C321.632 16.6619 321.676 16.5623 321.737 16.4517C321.798 16.341 321.845 16.2552 321.878 16.1943C321.917 16.1279 321.978 16.0394 322.061 15.9287C322.144 15.8125 322.199 15.735 322.227 15.6963C322.26 15.652 322.321 15.5773 322.41 15.4722C322.498 15.3615 322.548 15.2979 322.559 15.2812C321.851 14.4401 321.497 13.3776 321.497 12.0938C321.497 11.3577 321.613 10.702 321.845 10.1265C322.078 9.55094 322.437 9.09163 322.924 8.74854C323.417 8.3999 324.003 8.22559 324.684 8.22559C325.077 8.22559 325.42 8.28092 325.713 8.3916C326.007 8.50228 326.245 8.64339 326.427 8.81494C326.615 8.98096 326.798 9.20231 326.975 9.479C327.396 8.69873 327.993 8.28369 328.768 8.23389C328.785 8.23389 328.801 8.23389 328.818 8.23389C328.835 8.23389 328.854 8.23389 328.876 8.23389C328.904 8.23389 328.923 8.23389 328.934 8.23389V9.96875C328.906 9.96875 328.862 9.96875 328.801 9.96875C328.563 9.96875 328.383 9.97152 328.262 9.97705C328.14 9.98258 328.004 10.0075 327.855 10.0518C327.706 10.0905 327.587 10.1541 327.498 10.2427C327.598 10.4585 327.683 10.7463 327.755 11.106C327.833 11.4601 327.872 11.7894 327.872 12.0938C327.872 12.8353 327.758 13.491 327.531 14.061C327.31 14.631 326.953 15.0876 326.46 15.4307C325.974 15.7738 325.381 15.9453 324.684 15.9453L323.613 15.8208C323.602 15.8485 323.575 15.8983 323.53 15.9702C323.486 16.0366 323.45 16.092 323.422 16.1362C323.4 16.1805 323.378 16.2386 323.356 16.3105C323.334 16.377 323.323 16.4406 323.323 16.5015C323.323 16.6453 323.392 16.7671 323.53 16.8667C323.669 16.9663 323.86 17.041 324.103 17.0908C324.347 17.1351 324.579 17.1683 324.8 17.1904C325.027 17.2126 325.279 17.2319 325.556 17.2485C325.832 17.2596 326.023 17.2734 326.128 17.29C326.444 17.3343 326.723 17.3869 326.967 17.4478C327.216 17.5031 327.468 17.5861 327.722 17.6968C327.982 17.8075 328.195 17.9403 328.361 18.0952C328.527 18.2502 328.663 18.4494 328.768 18.6929C328.879 18.9364 328.934 19.2158 328.934 19.5312C328.934 19.9186 328.865 20.2645 328.727 20.5688C328.594 20.8732 328.414 21.125 328.187 21.3242C327.96 21.5234 327.686 21.6867 327.365 21.814C327.044 21.9468 326.707 22.0409 326.353 22.0962C325.998 22.1515 325.619 22.1792 325.215 22.1792ZM332.135 19.1494C331.62 19.1494 331.172 19.0609 330.79 18.8838C330.414 18.7067 330.112 18.4771 329.885 18.1948C329.664 17.9071 329.484 17.5418 329.346 17.0991C329.208 16.6509 329.111 16.2054 329.055 15.7627C329.006 15.3145 328.975 14.7943 328.964 14.2021C328.947 13.7373 328.947 13.2725 328.964 12.8076C328.981 12.2542 329.017 11.7645 329.072 11.3384C329.133 10.9067 329.235 10.4889 329.379 10.085C329.523 9.68099 329.708 9.34896 329.935 9.08887C330.168 8.82878 330.469 8.62126 330.84 8.46631C331.216 8.30583 331.654 8.22559 332.152 8.22559C332.605 8.22559 333.004 8.28646 333.347 8.4082C333.695 8.52441 333.983 8.70426 334.21 8.94775C334.443 9.18571 334.633 9.45133 334.783 9.74463C334.938 10.0379 335.054 10.3949 335.132 10.8154C335.209 11.2305 335.262 11.64 335.289 12.0439C335.322 12.4479 335.339 12.9128 335.339 13.4385V13.6875H331.089V14.2188C331.089 14.2907 331.089 14.4041 331.089 14.5591C331.078 14.7638 331.075 14.9769 331.081 15.1982C331.092 15.4141 331.103 15.6271 331.114 15.8374C331.125 16.0477 331.155 16.2497 331.205 16.4434C331.255 16.6315 331.316 16.7975 331.388 16.9414C331.46 17.0853 331.559 17.1987 331.687 17.2817C331.82 17.3647 331.974 17.4062 332.152 17.4062C332.373 17.4062 332.556 17.3647 332.699 17.2817C332.843 17.1932 332.948 17.0632 333.015 16.8916C333.087 16.7201 333.137 16.5485 333.164 16.377C333.192 16.2054 333.209 15.9896 333.214 15.7295V15.2812H335.322V15.7046C335.273 16.839 334.993 17.6968 334.484 18.2778C333.975 18.8589 333.192 19.1494 332.135 19.1494ZM331.089 12.625H333.197V11.9858C333.192 11.7036 333.175 11.4574 333.148 11.2471C333.12 11.0368 333.07 10.8265 332.998 10.6162C332.932 10.4059 332.827 10.2454 332.683 10.1348C332.539 10.0241 332.362 9.96875 332.152 9.96875C331.936 9.96875 331.753 10.0269 331.604 10.1431C331.46 10.2593 331.352 10.4281 331.28 10.6494C331.214 10.8652 331.167 11.0783 331.139 11.2886C331.111 11.4989 331.095 11.7507 331.089 12.0439V12.625ZM342.463 19.1494C341.627 19.1494 341.019 18.9364 340.637 18.5103C340.26 18.0841 340.067 17.4395 340.056 16.5762V9.96875H338.993V8.375H340.056V4.65625H342.181V8.375H343.774V9.96875H342.181V16.1694C342.181 16.5955 342.239 16.9082 342.355 17.1074C342.471 17.3066 342.706 17.4062 343.061 17.4062C343.215 17.4062 343.453 17.3786 343.774 17.3232V19.0498C343.243 19.1162 342.806 19.1494 342.463 19.1494ZM350.287 18.1533C349.795 18.8174 348.979 19.1494 347.839 19.1494C346.699 19.1494 345.882 18.8174 345.39 18.1533C344.897 17.4893 344.651 16.5319 344.651 15.2812V12.0938C344.651 10.8431 344.897 9.88574 345.39 9.22168C345.882 8.55762 346.699 8.22559 347.839 8.22559C348.979 8.22559 349.795 8.55762 350.287 9.22168C350.78 9.88574 351.026 10.8431 351.026 12.0938V15.2812C351.026 16.5319 350.78 17.4893 350.287 18.1533ZM347.44 17.3398C347.556 17.3841 347.689 17.4062 347.839 17.4062C347.988 17.4062 348.118 17.3841 348.229 17.3398C348.345 17.2956 348.439 17.243 348.511 17.1821C348.588 17.1157 348.652 17.0216 348.702 16.8999C348.752 16.7726 348.79 16.6619 348.818 16.5679C348.846 16.4738 348.865 16.3382 348.876 16.1611C348.887 15.984 348.893 15.8457 348.893 15.7461C348.898 15.641 348.901 15.486 348.901 15.2812V12.0938C348.901 11.889 348.898 11.7368 348.893 11.6372C348.893 11.5321 348.887 11.391 348.876 11.2139C348.865 11.0368 348.846 10.9012 348.818 10.8071C348.79 10.7131 348.752 10.6051 348.702 10.4834C348.652 10.3561 348.588 10.262 348.511 10.2012C348.439 10.1348 348.345 10.0794 348.229 10.0352C348.118 9.99089 347.988 9.96875 347.839 9.96875C347.689 9.96875 347.556 9.99089 347.44 10.0352C347.329 10.0794 347.235 10.1348 347.158 10.2012C347.086 10.262 347.025 10.3561 346.975 10.4834C346.925 10.6051 346.887 10.7131 346.859 10.8071C346.831 10.9012 346.812 11.0368 346.801 11.2139C346.79 11.391 346.782 11.5321 346.776 11.6372C346.776 11.7368 346.776 11.889 346.776 12.0938V15.2812C346.776 15.486 346.776 15.641 346.776 15.7461C346.782 15.8457 346.79 15.984 346.801 16.1611C346.812 16.3382 346.831 16.4738 346.859 16.5679C346.887 16.6619 346.925 16.7726 346.975 16.8999C347.025 17.0216 347.086 17.1157 347.158 17.1821C347.235 17.243 347.329 17.2956 347.44 17.3398ZM358.316 17.4062C358.465 17.4062 358.609 17.362 358.748 17.2734C358.891 17.1849 358.999 17.0991 359.071 17.0161C359.143 16.9331 359.232 16.8224 359.337 16.6841C359.353 16.6564 359.367 16.637 359.378 16.626V13.6875C359.29 13.7484 359.143 13.8424 358.938 13.9697C358.734 14.097 358.57 14.2021 358.449 14.2852C358.327 14.3626 358.18 14.4733 358.009 14.6172C357.837 14.7555 357.704 14.8911 357.61 15.0239C357.516 15.1512 357.433 15.3089 357.361 15.4971C357.289 15.6852 357.253 15.8817 357.253 16.0864C357.253 16.9663 357.608 17.4062 358.316 17.4062ZM357.253 19.1494C356.661 19.1494 356.158 18.8949 355.743 18.3857C355.333 17.8711 355.128 17.2928 355.128 16.6509C355.128 16.1362 355.214 15.6686 355.386 15.248C355.563 14.8275 355.748 14.4927 355.942 14.2437C356.136 13.9891 356.459 13.729 356.913 13.4634C357.367 13.1922 357.71 13.0068 357.942 12.9072C358.175 12.8076 358.579 12.6444 359.154 12.4175C359.254 12.3787 359.329 12.3483 359.378 12.3262V11.5625C359.378 11.0257 359.304 10.6107 359.154 10.3174C359.005 10.0186 358.725 9.86914 358.316 9.86914C357.951 9.86914 357.688 9.99642 357.527 10.251C357.372 10.5 357.284 10.8459 357.262 11.2886C357.256 11.3494 357.253 11.4408 357.253 11.5625H355.128C355.139 10.5443 355.424 9.73356 355.983 9.13037C356.542 8.52718 357.32 8.22559 358.316 8.22559C359.306 8.22559 360.084 8.53271 360.648 9.14697C361.218 9.7557 361.503 10.5609 361.503 11.5625V16.3438C361.503 17.4505 361.595 18.3359 361.777 19H359.661L359.378 17.4062C359.268 17.6276 359.176 17.7992 359.104 17.9209C359.038 18.0426 358.938 18.1948 358.806 18.3774C358.673 18.5545 358.54 18.6929 358.407 18.7925C358.274 18.8866 358.108 18.9696 357.909 19.0415C357.71 19.1134 357.491 19.1494 357.253 19.1494ZM362.936 19V4.125H365.061V19H362.936ZM366.56 19V4.125H368.685V19H366.56ZM376.224 19.1494C375.71 19.1494 375.261 19.0609 374.88 18.8838C374.503 18.7067 374.202 18.4771 373.975 18.1948C373.753 17.9071 373.574 17.5418 373.435 17.0991C373.297 16.6509 373.2 16.2054 373.145 15.7627C373.095 15.3145 373.064 14.7943 373.053 14.2021C373.037 13.7373 373.037 13.2725 373.053 12.8076C373.07 12.2542 373.106 11.7645 373.161 11.3384C373.222 10.9067 373.325 10.4889 373.468 10.085C373.612 9.68099 373.798 9.34896 374.025 9.08887C374.257 8.82878 374.559 8.62126 374.929 8.46631C375.306 8.30583 375.743 8.22559 376.241 8.22559C376.695 8.22559 377.093 8.28646 377.436 8.4082C377.785 8.52441 378.073 8.70426 378.299 8.94775C378.532 9.18571 378.723 9.45133 378.872 9.74463C379.027 10.0379 379.143 10.3949 379.221 10.8154C379.298 11.2305 379.351 11.64 379.379 12.0439C379.412 12.4479 379.428 12.9128 379.428 13.4385V13.6875H375.178V14.2188C375.178 14.2907 375.178 14.4041 375.178 14.5591C375.167 14.7638 375.165 14.9769 375.17 15.1982C375.181 15.4141 375.192 15.6271 375.203 15.8374C375.214 16.0477 375.245 16.2497 375.295 16.4434C375.344 16.6315 375.405 16.7975 375.477 16.9414C375.549 17.0853 375.649 17.1987 375.776 17.2817C375.909 17.3647 376.064 17.4062 376.241 17.4062C376.462 17.4062 376.645 17.3647 376.789 17.2817C376.933 17.1932 377.038 17.0632 377.104 16.8916C377.176 16.7201 377.226 16.5485 377.254 16.377C377.281 16.2054 377.298 15.9896 377.303 15.7295V15.2812H379.412V15.7046C379.362 16.839 379.082 17.6968 378.573 18.2778C378.064 18.8589 377.281 19.1494 376.224 19.1494ZM375.178 12.625H377.287V11.9858C377.281 11.7036 377.265 11.4574 377.237 11.2471C377.209 11.0368 377.159 10.8265 377.088 10.6162C377.021 10.4059 376.916 10.2454 376.772 10.1348C376.628 10.0241 376.451 9.96875 376.241 9.96875C376.025 9.96875 375.842 10.0269 375.693 10.1431C375.549 10.2593 375.441 10.4281 375.369 10.6494C375.303 10.8652 375.256 11.0783 375.228 11.2886C375.2 11.4989 375.184 11.7507 375.178 12.0439V12.625ZM380.562 19V8.375H382.687V9.52051C383.003 9.23275 383.26 9.01416 383.459 8.86475C383.658 8.7098 383.932 8.56592 384.281 8.43311C384.635 8.29476 385.012 8.22559 385.41 8.22559C385.864 8.22559 386.232 8.3916 386.514 8.72363C386.796 9.05566 386.937 9.4624 386.937 9.94385V19H384.812V11.0312C384.812 10.6605 384.76 10.3921 384.655 10.2261C384.549 10.0545 384.336 9.96875 384.015 9.96875C383.833 9.96875 383.65 10.0075 383.468 10.085C383.29 10.1569 383.158 10.2261 383.069 10.2925C382.981 10.3534 382.853 10.453 382.687 10.5913V19H380.562ZM391.392 19.1494C390.877 19.1494 390.429 19.0609 390.047 18.8838C389.671 18.7067 389.369 18.4771 389.142 18.1948C388.921 17.9071 388.741 17.5418 388.602 17.0991C388.464 16.6509 388.367 16.2054 388.312 15.7627C388.262 15.3145 388.232 14.7943 388.221 14.2021C388.204 13.7373 388.204 13.2725 388.221 12.8076C388.237 12.2542 388.273 11.7645 388.329 11.3384C388.389 10.9067 388.492 10.4889 388.636 10.085C388.78 9.68099 388.965 9.34896 389.192 9.08887C389.424 8.82878 389.726 8.62126 390.097 8.46631C390.473 8.30583 390.91 8.22559 391.408 8.22559C391.862 8.22559 392.26 8.28646 392.603 8.4082C392.952 8.52441 393.24 8.70426 393.467 8.94775C393.699 9.18571 393.89 9.45133 394.039 9.74463C394.194 10.0379 394.311 10.3949 394.388 10.8154C394.466 11.2305 394.518 11.64 394.546 12.0439C394.579 12.4479 394.596 12.9128 394.596 13.4385V13.6875H390.346V14.2188C390.346 14.2907 390.346 14.4041 390.346 14.5591C390.335 14.7638 390.332 14.9769 390.337 15.1982C390.348 15.4141 390.359 15.6271 390.371 15.8374C390.382 16.0477 390.412 16.2497 390.462 16.4434C390.512 16.6315 390.573 16.7975 390.644 16.9414C390.716 17.0853 390.816 17.1987 390.943 17.2817C391.076 17.3647 391.231 17.4062 391.408 17.4062C391.629 17.4062 391.812 17.3647 391.956 17.2817C392.1 17.1932 392.205 17.0632 392.271 16.8916C392.343 16.7201 392.393 16.5485 392.421 16.377C392.449 16.2054 392.465 15.9896 392.471 15.7295V15.2812H394.579V15.7046C394.529 16.839 394.25 17.6968 393.741 18.2778C393.232 18.8589 392.449 19.1494 391.392 19.1494ZM390.346 12.625H392.454V11.9858C392.449 11.7036 392.432 11.4574 392.404 11.2471C392.377 11.0368 392.327 10.8265 392.255 10.6162C392.188 10.4059 392.083 10.2454 391.939 10.1348C391.796 10.0241 391.618 9.96875 391.408 9.96875C391.192 9.96875 391.01 10.0269 390.86 10.1431C390.716 10.2593 390.609 10.4281 390.537 10.6494C390.47 10.8652 390.423 11.0783 390.395 11.2886C390.368 11.4989 390.351 11.7507 390.346 12.0439V12.625ZM395.73 19V8.375H397.855V9.57861C398.613 8.6766 399.495 8.22559 400.503 8.22559C401.012 8.22559 401.385 8.33903 401.623 8.56592C401.861 8.78727 402.022 9.14144 402.105 9.62842C402.453 9.16911 402.83 8.82048 403.233 8.58252C403.637 8.34456 404.147 8.22559 404.761 8.22559C404.938 8.22559 405.096 8.24495 405.234 8.28369C405.378 8.31689 405.502 8.3584 405.608 8.4082C405.713 8.45801 405.804 8.53548 405.881 8.64062C405.964 8.74023 406.031 8.83431 406.081 8.92285C406.136 9.00586 406.18 9.1276 406.213 9.28809C406.252 9.44857 406.28 9.58138 406.296 9.68652C406.313 9.79167 406.327 9.94661 406.338 10.1514C406.349 10.3561 406.355 10.5166 406.355 10.6328C406.355 10.749 406.355 10.9233 406.355 11.1558C406.355 11.2056 406.355 11.2443 406.355 11.272V19H404.23V11.2471C404.23 11.2194 404.23 11.1751 404.23 11.1143C404.23 10.9316 404.227 10.7905 404.221 10.6909C404.216 10.5913 404.196 10.4779 404.163 10.3506C404.136 10.2178 404.083 10.1209 404.005 10.0601C403.928 9.99919 403.826 9.96875 403.698 9.96875C403.483 9.96875 403.267 10.013 403.051 10.1016C402.835 10.1846 402.666 10.2676 402.545 10.3506C402.428 10.4281 402.282 10.5387 402.105 10.6826V19H399.98V11.2886C399.98 11.2554 399.98 11.2056 399.98 11.1392C399.98 10.9842 399.98 10.868 399.98 10.7905C399.98 10.7131 399.969 10.6134 399.946 10.4917C399.93 10.3644 399.905 10.2703 399.872 10.2095C399.838 10.1486 399.786 10.0933 399.714 10.0435C399.642 9.99365 399.553 9.96875 399.448 9.96875C398.928 9.96875 398.397 10.1929 397.855 10.6411V19H395.73ZM407.895 6.78125V4.65625H410.02V6.78125H407.895ZM407.895 19V8.375H410.02V19H407.895ZM414.649 19.1494C414.134 19.1494 413.686 19.0609 413.304 18.8838C412.928 18.7067 412.626 18.4771 412.399 18.1948C412.178 17.9071 411.998 17.5418 411.86 17.0991C411.721 16.6509 411.625 16.2054 411.569 15.7627C411.519 15.3145 411.489 14.7943 411.478 14.2021C411.461 13.7373 411.461 13.2725 411.478 12.8076C411.495 12.2542 411.531 11.7645 411.586 11.3384C411.647 10.9067 411.749 10.4889 411.893 10.085C412.037 9.68099 412.222 9.34896 412.449 9.08887C412.682 8.82878 412.983 8.62126 413.354 8.46631C413.73 8.30583 414.167 8.22559 414.665 8.22559C415.119 8.22559 415.518 8.28646 415.861 8.4082C416.209 8.52441 416.497 8.70426 416.724 8.94775C416.956 9.18571 417.147 9.45133 417.297 9.74463C417.452 10.0379 417.568 10.3949 417.645 10.8154C417.723 11.2305 417.775 11.64 417.803 12.0439C417.836 12.4479 417.853 12.9128 417.853 13.4385V13.6875H413.603V14.2188C413.603 14.2907 413.603 14.4041 413.603 14.5591C413.592 14.7638 413.589 14.9769 413.595 15.1982C413.606 15.4141 413.617 15.6271 413.628 15.8374C413.639 16.0477 413.669 16.2497 413.719 16.4434C413.769 16.6315 413.83 16.7975 413.902 16.9414C413.974 17.0853 414.073 17.1987 414.201 17.2817C414.333 17.3647 414.488 17.4062 414.665 17.4062C414.887 17.4062 415.069 17.3647 415.213 17.2817C415.357 17.1932 415.462 17.0632 415.529 16.8916C415.601 16.7201 415.65 16.5485 415.678 16.377C415.706 16.2054 415.722 15.9896 415.728 15.7295V15.2812H417.836V15.7046C417.787 16.839 417.507 17.6968 416.998 18.2778C416.489 18.8589 415.706 19.1494 414.649 19.1494ZM413.603 12.625H415.711V11.9858C415.706 11.7036 415.689 11.4574 415.662 11.2471C415.634 11.0368 415.584 10.8265 415.512 10.6162C415.446 10.4059 415.341 10.2454 415.197 10.1348C415.053 10.0241 414.876 9.96875 414.665 9.96875C414.45 9.96875 414.267 10.0269 414.118 10.1431C413.974 10.2593 413.866 10.4281 413.794 10.6494C413.727 10.8652 413.68 11.0783 413.653 11.2886C413.625 11.4989 413.608 11.7507 413.603 12.0439V12.625ZM421.776 19.1494C420.902 19.1494 420.199 18.8893 419.668 18.3691C419.142 17.849 418.782 17.1738 418.588 16.3438L420.182 15.8125C420.564 16.875 421.095 17.4062 421.776 17.4062C422.114 17.4062 422.374 17.3149 422.556 17.1323C422.744 16.9442 422.838 16.6813 422.838 16.3438C422.838 15.8512 422.661 15.4417 422.307 15.1152L420.182 13.5215C419.944 13.361 419.745 13.2116 419.585 13.0732C419.424 12.9294 419.261 12.755 419.095 12.5503C418.929 12.3455 418.802 12.1159 418.713 11.8613C418.63 11.6068 418.588 11.3301 418.588 11.0312C418.588 10.1237 418.876 9.4292 419.452 8.94775C420.033 8.46631 420.808 8.22559 421.776 8.22559C422.235 8.22559 422.65 8.30029 423.021 8.44971C423.392 8.59359 423.702 8.79834 423.951 9.06396C424.205 9.32959 424.413 9.62565 424.573 9.95215C424.739 10.2731 424.869 10.6328 424.963 11.0312L423.37 11.5625C423.292 11.3522 423.215 11.1724 423.137 11.0229C423.06 10.868 422.955 10.702 422.822 10.5249C422.695 10.3478 422.542 10.2122 422.365 10.1182C422.188 10.0186 421.992 9.96875 421.776 9.96875C421.438 9.96875 421.176 10.0628 420.987 10.251C420.805 10.4336 420.713 10.6937 420.713 11.0312C420.713 11.3633 420.891 11.6621 421.245 11.9277L423.37 13.5215C423.608 13.7096 423.81 13.8923 423.976 14.0693C424.147 14.2409 424.313 14.4429 424.474 14.6753C424.634 14.9022 424.756 15.1567 424.839 15.439C424.922 15.7212 424.963 16.0228 424.963 16.3438C424.963 17.2513 424.673 17.9458 424.092 18.4272C423.516 18.9087 422.744 19.1494 421.776 19.1494ZM425.408 19V16.875H427.533V19H425.408ZM435.745 19.1494C435.064 19.1494 434.472 19.0526 433.968 18.8589C433.47 18.6652 433.064 18.4023 432.748 18.0703C432.433 17.7383 432.181 17.3149 431.993 16.8003C431.805 16.2856 431.675 15.7433 431.603 15.1733C431.531 14.6034 431.495 13.9476 431.495 13.2061V9.4375C431.495 5.79622 432.939 3.97559 435.828 3.97559C436.519 3.97559 437.12 4.08073 437.629 4.29102C438.138 4.49577 438.55 4.79736 438.866 5.1958C439.181 5.59424 439.419 6.06185 439.58 6.59863C439.74 7.12988 439.834 7.74691 439.862 8.44971C439.867 8.54932 439.87 8.7015 439.87 8.90625H437.745V8.45801C437.74 8.10938 437.72 7.81055 437.687 7.56152C437.659 7.30697 437.604 7.05794 437.521 6.81445C437.444 6.57096 437.336 6.37451 437.197 6.2251C437.059 6.07015 436.874 5.9484 436.641 5.85986C436.414 5.76579 436.143 5.71875 435.828 5.71875C435.396 5.71875 435.031 5.79899 434.732 5.95947C434.439 6.11442 434.212 6.34408 434.051 6.64844C433.896 6.94727 433.786 7.2793 433.719 7.64453C433.653 8.00423 433.62 8.4248 433.62 8.90625V13.6875C433.62 14.0417 433.631 14.3626 433.653 14.6504C433.675 14.9326 433.711 15.2231 433.761 15.522C433.816 15.8153 433.894 16.0698 433.993 16.2856C434.098 16.5015 434.226 16.6979 434.375 16.875C434.53 17.0465 434.721 17.1794 434.948 17.2734C435.18 17.362 435.446 17.4062 435.745 17.4062C436.099 17.4062 436.406 17.3371 436.666 17.1987C436.926 17.0604 437.131 16.8833 437.28 16.6675C437.435 16.4461 437.557 16.1667 437.646 15.8291C437.734 15.4915 437.792 15.1567 437.82 14.8247C437.853 14.4927 437.87 14.1136 437.87 13.6875V13.1562H435.745V11.5791H439.995V19H438.401L437.87 17.4062C437.455 18.5684 436.746 19.1494 435.745 19.1494ZM444.134 17.4062C444.283 17.4062 444.427 17.362 444.565 17.2734C444.709 17.1849 444.817 17.0991 444.889 17.0161C444.961 16.9331 445.049 16.8224 445.155 16.6841C445.171 16.6564 445.185 16.637 445.196 16.626V13.6875C445.107 13.7484 444.961 13.8424 444.756 13.9697C444.551 14.097 444.388 14.2021 444.266 14.2852C444.145 14.3626 443.998 14.4733 443.826 14.6172C443.655 14.7555 443.522 14.8911 443.428 15.0239C443.334 15.1512 443.251 15.3089 443.179 15.4971C443.107 15.6852 443.071 15.8817 443.071 16.0864C443.071 16.9663 443.425 17.4062 444.134 17.4062ZM443.071 19.1494C442.479 19.1494 441.975 18.8949 441.56 18.3857C441.151 17.8711 440.946 17.2928 440.946 16.6509C440.946 16.1362 441.032 15.6686 441.203 15.248C441.38 14.8275 441.566 14.4927 441.759 14.2437C441.953 13.9891 442.277 13.729 442.731 13.4634C443.184 13.1922 443.528 13.0068 443.76 12.9072C443.992 12.8076 444.396 12.6444 444.972 12.4175C445.072 12.3787 445.146 12.3483 445.196 12.3262V11.5625C445.196 11.0257 445.121 10.6107 444.972 10.3174C444.822 10.0186 444.543 9.86914 444.134 9.86914C443.768 9.86914 443.505 9.99642 443.345 10.251C443.19 10.5 443.101 10.8459 443.079 11.2886C443.074 11.3494 443.071 11.4408 443.071 11.5625H440.946C440.957 10.5443 441.242 9.73356 441.801 9.13037C442.36 8.52718 443.137 8.22559 444.134 8.22559C445.124 8.22559 445.902 8.53271 446.466 9.14697C447.036 9.7557 447.321 10.5609 447.321 11.5625V16.3438C447.321 17.4505 447.412 18.3359 447.595 19H445.478L445.196 17.4062C445.085 17.6276 444.994 17.7992 444.922 17.9209C444.856 18.0426 444.756 18.1948 444.623 18.3774C444.49 18.5545 444.358 18.6929 444.225 18.7925C444.092 18.8866 443.926 18.9696 443.727 19.0415C443.528 19.1134 443.309 19.1494 443.071 19.1494ZM448.837 6.78125V4.65625H450.962V6.78125H448.837ZM448.837 19V8.375H450.962V19H448.837ZM452.585 19V8.375H454.71V9.52051C455.026 9.23275 455.283 9.01416 455.482 8.86475C455.682 8.7098 455.956 8.56592 456.304 8.43311C456.658 8.29476 457.035 8.22559 457.433 8.22559C457.887 8.22559 458.255 8.3916 458.537 8.72363C458.819 9.05566 458.96 9.4624 458.96 9.94385V19H456.835V11.0312C456.835 10.6605 456.783 10.3921 456.678 10.2261C456.573 10.0545 456.36 9.96875 456.039 9.96875C455.856 9.96875 455.673 10.0075 455.491 10.085C455.314 10.1569 455.181 10.2261 455.092 10.2925C455.004 10.3534 454.876 10.453 454.71 10.5913V19H452.585ZM463.071 19V16.875L466.798 11.5625C466.842 11.5016 466.939 11.3688 467.089 11.1641C467.238 10.9538 467.338 10.8127 467.388 10.7407C467.437 10.6632 467.523 10.5304 467.645 10.3423C467.767 10.1486 467.85 10.002 467.894 9.90234C467.944 9.7972 468.007 9.65055 468.085 9.4624C468.168 9.27425 468.226 9.10824 468.259 8.96436C468.292 8.81494 468.323 8.64339 468.35 8.44971C468.378 8.25049 468.392 8.0485 468.392 7.84375C468.392 7.25163 468.254 6.75081 467.977 6.34131C467.706 5.92627 467.313 5.71875 466.798 5.71875C466.494 5.71875 466.234 5.79346 466.018 5.94287C465.802 6.09229 465.636 6.2998 465.52 6.56543C465.409 6.83105 465.329 7.11328 465.279 7.41211C465.229 7.7054 465.204 8.02637 465.204 8.375V8.90625H463.079V8.375C463.079 6.98047 463.378 5.8986 463.976 5.12939C464.574 4.36019 465.514 3.97559 466.798 3.97559C468.005 3.97559 468.926 4.31592 469.562 4.99658C470.199 5.67171 470.517 6.62077 470.517 7.84375C470.517 8.30306 470.475 8.73193 470.392 9.13037C470.315 9.52881 470.188 9.91064 470.011 10.2759C469.839 10.6411 469.679 10.9427 469.529 11.1807C469.385 11.4186 469.183 11.723 468.923 12.0938L465.204 16.875H470.517V19H463.071ZM475.054 19.1494C474.246 19.1494 473.557 18.9585 472.987 18.5767C472.423 18.1948 472.005 17.6802 471.734 17.0327C471.468 16.3797 471.335 15.6188 471.335 14.75V8.375C471.335 7.00814 471.645 5.93457 472.265 5.1543C472.885 4.36849 473.815 3.97559 475.054 3.97559C476.288 3.97559 477.215 4.36849 477.835 5.1543C478.46 5.9401 478.773 7.01367 478.773 8.375V14.75C478.773 16.0837 478.455 17.1517 477.818 17.9541C477.188 18.751 476.266 19.1494 475.054 19.1494ZM475.054 17.4062C476.117 17.4062 476.648 16.5208 476.648 14.75V8.375C476.648 8.07617 476.637 7.81055 476.615 7.57812C476.593 7.34017 476.546 7.10221 476.474 6.86426C476.407 6.62077 476.316 6.41878 476.2 6.2583C476.089 6.09782 475.937 5.96777 475.743 5.86816C475.55 5.76855 475.32 5.71875 475.054 5.71875C474.789 5.71875 474.559 5.76855 474.365 5.86816C474.172 5.96777 474.017 6.09782 473.9 6.2583C473.79 6.41878 473.698 6.62077 473.626 6.86426C473.56 7.10221 473.516 7.34017 473.494 7.57812C473.472 7.81055 473.46 8.07617 473.46 8.375V14.75C473.46 15.0986 473.483 15.4196 473.527 15.7129C473.577 16.0062 473.657 16.2856 473.768 16.5513C473.884 16.8169 474.05 17.0272 474.266 17.1821C474.481 17.3315 474.744 17.4062 475.054 17.4062ZM483.265 19V4.125H485.39V10.5H489.109V4.125H491.234V19H489.109V12.0938H485.39V19H483.265ZM495.074 10.5H495.605C496.087 10.5 496.48 10.4723 496.784 10.417C497.094 10.3617 497.365 10.2593 497.598 10.1099C497.836 9.95492 498.004 9.73633 498.104 9.4541C498.209 9.17188 498.262 8.81217 498.262 8.375C498.262 7.84375 498.223 7.41488 498.146 7.08838C498.068 6.75635 497.924 6.48519 497.714 6.2749C497.509 6.06462 497.241 5.92074 496.909 5.84326C496.582 5.76025 496.148 5.71875 495.605 5.71875H495.074V10.5ZM492.949 19V4.125H496.668C499.147 4.125 500.387 5.54167 500.387 8.375C500.387 9.58691 500.066 10.5111 499.424 11.1475C498.787 11.7783 497.869 12.0938 496.668 12.0938H495.074V19H492.949ZM499.163 19V16.875H501.288V19H499.163Z" fill="black"/>
</svg>
