<svg width="381" height="272" viewBox="0 0 381 272" fill="none" xmlns="http://www.w3.org/2000/svg">
<g clip-path="url(#clip0_3_4944)">
<rect width="381" height="272" rx="3.17728" fill="white"/>
<path d="M0 0H381V64.4182H0V0Z" fill="white"/>
<path d="M37.3951 22.6383H40.4979V34.7145C40.4979 36.088 40.2 37.2381 39.6043 38.1648C39.0085 39.0915 38.1977 39.7907 37.1717 40.2623C36.1539 40.7257 35.0162 40.9573 33.7586 40.9573C32.4595 40.9573 31.3011 40.7257 30.2834 40.2623C29.2657 39.7907 28.4631 39.0915 27.8756 38.1648C27.2964 37.2381 27.0069 36.088 27.0069 34.7145V22.6383H30.1097V34.7145C30.1097 35.5833 30.2586 36.299 30.5565 36.8616C30.8543 37.416 31.2763 37.8256 31.8224 38.0903C32.3685 38.3551 33.0139 38.4875 33.7586 38.4875C34.5032 38.4875 35.1445 38.3551 35.6823 38.0903C36.2284 37.8256 36.6504 37.416 36.9483 36.8616C37.2461 36.299 37.3951 35.5833 37.3951 34.7145V22.6383ZM46.7904 21.6454V40.7091H43.7869V21.6454H46.7904ZM56.2229 27.2801V29.4645H48.6521V27.2801H56.2229ZM50.8365 23.9912H53.8276V36.9981C53.8276 37.4119 53.8855 37.7304 54.0013 37.9538C54.1254 38.1689 54.2951 38.3137 54.5102 38.3882C54.7253 38.4627 54.9777 38.4999 55.2673 38.4999C55.4741 38.4999 55.6727 38.4875 55.863 38.4627C56.0533 38.4378 56.2064 38.413 56.3222 38.3882L56.3346 40.6719C56.0864 40.7463 55.7968 40.8125 55.4658 40.8705C55.1432 40.9284 54.7708 40.9573 54.3488 40.9573C53.6621 40.9573 53.0539 40.8374 52.5244 40.5974C51.9948 40.3492 51.5811 39.9479 51.2833 39.3935C50.9854 38.8391 50.8365 38.1027 50.8365 37.1843V23.9912ZM61.5349 29.8369V40.7091H58.5438V27.2801H61.3984L61.5349 29.8369ZM65.6431 27.1933L65.6182 29.9734C65.4362 29.9403 65.2376 29.9155 65.0225 29.8989C64.8157 29.8824 64.6088 29.8741 64.4019 29.8741C63.8889 29.8741 63.438 29.9486 63.0491 30.0975C62.6602 30.2382 62.3334 30.445 62.0686 30.7181C61.8121 30.9828 61.6135 31.3055 61.4729 31.6861C61.3322 32.0667 61.2495 32.4929 61.2247 32.9645L60.542 33.0141C60.542 32.1702 60.6248 31.3883 60.7903 30.6684C60.9558 29.9486 61.204 29.3156 61.5349 28.7695C61.8742 28.2234 62.2962 27.7973 62.8009 27.4911C63.3139 27.185 63.9055 27.0319 64.5757 27.0319C64.7577 27.0319 64.9522 27.0485 65.159 27.0816C65.3742 27.1147 65.5355 27.1519 65.6431 27.1933ZM74.6412 38.0159V31.6117C74.6412 31.1318 74.5543 30.7181 74.3806 30.3705C74.2068 30.023 73.9421 29.7541 73.5863 29.5638C73.2388 29.3735 72.8002 29.2783 72.2707 29.2783C71.7825 29.2783 71.3605 29.3611 71.0047 29.5266C70.6489 29.6921 70.3718 29.9155 70.1732 30.1968C69.9746 30.4781 69.8753 30.7967 69.8753 31.1524H66.8966C66.8966 30.6229 67.0249 30.1099 67.2814 29.6135C67.5379 29.117 67.9102 28.6743 68.3984 28.2854C68.8865 27.8966 69.4699 27.5904 70.1484 27.367C70.8268 27.1436 71.5881 27.0319 72.432 27.0319C73.4415 27.0319 74.3351 27.2015 75.1129 27.5408C75.8989 27.88 76.5153 28.393 76.9621 29.0798C77.4172 29.7582 77.6447 30.6105 77.6447 31.6365V37.6063C77.6447 38.2186 77.6861 38.7688 77.7689 39.257C77.8599 39.7369 77.9881 40.1547 78.1536 40.5105V40.7091H75.088C74.9474 40.3864 74.8357 39.9768 74.7529 39.4804C74.6785 38.9757 74.6412 38.4875 74.6412 38.0159ZM75.0756 32.5425L75.1004 34.3918H72.9533C72.3989 34.3918 71.9107 34.4456 71.4888 34.5531C71.0668 34.6524 70.7151 34.8014 70.4338 34.9999C70.1525 35.1985 69.9415 35.4385 69.8008 35.7198C69.6602 36.0011 69.5898 36.3197 69.5898 36.6755C69.5898 37.0312 69.6726 37.3581 69.8381 37.6559C70.0036 37.9455 70.2435 38.1731 70.5579 38.3386C70.8806 38.504 71.2695 38.5868 71.7246 38.5868C72.3369 38.5868 72.8706 38.4627 73.3256 38.2144C73.789 37.9579 74.153 37.6477 74.4178 37.2836C74.6826 36.9113 74.8233 36.5596 74.8398 36.2286L75.8079 37.5566C75.7086 37.8959 75.539 38.26 75.299 38.6488C75.0591 39.0377 74.7447 39.4101 74.3558 39.7659C73.9752 40.1134 73.5159 40.3988 72.9781 40.6222C72.4486 40.8456 71.8363 40.9573 71.1413 40.9573C70.2642 40.9573 69.4823 40.7836 68.7955 40.4361C68.1088 40.0803 67.571 39.6045 67.1821 39.0088C66.7932 38.4048 66.5987 37.7221 66.5987 36.9609C66.5987 36.2493 66.7311 35.6205 66.9959 35.0744C67.2689 34.52 67.6661 34.0567 68.1874 33.6843C68.7169 33.312 69.3623 33.0307 70.1235 32.8404C70.8848 32.6418 71.7535 32.5425 72.7299 32.5425H75.0756ZM96.907 36.0549C96.907 35.6826 96.8491 35.3516 96.7332 35.062C96.6257 34.7724 96.4312 34.5076 96.1499 34.2677C95.8686 34.0277 95.4714 33.796 94.9584 33.5726C94.4537 33.341 93.8083 33.1051 93.0223 32.8652C92.1618 32.6004 91.3674 32.3067 90.6393 31.984C89.9195 31.653 89.2906 31.2724 88.7528 30.8422C88.215 30.4036 87.7971 29.903 87.4993 29.3404C87.2014 28.7695 87.0525 28.1117 87.0525 27.367C87.0525 26.6306 87.2055 25.9604 87.5117 25.3564C87.8261 24.7524 88.2688 24.2311 88.8397 23.7926C89.4189 23.3458 90.1015 23.0024 90.8875 22.7624C91.6736 22.5142 92.5424 22.3901 93.4939 22.3901C94.8343 22.3901 95.9886 22.6383 96.9566 23.1348C97.933 23.6312 98.6818 24.2973 99.2031 25.133C99.7326 25.9687 99.9974 26.8913 99.9974 27.9007H96.907C96.907 27.305 96.7788 26.7795 96.5223 26.3245C96.274 25.8611 95.8934 25.4971 95.3804 25.2323C94.8757 24.9675 94.2344 24.8351 93.4567 24.8351C92.7203 24.8351 92.108 24.9468 91.6198 25.1702C91.1316 25.3936 90.7676 25.6956 90.5276 26.0762C90.2877 26.4569 90.1677 26.8871 90.1677 27.367C90.1677 27.7063 90.2463 28.0165 90.4035 28.2979C90.5607 28.5709 90.8007 28.8274 91.1234 29.0674C91.4461 29.299 91.8515 29.5183 92.3397 29.7252C92.8278 29.932 93.4029 30.1306 94.0648 30.3209C95.066 30.6188 95.9389 30.9497 96.6836 31.3138C97.4283 31.6696 98.0488 32.075 98.5453 32.5301C99.0417 32.9852 99.4141 33.5023 99.6623 34.0815C99.9105 34.6524 100.035 35.3019 100.035 36.0301C100.035 36.7913 99.8816 37.478 99.5754 38.0903C99.2693 38.6943 98.8307 39.2115 98.2598 39.6417C97.6972 40.0637 97.0187 40.3906 96.2244 40.6222C95.4383 40.8456 94.5613 40.9573 93.5932 40.9573C92.7244 40.9573 91.868 40.8415 91.0241 40.6098C90.1884 40.3781 89.4272 40.0265 88.7404 39.5549C88.0536 39.075 87.5076 38.4792 87.1021 37.7676C86.6967 37.0478 86.494 36.208 86.494 35.2482H89.6092C89.6092 35.8356 89.7085 36.3362 89.9071 36.7499C90.1139 37.1636 90.3994 37.5029 90.7634 37.7676C91.1275 38.0241 91.5495 38.2144 92.0294 38.3386C92.5176 38.4627 93.0388 38.5247 93.5932 38.5247C94.3213 38.5247 94.9295 38.4213 95.4177 38.2144C95.9141 38.0076 96.2864 37.718 96.5347 37.3457C96.7829 36.9733 96.907 36.5431 96.907 36.0549ZM106.141 37.7304L109.244 27.2801H111.155L110.634 30.4078L107.506 40.7091H105.793L106.141 37.7304ZM104.317 27.2801L106.737 37.7801L106.935 40.7091H105.024L101.387 27.2801H104.317ZM114.059 37.6559L116.405 27.2801H119.322L115.698 40.7091H113.786L114.059 37.6559ZM111.478 27.2801L114.543 37.6063L114.928 40.7091H113.215L110.051 30.3954L109.529 27.2801H111.478ZM120.786 34.1436V33.8581C120.786 32.89 120.927 31.9923 121.208 31.1649C121.49 30.3292 121.895 29.6052 122.425 28.9929C122.962 28.3723 123.616 27.8924 124.386 27.5532C125.163 27.2057 126.04 27.0319 127.017 27.0319C128.001 27.0319 128.878 27.2057 129.648 27.5532C130.426 27.8924 131.083 28.3723 131.621 28.9929C132.159 29.6052 132.569 30.3292 132.85 31.1649C133.131 31.9923 133.272 32.89 133.272 33.8581V34.1436C133.272 35.1116 133.131 36.0094 132.85 36.8368C132.569 37.6642 132.159 38.3882 131.621 39.0088C131.083 39.6211 130.43 40.101 129.66 40.4485C128.891 40.7877 128.018 40.9573 127.042 40.9573C126.057 40.9573 125.176 40.7877 124.398 40.4485C123.628 40.101 122.975 39.6211 122.437 39.0088C121.899 38.3882 121.49 37.6642 121.208 36.8368C120.927 36.0094 120.786 35.1116 120.786 34.1436ZM123.777 33.8581V34.1436C123.777 34.7476 123.839 35.3185 123.964 35.8563C124.088 36.3941 124.282 36.8658 124.547 37.2712C124.812 37.6766 125.151 37.9952 125.565 38.2269C125.978 38.4585 126.471 38.5744 127.042 38.5744C127.596 38.5744 128.076 38.4585 128.481 38.2269C128.895 37.9952 129.234 37.6766 129.499 37.2712C129.764 36.8658 129.958 36.3941 130.082 35.8563C130.215 35.3185 130.281 34.7476 130.281 34.1436V33.8581C130.281 33.2624 130.215 32.6997 130.082 32.1702C129.958 31.6323 129.76 31.1566 129.487 30.7429C129.222 30.3292 128.883 30.0065 128.469 29.7748C128.063 29.5348 127.579 29.4149 127.017 29.4149C126.454 29.4149 125.966 29.5348 125.552 29.7748C125.147 30.0065 124.812 30.3292 124.547 30.7429C124.282 31.1566 124.088 31.6323 123.964 32.1702C123.839 32.6997 123.777 33.2624 123.777 33.8581ZM138.783 29.8369V40.7091H135.791V27.2801H138.646L138.783 29.8369ZM142.891 27.1933L142.866 29.9734C142.684 29.9403 142.485 29.9155 142.27 29.8989C142.063 29.8824 141.856 29.8741 141.65 29.8741C141.137 29.8741 140.686 29.9486 140.297 30.0975C139.908 30.2382 139.581 30.445 139.316 30.7181C139.06 30.9828 138.861 31.3055 138.72 31.6861C138.58 32.0667 138.497 32.4929 138.472 32.9645L137.79 33.0141C137.79 32.1702 137.872 31.3883 138.038 30.6684C138.203 29.9486 138.452 29.3156 138.783 28.7695C139.122 28.2234 139.544 27.7973 140.049 27.4911C140.561 27.185 141.153 27.0319 141.823 27.0319C142.005 27.0319 142.2 27.0485 142.407 27.0816C142.622 27.1147 142.783 27.1519 142.891 27.1933ZM152.708 37.929V21.6454H155.711V40.7091H152.993L152.708 37.929ZM143.97 34.1436V33.8829C143.97 32.8652 144.09 31.9385 144.33 31.1028C144.57 30.2588 144.918 29.5348 145.373 28.9308C145.828 28.3185 146.382 27.8511 147.036 27.5284C147.69 27.1974 148.426 27.0319 149.245 27.0319C150.056 27.0319 150.768 27.1891 151.38 27.5035C151.992 27.818 152.514 28.2689 152.944 28.8564C153.374 29.4356 153.717 30.1306 153.974 30.9415C154.23 31.744 154.412 32.6377 154.52 33.6223V34.4538C154.412 35.4136 154.23 36.2907 153.974 37.085C153.717 37.8793 153.374 38.5661 152.944 39.1453C152.514 39.7245 151.988 40.1713 151.368 40.4857C150.755 40.8001 150.04 40.9573 149.22 40.9573C148.41 40.9573 147.677 40.7877 147.024 40.4485C146.378 40.1092 145.828 39.6335 145.373 39.0212C144.918 38.4089 144.57 37.689 144.33 36.8616C144.09 36.0259 143.97 35.1199 143.97 34.1436ZM146.962 33.8829V34.1436C146.962 34.7558 147.015 35.3268 147.123 35.8563C147.239 36.3859 147.417 36.8533 147.657 37.2588C147.897 37.6559 148.207 37.9704 148.587 38.202C148.976 38.4254 149.44 38.5371 149.977 38.5371C150.656 38.5371 151.214 38.3882 151.653 38.0903C152.092 37.7925 152.435 37.3912 152.683 36.8864C152.94 36.3734 153.113 35.8025 153.204 35.1737V32.9273C153.155 32.4391 153.051 31.984 152.894 31.562C152.745 31.14 152.542 30.7718 152.286 30.4574C152.029 30.1347 151.711 29.8865 151.33 29.7127C150.958 29.5307 150.515 29.4397 150.002 29.4397C149.456 29.4397 148.993 29.5555 148.612 29.7872C148.232 30.0189 147.917 30.3374 147.669 30.7429C147.429 31.1483 147.251 31.6199 147.135 32.1578C147.019 32.6956 146.962 33.2706 146.962 33.8829Z" fill="black" fill-opacity="0.85"/>
<path d="M0 0V-1C-0.552285 -1 -1 -0.552285 -1 0L0 0ZM381 0H382C382 -0.552285 381.552 -1 381 -1V0ZM381 64.4182V65.4182C381.552 65.4182 382 64.9705 382 64.4182H381ZM0 64.4182H-1C-1 64.9705 -0.552285 65.4182 0 65.4182L0 64.4182ZM0 1H381V-1H0V1ZM380 0V64.4182H382V0H380ZM381 63.4182H0V65.4182H381V63.4182ZM1 64.4182V0H-1V64.4182H1Z" fill="black"/>
<path d="M37.1468 113.269C37.1468 112.847 37.0806 112.475 36.9483 112.152C36.8241 111.821 36.6007 111.523 36.2781 111.259C35.9636 110.994 35.5251 110.741 34.9625 110.501C34.4081 110.261 33.7048 110.017 32.8526 109.769C31.9589 109.504 31.1522 109.211 30.4324 108.888C29.7125 108.557 29.0961 108.181 28.5831 107.759C28.0701 107.337 27.6771 106.853 27.404 106.306C27.131 105.76 26.9944 105.136 26.9944 104.432C26.9944 103.729 27.1392 103.08 27.4288 102.484C27.7184 101.888 28.1321 101.371 28.67 100.932C29.2161 100.486 29.8656 100.138 30.6185 99.8898C31.3715 99.6416 32.2113 99.5175 33.138 99.5175C34.495 99.5175 35.6451 99.7781 36.5883 100.299C37.5399 100.812 38.2639 101.487 38.7603 102.322C39.2568 103.15 39.505 104.035 39.505 104.978H37.122C37.122 104.3 36.9772 103.7 36.6876 103.179C36.398 102.649 35.9595 102.236 35.372 101.938C34.7846 101.632 34.0399 101.478 33.138 101.478C32.2858 101.478 31.5825 101.607 31.0281 101.863C30.4737 102.12 30.06 102.467 29.787 102.906C29.5222 103.344 29.3898 103.845 29.3898 104.408C29.3898 104.788 29.4684 105.136 29.6256 105.45C29.7911 105.756 30.0435 106.042 30.3827 106.306C30.7302 106.571 31.1688 106.815 31.6983 107.039C32.2361 107.262 32.8774 107.477 33.622 107.684C34.648 107.974 35.5334 108.296 36.2781 108.652C37.0227 109.008 37.635 109.409 38.1149 109.856C38.6031 110.295 38.963 110.795 39.1947 111.358C39.4346 111.912 39.5546 112.541 39.5546 113.244C39.5546 113.981 39.4057 114.647 39.1078 115.243C38.8099 115.838 38.3838 116.347 37.8295 116.769C37.2751 117.191 36.609 117.518 35.8312 117.75C35.0618 117.973 34.2012 118.085 33.2497 118.085C32.414 118.085 31.5907 117.969 30.7799 117.737C29.9773 117.506 29.245 117.158 28.5831 116.695C27.9294 116.231 27.404 115.66 27.0069 114.982C26.618 114.295 26.4235 113.501 26.4235 112.599H28.8065C28.8065 113.22 28.9265 113.753 29.1664 114.2C29.4064 114.639 29.7332 115.003 30.1469 115.292C30.5689 115.582 31.0446 115.797 31.5742 115.938C32.112 116.07 32.6705 116.136 33.2497 116.136C34.0854 116.136 34.7928 116.02 35.372 115.789C35.9512 115.557 36.3898 115.226 36.6876 114.796C36.9938 114.365 37.1468 113.857 37.1468 113.269ZM50.4765 114.734V104.408H52.785V117.836H50.5882L50.4765 114.734ZM50.9109 111.904L51.8666 111.879C51.8666 112.773 51.7714 113.6 51.5811 114.361C51.3991 115.114 51.1012 115.768 50.6875 116.322C50.2738 116.877 49.7318 117.311 49.0616 117.625C48.3914 117.932 47.5764 118.085 46.6166 118.085C45.963 118.085 45.3631 117.99 44.817 117.799C44.2792 117.609 43.8158 117.315 43.4269 116.918C43.038 116.521 42.736 116.004 42.5209 115.367C42.3141 114.73 42.2106 113.964 42.2106 113.071V104.408H44.5067V113.095C44.5067 113.699 44.5729 114.2 44.7053 114.597C44.846 114.986 45.0321 115.296 45.2638 115.528C45.5037 115.751 45.7685 115.909 46.0581 116C46.356 116.091 46.6621 116.136 46.9766 116.136C47.9529 116.136 48.7265 115.95 49.2975 115.578C49.8684 115.197 50.2779 114.688 50.5262 114.051C50.7827 113.406 50.9109 112.69 50.9109 111.904ZM58.5811 106.989V123H56.2726V104.408H58.3825L58.5811 106.989ZM67.6289 111.01V111.271C67.6289 112.247 67.513 113.153 67.2814 113.989C67.0497 114.816 66.7104 115.536 66.2636 116.149C65.8251 116.761 65.2831 117.237 64.6378 117.576C63.9924 117.915 63.2518 118.085 62.4161 118.085C61.5639 118.085 60.811 117.944 60.1573 117.663C59.5036 117.381 58.9493 116.972 58.4942 116.434C58.0391 115.896 57.675 115.251 57.402 114.498C57.1372 113.745 56.9552 112.897 56.8559 111.954V110.563C56.9552 109.571 57.1414 108.681 57.4144 107.895C57.6875 107.109 58.0474 106.439 58.4942 105.884C58.9493 105.322 59.4995 104.896 60.1449 104.606C60.7903 104.308 61.5349 104.159 62.3789 104.159C63.2229 104.159 63.9717 104.325 64.6253 104.656C65.279 104.978 65.8292 105.442 66.276 106.046C66.7228 106.65 67.0579 107.374 67.2814 108.218C67.513 109.053 67.6289 109.984 67.6289 111.01ZM65.3204 111.271V111.01C65.3204 110.34 65.25 109.711 65.1094 109.124C64.9687 108.528 64.7495 108.007 64.4516 107.56C64.162 107.105 63.7897 106.749 63.3346 106.493C62.8795 106.228 62.3375 106.095 61.7087 106.095C61.1295 106.095 60.6248 106.195 60.1945 106.393C59.7725 106.592 59.4126 106.861 59.1148 107.2C58.8169 107.531 58.5728 107.912 58.3825 108.342C58.2005 108.764 58.0639 109.202 57.9729 109.657V112.872C58.1384 113.451 58.3701 113.997 58.6679 114.51C58.9658 115.015 59.363 115.425 59.8594 115.739C60.3559 116.045 60.9806 116.198 61.7335 116.198C62.3541 116.198 62.8878 116.07 63.3346 115.813C63.7897 115.549 64.162 115.189 64.4516 114.734C64.7495 114.279 64.9687 113.757 65.1094 113.17C65.25 112.574 65.3204 111.941 65.3204 111.271ZM76.1306 118.085C75.1956 118.085 74.3475 117.928 73.5863 117.613C72.8333 117.29 72.1838 116.839 71.6377 116.26C71.0999 115.681 70.6862 114.994 70.3966 114.2C70.107 113.406 69.9622 112.537 69.9622 111.594V111.072C69.9622 109.98 70.1235 109.008 70.4462 108.156C70.7689 107.295 71.2074 106.567 71.7618 105.971C72.3162 105.376 72.945 104.925 73.6483 104.619C74.3516 104.312 75.0798 104.159 75.8327 104.159C76.7925 104.159 77.6199 104.325 78.3149 104.656C79.0183 104.987 79.5933 105.45 80.0401 106.046C80.4869 106.633 80.8179 107.328 81.033 108.131C81.2481 108.925 81.3557 109.794 81.3557 110.737V111.767H71.3274V109.893H79.0596V109.72C79.0265 109.124 78.9024 108.545 78.6873 107.982C78.4804 107.419 78.1495 106.956 77.6944 106.592C77.2393 106.228 76.6187 106.046 75.8327 106.046C75.3114 106.046 74.8315 106.158 74.393 106.381C73.9545 106.596 73.578 106.919 73.2636 107.349C72.9492 107.779 72.7051 108.305 72.5313 108.925C72.3576 109.546 72.2707 110.261 72.2707 111.072V111.594C72.2707 112.231 72.3576 112.831 72.5313 113.393C72.7133 113.948 72.974 114.436 73.3132 114.858C73.6607 115.28 74.0786 115.611 74.5668 115.851C75.0632 116.091 75.6258 116.211 76.2547 116.211C77.0656 116.211 77.7523 116.045 78.3149 115.714C78.8776 115.383 79.3699 114.941 79.7919 114.386L81.1819 115.491C80.8924 115.929 80.5242 116.347 80.0773 116.744C79.6305 117.141 79.0803 117.464 78.4267 117.712C77.7813 117.961 77.0159 118.085 76.1306 118.085ZM86.3326 106.517V117.836H84.0365V104.408H86.2706L86.3326 106.517ZM90.5276 104.333L90.5152 106.468C90.3249 106.426 90.1429 106.402 89.9691 106.393C89.8036 106.377 89.6133 106.368 89.3982 106.368C88.8686 106.368 88.4012 106.451 87.9957 106.617C87.5903 106.782 87.2469 107.014 86.9656 107.312C86.6843 107.61 86.4609 107.965 86.2954 108.379C86.1382 108.785 86.0347 109.231 85.9851 109.72L85.3397 110.092C85.3397 109.281 85.4183 108.52 85.5755 107.808C85.741 107.097 85.9934 106.468 86.3326 105.922C86.6719 105.367 87.1021 104.937 87.6234 104.631C88.1529 104.317 88.7818 104.159 89.5099 104.159C89.6754 104.159 89.8657 104.18 90.0808 104.221C90.2959 104.254 90.4449 104.292 90.5276 104.333ZM100.059 99.7657H102.38L108.301 114.498L114.208 99.7657H116.542L109.194 117.836H107.382L100.059 99.7657ZM99.3024 99.7657H101.35L101.685 110.787V117.836H99.3024V99.7657ZM115.238 99.7657H117.286V117.836H114.903V110.787L115.238 99.7657ZM120.538 111.271V110.985C120.538 110.017 120.679 109.12 120.96 108.292C121.241 107.457 121.647 106.733 122.176 106.12C122.706 105.5 123.347 105.02 124.1 104.681C124.853 104.333 125.697 104.159 126.632 104.159C127.575 104.159 128.423 104.333 129.176 104.681C129.937 105.02 130.583 105.5 131.112 106.12C131.65 106.733 132.06 107.457 132.341 108.292C132.622 109.12 132.763 110.017 132.763 110.985V111.271C132.763 112.239 132.622 113.137 132.341 113.964C132.06 114.792 131.65 115.516 131.112 116.136C130.583 116.748 129.942 117.228 129.189 117.576C128.444 117.915 127.6 118.085 126.657 118.085C125.714 118.085 124.865 117.915 124.112 117.576C123.36 117.228 122.714 116.748 122.176 116.136C121.647 115.516 121.241 114.792 120.96 113.964C120.679 113.137 120.538 112.239 120.538 111.271ZM122.834 110.985V111.271C122.834 111.941 122.913 112.574 123.07 113.17C123.227 113.757 123.463 114.279 123.777 114.734C124.1 115.189 124.501 115.549 124.981 115.813C125.461 116.07 126.02 116.198 126.657 116.198C127.286 116.198 127.836 116.07 128.307 115.813C128.787 115.549 129.185 115.189 129.499 114.734C129.813 114.279 130.049 113.757 130.206 113.17C130.372 112.574 130.455 111.941 130.455 111.271V110.985C130.455 110.324 130.372 109.699 130.206 109.111C130.049 108.516 129.809 107.99 129.487 107.535C129.172 107.072 128.775 106.708 128.295 106.443C127.823 106.178 127.269 106.046 126.632 106.046C126.003 106.046 125.449 106.178 124.969 106.443C124.497 106.708 124.1 107.072 123.777 107.535C123.463 107.99 123.227 108.516 123.07 109.111C122.913 109.699 122.834 110.324 122.834 110.985ZM139.527 115.764L143.201 104.408H145.547L140.719 117.836H139.18L139.527 115.764ZM136.462 104.408L140.247 115.826L140.508 117.836H138.969L134.104 104.408H136.462ZM153.155 118.085C152.22 118.085 151.372 117.928 150.61 117.613C149.858 117.29 149.208 116.839 148.662 116.26C148.124 115.681 147.71 114.994 147.421 114.2C147.131 113.406 146.986 112.537 146.986 111.594V111.072C146.986 109.98 147.148 109.008 147.47 108.156C147.793 107.295 148.232 106.567 148.786 105.971C149.34 105.376 149.969 104.925 150.673 104.619C151.376 104.312 152.104 104.159 152.857 104.159C153.817 104.159 154.644 104.325 155.339 104.656C156.042 104.987 156.618 105.45 157.064 106.046C157.511 106.633 157.842 107.328 158.057 108.131C158.272 108.925 158.38 109.794 158.38 110.737V111.767H148.352V109.893H156.084V109.72C156.051 109.124 155.927 108.545 155.711 107.982C155.505 107.419 155.174 106.956 154.719 106.592C154.264 106.228 153.643 106.046 152.857 106.046C152.336 106.046 151.856 106.158 151.417 106.381C150.979 106.596 150.602 106.919 150.288 107.349C149.973 107.779 149.729 108.305 149.556 108.925C149.382 109.546 149.295 110.261 149.295 111.072V111.594C149.295 112.231 149.382 112.831 149.556 113.393C149.738 113.948 149.998 114.436 150.337 114.858C150.685 115.28 151.103 115.611 151.591 115.851C152.087 116.091 152.65 116.211 153.279 116.211C154.09 116.211 154.777 116.045 155.339 115.714C155.902 115.383 156.394 114.941 156.816 114.386L158.206 115.491C157.917 115.929 157.548 116.347 157.102 116.744C156.655 117.141 156.105 117.464 155.451 117.712C154.805 117.961 154.04 118.085 153.155 118.085Z" fill="#3470F2"/>
<path d="M35.6808 162.549C35.6808 162.18 35.6229 161.854 35.5071 161.572C35.3985 161.282 35.203 161.022 34.9206 160.79C34.6455 160.558 34.2618 160.337 33.7695 160.127C33.2844 159.917 32.669 159.704 31.9233 159.487C31.1414 159.255 30.4355 158.998 29.8056 158.716C29.1758 158.426 28.6364 158.097 28.1875 157.727C27.7387 157.358 27.3948 156.935 27.1558 156.457C26.9169 155.979 26.7975 155.432 26.7975 154.817C26.7975 154.202 26.9242 153.633 27.1776 153.112C27.431 152.591 27.793 152.138 28.2636 151.754C28.7414 151.364 29.3097 151.059 29.9685 150.842C30.6274 150.625 31.3622 150.516 32.1731 150.516C33.3604 150.516 34.3668 150.745 35.1921 151.201C36.0247 151.65 36.6582 152.24 37.0926 152.971C37.527 153.695 37.7442 154.469 37.7442 155.295H35.6591C35.6591 154.701 35.5324 154.176 35.279 153.72C35.0256 153.257 34.6419 152.895 34.1279 152.634C33.6138 152.366 32.9622 152.232 32.1731 152.232C31.4274 152.232 30.812 152.345 30.3269 152.569C29.8418 152.793 29.4799 153.097 29.2409 153.481C29.0093 153.865 28.8934 154.303 28.8934 154.795C28.8934 155.128 28.9622 155.432 29.0998 155.707C29.2446 155.975 29.4654 156.225 29.7622 156.457C30.0663 156.688 30.45 156.902 30.9134 157.098C31.3839 157.293 31.945 157.481 32.5966 157.662C33.4944 157.916 34.269 158.198 34.9206 158.509C35.5722 158.821 36.108 159.172 36.5279 159.563C36.955 159.946 37.27 160.384 37.4727 160.877C37.6827 161.362 37.7876 161.912 37.7876 162.527C37.7876 163.172 37.6573 163.755 37.3967 164.276C37.136 164.797 36.7632 165.242 36.2781 165.612C35.793 165.981 35.2102 166.267 34.5297 166.47C33.8564 166.665 33.1034 166.763 32.2708 166.763C31.5396 166.763 30.8192 166.661 30.1097 166.459C29.4075 166.256 28.7667 165.952 28.1875 165.546C27.6156 165.141 27.1558 164.642 26.8083 164.048C26.4681 163.447 26.2979 162.752 26.2979 161.963H28.383C28.383 162.506 28.488 162.973 28.6979 163.364C28.9079 163.747 29.1939 164.066 29.5559 164.319C29.9251 164.573 30.3414 164.761 30.8048 164.884C31.2753 165 31.764 165.058 32.2708 165.058C33.0021 165.058 33.6211 164.956 34.1279 164.754C34.6347 164.551 35.0184 164.261 35.279 163.885C35.5469 163.508 35.6808 163.063 35.6808 162.549ZM47.3443 163.831V154.795H49.3642V166.546H47.442L47.3443 163.831ZM47.7244 161.355L48.5606 161.333C48.5606 162.115 48.4773 162.839 48.3108 163.505C48.1515 164.164 47.8909 164.736 47.5289 165.221C47.1669 165.706 46.6927 166.086 46.1063 166.361C45.5198 166.629 44.8067 166.763 43.9669 166.763C43.3949 166.763 42.87 166.68 42.3922 166.513C41.9216 166.346 41.5162 166.089 41.1759 165.742C40.8356 165.394 40.5714 164.942 40.3831 164.384C40.2021 163.827 40.1116 163.157 40.1116 162.375V154.795H42.1207V162.397C42.1207 162.926 42.1786 163.364 42.2945 163.711C42.4175 164.051 42.5804 164.323 42.7832 164.526C42.9931 164.721 43.2248 164.859 43.4782 164.938C43.7388 165.018 44.0067 165.058 44.2818 165.058C45.1361 165.058 45.8131 164.895 46.3126 164.569C46.8122 164.236 47.1705 163.791 47.3877 163.233C47.6122 162.669 47.7244 162.042 47.7244 161.355ZM54.4358 157.054V171.063H52.4158V154.795H54.262L54.4358 157.054ZM62.3526 160.573V160.801C62.3526 161.655 62.2512 162.448 62.0485 163.179C61.8458 163.903 61.549 164.533 61.158 165.069C60.7743 165.604 60.3001 166.021 59.7354 166.318C59.1707 166.614 58.5227 166.763 57.7915 166.763C57.0458 166.763 56.3869 166.64 55.815 166.394C55.243 166.147 54.7579 165.789 54.3598 165.318C53.9616 164.848 53.643 164.283 53.4041 163.624C53.1724 162.965 53.0131 162.223 52.9263 161.398V160.182C53.0131 159.313 53.176 158.535 53.4149 157.847C53.6539 157.159 53.9688 156.573 54.3598 156.088C54.7579 155.595 55.2394 155.222 55.8041 154.969C56.3688 154.708 57.0204 154.578 57.7589 154.578C58.4974 154.578 59.1526 154.723 59.7245 155.012C60.2965 155.295 60.7779 155.7 61.1689 156.229C61.5598 156.757 61.853 157.391 62.0485 158.129C62.2512 158.86 62.3526 159.675 62.3526 160.573ZM60.3327 160.801V160.573C60.3327 159.986 60.2711 159.436 60.148 158.922C60.025 158.401 59.8331 157.945 59.5725 157.554C59.3191 157.155 58.9933 156.844 58.5951 156.62C58.1969 156.388 57.7227 156.272 57.1725 156.272C56.6657 156.272 56.224 156.359 55.8475 156.533C55.4783 156.707 55.1634 156.942 54.9027 157.239C54.6421 157.528 54.4285 157.861 54.262 158.238C54.1027 158.607 53.9833 158.991 53.9036 159.389V162.202C54.0484 162.708 54.2512 163.186 54.5118 163.635C54.7724 164.077 55.1199 164.435 55.5543 164.71C55.9887 164.978 56.5353 165.112 57.1942 165.112C57.7372 165.112 58.2041 165 58.5951 164.775C58.9933 164.544 59.3191 164.229 59.5725 163.831C59.8331 163.432 60.025 162.976 60.148 162.462C60.2711 161.941 60.3327 161.387 60.3327 160.801ZM69.7916 166.763C68.9735 166.763 68.2314 166.625 67.5653 166.35C66.9065 166.068 66.3382 165.673 65.8603 165.166C65.3897 164.66 65.0277 164.059 64.7743 163.364C64.5209 162.669 64.3942 161.908 64.3942 161.083V160.627C64.3942 159.671 64.5354 158.821 64.8178 158.075C65.1001 157.322 65.4839 156.685 65.9689 156.164C66.454 155.642 67.0042 155.248 67.6196 154.98C68.235 154.712 68.8721 154.578 69.531 154.578C70.3708 154.578 71.0948 154.723 71.7029 155.012C72.3183 155.302 72.8215 155.707 73.2124 156.229C73.6034 156.743 73.893 157.351 74.0812 158.053C74.2695 158.748 74.3636 159.508 74.3636 160.334V161.235H65.5888V159.595H72.3545V159.443C72.3256 158.922 72.217 158.415 72.0287 157.923C71.8477 157.431 71.5581 157.025 71.1599 156.707C70.7617 156.388 70.2187 156.229 69.531 156.229C69.0748 156.229 68.6549 156.326 68.2712 156.522C67.8875 156.71 67.5581 156.993 67.283 157.369C67.0078 157.746 66.7943 158.205 66.6422 158.748C66.4902 159.291 66.4142 159.917 66.4142 160.627V161.083C66.4142 161.641 66.4902 162.165 66.6422 162.658C66.8015 163.143 67.0296 163.57 67.3264 163.939C67.6305 164.308 67.9961 164.598 68.4232 164.808C68.8576 165.018 69.35 165.123 69.9002 165.123C70.6097 165.123 71.2106 164.978 71.7029 164.689C72.1952 164.399 72.626 164.012 72.9952 163.527L74.2115 164.493C73.9581 164.877 73.636 165.242 73.245 165.59C72.8541 165.937 72.3726 166.22 71.8007 166.437C71.2359 166.654 70.5663 166.763 69.7916 166.763ZM78.7184 156.641V166.546H76.7093V154.795H78.6641L78.7184 156.641ZM82.389 154.73L82.3781 156.598C82.2116 156.562 82.0523 156.54 81.9003 156.533C81.7555 156.518 81.589 156.511 81.4008 156.511C80.9374 156.511 80.5284 156.583 80.1736 156.728C79.8188 156.873 79.5184 157.076 79.2722 157.336C79.0261 157.597 78.8306 157.908 78.6858 158.27C78.5482 158.625 78.4577 159.016 78.4143 159.443L77.8496 159.769C77.8496 159.06 77.9184 158.393 78.0559 157.771C78.2007 157.148 78.4215 156.598 78.7184 156.12C79.0152 155.635 79.3917 155.259 79.8478 154.991C80.3112 154.716 80.8614 154.578 81.4985 154.578C81.6433 154.578 81.8098 154.596 81.9981 154.632C82.1863 154.661 82.3166 154.694 82.389 154.73ZM90.7294 150.734H92.7602L97.9403 163.624L103.11 150.734H105.151L98.7222 166.546H97.1367L90.7294 150.734ZM90.0669 150.734H91.8588L92.152 160.377V166.546H90.0669V150.734ZM104.011 150.734H105.803V166.546H103.718V160.377L104.011 150.734ZM108.648 160.801V160.551C108.648 159.704 108.771 158.918 109.017 158.194C109.263 157.463 109.618 156.83 110.082 156.294C110.545 155.751 111.106 155.331 111.765 155.034C112.424 154.73 113.162 154.578 113.98 154.578C114.806 154.578 115.548 154.73 116.207 155.034C116.873 155.331 117.437 155.751 117.901 156.294C118.371 156.83 118.73 157.463 118.976 158.194C119.222 158.918 119.345 159.704 119.345 160.551V160.801C119.345 161.648 119.222 162.433 118.976 163.157C118.73 163.881 118.371 164.515 117.901 165.058C117.437 165.594 116.876 166.013 116.217 166.318C115.566 166.614 114.827 166.763 114.002 166.763C113.177 166.763 112.435 166.614 111.776 166.318C111.117 166.013 110.552 165.594 110.082 165.058C109.618 164.515 109.263 163.881 109.017 163.157C108.771 162.433 108.648 161.648 108.648 160.801ZM110.657 160.551V160.801C110.657 161.387 110.726 161.941 110.864 162.462C111.001 162.976 111.207 163.432 111.483 163.831C111.765 164.229 112.116 164.544 112.536 164.775C112.956 165 113.445 165.112 114.002 165.112C114.552 165.112 115.034 165 115.446 164.775C115.866 164.544 116.214 164.229 116.489 163.831C116.764 163.432 116.97 162.976 117.108 162.462C117.253 161.941 117.325 161.387 117.325 160.801V160.551C117.325 159.972 117.253 159.425 117.108 158.911C116.97 158.39 116.76 157.93 116.478 157.532C116.203 157.126 115.855 156.808 115.436 156.576C115.023 156.345 114.538 156.229 113.98 156.229C113.43 156.229 112.945 156.345 112.525 156.576C112.112 156.808 111.765 157.126 111.483 157.532C111.207 157.93 111.001 158.39 110.864 158.911C110.726 159.425 110.657 159.972 110.657 160.551ZM125.264 164.732L128.478 154.795H130.531L126.306 166.546H124.96L125.264 164.732ZM122.581 154.795L125.894 164.786L126.122 166.546H124.775L120.518 154.795H122.581ZM137.188 166.763C136.37 166.763 135.628 166.625 134.961 166.35C134.303 166.068 133.734 165.673 133.257 165.166C132.786 164.66 132.424 164.059 132.171 163.364C131.917 162.669 131.79 161.908 131.79 161.083V160.627C131.79 159.671 131.932 158.821 132.214 158.075C132.496 157.322 132.88 156.685 133.365 156.164C133.85 155.642 134.4 155.248 135.016 154.98C135.631 154.712 136.268 154.578 136.927 154.578C137.767 154.578 138.491 154.723 139.099 155.012C139.714 155.302 140.218 155.707 140.609 156.229C141 156.743 141.289 157.351 141.477 158.053C141.666 158.748 141.76 159.508 141.76 160.334V161.235H132.985V159.595H139.751V159.443C139.722 158.922 139.613 158.415 139.425 157.923C139.244 157.431 138.954 157.025 138.556 156.707C138.158 156.388 137.615 156.229 136.927 156.229C136.471 156.229 136.051 156.326 135.667 156.522C135.284 156.71 134.954 156.993 134.679 157.369C134.404 157.746 134.19 158.205 134.038 158.748C133.886 159.291 133.81 159.917 133.81 160.627V161.083C133.81 161.641 133.886 162.165 134.038 162.658C134.198 163.143 134.426 163.57 134.723 163.939C135.027 164.308 135.392 164.598 135.819 164.808C136.254 165.018 136.746 165.123 137.296 165.123C138.006 165.123 138.607 164.978 139.099 164.689C139.591 164.399 140.022 164.012 140.391 163.527L141.608 164.493C141.354 164.877 141.032 165.242 140.641 165.59C140.25 165.937 139.769 166.22 139.197 166.437C138.632 166.654 137.962 166.763 137.188 166.763ZM150.947 163.429C150.947 163.139 150.882 162.871 150.752 162.625C150.629 162.372 150.372 162.144 149.981 161.941C149.597 161.731 149.018 161.55 148.243 161.398C147.591 161.26 147.001 161.098 146.473 160.909C145.952 160.721 145.506 160.493 145.137 160.225C144.775 159.957 144.496 159.642 144.301 159.28C144.105 158.918 144.008 158.495 144.008 158.01C144.008 157.546 144.109 157.108 144.312 156.696C144.522 156.283 144.815 155.917 145.191 155.599C145.575 155.28 146.035 155.031 146.571 154.85C147.106 154.669 147.704 154.578 148.363 154.578C149.304 154.578 150.107 154.745 150.773 155.078C151.439 155.411 151.95 155.856 152.305 156.413C152.659 156.964 152.837 157.575 152.837 158.249H150.828C150.828 157.923 150.73 157.608 150.535 157.304C150.346 156.993 150.068 156.736 149.698 156.533C149.336 156.33 148.891 156.229 148.363 156.229C147.805 156.229 147.353 156.316 147.005 156.489C146.665 156.656 146.415 156.869 146.256 157.13C146.104 157.391 146.028 157.666 146.028 157.955C146.028 158.173 146.064 158.368 146.136 158.542C146.216 158.708 146.353 158.864 146.549 159.009C146.744 159.146 147.02 159.277 147.374 159.4C147.729 159.523 148.182 159.646 148.732 159.769C149.695 159.986 150.487 160.247 151.11 160.551C151.733 160.855 152.196 161.228 152.5 161.67C152.804 162.111 152.956 162.647 152.956 163.277C152.956 163.791 152.848 164.261 152.63 164.689C152.42 165.116 152.113 165.485 151.707 165.796C151.309 166.1 150.831 166.339 150.274 166.513C149.724 166.68 149.105 166.763 148.417 166.763C147.382 166.763 146.506 166.578 145.789 166.209C145.072 165.84 144.529 165.362 144.16 164.775C143.791 164.189 143.606 163.57 143.606 162.918H145.626C145.655 163.469 145.814 163.907 146.104 164.232C146.393 164.551 146.748 164.779 147.168 164.917C147.588 165.047 148.004 165.112 148.417 165.112C148.967 165.112 149.427 165.04 149.796 164.895C150.173 164.75 150.458 164.551 150.654 164.298C150.849 164.044 150.947 163.755 150.947 163.429ZM168.041 164.537V158.488C168.041 158.024 167.946 157.622 167.758 157.282C167.577 156.935 167.302 156.667 166.933 156.479C166.564 156.29 166.108 156.196 165.565 156.196C165.058 156.196 164.612 156.283 164.229 156.457C163.852 156.631 163.555 156.859 163.338 157.141C163.128 157.423 163.023 157.727 163.023 158.053H161.014C161.014 157.633 161.123 157.217 161.34 156.804C161.557 156.392 161.869 156.019 162.274 155.686C162.687 155.345 163.179 155.078 163.751 154.882C164.33 154.679 164.974 154.578 165.684 154.578C166.538 154.578 167.291 154.723 167.943 155.012C168.602 155.302 169.116 155.74 169.485 156.326C169.861 156.906 170.05 157.633 170.05 158.509V163.983C170.05 164.374 170.082 164.79 170.147 165.232C170.22 165.673 170.325 166.053 170.462 166.372V166.546H168.366C168.265 166.314 168.185 166.006 168.127 165.623C168.07 165.232 168.041 164.87 168.041 164.537ZM168.388 159.422L168.41 160.833H166.379C165.807 160.833 165.297 160.88 164.848 160.974C164.399 161.061 164.022 161.195 163.718 161.376C163.414 161.557 163.183 161.785 163.023 162.06C162.864 162.328 162.784 162.643 162.784 163.005C162.784 163.375 162.868 163.711 163.034 164.015C163.201 164.319 163.45 164.562 163.784 164.743C164.124 164.917 164.54 165.003 165.032 165.003C165.648 165.003 166.191 164.873 166.661 164.613C167.132 164.352 167.505 164.033 167.78 163.657C168.062 163.28 168.214 162.915 168.236 162.56L169.094 163.527C169.043 163.831 168.906 164.167 168.681 164.537C168.457 164.906 168.156 165.261 167.78 165.601C167.411 165.934 166.969 166.213 166.455 166.437C165.948 166.654 165.376 166.763 164.739 166.763C163.943 166.763 163.244 166.607 162.643 166.296C162.05 165.985 161.586 165.568 161.253 165.047C160.927 164.518 160.764 163.928 160.764 163.277C160.764 162.647 160.888 162.093 161.134 161.615C161.38 161.13 161.735 160.728 162.198 160.41C162.661 160.084 163.219 159.838 163.87 159.671C164.522 159.505 165.25 159.422 166.053 159.422H168.388ZM175.219 156.641V166.546H173.21V154.795H175.165L175.219 156.641ZM178.89 154.73L178.879 156.598C178.712 156.562 178.553 156.54 178.401 156.533C178.256 156.518 178.09 156.511 177.901 156.511C177.438 156.511 177.029 156.583 176.674 156.728C176.319 156.873 176.019 157.076 175.773 157.336C175.527 157.597 175.331 157.908 175.186 158.27C175.049 158.625 174.958 159.016 174.915 159.443L174.35 159.769C174.35 159.06 174.419 158.393 174.556 157.771C174.701 157.148 174.922 156.598 175.219 156.12C175.516 155.635 175.892 155.259 176.348 154.991C176.812 154.716 177.362 154.578 177.999 154.578C178.144 154.578 178.31 154.596 178.499 154.632C178.687 154.661 178.817 154.694 178.89 154.73ZM185.405 166.763C184.587 166.763 183.845 166.625 183.179 166.35C182.52 166.068 181.952 165.673 181.474 165.166C181.004 164.66 180.642 164.059 180.388 163.364C180.135 162.669 180.008 161.908 180.008 161.083V160.627C180.008 159.671 180.149 158.821 180.432 158.075C180.714 157.322 181.098 156.685 181.583 156.164C182.068 155.642 182.618 155.248 183.233 154.98C183.849 154.712 184.486 154.578 185.145 154.578C185.985 154.578 186.709 154.723 187.317 155.012C187.932 155.302 188.435 155.707 188.826 156.229C189.217 156.743 189.507 157.351 189.695 158.053C189.883 158.748 189.977 159.508 189.977 160.334V161.235H181.203V159.595H187.968V159.443C187.939 158.922 187.831 158.415 187.643 157.923C187.462 157.431 187.172 157.025 186.774 156.707C186.376 156.388 185.833 156.229 185.145 156.229C184.689 156.229 184.269 156.326 183.885 156.522C183.501 156.71 183.172 156.993 182.897 157.369C182.622 157.746 182.408 158.205 182.256 158.748C182.104 159.291 182.028 159.917 182.028 160.627V161.083C182.028 161.641 182.104 162.165 182.256 162.658C182.415 163.143 182.643 163.57 182.94 163.939C183.244 164.308 183.61 164.598 184.037 164.808C184.472 165.018 184.964 165.123 185.514 165.123C186.224 165.123 186.824 164.978 187.317 164.689C187.809 164.399 188.24 164.012 188.609 163.527L189.825 164.493C189.572 164.877 189.25 165.242 188.859 165.59C188.468 165.937 187.986 166.22 187.415 166.437C186.85 166.654 186.18 166.763 185.405 166.763ZM205.029 163.831V154.795H207.049V166.546H205.127L205.029 163.831ZM205.409 161.355L206.246 161.333C206.246 162.115 206.162 162.839 205.996 163.505C205.836 164.164 205.576 164.736 205.214 165.221C204.852 165.706 204.378 166.086 203.791 166.361C203.205 166.629 202.492 166.763 201.652 166.763C201.08 166.763 200.555 166.68 200.077 166.513C199.607 166.346 199.201 166.089 198.861 165.742C198.521 165.394 198.256 164.942 198.068 164.384C197.887 163.827 197.797 163.157 197.797 162.375V154.795H199.806V162.397C199.806 162.926 199.864 163.364 199.979 163.711C200.102 164.051 200.265 164.323 200.468 164.526C200.678 164.721 200.91 164.859 201.163 164.938C201.424 165.018 201.692 165.058 201.967 165.058C202.821 165.058 203.498 164.895 203.998 164.569C204.497 164.236 204.855 163.791 205.073 163.233C205.297 162.669 205.409 162.042 205.409 161.355ZM216.953 163.429C216.953 163.139 216.888 162.871 216.758 162.625C216.635 162.372 216.378 162.144 215.987 161.941C215.603 161.731 215.024 161.55 214.249 161.398C213.598 161.26 213.008 161.098 212.479 160.909C211.958 160.721 211.513 160.493 211.143 160.225C210.781 159.957 210.503 159.642 210.307 159.28C210.112 158.918 210.014 158.495 210.014 158.01C210.014 157.546 210.115 157.108 210.318 156.696C210.528 156.283 210.821 155.917 211.198 155.599C211.581 155.28 212.041 155.031 212.577 154.85C213.113 154.669 213.71 154.578 214.369 154.578C215.31 154.578 216.113 154.745 216.78 155.078C217.446 155.411 217.956 155.856 218.311 156.413C218.666 156.964 218.843 157.575 218.843 158.249H216.834C216.834 157.923 216.736 157.608 216.541 157.304C216.352 156.993 216.074 156.736 215.704 156.533C215.342 156.33 214.897 156.229 214.369 156.229C213.811 156.229 213.359 156.316 213.011 156.489C212.671 156.656 212.421 156.869 212.262 157.13C212.11 157.391 212.034 157.666 212.034 157.955C212.034 158.173 212.07 158.368 212.142 158.542C212.222 158.708 212.36 158.864 212.555 159.009C212.751 159.146 213.026 159.277 213.38 159.4C213.735 159.523 214.188 159.646 214.738 159.769C215.701 159.986 216.494 160.247 217.116 160.551C217.739 160.855 218.202 161.228 218.506 161.67C218.81 162.111 218.962 162.647 218.962 163.277C218.962 163.791 218.854 164.261 218.637 164.689C218.427 165.116 218.119 165.485 217.713 165.796C217.315 166.1 216.837 166.339 216.28 166.513C215.73 166.68 215.111 166.763 214.423 166.763C213.388 166.763 212.512 166.578 211.795 166.209C211.078 165.84 210.535 165.362 210.166 164.775C209.797 164.189 209.612 163.57 209.612 162.918H211.632C211.661 163.469 211.82 163.907 212.11 164.232C212.399 164.551 212.754 164.779 213.174 164.917C213.594 165.047 214.01 165.112 214.423 165.112C214.973 165.112 215.433 165.04 215.802 164.895C216.179 164.75 216.465 164.551 216.66 164.298C216.856 164.044 216.953 163.755 216.953 163.429ZM226.477 166.763C225.659 166.763 224.917 166.625 224.251 166.35C223.592 166.068 223.024 165.673 222.546 165.166C222.076 164.66 221.714 164.059 221.46 163.364C221.207 162.669 221.08 161.908 221.08 161.083V160.627C221.08 159.671 221.221 158.821 221.504 158.075C221.786 157.322 222.17 156.685 222.655 156.164C223.14 155.642 223.69 155.248 224.305 154.98C224.921 154.712 225.558 154.578 226.217 154.578C227.057 154.578 227.781 154.723 228.389 155.012C229.004 155.302 229.507 155.707 229.898 156.229C230.289 156.743 230.579 157.351 230.767 158.053C230.955 158.748 231.049 159.508 231.049 160.334V161.235H222.275V159.595H229.04V159.443C229.011 158.922 228.903 158.415 228.715 157.923C228.534 157.431 228.244 157.025 227.846 156.707C227.448 156.388 226.905 156.229 226.217 156.229C225.761 156.229 225.341 156.326 224.957 156.522C224.573 156.71 224.244 156.993 223.969 157.369C223.694 157.746 223.48 158.205 223.328 158.748C223.176 159.291 223.1 159.917 223.1 160.627V161.083C223.1 161.641 223.176 162.165 223.328 162.658C223.487 163.143 223.715 163.57 224.012 163.939C224.316 164.308 224.682 164.598 225.109 164.808C225.543 165.018 226.036 165.123 226.586 165.123C227.295 165.123 227.896 164.978 228.389 164.689C228.881 164.399 229.312 164.012 229.681 163.527L230.897 164.493C230.644 164.877 230.322 165.242 229.931 165.59C229.54 165.937 229.058 166.22 228.486 166.437C227.922 166.654 227.252 166.763 226.477 166.763ZM240.324 164.537V158.488C240.324 158.024 240.23 157.622 240.041 157.282C239.86 156.935 239.585 156.667 239.216 156.479C238.847 156.29 238.391 156.196 237.848 156.196C237.341 156.196 236.896 156.283 236.512 156.457C236.135 156.631 235.839 156.859 235.621 157.141C235.411 157.423 235.306 157.727 235.306 158.053H233.297C233.297 157.633 233.406 157.217 233.623 156.804C233.84 156.392 234.152 156.019 234.557 155.686C234.97 155.345 235.462 155.078 236.034 154.882C236.613 154.679 237.258 154.578 237.967 154.578C238.821 154.578 239.574 154.723 240.226 155.012C240.885 155.302 241.399 155.74 241.768 156.326C242.145 156.906 242.333 157.633 242.333 158.509V163.983C242.333 164.374 242.365 164.79 242.43 165.232C242.503 165.673 242.608 166.053 242.745 166.372V166.546H240.649C240.548 166.314 240.468 166.006 240.411 165.623C240.353 165.232 240.324 164.87 240.324 164.537ZM240.671 159.422L240.693 160.833H238.662C238.09 160.833 237.58 160.88 237.131 160.974C236.682 161.061 236.306 161.195 236.001 161.376C235.697 161.557 235.466 161.785 235.306 162.06C235.147 162.328 235.068 162.643 235.068 163.005C235.068 163.375 235.151 163.711 235.317 164.015C235.484 164.319 235.734 164.562 236.067 164.743C236.407 164.917 236.823 165.003 237.316 165.003C237.931 165.003 238.474 164.873 238.944 164.613C239.415 164.352 239.788 164.033 240.063 163.657C240.345 163.28 240.497 162.915 240.519 162.56L241.377 163.527C241.326 163.831 241.189 164.167 240.964 164.537C240.74 164.906 240.44 165.261 240.063 165.601C239.694 165.934 239.252 166.213 238.738 166.437C238.231 166.654 237.659 166.763 237.022 166.763C236.226 166.763 235.527 166.607 234.926 166.296C234.333 165.985 233.869 165.568 233.536 165.047C233.21 164.518 233.048 163.928 233.048 163.277C233.048 162.647 233.171 162.093 233.417 161.615C233.663 161.13 234.018 160.728 234.481 160.41C234.944 160.084 235.502 159.838 236.153 159.671C236.805 159.505 237.533 159.422 238.336 159.422H240.671ZM245.482 149.865H247.502V164.265L247.328 166.546H245.482V149.865ZM255.441 160.573V160.801C255.441 161.655 255.339 162.448 255.137 163.179C254.934 163.903 254.637 164.533 254.246 165.069C253.855 165.604 253.377 166.021 252.813 166.318C252.248 166.614 251.6 166.763 250.869 166.763C250.123 166.763 249.468 166.636 248.903 166.383C248.345 166.122 247.875 165.749 247.491 165.264C247.107 164.779 246.8 164.193 246.568 163.505C246.344 162.817 246.188 162.042 246.101 161.181V160.182C246.188 159.313 246.344 158.535 246.568 157.847C246.8 157.159 247.107 156.573 247.491 156.088C247.875 155.595 248.345 155.222 248.903 154.969C249.46 154.708 250.108 154.578 250.847 154.578C251.585 154.578 252.241 154.723 252.813 155.012C253.384 155.295 253.862 155.7 254.246 156.229C254.637 156.757 254.934 157.391 255.137 158.129C255.339 158.86 255.441 159.675 255.441 160.573ZM253.421 160.801V160.573C253.421 159.986 253.366 159.436 253.258 158.922C253.149 158.401 252.975 157.945 252.736 157.554C252.498 157.155 252.183 156.844 251.792 156.62C251.401 156.388 250.919 156.272 250.347 156.272C249.841 156.272 249.399 156.359 249.022 156.533C248.653 156.707 248.338 156.942 248.078 157.239C247.817 157.528 247.603 157.861 247.437 158.238C247.278 158.607 247.158 158.991 247.079 159.389V162.006C247.194 162.513 247.383 163.002 247.643 163.472C247.911 163.936 248.266 164.316 248.707 164.613C249.156 164.909 249.71 165.058 250.369 165.058C250.912 165.058 251.375 164.949 251.759 164.732C252.15 164.508 252.465 164.2 252.704 163.809C252.95 163.418 253.131 162.965 253.247 162.451C253.363 161.937 253.421 161.387 253.421 160.801ZM260.165 149.865V166.546H258.145V149.865H260.165ZM268.266 166.763C267.448 166.763 266.706 166.625 266.04 166.35C265.381 166.068 264.813 165.673 264.335 165.166C263.864 164.66 263.502 164.059 263.249 163.364C262.995 162.669 262.869 161.908 262.869 161.083V160.627C262.869 159.671 263.01 158.821 263.292 158.075C263.575 157.322 263.958 156.685 264.443 156.164C264.928 155.642 265.479 155.248 266.094 154.98C266.709 154.712 267.347 154.578 268.005 154.578C268.845 154.578 269.569 154.723 270.177 155.012C270.793 155.302 271.296 155.707 271.687 156.229C272.078 156.743 272.367 157.351 272.556 158.053C272.744 158.748 272.838 159.508 272.838 160.334V161.235H264.063V159.595H270.829V159.443C270.8 158.922 270.691 158.415 270.503 157.923C270.322 157.431 270.033 157.025 269.634 156.707C269.236 156.388 268.693 156.229 268.005 156.229C267.549 156.229 267.129 156.326 266.746 156.522C266.362 156.71 266.033 156.993 265.757 157.369C265.482 157.746 265.269 158.205 265.117 158.748C264.965 159.291 264.889 159.917 264.889 160.627V161.083C264.889 161.641 264.965 162.165 265.117 162.658C265.276 163.143 265.504 163.57 265.801 163.939C266.105 164.308 266.471 164.598 266.898 164.808C267.332 165.018 267.824 165.123 268.375 165.123C269.084 165.123 269.685 164.978 270.177 164.689C270.67 164.399 271.1 164.012 271.47 163.527L272.686 164.493C272.433 164.877 272.11 165.242 271.719 165.59C271.329 165.937 270.847 166.22 270.275 166.437C269.71 166.654 269.041 166.763 268.266 166.763ZM283.676 164.461L286.695 154.795H288.02L287.759 156.717L284.686 166.546H283.394L283.676 164.461ZM281.645 154.795L284.219 164.569L284.404 166.546H283.046L279.636 154.795H281.645ZM290.909 164.493L293.363 154.795H295.361L291.951 166.546H290.605L290.909 164.493ZM288.313 154.795L291.267 164.298L291.604 166.546H290.322L287.162 156.696L286.902 154.795H288.313ZM299.608 154.795V166.546H297.588V154.795H299.608ZM297.436 151.678C297.436 151.353 297.533 151.078 297.729 150.853C297.932 150.629 298.228 150.516 298.619 150.516C299.003 150.516 299.296 150.629 299.499 150.853C299.709 151.078 299.814 151.353 299.814 151.678C299.814 151.99 299.709 152.258 299.499 152.482C299.296 152.699 299.003 152.808 298.619 152.808C298.228 152.808 297.932 152.699 297.729 152.482C297.533 152.258 297.436 151.99 297.436 151.678ZM307.752 154.795V156.337H301.399V154.795H307.752ZM303.55 151.939H305.559V163.635C305.559 164.033 305.62 164.334 305.743 164.537C305.866 164.739 306.026 164.873 306.221 164.938C306.417 165.003 306.627 165.036 306.851 165.036C307.018 165.036 307.191 165.022 307.372 164.993C307.561 164.956 307.702 164.927 307.796 164.906L307.807 166.546C307.647 166.596 307.438 166.643 307.177 166.687C306.923 166.737 306.616 166.763 306.254 166.763C305.761 166.763 305.309 166.665 304.896 166.47C304.484 166.274 304.154 165.948 303.908 165.492C303.669 165.029 303.55 164.406 303.55 163.624V151.939ZM312.118 149.865V166.546H310.109V149.865H312.118ZM311.64 160.225L310.804 160.193C310.811 159.389 310.931 158.647 311.162 157.966C311.394 157.279 311.72 156.681 312.14 156.174C312.56 155.668 313.059 155.277 313.638 155.002C314.225 154.719 314.873 154.578 315.582 154.578C316.162 154.578 316.683 154.658 317.146 154.817C317.61 154.969 318.004 155.215 318.33 155.555C318.663 155.896 318.916 156.337 319.09 156.88C319.264 157.416 319.351 158.071 319.351 158.846V166.546H317.331V158.824C317.331 158.209 317.24 157.717 317.059 157.347C316.878 156.971 316.614 156.699 316.267 156.533C315.919 156.359 315.492 156.272 314.985 156.272C314.486 156.272 314.029 156.377 313.617 156.587C313.211 156.797 312.86 157.087 312.563 157.456C312.274 157.825 312.046 158.249 311.879 158.727C311.72 159.197 311.64 159.697 311.64 160.225ZM29.2735 194.02L27.6663 193.607L28.459 185.734H36.5713V187.591H30.164L29.6862 191.891C29.9758 191.725 30.3414 191.569 30.783 191.424C31.2319 191.279 31.7459 191.207 32.3251 191.207C33.0564 191.207 33.7116 191.334 34.2908 191.587C34.87 191.833 35.3623 192.188 35.7677 192.651C36.1804 193.115 36.4953 193.672 36.7125 194.324C36.9297 194.975 37.0383 195.703 37.0383 196.507C37.0383 197.267 36.9333 197.965 36.7234 198.603C36.5207 199.24 36.213 199.797 35.8003 200.275C35.3876 200.746 34.8663 201.111 34.2365 201.372C33.6138 201.632 32.879 201.763 32.0319 201.763C31.3948 201.763 30.7903 201.676 30.2183 201.502C29.6536 201.321 29.1468 201.05 28.6979 200.688C28.2563 200.318 27.8943 199.862 27.612 199.319C27.3368 198.769 27.1631 198.125 27.0907 197.386H29.002C29.0889 197.98 29.2627 198.479 29.5233 198.885C29.7839 199.29 30.1242 199.598 30.5441 199.808C30.9713 200.011 31.4672 200.112 32.0319 200.112C32.5098 200.112 32.9333 200.029 33.3025 199.862C33.6718 199.696 33.9831 199.457 34.2365 199.146C34.4899 198.834 34.6817 198.458 34.812 198.016C34.9496 197.575 35.0184 197.079 35.0184 196.528C35.0184 196.029 34.9496 195.565 34.812 195.138C34.6745 194.711 34.4681 194.338 34.193 194.02C33.9251 193.701 33.5957 193.455 33.2048 193.281C32.8138 193.1 32.365 193.01 31.8582 193.01C31.1848 193.01 30.6744 193.1 30.3269 193.281C29.9866 193.462 29.6355 193.708 29.2735 194.02ZM49.8529 201.763C49.0348 201.763 48.2927 201.625 47.6266 201.35C46.9678 201.068 46.3995 200.673 45.9217 200.166C45.4511 199.66 45.0891 199.059 44.8357 198.364C44.5823 197.669 44.4556 196.908 44.4556 196.083V195.627C44.4556 194.671 44.5968 193.821 44.8791 193.075C45.1615 192.322 45.5452 191.685 46.0303 191.164C46.5153 190.642 47.0656 190.248 47.6809 189.98C48.2963 189.712 48.9334 189.578 49.5923 189.578C50.4321 189.578 51.1561 189.723 51.7642 190.012C52.3796 190.302 52.8828 190.707 53.2738 191.229C53.6647 191.743 53.9543 192.351 54.1426 193.053C54.3308 193.748 54.4249 194.508 54.4249 195.334V196.235H45.6502V194.595H52.4158V194.443C52.3869 193.922 52.2783 193.415 52.09 192.923C51.909 192.431 51.6195 192.025 51.2213 191.707C50.8231 191.388 50.2801 191.229 49.5923 191.229C49.1362 191.229 48.7163 191.326 48.3325 191.522C47.9488 191.71 47.6194 191.993 47.3443 192.369C47.0692 192.746 46.8556 193.205 46.7036 193.748C46.5515 194.291 46.4755 194.917 46.4755 195.627V196.083C46.4755 196.641 46.5515 197.165 46.7036 197.658C46.8628 198.143 47.0909 198.57 47.3877 198.939C47.6918 199.308 48.0574 199.598 48.4846 199.808C48.919 200.018 49.4113 200.123 49.9615 200.123C50.671 200.123 51.2719 199.978 51.7642 199.689C52.2566 199.399 52.6873 199.012 53.0566 198.527L54.2729 199.493C54.0195 199.877 53.6973 200.242 53.3063 200.59C52.9154 200.937 52.4339 201.22 51.862 201.437C51.2973 201.654 50.6276 201.763 49.8529 201.763ZM58.7797 192.304V201.546H56.7706V189.795H58.6711L58.7797 192.304ZM58.3019 195.225L57.4657 195.193C57.4729 194.389 57.5924 193.647 57.824 192.966C58.0557 192.279 58.3815 191.681 58.8014 191.174C59.2213 190.668 59.7209 190.277 60.3001 190.002C60.8865 189.719 61.5345 189.578 62.244 189.578C62.8232 189.578 63.3445 189.658 63.8078 189.817C64.2712 189.969 64.6657 190.215 64.9915 190.555C65.3246 190.896 65.578 191.337 65.7517 191.88C65.9255 192.416 66.0124 193.071 66.0124 193.846V201.546H63.9924V193.824C63.9924 193.209 63.9019 192.717 63.7209 192.347C63.5399 191.971 63.2757 191.699 62.9282 191.533C62.5807 191.359 62.1535 191.272 61.6467 191.272C61.1472 191.272 60.691 191.377 60.2784 191.587C59.8729 191.797 59.5218 192.087 59.225 192.456C58.9354 192.825 58.7073 193.249 58.5408 193.727C58.3815 194.197 58.3019 194.697 58.3019 195.225ZM73.94 201.763C73.1219 201.763 72.3798 201.625 71.7138 201.35C71.0549 201.068 70.4866 200.673 70.0088 200.166C69.5382 199.66 69.1762 199.059 68.9228 198.364C68.6694 197.669 68.5427 196.908 68.5427 196.083V195.627C68.5427 194.671 68.6839 193.821 68.9662 193.075C69.2486 192.322 69.6323 191.685 70.1174 191.164C70.6025 190.642 71.1527 190.248 71.7681 189.98C72.3835 189.712 73.0206 189.578 73.6794 189.578C74.5192 189.578 75.2432 189.723 75.8514 190.012C76.4668 190.302 76.9699 190.707 77.3609 191.229C77.7518 191.743 78.0414 192.351 78.2297 193.053C78.4179 193.748 78.512 194.508 78.512 195.334V196.235H69.7373V194.595H76.503V194.443C76.474 193.922 76.3654 193.415 76.1772 192.923C75.9962 192.431 75.7066 192.025 75.3084 191.707C74.9102 191.388 74.3672 191.229 73.6794 191.229C73.2233 191.229 72.8034 191.326 72.4197 191.522C72.036 191.71 71.7065 191.993 71.4314 192.369C71.1563 192.746 70.9427 193.205 70.7907 193.748C70.6387 194.291 70.5626 194.917 70.5626 195.627V196.083C70.5626 196.641 70.6387 197.165 70.7907 197.658C70.95 198.143 71.178 198.57 71.4749 198.939C71.7789 199.308 72.1446 199.598 72.5717 199.808C73.0061 200.018 73.4984 200.123 74.0486 200.123C74.7582 200.123 75.3591 199.978 75.8514 199.689C76.3437 199.399 76.7745 199.012 77.1437 198.527L78.36 199.493C78.1066 199.877 77.7844 200.242 77.3935 200.59C77.0025 200.937 76.5211 201.22 75.9491 201.437C75.3844 201.654 74.7147 201.763 73.94 201.763ZM82.8668 191.641V201.546H80.8578V189.795H82.8125L82.8668 191.641ZM86.5375 189.73L86.5266 191.598C86.3601 191.562 86.2008 191.54 86.0488 191.533C85.904 191.518 85.7375 191.511 85.5492 191.511C85.0859 191.511 84.6768 191.583 84.3221 191.728C83.9673 191.873 83.6668 192.076 83.4207 192.336C83.1745 192.597 82.9791 192.908 82.8343 193.27C82.6967 193.625 82.6062 194.016 82.5628 194.443L81.998 194.769C81.998 194.06 82.0668 193.393 82.2044 192.771C82.3492 192.148 82.57 191.598 82.8668 191.12C83.1637 190.635 83.5401 190.259 83.9963 189.991C84.4596 189.716 85.0098 189.578 85.647 189.578C85.7918 189.578 85.9583 189.596 86.1465 189.632C86.3347 189.661 86.4651 189.694 86.5375 189.73ZM95.79 189.795H97.6145V201.296C97.6145 202.331 97.4045 203.214 96.9846 203.946C96.5647 204.677 95.9783 205.231 95.2253 205.607C94.4796 205.991 93.6181 206.183 92.6407 206.183C92.2353 206.183 91.7574 206.118 91.2072 205.987C90.6642 205.864 90.1285 205.651 89.5999 205.347C89.0787 205.05 88.6407 204.648 88.2859 204.141L89.3393 202.947C89.8316 203.54 90.3456 203.953 90.8814 204.185C91.4244 204.416 91.9601 204.532 92.4887 204.532C93.1258 204.532 93.676 204.413 94.1394 204.174C94.6027 203.935 94.9611 203.58 95.2145 203.109C95.4751 202.646 95.6054 202.074 95.6054 201.394V192.38L95.79 189.795ZM87.6995 195.801V195.573C87.6995 194.675 87.8044 193.86 88.0144 193.129C88.2316 192.391 88.5393 191.757 88.9375 191.229C89.3429 190.7 89.8316 190.295 90.4036 190.012C90.9755 189.723 91.6199 189.578 92.3366 189.578C93.0751 189.578 93.7194 189.708 94.2697 189.969C94.8271 190.222 95.2977 190.595 95.6814 191.088C96.0724 191.573 96.3801 192.159 96.6045 192.847C96.829 193.535 96.9846 194.313 97.0715 195.182V196.181C96.9919 197.042 96.8362 197.817 96.6045 198.505C96.3801 199.193 96.0724 199.779 95.6814 200.264C95.2977 200.749 94.8271 201.122 94.2697 201.383C93.7122 201.636 93.0606 201.763 92.3149 201.763C91.6126 201.763 90.9755 201.614 90.4036 201.318C89.8389 201.021 89.3538 200.604 88.9483 200.069C88.5429 199.533 88.2316 198.903 88.0144 198.179C87.8044 197.448 87.6995 196.655 87.6995 195.801ZM89.7085 195.573V195.801C89.7085 196.387 89.7665 196.937 89.8823 197.451C90.0054 197.965 90.19 198.418 90.4361 198.809C90.6895 199.2 91.0117 199.508 91.4027 199.732C91.7936 199.949 92.2606 200.058 92.8036 200.058C93.4697 200.058 94.0199 199.917 94.4543 199.634C94.8887 199.352 95.2326 198.979 95.486 198.516C95.7466 198.052 95.9493 197.549 96.0941 197.006V194.389C96.0145 193.991 95.8914 193.607 95.7249 193.238C95.5656 192.861 95.3557 192.528 95.095 192.239C94.8416 191.942 94.5267 191.707 94.1502 191.533C93.7737 191.359 93.3321 191.272 92.8253 191.272C92.2751 191.272 91.8009 191.388 91.4027 191.62C91.0117 191.844 90.6895 192.155 90.4361 192.554C90.19 192.945 90.0054 193.401 89.8823 193.922C89.7665 194.436 89.7085 194.986 89.7085 195.573ZM103.968 200.329L107.236 189.795H109.387L104.673 203.359C104.565 203.649 104.42 203.96 104.239 204.293C104.065 204.633 103.841 204.956 103.566 205.26C103.291 205.564 102.958 205.81 102.567 205.998C102.183 206.194 101.723 206.291 101.187 206.291C101.028 206.291 100.825 206.27 100.579 206.226C100.333 206.183 100.159 206.147 100.058 206.118L100.047 204.489C100.105 204.496 100.196 204.503 100.319 204.51C100.449 204.525 100.539 204.532 100.59 204.532C101.046 204.532 101.434 204.471 101.752 204.347C102.071 204.232 102.339 204.032 102.556 203.75C102.78 203.475 102.972 203.095 103.131 202.61L103.968 200.329ZM101.567 189.795L104.619 198.918L105.14 201.035L103.696 201.774L99.3738 189.795H101.567ZM116.185 195.801V195.551C116.185 194.704 116.308 193.918 116.554 193.194C116.8 192.463 117.155 191.83 117.618 191.294C118.082 190.751 118.643 190.331 119.302 190.034C119.96 189.73 120.699 189.578 121.517 189.578C122.342 189.578 123.084 189.73 123.743 190.034C124.409 190.331 124.974 190.751 125.437 191.294C125.908 191.83 126.266 192.463 126.513 193.194C126.759 193.918 126.882 194.704 126.882 195.551V195.801C126.882 196.648 126.759 197.433 126.513 198.157C126.266 198.881 125.908 199.515 125.437 200.058C124.974 200.594 124.413 201.013 123.754 201.318C123.103 201.614 122.364 201.763 121.539 201.763C120.713 201.763 119.971 201.614 119.312 201.318C118.654 201.013 118.089 200.594 117.618 200.058C117.155 199.515 116.8 198.881 116.554 198.157C116.308 197.433 116.185 196.648 116.185 195.801ZM118.194 195.551V195.801C118.194 196.387 118.263 196.941 118.4 197.462C118.538 197.976 118.744 198.432 119.019 198.831C119.302 199.229 119.653 199.544 120.073 199.775C120.493 200 120.981 200.112 121.539 200.112C122.089 200.112 122.57 200 122.983 199.775C123.403 199.544 123.751 199.229 124.026 198.831C124.301 198.432 124.507 197.976 124.645 197.462C124.789 196.941 124.862 196.387 124.862 195.801V195.551C124.862 194.972 124.789 194.425 124.645 193.911C124.507 193.39 124.297 192.93 124.015 192.532C123.74 192.126 123.392 191.808 122.972 191.576C122.56 191.345 122.074 191.229 121.517 191.229C120.967 191.229 120.482 191.345 120.062 191.576C119.649 191.808 119.302 192.126 119.019 192.532C118.744 192.93 118.538 193.39 118.4 193.911C118.263 194.425 118.194 194.972 118.194 195.551ZM131.41 191.641V201.546H129.401V189.795H131.356L131.41 191.641ZM135.081 189.73L135.07 191.598C134.904 191.562 134.744 191.54 134.592 191.533C134.447 191.518 134.281 191.511 134.093 191.511C133.629 191.511 133.22 191.583 132.866 191.728C132.511 191.873 132.21 192.076 131.964 192.336C131.718 192.597 131.523 192.908 131.378 193.27C131.24 193.625 131.15 194.016 131.106 194.443L130.542 194.769C130.542 194.06 130.61 193.393 130.748 192.771C130.893 192.148 131.113 191.598 131.41 191.12C131.707 190.635 132.084 190.259 132.54 189.991C133.003 189.716 133.553 189.578 134.19 189.578C134.335 189.578 134.502 189.596 134.69 189.632C134.878 189.661 135.009 189.694 135.081 189.73ZM141.923 195.801V195.551C141.923 194.704 142.046 193.918 142.292 193.194C142.538 192.463 142.893 191.83 143.356 191.294C143.82 190.751 144.381 190.331 145.039 190.034C145.698 189.73 146.437 189.578 147.255 189.578C148.08 189.578 148.822 189.73 149.481 190.034C150.147 190.331 150.712 190.751 151.175 191.294C151.646 191.83 152.004 192.463 152.25 193.194C152.497 193.918 152.62 194.704 152.62 195.551V195.801C152.62 196.648 152.497 197.433 152.25 198.157C152.004 198.881 151.646 199.515 151.175 200.058C150.712 200.594 150.151 201.013 149.492 201.318C148.84 201.614 148.102 201.763 147.277 201.763C146.451 201.763 145.709 201.614 145.05 201.318C144.391 201.013 143.827 200.594 143.356 200.058C142.893 199.515 142.538 198.881 142.292 198.157C142.046 197.433 141.923 196.648 141.923 195.801ZM143.932 195.551V195.801C143.932 196.387 144.001 196.941 144.138 197.462C144.276 197.976 144.482 198.432 144.757 198.831C145.039 199.229 145.391 199.544 145.81 199.775C146.23 200 146.719 200.112 147.277 200.112C147.827 200.112 148.308 200 148.721 199.775C149.141 199.544 149.488 199.229 149.763 198.831C150.039 198.432 150.245 197.976 150.382 197.462C150.527 196.941 150.6 196.387 150.6 195.801V195.551C150.6 194.972 150.527 194.425 150.382 193.911C150.245 193.39 150.035 192.93 149.753 192.532C149.477 192.126 149.13 191.808 148.71 191.576C148.297 191.345 147.812 191.229 147.255 191.229C146.705 191.229 146.22 191.345 145.8 191.576C145.387 191.808 145.039 192.126 144.757 192.532C144.482 192.93 144.276 193.39 144.138 193.911C144.001 194.425 143.932 194.972 143.932 195.551ZM157.148 192.304V201.546H155.139V189.795H157.04L157.148 192.304ZM156.67 195.225L155.834 195.193C155.841 194.389 155.961 193.647 156.192 192.966C156.424 192.279 156.75 191.681 157.17 191.174C157.59 190.668 158.089 190.277 158.669 190.002C159.255 189.719 159.903 189.578 160.612 189.578C161.192 189.578 161.713 189.658 162.176 189.817C162.64 189.969 163.034 190.215 163.36 190.555C163.693 190.896 163.946 191.337 164.12 191.88C164.294 192.416 164.381 193.071 164.381 193.846V201.546H162.361V193.824C162.361 193.209 162.27 192.717 162.089 192.347C161.908 191.971 161.644 191.699 161.297 191.533C160.949 191.359 160.522 191.272 160.015 191.272C159.516 191.272 159.059 191.377 158.647 191.587C158.241 191.797 157.89 192.087 157.593 192.456C157.304 192.825 157.076 193.249 156.909 193.727C156.75 194.197 156.67 194.697 156.67 195.225ZM172.135 200.112C172.613 200.112 173.054 200.014 173.46 199.819C173.865 199.623 174.198 199.356 174.459 199.015C174.719 198.668 174.868 198.273 174.904 197.832H176.815C176.779 198.527 176.544 199.175 176.109 199.775C175.682 200.369 175.121 200.851 174.426 201.22C173.731 201.582 172.967 201.763 172.135 201.763C171.251 201.763 170.48 201.607 169.822 201.296C169.17 200.985 168.627 200.557 168.193 200.014C167.765 199.471 167.443 198.849 167.226 198.146C167.016 197.437 166.911 196.688 166.911 195.898V195.442C166.911 194.653 167.016 193.908 167.226 193.205C167.443 192.496 167.765 191.869 168.193 191.326C168.627 190.783 169.17 190.356 169.822 190.045C170.48 189.734 171.251 189.578 172.135 189.578C173.054 189.578 173.858 189.766 174.546 190.143C175.233 190.512 175.773 191.019 176.164 191.663C176.562 192.3 176.779 193.024 176.815 193.835H174.904C174.868 193.35 174.73 192.912 174.491 192.521C174.26 192.13 173.941 191.819 173.536 191.587C173.137 191.348 172.67 191.229 172.135 191.229C171.519 191.229 171.002 191.352 170.582 191.598C170.169 191.837 169.84 192.163 169.594 192.575C169.355 192.981 169.181 193.433 169.072 193.933C168.971 194.425 168.92 194.928 168.92 195.442V195.898C168.92 196.413 168.971 196.919 169.072 197.419C169.174 197.918 169.344 198.371 169.583 198.776C169.829 199.182 170.158 199.508 170.571 199.754C170.991 199.993 171.512 200.112 172.135 200.112ZM183.95 201.763C183.132 201.763 182.39 201.625 181.724 201.35C181.065 201.068 180.497 200.673 180.019 200.166C179.548 199.66 179.186 199.059 178.933 198.364C178.68 197.669 178.553 196.908 178.553 196.083V195.627C178.553 194.671 178.694 193.821 178.976 193.075C179.259 192.322 179.643 191.685 180.128 191.164C180.613 190.642 181.163 190.248 181.778 189.98C182.394 189.712 183.031 189.578 183.69 189.578C184.529 189.578 185.253 189.723 185.862 190.012C186.477 190.302 186.98 190.707 187.371 191.229C187.762 191.743 188.052 192.351 188.24 193.053C188.428 193.748 188.522 194.508 188.522 195.334V196.235H179.747V194.595H186.513V194.443C186.484 193.922 186.376 193.415 186.187 192.923C186.006 192.431 185.717 192.025 185.319 191.707C184.92 191.388 184.377 191.229 183.69 191.229C183.233 191.229 182.814 191.326 182.43 191.522C182.046 191.71 181.717 191.993 181.442 192.369C181.167 192.746 180.953 193.205 180.801 193.748C180.649 194.291 180.573 194.917 180.573 195.627V196.083C180.573 196.641 180.649 197.165 180.801 197.658C180.96 198.143 181.188 198.57 181.485 198.939C181.789 199.308 182.155 199.598 182.582 199.808C183.016 200.018 183.509 200.123 184.059 200.123C184.768 200.123 185.369 199.978 185.862 199.689C186.354 199.399 186.785 199.012 187.154 198.527L188.37 199.493C188.117 199.877 187.795 200.242 187.404 200.59C187.013 200.937 186.531 201.22 185.959 201.437C185.395 201.654 184.725 201.763 183.95 201.763ZM203.878 185.712H204.052V187.417H203.878C202.814 187.417 201.923 187.591 201.207 187.938C200.49 188.278 199.921 188.738 199.502 189.317C199.082 189.889 198.778 190.534 198.589 191.25C198.408 191.967 198.318 192.695 198.318 193.433V195.757C198.318 196.46 198.401 197.082 198.568 197.625C198.734 198.161 198.962 198.613 199.252 198.983C199.541 199.352 199.867 199.631 200.229 199.819C200.598 200.007 200.982 200.101 201.38 200.101C201.844 200.101 202.256 200.014 202.618 199.841C202.98 199.66 203.284 199.41 203.531 199.091C203.784 198.765 203.976 198.382 204.106 197.94C204.236 197.498 204.302 197.013 204.302 196.485C204.302 196.014 204.244 195.562 204.128 195.127C204.012 194.686 203.835 194.295 203.596 193.955C203.357 193.607 203.056 193.336 202.694 193.14C202.34 192.937 201.916 192.836 201.424 192.836C200.866 192.836 200.345 192.974 199.86 193.249C199.382 193.517 198.987 193.871 198.676 194.313C198.372 194.747 198.198 195.222 198.155 195.736L197.091 195.725C197.192 194.914 197.38 194.222 197.655 193.65C197.938 193.071 198.285 192.601 198.698 192.239C199.118 191.869 199.585 191.602 200.099 191.435C200.62 191.261 201.17 191.174 201.75 191.174C202.539 191.174 203.219 191.323 203.791 191.62C204.363 191.917 204.834 192.315 205.203 192.814C205.572 193.307 205.844 193.864 206.017 194.487C206.198 195.102 206.289 195.736 206.289 196.387C206.289 197.133 206.184 197.832 205.974 198.483C205.764 199.135 205.449 199.707 205.029 200.199C204.617 200.691 204.106 201.075 203.498 201.35C202.89 201.625 202.184 201.763 201.38 201.763C200.526 201.763 199.78 201.589 199.143 201.242C198.506 200.887 197.978 200.416 197.558 199.83C197.138 199.243 196.823 198.592 196.613 197.875C196.403 197.158 196.298 196.431 196.298 195.692V194.747C196.298 193.632 196.41 192.539 196.635 191.468C196.859 190.396 197.246 189.426 197.797 188.557C198.354 187.688 199.125 186.997 200.11 186.483C201.094 185.969 202.35 185.712 203.878 185.712ZM219.332 189.795V191.337H212.979V189.795H219.332ZM215.129 186.939H217.138V198.635C217.138 199.033 217.199 199.334 217.323 199.537C217.446 199.739 217.605 199.873 217.8 199.938C217.996 200.003 218.206 200.036 218.43 200.036C218.597 200.036 218.771 200.022 218.952 199.993C219.14 199.956 219.281 199.927 219.375 199.906L219.386 201.546C219.227 201.596 219.017 201.643 218.756 201.687C218.503 201.737 218.195 201.763 217.833 201.763C217.341 201.763 216.888 201.665 216.475 201.47C216.063 201.274 215.733 200.948 215.487 200.492C215.248 200.029 215.129 199.406 215.129 198.624V186.939ZM228.877 198.831V189.795H230.897V201.546H228.975L228.877 198.831ZM229.257 196.355L230.094 196.333C230.094 197.115 230.01 197.839 229.844 198.505C229.685 199.164 229.424 199.736 229.062 200.221C228.7 200.706 228.226 201.086 227.639 201.361C227.053 201.629 226.34 201.763 225.5 201.763C224.928 201.763 224.403 201.68 223.925 201.513C223.455 201.346 223.049 201.089 222.709 200.742C222.369 200.394 222.104 199.942 221.916 199.384C221.735 198.827 221.645 198.157 221.645 197.375V189.795H223.654V197.397C223.654 197.926 223.712 198.364 223.828 198.711C223.951 199.051 224.114 199.323 224.316 199.526C224.526 199.721 224.758 199.859 225.011 199.938C225.272 200.018 225.54 200.058 225.815 200.058C226.669 200.058 227.346 199.895 227.846 199.569C228.345 199.236 228.704 198.791 228.921 198.233C229.145 197.669 229.257 197.042 229.257 196.355ZM235.969 191.641V201.546H233.96V189.795H235.915L235.969 191.641ZM239.64 189.73L239.629 191.598C239.462 191.562 239.303 191.54 239.151 191.533C239.006 191.518 238.84 191.511 238.651 191.511C238.188 191.511 237.779 191.583 237.424 191.728C237.069 191.873 236.769 192.076 236.523 192.336C236.277 192.597 236.081 192.908 235.936 193.27C235.799 193.625 235.708 194.016 235.665 194.443L235.1 194.769C235.1 194.06 235.169 193.393 235.306 192.771C235.451 192.148 235.672 191.598 235.969 191.12C236.266 190.635 236.642 190.259 237.098 189.991C237.562 189.716 238.112 189.578 238.749 189.578C238.894 189.578 239.06 189.596 239.249 189.632C239.437 189.661 239.567 189.694 239.64 189.73ZM243.506 192.304V201.546H241.497V189.795H243.397L243.506 192.304ZM243.028 195.225L242.192 195.193C242.199 194.389 242.318 193.647 242.55 192.966C242.782 192.279 243.107 191.681 243.527 191.174C243.947 190.668 244.447 190.277 245.026 190.002C245.612 189.719 246.26 189.578 246.97 189.578C247.549 189.578 248.07 189.658 248.534 189.817C248.997 189.969 249.392 190.215 249.717 190.555C250.05 190.896 250.304 191.337 250.478 191.88C250.651 192.416 250.738 193.071 250.738 193.846V201.546H248.718V193.824C248.718 193.209 248.628 192.717 248.447 192.347C248.266 191.971 248.002 191.699 247.654 191.533C247.307 191.359 246.879 191.272 246.373 191.272C245.873 191.272 245.417 191.377 245.004 191.587C244.599 191.797 244.248 192.087 243.951 192.456C243.661 192.825 243.433 193.249 243.267 193.727C243.107 194.197 243.028 194.697 243.028 195.225ZM260.632 198.429C260.632 198.139 260.566 197.871 260.436 197.625C260.313 197.372 260.056 197.144 259.665 196.941C259.281 196.731 258.702 196.55 257.927 196.398C257.276 196.26 256.686 196.098 256.157 195.909C255.636 195.721 255.191 195.493 254.822 195.225C254.46 194.957 254.181 194.642 253.985 194.28C253.79 193.918 253.692 193.495 253.692 193.01C253.692 192.546 253.793 192.108 253.996 191.696C254.206 191.283 254.499 190.917 254.876 190.599C255.26 190.28 255.719 190.031 256.255 189.85C256.791 189.669 257.388 189.578 258.047 189.578C258.988 189.578 259.792 189.745 260.458 190.078C261.124 190.411 261.634 190.856 261.989 191.413C262.344 191.964 262.521 192.575 262.521 193.249H260.512C260.512 192.923 260.414 192.608 260.219 192.304C260.031 191.993 259.752 191.736 259.383 191.533C259.021 191.33 258.575 191.229 258.047 191.229C257.489 191.229 257.037 191.316 256.689 191.489C256.349 191.656 256.099 191.869 255.94 192.13C255.788 192.391 255.712 192.666 255.712 192.955C255.712 193.173 255.748 193.368 255.821 193.542C255.9 193.708 256.038 193.864 256.233 194.009C256.429 194.146 256.704 194.277 257.059 194.4C257.413 194.523 257.866 194.646 258.416 194.769C259.379 194.986 260.172 195.247 260.794 195.551C261.417 195.855 261.88 196.228 262.185 196.67C262.489 197.111 262.641 197.647 262.641 198.277C262.641 198.791 262.532 199.261 262.315 199.689C262.105 200.116 261.797 200.485 261.392 200.796C260.994 201.1 260.516 201.339 259.958 201.513C259.408 201.68 258.789 201.763 258.101 201.763C257.066 201.763 256.19 201.578 255.473 201.209C254.756 200.84 254.213 200.362 253.844 199.775C253.475 199.189 253.29 198.57 253.29 197.918H255.31C255.339 198.469 255.498 198.907 255.788 199.232C256.078 199.551 256.432 199.779 256.852 199.917C257.272 200.047 257.689 200.112 258.101 200.112C258.651 200.112 259.111 200.04 259.48 199.895C259.857 199.75 260.143 199.551 260.338 199.298C260.534 199.044 260.632 198.755 260.632 198.429ZM272.805 184.865V201.546H270.796V184.865H272.805ZM272.328 195.225L271.491 195.193C271.499 194.389 271.618 193.647 271.85 192.966C272.081 192.279 272.407 191.681 272.827 191.174C273.247 190.668 273.747 190.277 274.326 190.002C274.912 189.719 275.56 189.578 276.27 189.578C276.849 189.578 277.37 189.658 277.834 189.817C278.297 189.969 278.691 190.215 279.017 190.555C279.35 190.896 279.604 191.337 279.777 191.88C279.951 192.416 280.038 193.071 280.038 193.846V201.546H278.018V193.824C278.018 193.209 277.928 192.717 277.747 192.347C277.566 191.971 277.301 191.699 276.954 191.533C276.606 191.359 276.179 191.272 275.672 191.272C275.173 191.272 274.717 191.377 274.304 191.587C273.899 191.797 273.548 192.087 273.251 192.456C272.961 192.825 272.733 193.249 272.567 193.727C272.407 194.197 272.328 194.697 272.328 195.225ZM289.975 199.537V193.488C289.975 193.024 289.881 192.622 289.693 192.282C289.512 191.935 289.236 191.667 288.867 191.479C288.498 191.29 288.042 191.196 287.499 191.196C286.992 191.196 286.547 191.283 286.163 191.457C285.787 191.631 285.49 191.859 285.273 192.141C285.063 192.423 284.958 192.727 284.958 193.053H282.949C282.949 192.633 283.057 192.217 283.274 191.804C283.492 191.392 283.803 191.019 284.208 190.686C284.621 190.345 285.113 190.078 285.685 189.882C286.264 189.679 286.909 189.578 287.618 189.578C288.473 189.578 289.226 189.723 289.877 190.012C290.536 190.302 291.05 190.74 291.419 191.326C291.796 191.906 291.984 192.633 291.984 193.509V198.983C291.984 199.374 292.017 199.79 292.082 200.232C292.154 200.673 292.259 201.053 292.397 201.372V201.546H290.301C290.199 201.314 290.12 201.006 290.062 200.623C290.004 200.232 289.975 199.87 289.975 199.537ZM290.322 194.422L290.344 195.833H288.313C287.741 195.833 287.231 195.88 286.782 195.974C286.333 196.061 285.957 196.195 285.653 196.376C285.349 196.557 285.117 196.785 284.958 197.06C284.798 197.328 284.719 197.643 284.719 198.005C284.719 198.375 284.802 198.711 284.968 199.015C285.135 199.319 285.385 199.562 285.718 199.743C286.058 199.917 286.474 200.003 286.967 200.003C287.582 200.003 288.125 199.873 288.596 199.613C289.066 199.352 289.439 199.033 289.714 198.657C289.997 198.28 290.149 197.915 290.17 197.56L291.028 198.527C290.978 198.831 290.84 199.167 290.616 199.537C290.391 199.906 290.091 200.261 289.714 200.601C289.345 200.934 288.903 201.213 288.389 201.437C287.883 201.654 287.311 201.763 286.673 201.763C285.877 201.763 285.178 201.607 284.578 201.296C283.984 200.985 283.52 200.568 283.187 200.047C282.862 199.518 282.699 198.928 282.699 198.277C282.699 197.647 282.822 197.093 283.068 196.615C283.314 196.13 283.669 195.728 284.132 195.41C284.596 195.084 285.153 194.838 285.805 194.671C286.456 194.505 287.184 194.422 287.988 194.422H290.322ZM298.543 199.732L301.758 189.795H303.81L299.586 201.546H298.239L298.543 199.732ZM295.861 189.795L299.173 199.786L299.401 201.546H298.055L293.798 189.795H295.861ZM310.467 201.763C309.649 201.763 308.907 201.625 308.241 201.35C307.582 201.068 307.014 200.673 306.536 200.166C306.066 199.66 305.704 199.059 305.45 198.364C305.197 197.669 305.07 196.908 305.07 196.083V195.627C305.07 194.671 305.211 193.821 305.494 193.075C305.776 192.322 306.16 191.685 306.645 191.164C307.13 190.642 307.68 190.248 308.295 189.98C308.911 189.712 309.548 189.578 310.207 189.578C311.047 189.578 311.771 189.723 312.379 190.012C312.994 190.302 313.497 190.707 313.888 191.229C314.279 191.743 314.569 192.351 314.757 193.053C314.945 193.748 315.039 194.508 315.039 195.334V196.235H306.265V194.595H313.03V194.443C313.001 193.922 312.893 193.415 312.705 192.923C312.524 192.431 312.234 192.025 311.836 191.707C311.438 191.388 310.895 191.229 310.207 191.229C309.751 191.229 309.331 191.326 308.947 191.522C308.563 191.71 308.234 191.993 307.959 192.369C307.684 192.746 307.47 193.205 307.318 193.748C307.166 194.291 307.09 194.917 307.09 195.627V196.083C307.09 196.641 307.166 197.165 307.318 197.658C307.477 198.143 307.705 198.57 308.002 198.939C308.306 199.308 308.672 199.598 309.099 199.808C309.533 200.018 310.026 200.123 310.576 200.123C311.286 200.123 311.886 199.978 312.379 199.689C312.871 199.399 313.302 199.012 313.671 198.527L314.887 199.493C314.634 199.877 314.312 200.242 313.921 200.59C313.53 200.937 313.048 201.22 312.476 201.437C311.912 201.654 311.242 201.763 310.467 201.763ZM28.9586 227.054V241.063H26.9387V224.795H28.7848L28.9586 227.054ZM36.8754 230.573V230.801C36.8754 231.655 36.774 232.448 36.5713 233.179C36.3686 233.903 36.0718 234.533 35.6808 235.069C35.2971 235.604 34.8229 236.021 34.2582 236.318C33.6935 236.614 33.0455 236.763 32.3143 236.763C31.5686 236.763 30.9097 236.64 30.3378 236.394C29.7658 236.147 29.2808 235.789 28.8826 235.318C28.4844 234.848 28.1658 234.283 27.9269 233.624C27.6952 232.965 27.5359 232.223 27.4491 231.398V230.182C27.5359 229.313 27.6988 228.535 27.9378 227.847C28.1767 227.159 28.4916 226.573 28.8826 226.088C29.2808 225.595 29.7622 225.222 30.3269 224.969C30.8916 224.708 31.5432 224.578 32.2817 224.578C33.0202 224.578 33.6754 224.723 34.2473 225.012C34.8193 225.295 35.3007 225.7 35.6917 226.229C36.0826 226.757 36.3759 227.391 36.5713 228.129C36.774 228.86 36.8754 229.675 36.8754 230.573ZM34.8555 230.801V230.573C34.8555 229.986 34.7939 229.436 34.6709 228.922C34.5478 228.401 34.3559 227.945 34.0953 227.554C33.8419 227.155 33.5161 226.844 33.1179 226.62C32.7197 226.388 32.2455 226.272 31.6953 226.272C31.1885 226.272 30.7468 226.359 30.3704 226.533C30.0011 226.707 29.6862 226.942 29.4256 227.239C29.1649 227.528 28.9513 227.861 28.7848 228.238C28.6255 228.607 28.5061 228.991 28.4265 229.389V232.202C28.5712 232.708 28.774 233.186 29.0346 233.635C29.2952 234.077 29.6428 234.435 30.0771 234.71C30.5115 234.978 31.0582 235.112 31.717 235.112C32.26 235.112 32.7269 235 33.1179 234.775C33.5161 234.544 33.8419 234.229 34.0953 233.831C34.3559 233.432 34.5478 232.976 34.6709 232.462C34.7939 231.941 34.8555 231.387 34.8555 230.801ZM46.3669 234.537V228.488C46.3669 228.024 46.2728 227.622 46.0846 227.282C45.9036 226.935 45.6284 226.667 45.2592 226.479C44.89 226.29 44.4339 226.196 43.8909 226.196C43.3841 226.196 42.9388 226.283 42.5551 226.457C42.1786 226.631 41.8818 226.859 41.6646 227.141C41.4546 227.423 41.3497 227.727 41.3497 228.053H39.3406C39.3406 227.633 39.4492 227.217 39.6664 226.804C39.8836 226.392 40.1949 226.019 40.6003 225.686C41.013 225.345 41.5053 225.078 42.0773 224.882C42.6565 224.679 43.3008 224.578 44.0103 224.578C44.8646 224.578 45.6176 224.723 46.2692 225.012C46.928 225.302 47.442 225.74 47.8113 226.326C48.1877 226.906 48.376 227.633 48.376 228.509V233.983C48.376 234.374 48.4086 234.79 48.4737 235.232C48.5461 235.673 48.6511 236.053 48.7887 236.372V236.546H46.6927C46.5913 236.314 46.5117 236.006 46.4538 235.623C46.3959 235.232 46.3669 234.87 46.3669 234.537ZM46.7144 229.422L46.7361 230.833H44.7054C44.1334 230.833 43.623 230.88 43.1741 230.974C42.7252 231.061 42.3488 231.195 42.0447 231.376C41.7406 231.557 41.5089 231.785 41.3497 232.06C41.1904 232.328 41.1107 232.643 41.1107 233.005C41.1107 233.375 41.194 233.711 41.3605 234.015C41.527 234.319 41.7768 234.562 42.1099 234.743C42.4501 234.917 42.8664 235.003 43.3587 235.003C43.9741 235.003 44.5171 234.873 44.9877 234.613C45.4583 234.352 45.8312 234.033 46.1063 233.657C46.3886 233.28 46.5407 232.915 46.5624 232.56L47.4203 233.527C47.3696 233.831 47.2321 234.167 47.0076 234.537C46.7832 234.906 46.4827 235.261 46.1063 235.601C45.737 235.934 45.2954 236.213 44.7814 236.437C44.2746 236.654 43.7026 236.763 43.0655 236.763C42.2691 236.763 41.5705 236.607 40.9696 236.296C40.3759 235.985 39.9125 235.568 39.5795 235.047C39.2537 234.518 39.0908 233.928 39.0908 233.277C39.0908 232.647 39.2139 232.093 39.46 231.615C39.7062 231.13 40.061 230.728 40.5243 230.41C40.9877 230.084 41.5451 229.838 42.1967 229.671C42.8483 229.505 43.5759 229.422 44.3796 229.422H46.7144ZM58.3779 233.429C58.3779 233.139 58.3127 232.871 58.1824 232.625C58.0593 232.372 57.8023 232.144 57.4114 231.941C57.0277 231.731 56.4485 231.55 55.6738 231.398C55.0222 231.26 54.4322 231.098 53.9036 230.909C53.3824 230.721 52.9371 230.493 52.5679 230.225C52.2059 229.957 51.9271 229.642 51.7317 229.28C51.5362 228.918 51.4385 228.495 51.4385 228.01C51.4385 227.546 51.5398 227.108 51.7425 226.696C51.9525 226.283 52.2457 225.917 52.6222 225.599C53.0059 225.28 53.4656 225.031 54.0014 224.85C54.5371 224.669 55.1344 224.578 55.7933 224.578C56.7344 224.578 57.5381 224.745 58.2041 225.078C58.8702 225.411 59.3806 225.856 59.7354 226.413C60.0901 226.964 60.2675 227.575 60.2675 228.249H58.2584C58.2584 227.923 58.1607 227.608 57.9652 227.304C57.777 226.993 57.4982 226.736 57.129 226.533C56.767 226.33 56.3218 226.229 55.7933 226.229C55.2358 226.229 54.7833 226.316 54.4358 226.489C54.0955 226.656 53.8457 226.869 53.6864 227.13C53.5344 227.391 53.4584 227.666 53.4584 227.955C53.4584 228.173 53.4946 228.368 53.567 228.542C53.6466 228.708 53.7842 228.864 53.9797 229.009C54.1751 229.146 54.4503 229.277 54.805 229.4C55.1598 229.523 55.6123 229.646 56.1625 229.769C57.1254 229.986 57.9182 230.247 58.5408 230.551C59.1634 230.855 59.6268 231.228 59.9309 231.67C60.2349 232.111 60.387 232.647 60.387 233.277C60.387 233.791 60.2784 234.261 60.0612 234.689C59.8512 235.116 59.5435 235.485 59.1381 235.796C58.7399 236.1 58.2621 236.339 57.7046 236.513C57.1544 236.68 56.5353 236.763 55.8476 236.763C54.8122 236.763 53.9362 236.578 53.2195 236.209C52.5027 235.84 51.9597 235.362 51.5905 234.775C51.2213 234.189 51.0366 233.57 51.0366 232.918H53.0566C53.0855 233.469 53.2448 233.907 53.5344 234.232C53.824 234.551 54.1788 234.779 54.5987 234.917C55.0186 235.047 55.4349 235.112 55.8476 235.112C56.3978 235.112 56.8575 235.04 57.2267 234.895C57.6032 234.75 57.8892 234.551 58.0847 234.298C58.2802 234.044 58.3779 233.755 58.3779 233.429ZM69.8676 233.429C69.8676 233.139 69.8024 232.871 69.6721 232.625C69.549 232.372 69.292 232.144 68.9011 231.941C68.5174 231.731 67.9382 231.55 67.1635 231.398C66.5119 231.26 65.9219 231.098 65.3934 230.909C64.8721 230.721 64.4268 230.493 64.0576 230.225C63.6956 229.957 63.4169 229.642 63.2214 229.28C63.0259 228.918 62.9282 228.495 62.9282 228.01C62.9282 227.546 63.0295 227.108 63.2322 226.696C63.4422 226.283 63.7354 225.917 64.1119 225.599C64.4956 225.28 64.9553 225.031 65.4911 224.85C66.0268 224.669 66.6241 224.578 67.283 224.578C68.2241 224.578 69.0278 224.745 69.6938 225.078C70.3599 225.411 70.8703 225.856 71.2251 226.413C71.5798 226.964 71.7572 227.575 71.7572 228.249H69.7481C69.7481 227.923 69.6504 227.608 69.4549 227.304C69.2667 226.993 68.988 226.736 68.6187 226.533C68.2567 226.33 67.8115 226.229 67.283 226.229C66.7255 226.229 66.273 226.316 65.9255 226.489C65.5852 226.656 65.3354 226.869 65.1762 227.13C65.0241 227.391 64.9481 227.666 64.9481 227.955C64.9481 228.173 64.9843 228.368 65.0567 228.542C65.1363 228.708 65.2739 228.864 65.4694 229.009C65.6648 229.146 65.94 229.277 66.2947 229.4C66.6495 229.523 67.102 229.646 67.6522 229.769C68.6151 229.986 69.4079 230.247 70.0305 230.551C70.6531 230.855 71.1165 231.228 71.4206 231.67C71.7246 232.111 71.8767 232.647 71.8767 233.277C71.8767 233.791 71.7681 234.261 71.5509 234.689C71.3409 235.116 71.0332 235.485 70.6278 235.796C70.2296 236.1 69.7518 236.339 69.1943 236.513C68.6441 236.68 68.0251 236.763 67.3373 236.763C66.302 236.763 65.4259 236.578 64.7092 236.209C63.9924 235.84 63.4494 235.362 63.0802 234.775C62.711 234.189 62.5264 233.57 62.5264 232.918H64.5463C64.5752 233.469 64.7345 233.907 65.0241 234.232C65.3137 234.551 65.6685 234.779 66.0884 234.917C66.5083 235.047 66.9246 235.112 67.3373 235.112C67.8875 235.112 68.3472 235.04 68.7165 234.895C69.0929 234.75 69.3789 234.551 69.5744 234.298C69.7699 234.044 69.8676 233.755 69.8676 233.429ZM79.3917 236.763C78.5736 236.763 77.8315 236.625 77.1654 236.35C76.5066 236.068 75.9383 235.673 75.4604 235.166C74.9898 234.66 74.6278 234.059 74.3744 233.364C74.121 232.669 73.9943 231.908 73.9943 231.083V230.627C73.9943 229.671 74.1355 228.821 74.4179 228.075C74.7002 227.322 75.084 226.685 75.569 226.164C76.0541 225.642 76.6043 225.248 77.2197 224.98C77.8351 224.712 78.4722 224.578 79.1311 224.578C79.9709 224.578 80.6949 224.723 81.303 225.012C81.9184 225.302 82.4216 225.707 82.8125 226.229C83.2035 226.743 83.4931 227.351 83.6813 228.053C83.8696 228.748 83.9637 229.508 83.9637 230.334V231.235H75.1889V229.595H81.9546V229.443C81.9257 228.922 81.8171 228.415 81.6288 227.923C81.4478 227.431 81.1582 227.025 80.76 226.707C80.3618 226.388 79.8188 226.229 79.1311 226.229C78.6749 226.229 78.255 226.326 77.8713 226.522C77.4876 226.71 77.1582 226.993 76.8831 227.369C76.6079 227.746 76.3944 228.205 76.2423 228.748C76.0903 229.291 76.0143 229.917 76.0143 230.627V231.083C76.0143 231.641 76.0903 232.165 76.2423 232.658C76.4016 233.143 76.6297 233.57 76.9265 233.939C77.2306 234.308 77.5962 234.598 78.0233 234.808C78.4577 235.018 78.9501 235.123 79.5003 235.123C80.2098 235.123 80.8107 234.978 81.303 234.689C81.7953 234.399 82.2261 234.012 82.5953 233.527L83.8116 234.493C83.5582 234.877 83.2361 235.242 82.8451 235.59C82.4542 235.937 81.9727 236.22 81.4008 236.437C80.836 236.654 80.1664 236.763 79.3917 236.763ZM93.7158 234.265V219.865H95.7357V236.546H93.8896L93.7158 234.265ZM85.8099 230.801V230.573C85.8099 229.675 85.9185 228.86 86.1356 228.129C86.3601 227.391 86.675 226.757 87.0805 226.229C87.4931 225.7 87.9818 225.295 88.5465 225.012C89.1185 224.723 89.7556 224.578 90.4579 224.578C91.1963 224.578 91.8407 224.708 92.3909 224.969C92.9484 225.222 93.419 225.595 93.8027 226.088C94.1937 226.573 94.5013 227.159 94.7258 227.847C94.9502 228.535 95.1059 229.313 95.1928 230.182V231.181C95.1131 232.042 94.9575 232.817 94.7258 233.505C94.5013 234.193 94.1937 234.779 93.8027 235.264C93.419 235.749 92.9484 236.122 92.3909 236.383C91.8334 236.636 91.1819 236.763 90.4361 236.763C89.7484 236.763 89.1185 236.614 88.5465 236.318C87.9818 236.021 87.4931 235.604 87.0805 235.069C86.675 234.533 86.3601 233.903 86.1356 233.179C85.9185 232.448 85.8099 231.655 85.8099 230.801ZM87.8298 230.573V230.801C87.8298 231.387 87.8877 231.937 88.0035 232.451C88.1266 232.965 88.3149 233.418 88.5683 233.809C88.8216 234.2 89.1438 234.508 89.5348 234.732C89.9257 234.949 90.3927 235.058 90.9357 235.058C91.6018 235.058 92.1484 234.917 92.5755 234.634C93.0099 234.352 93.3574 233.979 93.6181 233.516C93.8787 233.052 94.0814 232.549 94.2262 232.006V229.389C94.1394 228.991 94.0127 228.607 93.8461 228.238C93.6869 227.861 93.4769 227.528 93.2163 227.239C92.9629 226.942 92.6479 226.707 92.2715 226.533C91.9022 226.359 91.4642 226.272 90.9574 226.272C90.4072 226.272 89.933 226.388 89.5348 226.62C89.1438 226.844 88.8216 227.155 88.5683 227.554C88.3149 227.945 88.1266 228.401 88.0035 228.922C87.8877 229.436 87.8298 229.986 87.8298 230.573ZM106.563 224.795V236.546H104.543V224.795H106.563ZM104.391 221.678C104.391 221.353 104.489 221.078 104.684 220.853C104.887 220.629 105.184 220.516 105.575 220.516C105.958 220.516 106.252 220.629 106.454 220.853C106.664 221.078 106.769 221.353 106.769 221.678C106.769 221.99 106.664 222.258 106.454 222.482C106.252 222.699 105.958 222.808 105.575 222.808C105.184 222.808 104.887 222.699 104.684 222.482C104.489 222.258 104.391 221.99 104.391 221.678ZM111.797 227.304V236.546H109.788V224.795H111.689L111.797 227.304ZM111.32 230.225L110.483 230.193C110.491 229.389 110.61 228.647 110.842 227.966C111.073 227.279 111.399 226.681 111.819 226.174C112.239 225.668 112.739 225.277 113.318 225.002C113.904 224.719 114.552 224.578 115.262 224.578C115.841 224.578 116.362 224.658 116.826 224.817C117.289 224.969 117.683 225.215 118.009 225.555C118.342 225.896 118.596 226.337 118.769 226.88C118.943 227.416 119.03 228.071 119.03 228.846V236.546H117.01V228.824C117.01 228.209 116.92 227.717 116.739 227.347C116.558 226.971 116.293 226.699 115.946 226.533C115.598 226.359 115.171 226.272 114.664 226.272C114.165 226.272 113.709 226.377 113.296 226.587C112.891 226.797 112.54 227.087 112.243 227.456C111.953 227.825 111.725 228.249 111.559 228.727C111.399 229.197 111.32 229.697 111.32 230.225ZM132.518 224.795V226.337H126.165V224.795H132.518ZM128.315 221.939H130.324V233.635C130.324 234.033 130.386 234.334 130.509 234.537C130.632 234.739 130.791 234.873 130.987 234.938C131.182 235.003 131.392 235.036 131.617 235.036C131.783 235.036 131.957 235.022 132.138 234.993C132.326 234.956 132.467 234.927 132.561 234.906L132.572 236.546C132.413 236.596 132.203 236.643 131.942 236.687C131.689 236.737 131.381 236.763 131.019 236.763C130.527 236.763 130.075 236.665 129.662 236.47C129.249 236.274 128.92 235.948 128.674 235.492C128.435 235.029 128.315 234.406 128.315 233.624V221.939ZM136.884 219.865V236.546H134.875V219.865H136.884ZM136.406 230.225L135.57 230.193C135.577 229.389 135.696 228.647 135.928 227.966C136.16 227.279 136.485 226.681 136.905 226.174C137.325 225.668 137.825 225.277 138.404 225.002C138.991 224.719 139.638 224.578 140.348 224.578C140.927 224.578 141.448 224.658 141.912 224.817C142.375 224.969 142.77 225.215 143.096 225.555C143.429 225.896 143.682 226.337 143.856 226.88C144.029 227.416 144.116 228.071 144.116 228.846V236.546H142.096V228.824C142.096 228.209 142.006 227.717 141.825 227.347C141.644 226.971 141.38 226.699 141.032 226.533C140.685 226.359 140.257 226.272 139.751 226.272C139.251 226.272 138.795 226.377 138.382 226.587C137.977 226.797 137.626 227.087 137.329 227.456C137.039 227.825 136.811 228.249 136.645 228.727C136.485 229.197 136.406 229.697 136.406 230.225ZM152.001 236.763C151.182 236.763 150.44 236.625 149.774 236.35C149.115 236.068 148.547 235.673 148.069 235.166C147.599 234.66 147.237 234.059 146.983 233.364C146.73 232.669 146.603 231.908 146.603 231.083V230.627C146.603 229.671 146.744 228.821 147.027 228.075C147.309 227.322 147.693 226.685 148.178 226.164C148.663 225.642 149.213 225.248 149.829 224.98C150.444 224.712 151.081 224.578 151.74 224.578C152.58 224.578 153.304 224.723 153.912 225.012C154.527 225.302 155.03 225.707 155.421 226.229C155.812 226.743 156.102 227.351 156.29 228.053C156.478 228.748 156.573 229.508 156.573 230.334V231.235H147.798V229.595H154.564V229.443C154.535 228.922 154.426 228.415 154.238 227.923C154.057 227.431 153.767 227.025 153.369 226.707C152.971 226.388 152.428 226.229 151.74 226.229C151.284 226.229 150.864 226.326 150.48 226.522C150.096 226.71 149.767 226.993 149.492 227.369C149.217 227.746 149.003 228.205 148.851 228.748C148.699 229.291 148.623 229.917 148.623 230.627V231.083C148.623 231.641 148.699 232.165 148.851 232.658C149.011 233.143 149.239 233.57 149.535 233.939C149.839 234.308 150.205 234.598 150.632 234.808C151.067 235.018 151.559 235.123 152.109 235.123C152.819 235.123 153.42 234.978 153.912 234.689C154.404 234.399 154.835 234.012 155.204 233.527L156.421 234.493C156.167 234.877 155.845 235.242 155.454 235.59C155.063 235.937 154.582 236.22 154.01 236.437C153.445 236.654 152.775 236.763 152.001 236.763ZM166.433 227.13V236.546H164.413V224.795H166.325L166.433 227.13ZM166.021 230.225L165.087 230.193C165.094 229.389 165.199 228.647 165.402 227.966C165.604 227.279 165.905 226.681 166.303 226.174C166.701 225.668 167.197 225.277 167.791 225.002C168.384 224.719 169.072 224.578 169.854 224.578C170.404 224.578 170.911 224.658 171.375 224.817C171.838 224.969 172.24 225.212 172.58 225.545C172.92 225.878 173.185 226.305 173.373 226.826C173.561 227.347 173.655 227.977 173.655 228.716V236.546H171.646V228.813C171.646 228.198 171.541 227.706 171.331 227.336C171.128 226.967 170.839 226.699 170.462 226.533C170.086 226.359 169.644 226.272 169.137 226.272C168.544 226.272 168.048 226.377 167.65 226.587C167.251 226.797 166.933 227.087 166.694 227.456C166.455 227.825 166.281 228.249 166.173 228.727C166.071 229.197 166.021 229.697 166.021 230.225ZM173.633 229.117L172.287 229.53C172.294 228.886 172.399 228.267 172.602 227.673C172.812 227.079 173.112 226.551 173.503 226.088C173.901 225.624 174.39 225.259 174.969 224.991C175.548 224.716 176.211 224.578 176.957 224.578C177.586 224.578 178.144 224.661 178.629 224.828C179.121 224.994 179.534 225.251 179.867 225.599C180.207 225.939 180.464 226.377 180.638 226.913C180.812 227.449 180.899 228.086 180.899 228.824V236.546H178.879V228.803C178.879 228.144 178.774 227.633 178.564 227.271C178.361 226.902 178.071 226.645 177.695 226.5C177.326 226.348 176.884 226.272 176.37 226.272C175.928 226.272 175.537 226.348 175.197 226.5C174.857 226.652 174.571 226.862 174.339 227.13C174.108 227.391 173.93 227.691 173.807 228.031C173.691 228.372 173.633 228.734 173.633 229.117ZM190.868 234.537V228.488C190.868 228.024 190.774 227.622 190.586 227.282C190.405 226.935 190.129 226.667 189.76 226.479C189.391 226.29 188.935 226.196 188.392 226.196C187.885 226.196 187.44 226.283 187.056 226.457C186.68 226.631 186.383 226.859 186.166 227.141C185.956 227.423 185.851 227.727 185.851 228.053H183.842C183.842 227.633 183.95 227.217 184.167 226.804C184.385 226.392 184.696 226.019 185.101 225.686C185.514 225.345 186.006 225.078 186.578 224.882C187.158 224.679 187.802 224.578 188.511 224.578C189.366 224.578 190.119 224.723 190.77 225.012C191.429 225.302 191.943 225.74 192.312 226.326C192.689 226.906 192.877 227.633 192.877 228.509V233.983C192.877 234.374 192.91 234.79 192.975 235.232C193.047 235.673 193.152 236.053 193.29 236.372V236.546H191.194C191.092 236.314 191.013 236.006 190.955 235.623C190.897 235.232 190.868 234.87 190.868 234.537ZM191.215 229.422L191.237 230.833H189.206C188.634 230.833 188.124 230.88 187.675 230.974C187.226 231.061 186.85 231.195 186.546 231.376C186.242 231.557 186.01 231.785 185.851 232.06C185.691 232.328 185.612 232.643 185.612 233.005C185.612 233.375 185.695 233.711 185.862 234.015C186.028 234.319 186.278 234.562 186.611 234.743C186.951 234.917 187.367 235.003 187.86 235.003C188.475 235.003 189.018 234.873 189.489 234.613C189.959 234.352 190.332 234.033 190.607 233.657C190.89 233.28 191.042 232.915 191.063 232.56L191.921 233.527C191.871 233.831 191.733 234.167 191.509 234.537C191.284 234.906 190.984 235.261 190.607 235.601C190.238 235.934 189.796 236.213 189.282 236.437C188.776 236.654 188.204 236.763 187.567 236.763C186.77 236.763 186.072 236.607 185.471 236.296C184.877 235.985 184.414 235.568 184.081 235.047C183.755 234.518 183.592 233.928 183.592 233.277C183.592 232.647 183.715 232.093 183.961 231.615C184.207 231.13 184.562 230.728 185.025 230.41C185.489 230.084 186.046 229.838 186.698 229.671C187.349 229.505 188.077 229.422 188.881 229.422H191.215ZM200.957 224.795V226.337H194.604V224.795H200.957ZM196.754 221.939H198.763V233.635C198.763 234.033 198.825 234.334 198.948 234.537C199.071 234.739 199.23 234.873 199.426 234.938C199.621 235.003 199.831 235.036 200.055 235.036C200.222 235.036 200.396 235.022 200.577 234.993C200.765 234.956 200.906 234.927 201 234.906L201.011 236.546C200.852 236.596 200.642 236.643 200.381 236.687C200.128 236.737 199.82 236.763 199.458 236.763C198.966 236.763 198.513 236.665 198.101 236.47C197.688 236.274 197.359 235.948 197.112 235.492C196.873 235.029 196.754 234.406 196.754 233.624V221.939ZM208.016 235.112C208.493 235.112 208.935 235.014 209.341 234.819C209.746 234.623 210.079 234.356 210.34 234.015C210.6 233.668 210.749 233.273 210.785 232.832H212.696C212.66 233.527 212.425 234.175 211.99 234.775C211.563 235.369 211.002 235.851 210.307 236.22C209.612 236.582 208.848 236.763 208.016 236.763C207.132 236.763 206.361 236.607 205.703 236.296C205.051 235.985 204.508 235.557 204.074 235.014C203.646 234.471 203.324 233.849 203.107 233.146C202.897 232.437 202.792 231.688 202.792 230.898V230.442C202.792 229.653 202.897 228.908 203.107 228.205C203.324 227.496 203.646 226.869 204.074 226.326C204.508 225.783 205.051 225.356 205.703 225.045C206.361 224.734 207.132 224.578 208.016 224.578C208.935 224.578 209.739 224.766 210.427 225.143C211.114 225.512 211.654 226.019 212.045 226.663C212.443 227.3 212.66 228.024 212.696 228.835H210.785C210.749 228.35 210.611 227.912 210.372 227.521C210.141 227.13 209.822 226.819 209.417 226.587C209.018 226.348 208.551 226.229 208.016 226.229C207.4 226.229 206.883 226.352 206.463 226.598C206.05 226.837 205.721 227.163 205.474 227.575C205.236 227.981 205.062 228.433 204.953 228.933C204.852 229.425 204.801 229.928 204.801 230.442V230.898C204.801 231.413 204.852 231.919 204.953 232.419C205.055 232.918 205.225 233.371 205.464 233.776C205.71 234.182 206.039 234.508 206.452 234.754C206.872 234.993 207.393 235.112 208.016 235.112ZM216.964 219.865V236.546H214.955V219.865H216.964ZM216.486 230.225L215.65 230.193C215.657 229.389 215.777 228.647 216.008 227.966C216.24 227.279 216.566 226.681 216.986 226.174C217.406 225.668 217.905 225.277 218.485 225.002C219.071 224.719 219.719 224.578 220.428 224.578C221.008 224.578 221.529 224.658 221.992 224.817C222.456 224.969 222.85 225.215 223.176 225.555C223.509 225.896 223.762 226.337 223.936 226.88C224.11 227.416 224.197 228.071 224.197 228.846V236.546H222.177V228.824C222.177 228.209 222.086 227.717 221.905 227.347C221.724 226.971 221.46 226.699 221.113 226.533C220.765 226.359 220.338 226.272 219.831 226.272C219.332 226.272 218.875 226.377 218.463 226.587C218.057 226.797 217.706 227.087 217.409 227.456C217.12 227.825 216.892 228.249 216.725 228.727C216.566 229.197 216.486 229.697 216.486 230.225ZM227.238 235.481C227.238 235.141 227.343 234.855 227.553 234.623C227.77 234.384 228.081 234.265 228.486 234.265C228.892 234.265 229.2 234.384 229.41 234.623C229.627 234.855 229.735 235.141 229.735 235.481C229.735 235.814 229.627 236.097 229.41 236.328C229.2 236.56 228.892 236.676 228.486 236.676C228.081 236.676 227.77 236.56 227.553 236.328C227.343 236.097 227.238 235.814 227.238 235.481Z" fill="black" fill-opacity="0.45"/>
</g>
<rect x="0.79432" y="0.79432" width="379.411" height="270.411" rx="2.38296" stroke="#F0F0F0" stroke-width="1.58864"/>
<defs>
<clipPath id="clip0_3_4944">
<rect width="381" height="272" rx="3.17728" fill="white"/>
</clipPath>
</defs>
</svg>
