<svg width="50" height="50" viewBox="0 0 50 50" fill="none" xmlns="http://www.w3.org/2000/svg">
<rect width="49.5122" height="49.5122" rx="24.7561" fill="black"/>
<g clip-path="url(#clip0_564_17344)">
<path d="M12.9264 39.3511L27.5589 23.2786L28.3089 24.0267C28.9013 24.6167 29.6887 24.9701 30.5232 25.0205C30.5357 25.0501 30.5501 25.0789 30.5664 25.1067L32.4526 28.1236C32.6928 28.3206 32.9969 28.4226 33.3073 28.4102C33.6177 28.3977 33.9127 28.2717 34.1364 28.0561L39.3976 22.808C39.6133 22.5852 39.7395 22.2907 39.7519 21.9809C39.7644 21.671 39.6623 21.3674 39.4651 21.128L36.4389 19.2455L36.3526 19.2042C36.302 18.398 35.9701 17.6067 35.357 16.9955L32.4939 14.1417C31.8807 13.5286 31.0876 13.1986 30.2795 13.148C30.267 13.1183 30.2526 13.0895 30.2364 13.0617L28.3501 10.0449C28.1099 9.84782 27.8058 9.74584 27.4954 9.75828C27.185 9.77072 26.89 9.89672 26.6664 10.1124L21.4051 15.3605C21.1894 15.5833 21.0632 15.8777 21.0508 16.1876C21.0383 16.4975 21.1404 16.8011 21.3376 17.0405L24.3639 18.923L24.4501 18.9661C24.5007 19.7724 24.8326 20.5636 25.4457 21.1749L26.2764 22.0036L10.1589 36.5967C9.69198 37.0205 9.61698 37.6711 9.99198 38.0461L11.4714 39.5217C11.8464 39.8949 12.5007 39.8199 12.9245 39.3549L12.9264 39.3511Z" fill="#F8F8F8"/>
</g>
<defs>
<clipPath id="clip0_564_17344">
<rect width="30" height="30" fill="white" transform="translate(9.75586 9.7561)"/>
</clipPath>
</defs>
</svg>
