<svg width="50" height="50" viewBox="0 0 50 50" fill="none" xmlns="http://www.w3.org/2000/svg">
<rect width="49.5122" height="49.5122" rx="24.7561" fill="black"/>
<path d="M13.5059 19.7561H22.2559C22.9975 19.7561 23.7226 19.5362 24.3392 19.1241C24.9559 18.7121 25.4366 18.1264 25.7204 17.4412C26.0042 16.7559 26.0785 16.0019 25.9338 15.2745C25.7891 14.5471 25.432 13.8789 24.9075 13.3544C24.3831 12.83 23.7149 12.4728 22.9874 12.3282C22.26 12.1835 21.506 12.2577 20.8208 12.5415C20.1356 12.8254 19.5499 13.306 19.1378 13.9227C18.7258 14.5394 18.5059 15.2644 18.5059 16.0061" stroke="white" stroke-width="2.5" stroke-linecap="round" stroke-linejoin="round"/>
<path d="M14.7559 29.7561H28.5059C29.2475 29.7561 29.9726 29.976 30.5892 30.3881C31.2059 30.8001 31.6866 31.3858 31.9704 32.071C32.2542 32.7563 32.3285 33.5103 32.1838 34.2377C32.0391 34.9651 31.682 35.6333 31.1575 36.1577C30.6331 36.6822 29.9649 37.0393 29.2374 37.184C28.51 37.3287 27.756 37.2545 27.0708 36.9706C26.3856 36.6868 25.7999 36.2062 25.3878 35.5895C24.9758 34.9728 24.7559 34.2478 24.7559 33.5061" stroke="white" stroke-width="2.5" stroke-linecap="round" stroke-linejoin="round"/>
<path d="M12.2559 24.7561H33.5059C34.2475 24.7561 34.9726 24.5362 35.5892 24.1241C36.2059 23.7121 36.6866 23.1264 36.9704 22.4412C37.2542 21.7559 37.3285 21.0019 37.1838 20.2745C37.0391 19.5471 36.682 18.8789 36.1575 18.3544C35.6331 17.83 34.9649 17.4728 34.2374 17.3282C33.51 17.1835 32.756 17.2577 32.0708 17.5415C31.3856 17.8254 30.7999 18.306 30.3878 18.9227C29.9758 19.5394 29.7559 20.2644 29.7559 21.0061" stroke="white" stroke-width="2.5" stroke-linecap="round" stroke-linejoin="round"/>
</svg>
