<svg width="50" height="50" viewBox="0 0 50 50" fill="none" xmlns="http://www.w3.org/2000/svg">
<rect width="49.5122" height="49.5122" rx="24.7561" fill="black"/>
<path d="M33.5059 18.4061V16.0061L22.2559 27.2561L23.4309 28.5061L33.5059 18.4061ZM15.8559 34.7061L14.8059 33.6561C14.69 33.5405 14.598 33.4031 14.5353 33.2519C14.4726 33.1007 14.4403 32.9386 14.4403 32.7749C14.4403 32.6111 14.4726 32.449 14.5353 32.2978C14.598 32.1466 14.69 32.0092 14.8059 31.8936L18.7059 27.9936L15.3809 24.6436L17.1434 22.8811L18.9184 24.6561L30.0684 13.5061H36.0059V19.4436L24.8559 30.5936L26.6309 32.3686L24.8684 34.1311L21.5309 30.7936L17.6309 34.6936C17.1309 35.1936 16.3434 35.1936 15.8559 34.7061V34.7061Z" fill="white"/>
</svg>
