<svg width="50" height="50" viewBox="0 0 50 50" fill="none" xmlns="http://www.w3.org/2000/svg">
<rect width="49.5122" height="49.5122" rx="24.7561" fill="black"/>
<g clip-path="url(#clip0_574_17291)">
<path d="M19.1559 36.6061C17.0998 35.6377 15.3309 34.1514 14.0226 32.2931C12.7143 30.4348 11.9117 28.2682 11.6934 26.0061H9.81836C10.4559 33.7061 16.8934 39.7561 24.7559 39.7561L25.5809 39.7186L20.8184 34.9561L19.1559 36.6061ZM24.7559 9.7561L23.9309 9.7936L28.6934 14.5561L30.3559 12.8936C34.4434 14.8311 37.3684 18.7936 37.8059 23.4936H39.6809C39.0559 15.8061 32.6184 9.7561 24.7559 9.7561Z" fill="white"/>
<path d="M14.926 27.4228V26.4788L16.478 24.0948C16.5953 23.9188 16.7047 23.7481 16.806 23.5828C16.9127 23.4174 16.998 23.2494 17.062 23.0788C17.1313 22.9081 17.166 22.7294 17.166 22.5428C17.166 22.3561 17.1287 22.2174 17.054 22.1268C16.9793 22.0361 16.878 21.9908 16.75 21.9908C16.606 21.9908 16.494 22.0308 16.414 22.1108C16.334 22.1908 16.278 22.2974 16.246 22.4308C16.2193 22.5641 16.206 22.7134 16.206 22.8788V23.1988H14.91V22.8548C14.91 22.4708 14.9713 22.1294 15.094 21.8308C15.2167 21.5268 15.4113 21.2894 15.678 21.1188C15.9447 20.9428 16.294 20.8548 16.726 20.8548C17.3073 20.8548 17.7447 21.0068 18.038 21.3108C18.3367 21.6094 18.486 22.0281 18.486 22.5668C18.486 22.8281 18.4433 23.0708 18.358 23.2948C18.278 23.5188 18.1687 23.7374 18.03 23.9508C17.8967 24.1588 17.7527 24.3774 17.598 24.6068L16.414 26.3748H18.31V27.4228H14.926ZM19.1074 27.4228V20.9428H20.7474C21.3127 20.9428 21.7527 21.0148 22.0674 21.1588C22.382 21.2974 22.6034 21.5188 22.7314 21.8228C22.8594 22.1214 22.9234 22.5108 22.9234 22.9908V25.3428C22.9234 25.8281 22.8594 26.2254 22.7314 26.5348C22.6034 26.8388 22.382 27.0628 22.0674 27.2068C21.758 27.3508 21.3234 27.4228 20.7634 27.4228H19.1074ZM20.5394 26.4308H20.7634C20.982 26.4308 21.1394 26.3988 21.2354 26.3348C21.3314 26.2708 21.39 26.1748 21.4114 26.0468C21.438 25.9188 21.4514 25.7588 21.4514 25.5668V22.7428C21.4514 22.5508 21.4354 22.3961 21.4034 22.2788C21.3767 22.1614 21.3154 22.0761 21.2194 22.0228C21.1234 21.9694 20.9687 21.9428 20.7554 21.9428H20.5394V26.4308ZM23.5789 27.4228L25.5629 20.9428H26.2669L24.2749 27.4228H23.5789ZM28.6179 27.5428C28.1645 27.5428 27.8072 27.4574 27.5459 27.2868C27.2899 27.1161 27.1059 26.8788 26.9939 26.5748C26.8872 26.2654 26.8339 25.9108 26.8339 25.5108V25.2788H28.1699C28.1699 25.2841 28.1699 25.3134 28.1699 25.3668C28.1699 25.4201 28.1699 25.4681 28.1699 25.5108C28.1699 25.7241 28.1832 25.8974 28.2099 26.0308C28.2365 26.1641 28.2845 26.2628 28.3539 26.3268C28.4232 26.3854 28.5192 26.4148 28.6419 26.4148C28.7645 26.4148 28.8552 26.3828 28.9139 26.3188C28.9779 26.2548 29.0205 26.1588 29.0419 26.0308C29.0632 25.9028 29.0739 25.7428 29.0739 25.5508C29.0739 25.2308 29.0285 24.9881 28.9379 24.8228C28.8525 24.6521 28.6712 24.5641 28.3939 24.5588C28.3885 24.5588 28.3592 24.5588 28.3059 24.5588C28.2525 24.5588 28.1992 24.5588 28.1459 24.5588V23.6388C28.1832 23.6388 28.2205 23.6388 28.2579 23.6388C28.2952 23.6388 28.3299 23.6388 28.3619 23.6388C28.6445 23.6388 28.8339 23.5614 28.9299 23.4068C29.0259 23.2521 29.0739 23.0121 29.0739 22.6868C29.0739 22.4361 29.0392 22.2441 28.9699 22.1108C28.9059 21.9774 28.7832 21.9108 28.6019 21.9108C28.4259 21.9108 28.3085 21.9854 28.2499 22.1348C28.1965 22.2841 28.1699 22.4761 28.1699 22.7108C28.1699 22.7641 28.1699 22.8201 28.1699 22.8788C28.1699 22.9321 28.1699 22.9881 28.1699 23.0468H26.8339V22.6548C26.8339 22.2654 26.9032 21.9374 27.0419 21.6708C27.1859 21.3988 27.3885 21.1934 27.6499 21.0548C27.9165 20.9161 28.2339 20.8468 28.6019 20.8468C28.9752 20.8468 29.2952 20.9134 29.5619 21.0468C29.8285 21.1801 30.0339 21.3774 30.1779 21.6388C30.3219 21.8948 30.3939 22.2148 30.3939 22.5988C30.3939 22.9774 30.3165 23.2948 30.1619 23.5508C30.0072 23.8068 29.8205 23.9641 29.6019 24.0228C29.7512 24.0761 29.8845 24.1614 30.0019 24.2788C30.1245 24.3961 30.2205 24.5561 30.2899 24.7588C30.3592 24.9561 30.3939 25.2094 30.3939 25.5188C30.3939 25.9134 30.3352 26.2628 30.2179 26.5668C30.1059 26.8708 29.9192 27.1108 29.6579 27.2868C29.3965 27.4574 29.0499 27.5428 28.6179 27.5428ZM31.0392 27.4228V20.9428H32.6792C33.2446 20.9428 33.6846 21.0148 33.9992 21.1588C34.3139 21.2974 34.5352 21.5188 34.6632 21.8228C34.7912 22.1214 34.8552 22.5108 34.8552 22.9908V25.3428C34.8552 25.8281 34.7912 26.2254 34.6632 26.5348C34.5352 26.8388 34.3139 27.0628 33.9992 27.2068C33.6899 27.3508 33.2552 27.4228 32.6952 27.4228H31.0392ZM32.4712 26.4308H32.6952C32.9139 26.4308 33.0712 26.3988 33.1672 26.3348C33.2632 26.2708 33.3219 26.1748 33.3432 26.0468C33.3699 25.9188 33.3832 25.7588 33.3832 25.5668V22.7428C33.3832 22.5508 33.3672 22.3961 33.3352 22.2788C33.3086 22.1614 33.2472 22.0761 33.1512 22.0228C33.0552 21.9694 32.9006 21.9428 32.6872 21.9428H32.4712V26.4308Z" fill="white"/>
</g>
<defs>
<clipPath id="clip0_574_17291">
<rect width="30" height="30" fill="white" transform="translate(9.75586 9.7561)"/>
</clipPath>
</defs>
</svg>
