<svg width="50" height="50" viewBox="0 0 50 50" fill="none" xmlns="http://www.w3.org/2000/svg">
<rect width="49.5122" height="49.5122" rx="24.7561" fill="black"/>
<path d="M31.9922 19.5706C31.9922 15.5569 28.7403 12.3049 24.7266 12.3049C20.713 12.3049 17.461 15.5569 17.461 19.5706C17.461 21.9963 18.6505 24.1467 20.4786 25.4651C20.4669 25.4709 20.4581 25.4739 20.4522 25.4768C19.1426 26.0305 17.9678 26.8245 16.9571 27.8381C15.9463 28.8489 15.1553 30.0266 14.6016 31.3391C14.0596 32.6223 13.7696 33.9846 13.7403 35.385C13.7374 35.5168 13.8428 35.6252 13.9747 35.6252H15.7296C15.8555 35.6252 15.961 35.5227 15.9639 35.3967C16.0225 33.135 16.9278 31.0168 18.5303 29.4114C20.1856 27.7502 22.3829 26.8362 24.7266 26.8362C28.7403 26.8362 31.9922 23.5842 31.9922 19.5706Z" fill="white"/>
<path d="M24.7266 24.6096C21.9434 24.6096 19.6875 22.3538 19.6875 19.5706C19.6875 16.7874 21.9434 14.5315 24.7266 14.5315C27.5098 14.5315 29.7656 16.7874 29.7656 19.5706C29.7656 22.3538 27.5098 24.6096 24.7266 24.6096ZM27.8027 31.0842H35.5371C35.666 31.0842 35.7715 30.9788 35.7715 30.8499V29.2092C35.7715 29.0803 35.666 28.9749 35.5371 28.9749H30.3662L31.749 27.2141C31.7812 27.1731 31.7988 27.1204 31.7988 27.0706C31.7988 26.9417 31.6934 26.8362 31.5645 26.8362H29.4375C29.2939 26.8362 29.1592 26.9036 29.0684 27.0149L27.0615 29.5667C26.9326 29.7307 26.8623 29.9358 26.8623 30.1467C26.8652 30.6653 27.2842 31.0842 27.8027 31.0842V31.0842ZM34.834 32.9592H27.0996C26.9707 32.9592 26.8652 33.0647 26.8652 33.1936V34.8342C26.8652 34.9631 26.9707 35.0686 27.0996 35.0686H32.2705L30.8877 36.8293C30.8555 36.8704 30.8379 36.9231 30.8379 36.9729C30.8379 37.1018 30.9434 37.2073 31.0723 37.2073H33.1992C33.3428 37.2073 33.4775 37.1399 33.5684 37.0286L35.5752 34.4768C35.7041 34.3127 35.7744 34.1077 35.7744 33.8967C35.7715 33.3782 35.3525 32.9592 34.834 32.9592V32.9592Z" fill="white"/>
</svg>
