<svg width="41" height="41" viewBox="0 0 41 41" fill="none" xmlns="http://www.w3.org/2000/svg">
<rect width="41" height="41" rx="20.5" fill="black"/>
<path d="M17.375 20.5C17.375 22.2292 18.7708 23.625 20.5 23.625C22.2292 23.625 23.625 22.2292 23.625 20.5C23.625 18.7708 22.2292 17.375 20.5 17.375C18.7708 17.375 17.375 18.7708 17.375 20.5Z" fill="white"/>
<path d="M16.3333 18.4166V16.3333H13.302C14.7395 13.8437 17.427 12.1666 20.4999 12.1666C24.3749 12.1666 27.6353 14.8333 28.5624 18.4166H30.7083C29.7395 13.6666 25.5416 10.0833 20.4999 10.0833C17.0937 10.0833 14.0624 11.7291 12.1666 14.2603V12.1666H10.0833V18.4166H16.3333ZM24.6666 22.5833V24.6666H27.6978C26.2603 27.1562 23.5728 28.8333 20.4999 28.8333C16.6249 28.8333 13.3645 26.1666 12.4374 22.5833H10.2916C11.2603 27.3333 15.4583 30.9166 20.4999 30.9166C23.9062 30.9166 26.9374 29.2708 28.8333 26.7395V28.8333H30.9166V22.5833H24.6666Z" fill="white"/>
</svg>
