<svg width="50" height="50" viewBox="0 0 50 50" fill="none" xmlns="http://www.w3.org/2000/svg">
<rect width="49.5122" height="49.5122" rx="24.7561" fill="black"/>
<path d="M15.0809 32.6561L16.8684 30.8686C15.7638 29.462 15.0637 27.7809 14.8434 26.0061H12.3184C12.5684 28.5186 13.5684 30.8061 15.0809 32.6561ZM18.6309 16.8686C20.0433 15.766 21.7279 15.0662 23.5059 14.8436V12.3186C20.9934 12.5686 18.7059 13.5686 16.8559 15.0811L18.6309 16.8686ZM12.3184 23.5061H14.8434C15.0684 21.6811 15.7934 20.0186 16.8684 18.6311L15.0809 16.8561C13.5244 18.7518 12.5632 21.0655 12.3184 23.5061V23.5061ZM26.0684 12.3186V14.8436C30.9684 15.4936 34.7559 19.6936 34.7559 24.7561C34.7559 29.8186 30.9684 34.0186 26.0684 34.6686V37.1936C32.3559 36.5311 37.2559 31.2061 37.2559 24.7561C37.2559 18.3061 32.3559 12.9811 26.0684 12.3186ZM29.7559 24.7561L26.0684 21.9936L22.2559 19.1311V30.3811L26.0684 27.5186L29.7559 24.7561ZM16.8559 34.4311C18.7528 35.9855 21.0659 36.9464 23.5059 37.1936V34.6686C21.7279 34.446 20.0433 33.7462 18.6309 32.6436L16.8559 34.4311Z" fill="white"/>
</svg>
